M48
;DRILL file {Pcbnew (2013-mar-13)-testing} date Wed 23 Oct 2013 01:58:48 EST
;FORMAT={-:-/ absolute / metric / decimal}
FMAT,2
METRIC,TZ
T1C0.635
T2C1.016
T3C2.000
T4C3.000
%
G90
G05
M71
T1
X3.07Y31.802
X7.815Y28.7
X7.841Y25.027
X10.717Y38.155
X11.92Y38.218
X13.776Y18.436
X16.161Y15.55
X16.544Y23.446
X16.617Y30.981
X17.59Y34.728
X19.551Y29.866
X20.092Y38.508
X20.629Y36.744
X20.81Y19.656
X26.47Y32.13
X27.135Y35.911
T2
X13.89Y42.95
X16.43Y42.95
T3
X2.21Y27.086
X28.11Y27.086
T4
X2.66Y41.23
X2.66Y15.23
X27.66Y41.23
X27.66Y15.23
T0
M30
