G04 (created by PCBNEW (2013-mar-13)-testing) date Sun 15 Sep 2013 23:42:05 EST*
%MOIN*%
G04 Gerber Fmt 3.4, Leading zero omitted, Abs format*
%FSLAX34Y34*%
G01*
G70*
G90*
G04 APERTURE LIST*
%ADD10C,0.005000*%
%ADD11C,0.003937*%
%ADD12C,0.007874*%
%ADD13C,0.011811*%
G04 APERTURE END LIST*
G54D10*
G54D11*
X8188Y4744D02*
X8188Y102D01*
X11968Y5098D02*
X8543Y5098D01*
X8188Y4744D02*
X8543Y5098D01*
X11968Y16161D02*
X11968Y5098D01*
X0Y16161D02*
X11968Y16161D01*
X0Y5098D02*
X0Y16161D01*
X3350Y5098D02*
X0Y5098D01*
X3704Y4744D02*
X3350Y5098D01*
X3704Y102D02*
X3704Y4744D01*
X3704Y102D02*
X8188Y102D01*
G54D12*
X602Y10543D02*
X852Y10293D01*
X852Y10543D02*
X602Y10293D01*
X742Y7054D02*
X992Y6804D01*
X992Y7054D02*
X742Y6804D01*
X1067Y11636D02*
X1317Y11386D01*
X1317Y11636D02*
X1067Y11386D01*
X1304Y6085D02*
X1554Y5835D01*
X1554Y6085D02*
X1304Y5835D01*
X1559Y8560D02*
X1809Y8310D01*
X1809Y8560D02*
X1559Y8310D01*
X2489Y10977D02*
X2739Y10727D01*
X2739Y10977D02*
X2489Y10727D01*
X3088Y15401D02*
X3338Y15151D01*
X3338Y15401D02*
X3088Y15151D01*
X3307Y7070D02*
X3557Y6820D01*
X3557Y7070D02*
X3307Y6820D01*
X4075Y7541D02*
X4325Y7291D01*
X4325Y7541D02*
X4075Y7291D01*
X4327Y9125D02*
X4577Y8875D01*
X4577Y9125D02*
X4327Y8875D01*
X4554Y15598D02*
X4804Y15348D01*
X4804Y15598D02*
X4554Y15348D01*
X5297Y7090D02*
X5547Y6840D01*
X5547Y7090D02*
X5297Y6840D01*
X5301Y6440D02*
X5551Y6190D01*
X5551Y6440D02*
X5301Y6190D01*
X5306Y5989D02*
X5556Y5739D01*
X5556Y5989D02*
X5306Y5739D01*
X5480Y14024D02*
X5730Y13774D01*
X5730Y14024D02*
X5480Y13774D01*
X6109Y7113D02*
X6359Y6863D01*
X6359Y7113D02*
X6109Y6863D01*
X6152Y5389D02*
X6402Y5139D01*
X6402Y5389D02*
X6152Y5139D01*
X6320Y7863D02*
X6570Y7613D01*
X6570Y7863D02*
X6320Y7613D01*
X6467Y10461D02*
X6717Y10211D01*
X6717Y10461D02*
X6467Y10211D01*
X6987Y12137D02*
X7237Y11887D01*
X7237Y12137D02*
X6987Y11887D01*
X7634Y13060D02*
X7884Y12810D01*
X7884Y13060D02*
X7634Y12810D01*
X7827Y8146D02*
X8077Y7896D01*
X8077Y8146D02*
X7827Y7896D01*
X7827Y7596D02*
X8077Y7346D01*
X8077Y7596D02*
X7827Y7346D01*
X9752Y12216D02*
X10002Y11966D01*
X10002Y12216D02*
X9752Y11966D01*
X10092Y11378D02*
X10342Y11128D01*
X10342Y11378D02*
X10092Y11128D01*
X5645Y15448D02*
G75*
G03X5645Y15448I-200J0D01*
G74*
G01*
X6645Y15448D02*
G75*
G03X6645Y15448I-200J0D01*
G74*
G01*
X846Y9393D02*
X846Y8606D01*
X453Y9000D02*
X1240Y9000D01*
X11043Y9393D02*
X11043Y8606D01*
X10650Y9000D02*
X11437Y9000D01*
G54D13*
X1048Y-1750D02*
X1048Y-569D01*
X1330Y-569D01*
X1498Y-625D01*
X1611Y-738D01*
X1667Y-850D01*
X1723Y-1075D01*
X1723Y-1244D01*
X1667Y-1469D01*
X1611Y-1582D01*
X1498Y-1694D01*
X1330Y-1750D01*
X1048Y-1750D01*
X2230Y-1750D02*
X2230Y-963D01*
X2230Y-1188D02*
X2286Y-1075D01*
X2342Y-1019D01*
X2455Y-963D01*
X2567Y-963D01*
X2961Y-1750D02*
X2961Y-963D01*
X2961Y-569D02*
X2904Y-625D01*
X2961Y-682D01*
X3017Y-625D01*
X2961Y-569D01*
X2961Y-682D01*
X3692Y-1750D02*
X3579Y-1694D01*
X3523Y-1582D01*
X3523Y-569D01*
X4311Y-1750D02*
X4198Y-1694D01*
X4142Y-1582D01*
X4142Y-569D01*
X5660Y-1750D02*
X5660Y-569D01*
X6054Y-1413D01*
X6448Y-569D01*
X6448Y-1750D01*
X7516Y-1750D02*
X7516Y-1132D01*
X7460Y-1019D01*
X7348Y-963D01*
X7123Y-963D01*
X7010Y-1019D01*
X7516Y-1694D02*
X7404Y-1750D01*
X7123Y-1750D01*
X7010Y-1694D01*
X6954Y-1582D01*
X6954Y-1469D01*
X7010Y-1357D01*
X7123Y-1300D01*
X7404Y-1300D01*
X7516Y-1244D01*
X8079Y-963D02*
X8079Y-2144D01*
X8079Y-1019D02*
X8191Y-963D01*
X8416Y-963D01*
X8529Y-1019D01*
X8585Y-1075D01*
X8641Y-1188D01*
X8641Y-1525D01*
X8585Y-1638D01*
X8529Y-1694D01*
X8416Y-1750D01*
X8191Y-1750D01*
X8079Y-1694D01*
X9147Y-1638D02*
X9204Y-1694D01*
X9147Y-1750D01*
X9091Y-1694D01*
X9147Y-1638D01*
X9147Y-1750D01*
X9147Y-1019D02*
X9204Y-1075D01*
X9147Y-1132D01*
X9091Y-1075D01*
X9147Y-1019D01*
X9147Y-1132D01*
X-269Y-3571D02*
X-19Y-3821D01*
X-19Y-3571D02*
X-269Y-3821D01*
X1273Y-3050D02*
X1386Y-3050D01*
X1498Y-3106D01*
X1555Y-3162D01*
X1611Y-3275D01*
X1667Y-3500D01*
X1667Y-3781D01*
X1611Y-4006D01*
X1555Y-4118D01*
X1498Y-4174D01*
X1386Y-4231D01*
X1273Y-4231D01*
X1161Y-4174D01*
X1105Y-4118D01*
X1048Y-4006D01*
X992Y-3781D01*
X992Y-3500D01*
X1048Y-3275D01*
X1105Y-3162D01*
X1161Y-3106D01*
X1273Y-3050D01*
X2173Y-4118D02*
X2230Y-4174D01*
X2173Y-4231D01*
X2117Y-4174D01*
X2173Y-4118D01*
X2173Y-4231D01*
X3242Y-3050D02*
X3017Y-3050D01*
X2904Y-3106D01*
X2848Y-3162D01*
X2736Y-3331D01*
X2679Y-3556D01*
X2679Y-4006D01*
X2736Y-4118D01*
X2792Y-4174D01*
X2904Y-4231D01*
X3129Y-4231D01*
X3242Y-4174D01*
X3298Y-4118D01*
X3354Y-4006D01*
X3354Y-3724D01*
X3298Y-3612D01*
X3242Y-3556D01*
X3129Y-3500D01*
X2904Y-3500D01*
X2792Y-3556D01*
X2736Y-3612D01*
X2679Y-3724D01*
X4367Y-3443D02*
X4367Y-4231D01*
X4086Y-2993D02*
X3804Y-3837D01*
X4535Y-3837D01*
X4985Y-4231D02*
X4985Y-3443D01*
X4985Y-3556D02*
X5042Y-3500D01*
X5154Y-3443D01*
X5323Y-3443D01*
X5435Y-3500D01*
X5492Y-3612D01*
X5492Y-4231D01*
X5492Y-3612D02*
X5548Y-3500D01*
X5660Y-3443D01*
X5829Y-3443D01*
X5942Y-3500D01*
X5998Y-3612D01*
X5998Y-4231D01*
X6560Y-4231D02*
X6560Y-3443D01*
X6560Y-3556D02*
X6616Y-3500D01*
X6729Y-3443D01*
X6898Y-3443D01*
X7010Y-3500D01*
X7066Y-3612D01*
X7066Y-4231D01*
X7066Y-3612D02*
X7123Y-3500D01*
X7235Y-3443D01*
X7404Y-3443D01*
X7516Y-3500D01*
X7573Y-3612D01*
X7573Y-4231D01*
X9879Y-2993D02*
X8866Y-4512D01*
X11397Y-3050D02*
X11510Y-3050D01*
X11622Y-3106D01*
X11678Y-3162D01*
X11735Y-3275D01*
X11791Y-3500D01*
X11791Y-3781D01*
X11735Y-4006D01*
X11678Y-4118D01*
X11622Y-4174D01*
X11510Y-4231D01*
X11397Y-4231D01*
X11285Y-4174D01*
X11228Y-4118D01*
X11172Y-4006D01*
X11116Y-3781D01*
X11116Y-3500D01*
X11172Y-3275D01*
X11228Y-3162D01*
X11285Y-3106D01*
X11397Y-3050D01*
X12297Y-4118D02*
X12353Y-4174D01*
X12297Y-4231D01*
X12241Y-4174D01*
X12297Y-4118D01*
X12297Y-4231D01*
X13084Y-3050D02*
X13197Y-3050D01*
X13309Y-3106D01*
X13366Y-3162D01*
X13422Y-3275D01*
X13478Y-3500D01*
X13478Y-3781D01*
X13422Y-4006D01*
X13366Y-4118D01*
X13309Y-4174D01*
X13197Y-4231D01*
X13084Y-4231D01*
X12972Y-4174D01*
X12916Y-4118D01*
X12859Y-4006D01*
X12803Y-3781D01*
X12803Y-3500D01*
X12859Y-3275D01*
X12916Y-3162D01*
X12972Y-3106D01*
X13084Y-3050D01*
X13928Y-3162D02*
X13984Y-3106D01*
X14097Y-3050D01*
X14378Y-3050D01*
X14491Y-3106D01*
X14547Y-3162D01*
X14603Y-3275D01*
X14603Y-3387D01*
X14547Y-3556D01*
X13872Y-4231D01*
X14603Y-4231D01*
X15672Y-3050D02*
X15109Y-3050D01*
X15053Y-3612D01*
X15109Y-3556D01*
X15222Y-3500D01*
X15503Y-3500D01*
X15615Y-3556D01*
X15672Y-3612D01*
X15728Y-3724D01*
X15728Y-4006D01*
X15672Y-4118D01*
X15615Y-4174D01*
X15503Y-4231D01*
X15222Y-4231D01*
X15109Y-4174D01*
X15053Y-4118D01*
X16178Y-3050D02*
X16178Y-3275D01*
X16628Y-3050D02*
X16628Y-3275D01*
X18371Y-4681D02*
X18315Y-4624D01*
X18203Y-4456D01*
X18146Y-4343D01*
X18090Y-4174D01*
X18034Y-3893D01*
X18034Y-3668D01*
X18090Y-3387D01*
X18146Y-3218D01*
X18203Y-3106D01*
X18315Y-2937D01*
X18371Y-2881D01*
X18765Y-3162D02*
X18821Y-3106D01*
X18934Y-3050D01*
X19215Y-3050D01*
X19327Y-3106D01*
X19384Y-3162D01*
X19440Y-3275D01*
X19440Y-3387D01*
X19384Y-3556D01*
X18709Y-4231D01*
X19440Y-4231D01*
X20508Y-3050D02*
X19946Y-3050D01*
X19890Y-3612D01*
X19946Y-3556D01*
X20059Y-3500D01*
X20340Y-3500D01*
X20452Y-3556D01*
X20508Y-3612D01*
X20565Y-3724D01*
X20565Y-4006D01*
X20508Y-4118D01*
X20452Y-4174D01*
X20340Y-4231D01*
X20059Y-4231D01*
X19946Y-4174D01*
X19890Y-4118D01*
X21971Y-4231D02*
X21971Y-3050D01*
X22477Y-4231D02*
X22477Y-3612D01*
X22421Y-3500D01*
X22308Y-3443D01*
X22140Y-3443D01*
X22027Y-3500D01*
X21971Y-3556D01*
X23208Y-4231D02*
X23096Y-4174D01*
X23039Y-4118D01*
X22983Y-4006D01*
X22983Y-3668D01*
X23039Y-3556D01*
X23096Y-3500D01*
X23208Y-3443D01*
X23377Y-3443D01*
X23489Y-3500D01*
X23546Y-3556D01*
X23602Y-3668D01*
X23602Y-4006D01*
X23546Y-4118D01*
X23489Y-4174D01*
X23377Y-4231D01*
X23208Y-4231D01*
X24277Y-4231D02*
X24164Y-4174D01*
X24108Y-4062D01*
X24108Y-3050D01*
X25177Y-4174D02*
X25064Y-4231D01*
X24839Y-4231D01*
X24727Y-4174D01*
X24670Y-4062D01*
X24670Y-3612D01*
X24727Y-3500D01*
X24839Y-3443D01*
X25064Y-3443D01*
X25177Y-3500D01*
X25233Y-3612D01*
X25233Y-3724D01*
X24670Y-3837D01*
X25683Y-4174D02*
X25795Y-4231D01*
X26020Y-4231D01*
X26133Y-4174D01*
X26189Y-4062D01*
X26189Y-4006D01*
X26133Y-3893D01*
X26020Y-3837D01*
X25852Y-3837D01*
X25739Y-3781D01*
X25683Y-3668D01*
X25683Y-3612D01*
X25739Y-3500D01*
X25852Y-3443D01*
X26020Y-3443D01*
X26133Y-3500D01*
X26583Y-4681D02*
X26639Y-4624D01*
X26751Y-4456D01*
X26808Y-4343D01*
X26864Y-4174D01*
X26920Y-3893D01*
X26920Y-3668D01*
X26864Y-3387D01*
X26808Y-3218D01*
X26751Y-3106D01*
X26639Y-2937D01*
X26583Y-2881D01*
G54D12*
X-19Y-5255D02*
G75*
G03X-19Y-5255I-200J0D01*
G74*
G01*
G54D13*
X1667Y-5790D02*
X992Y-5790D01*
X1330Y-5790D02*
X1330Y-4609D01*
X1217Y-4777D01*
X1105Y-4890D01*
X992Y-4946D01*
X2173Y-5677D02*
X2230Y-5733D01*
X2173Y-5790D01*
X2117Y-5733D01*
X2173Y-5677D01*
X2173Y-5790D01*
X2961Y-4609D02*
X3073Y-4609D01*
X3186Y-4665D01*
X3242Y-4721D01*
X3298Y-4834D01*
X3354Y-5059D01*
X3354Y-5340D01*
X3298Y-5565D01*
X3242Y-5677D01*
X3186Y-5733D01*
X3073Y-5790D01*
X2961Y-5790D01*
X2848Y-5733D01*
X2792Y-5677D01*
X2736Y-5565D01*
X2679Y-5340D01*
X2679Y-5059D01*
X2736Y-4834D01*
X2792Y-4721D01*
X2848Y-4665D01*
X2961Y-4609D01*
X3804Y-4721D02*
X3861Y-4665D01*
X3973Y-4609D01*
X4254Y-4609D01*
X4367Y-4665D01*
X4423Y-4721D01*
X4479Y-4834D01*
X4479Y-4946D01*
X4423Y-5115D01*
X3748Y-5790D01*
X4479Y-5790D01*
X4985Y-5790D02*
X4985Y-5002D01*
X4985Y-5115D02*
X5042Y-5059D01*
X5154Y-5002D01*
X5323Y-5002D01*
X5435Y-5059D01*
X5492Y-5171D01*
X5492Y-5790D01*
X5492Y-5171D02*
X5548Y-5059D01*
X5660Y-5002D01*
X5829Y-5002D01*
X5942Y-5059D01*
X5998Y-5171D01*
X5998Y-5790D01*
X6560Y-5790D02*
X6560Y-5002D01*
X6560Y-5115D02*
X6616Y-5059D01*
X6729Y-5002D01*
X6898Y-5002D01*
X7010Y-5059D01*
X7066Y-5171D01*
X7066Y-5790D01*
X7066Y-5171D02*
X7123Y-5059D01*
X7235Y-5002D01*
X7404Y-5002D01*
X7516Y-5059D01*
X7573Y-5171D01*
X7573Y-5790D01*
X9879Y-4552D02*
X8866Y-6071D01*
X11397Y-4609D02*
X11510Y-4609D01*
X11622Y-4665D01*
X11678Y-4721D01*
X11735Y-4834D01*
X11791Y-5059D01*
X11791Y-5340D01*
X11735Y-5565D01*
X11678Y-5677D01*
X11622Y-5733D01*
X11510Y-5790D01*
X11397Y-5790D01*
X11285Y-5733D01*
X11228Y-5677D01*
X11172Y-5565D01*
X11116Y-5340D01*
X11116Y-5059D01*
X11172Y-4834D01*
X11228Y-4721D01*
X11285Y-4665D01*
X11397Y-4609D01*
X12297Y-5677D02*
X12353Y-5733D01*
X12297Y-5790D01*
X12241Y-5733D01*
X12297Y-5677D01*
X12297Y-5790D01*
X13084Y-4609D02*
X13197Y-4609D01*
X13309Y-4665D01*
X13366Y-4721D01*
X13422Y-4834D01*
X13478Y-5059D01*
X13478Y-5340D01*
X13422Y-5565D01*
X13366Y-5677D01*
X13309Y-5733D01*
X13197Y-5790D01*
X13084Y-5790D01*
X12972Y-5733D01*
X12916Y-5677D01*
X12859Y-5565D01*
X12803Y-5340D01*
X12803Y-5059D01*
X12859Y-4834D01*
X12916Y-4721D01*
X12972Y-4665D01*
X13084Y-4609D01*
X14491Y-5002D02*
X14491Y-5790D01*
X14209Y-4552D02*
X13928Y-5396D01*
X14659Y-5396D01*
X15334Y-4609D02*
X15447Y-4609D01*
X15559Y-4665D01*
X15615Y-4721D01*
X15672Y-4834D01*
X15728Y-5059D01*
X15728Y-5340D01*
X15672Y-5565D01*
X15615Y-5677D01*
X15559Y-5733D01*
X15447Y-5790D01*
X15334Y-5790D01*
X15222Y-5733D01*
X15165Y-5677D01*
X15109Y-5565D01*
X15053Y-5340D01*
X15053Y-5059D01*
X15109Y-4834D01*
X15165Y-4721D01*
X15222Y-4665D01*
X15334Y-4609D01*
X16178Y-4609D02*
X16178Y-4834D01*
X16628Y-4609D02*
X16628Y-4834D01*
X18371Y-6240D02*
X18315Y-6183D01*
X18203Y-6015D01*
X18146Y-5902D01*
X18090Y-5733D01*
X18034Y-5452D01*
X18034Y-5227D01*
X18090Y-4946D01*
X18146Y-4777D01*
X18203Y-4665D01*
X18315Y-4496D01*
X18371Y-4440D01*
X18765Y-4721D02*
X18821Y-4665D01*
X18934Y-4609D01*
X19215Y-4609D01*
X19327Y-4665D01*
X19384Y-4721D01*
X19440Y-4834D01*
X19440Y-4946D01*
X19384Y-5115D01*
X18709Y-5790D01*
X19440Y-5790D01*
X20846Y-5790D02*
X20846Y-4609D01*
X21352Y-5790D02*
X21352Y-5171D01*
X21296Y-5059D01*
X21183Y-5002D01*
X21015Y-5002D01*
X20902Y-5059D01*
X20846Y-5115D01*
X22083Y-5790D02*
X21971Y-5733D01*
X21915Y-5677D01*
X21858Y-5565D01*
X21858Y-5227D01*
X21915Y-5115D01*
X21971Y-5059D01*
X22083Y-5002D01*
X22252Y-5002D01*
X22365Y-5059D01*
X22421Y-5115D01*
X22477Y-5227D01*
X22477Y-5565D01*
X22421Y-5677D01*
X22365Y-5733D01*
X22252Y-5790D01*
X22083Y-5790D01*
X23152Y-5790D02*
X23039Y-5733D01*
X22983Y-5621D01*
X22983Y-4609D01*
X24052Y-5733D02*
X23939Y-5790D01*
X23714Y-5790D01*
X23602Y-5733D01*
X23546Y-5621D01*
X23546Y-5171D01*
X23602Y-5059D01*
X23714Y-5002D01*
X23939Y-5002D01*
X24052Y-5059D01*
X24108Y-5171D01*
X24108Y-5284D01*
X23546Y-5396D01*
X24558Y-5733D02*
X24670Y-5790D01*
X24895Y-5790D01*
X25008Y-5733D01*
X25064Y-5621D01*
X25064Y-5565D01*
X25008Y-5452D01*
X24895Y-5396D01*
X24727Y-5396D01*
X24614Y-5340D01*
X24558Y-5227D01*
X24558Y-5171D01*
X24614Y-5059D01*
X24727Y-5002D01*
X24895Y-5002D01*
X25008Y-5059D01*
X25458Y-6240D02*
X25514Y-6183D01*
X25627Y-6015D01*
X25683Y-5902D01*
X25739Y-5733D01*
X25795Y-5452D01*
X25795Y-5227D01*
X25739Y-4946D01*
X25683Y-4777D01*
X25627Y-4665D01*
X25514Y-4496D01*
X25458Y-4440D01*
X-413Y-6421D02*
X-413Y-7208D01*
X-807Y-6814D02*
X-19Y-6814D01*
X992Y-6280D02*
X1048Y-6224D01*
X1161Y-6168D01*
X1442Y-6168D01*
X1555Y-6224D01*
X1611Y-6280D01*
X1667Y-6393D01*
X1667Y-6505D01*
X1611Y-6674D01*
X936Y-7349D01*
X1667Y-7349D01*
X2173Y-7236D02*
X2230Y-7293D01*
X2173Y-7349D01*
X2117Y-7293D01*
X2173Y-7236D01*
X2173Y-7349D01*
X2961Y-6168D02*
X3073Y-6168D01*
X3186Y-6224D01*
X3242Y-6280D01*
X3298Y-6393D01*
X3354Y-6618D01*
X3354Y-6899D01*
X3298Y-7124D01*
X3242Y-7236D01*
X3186Y-7293D01*
X3073Y-7349D01*
X2961Y-7349D01*
X2848Y-7293D01*
X2792Y-7236D01*
X2736Y-7124D01*
X2679Y-6899D01*
X2679Y-6618D01*
X2736Y-6393D01*
X2792Y-6280D01*
X2848Y-6224D01*
X2961Y-6168D01*
X4086Y-6168D02*
X4198Y-6168D01*
X4311Y-6224D01*
X4367Y-6280D01*
X4423Y-6393D01*
X4479Y-6618D01*
X4479Y-6899D01*
X4423Y-7124D01*
X4367Y-7236D01*
X4311Y-7293D01*
X4198Y-7349D01*
X4086Y-7349D01*
X3973Y-7293D01*
X3917Y-7236D01*
X3861Y-7124D01*
X3804Y-6899D01*
X3804Y-6618D01*
X3861Y-6393D01*
X3917Y-6280D01*
X3973Y-6224D01*
X4086Y-6168D01*
X4985Y-7349D02*
X4985Y-6561D01*
X4985Y-6674D02*
X5042Y-6618D01*
X5154Y-6561D01*
X5323Y-6561D01*
X5435Y-6618D01*
X5492Y-6730D01*
X5492Y-7349D01*
X5492Y-6730D02*
X5548Y-6618D01*
X5660Y-6561D01*
X5829Y-6561D01*
X5942Y-6618D01*
X5998Y-6730D01*
X5998Y-7349D01*
X6560Y-7349D02*
X6560Y-6561D01*
X6560Y-6674D02*
X6616Y-6618D01*
X6729Y-6561D01*
X6898Y-6561D01*
X7010Y-6618D01*
X7066Y-6730D01*
X7066Y-7349D01*
X7066Y-6730D02*
X7123Y-6618D01*
X7235Y-6561D01*
X7404Y-6561D01*
X7516Y-6618D01*
X7573Y-6730D01*
X7573Y-7349D01*
X9879Y-6111D02*
X8866Y-7630D01*
X11397Y-6168D02*
X11510Y-6168D01*
X11622Y-6224D01*
X11678Y-6280D01*
X11735Y-6393D01*
X11791Y-6618D01*
X11791Y-6899D01*
X11735Y-7124D01*
X11678Y-7236D01*
X11622Y-7293D01*
X11510Y-7349D01*
X11397Y-7349D01*
X11285Y-7293D01*
X11228Y-7236D01*
X11172Y-7124D01*
X11116Y-6899D01*
X11116Y-6618D01*
X11172Y-6393D01*
X11228Y-6280D01*
X11285Y-6224D01*
X11397Y-6168D01*
X12297Y-7236D02*
X12353Y-7293D01*
X12297Y-7349D01*
X12241Y-7293D01*
X12297Y-7236D01*
X12297Y-7349D01*
X13084Y-6168D02*
X13197Y-6168D01*
X13309Y-6224D01*
X13366Y-6280D01*
X13422Y-6393D01*
X13478Y-6618D01*
X13478Y-6899D01*
X13422Y-7124D01*
X13366Y-7236D01*
X13309Y-7293D01*
X13197Y-7349D01*
X13084Y-7349D01*
X12972Y-7293D01*
X12916Y-7236D01*
X12859Y-7124D01*
X12803Y-6899D01*
X12803Y-6618D01*
X12859Y-6393D01*
X12916Y-6280D01*
X12972Y-6224D01*
X13084Y-6168D01*
X13872Y-6168D02*
X14659Y-6168D01*
X14153Y-7349D01*
X15165Y-7349D02*
X15390Y-7349D01*
X15503Y-7293D01*
X15559Y-7236D01*
X15672Y-7068D01*
X15728Y-6843D01*
X15728Y-6393D01*
X15672Y-6280D01*
X15615Y-6224D01*
X15503Y-6168D01*
X15278Y-6168D01*
X15165Y-6224D01*
X15109Y-6280D01*
X15053Y-6393D01*
X15053Y-6674D01*
X15109Y-6786D01*
X15165Y-6843D01*
X15278Y-6899D01*
X15503Y-6899D01*
X15615Y-6843D01*
X15672Y-6786D01*
X15728Y-6674D01*
X16178Y-6168D02*
X16178Y-6393D01*
X16628Y-6168D02*
X16628Y-6393D01*
X18371Y-7799D02*
X18315Y-7742D01*
X18203Y-7574D01*
X18146Y-7461D01*
X18090Y-7293D01*
X18034Y-7011D01*
X18034Y-6786D01*
X18090Y-6505D01*
X18146Y-6336D01*
X18203Y-6224D01*
X18315Y-6055D01*
X18371Y-5999D01*
X18765Y-6280D02*
X18821Y-6224D01*
X18934Y-6168D01*
X19215Y-6168D01*
X19327Y-6224D01*
X19384Y-6280D01*
X19440Y-6393D01*
X19440Y-6505D01*
X19384Y-6674D01*
X18709Y-7349D01*
X19440Y-7349D01*
X20846Y-7349D02*
X20846Y-6168D01*
X21352Y-7349D02*
X21352Y-6730D01*
X21296Y-6618D01*
X21183Y-6561D01*
X21015Y-6561D01*
X20902Y-6618D01*
X20846Y-6674D01*
X22083Y-7349D02*
X21971Y-7293D01*
X21915Y-7236D01*
X21858Y-7124D01*
X21858Y-6786D01*
X21915Y-6674D01*
X21971Y-6618D01*
X22083Y-6561D01*
X22252Y-6561D01*
X22365Y-6618D01*
X22421Y-6674D01*
X22477Y-6786D01*
X22477Y-7124D01*
X22421Y-7236D01*
X22365Y-7293D01*
X22252Y-7349D01*
X22083Y-7349D01*
X23152Y-7349D02*
X23039Y-7293D01*
X22983Y-7180D01*
X22983Y-6168D01*
X24052Y-7293D02*
X23939Y-7349D01*
X23714Y-7349D01*
X23602Y-7293D01*
X23546Y-7180D01*
X23546Y-6730D01*
X23602Y-6618D01*
X23714Y-6561D01*
X23939Y-6561D01*
X24052Y-6618D01*
X24108Y-6730D01*
X24108Y-6843D01*
X23546Y-6955D01*
X24558Y-7293D02*
X24670Y-7349D01*
X24895Y-7349D01*
X25008Y-7293D01*
X25064Y-7180D01*
X25064Y-7124D01*
X25008Y-7011D01*
X24895Y-6955D01*
X24727Y-6955D01*
X24614Y-6899D01*
X24558Y-6786D01*
X24558Y-6730D01*
X24614Y-6618D01*
X24727Y-6561D01*
X24895Y-6561D01*
X25008Y-6618D01*
X25458Y-7799D02*
X25514Y-7742D01*
X25627Y-7574D01*
X25683Y-7461D01*
X25739Y-7293D01*
X25795Y-7011D01*
X25795Y-6786D01*
X25739Y-6505D01*
X25683Y-6336D01*
X25627Y-6224D01*
X25514Y-6055D01*
X25458Y-5999D01*
M02*
