G04 (created by PCBNEW (2013-mar-13)-testing) date Tue 15 Oct 2013 01:29:33 EST*
%MOIN*%
G04 Gerber Fmt 3.4, Leading zero omitted, Abs format*
%FSLAX34Y34*%
G01*
G70*
G90*
G04 APERTURE LIST*
%ADD10C,0.005906*%
%ADD11R,0.060000X0.060000*%
%ADD12C,0.060000*%
%ADD13R,0.196850X0.196850*%
%ADD14C,0.100000*%
%ADD15C,0.118110*%
%ADD16C,0.035000*%
%ADD17C,0.010000*%
G04 APERTURE END LIST*
G54D10*
G54D11*
X6468Y16909D03*
G54D12*
X5468Y16909D03*
G54D13*
X5968Y10663D03*
G54D14*
X870Y10663D03*
X11066Y10663D03*
G54D15*
X10889Y5996D03*
X1047Y5996D03*
X1047Y16232D03*
X10889Y16232D03*
G54D16*
X5251Y12188D03*
X8785Y9982D03*
X5968Y13852D03*
X3155Y9827D03*
X4321Y13594D03*
X1334Y12685D03*
X6492Y9373D03*
X2036Y13346D03*
X5452Y8770D03*
X9260Y14478D03*
X5500Y7440D03*
X4241Y14109D03*
X6662Y13865D03*
X1625Y9503D03*
X1681Y11614D03*
X3181Y13019D03*
X7523Y15082D03*
X6307Y13019D03*
X4668Y14981D03*
X3866Y12653D03*
X7364Y9890D03*
X3933Y7437D03*
X8185Y12913D03*
X10173Y10992D03*
G54D17*
X5216Y12188D02*
X4834Y11806D01*
X4834Y11806D02*
X4834Y10663D01*
X5251Y12188D02*
X5216Y12188D01*
X5968Y10663D02*
X5968Y13517D01*
X3155Y9827D02*
X3997Y9827D01*
X3997Y9827D02*
X4834Y10663D01*
X7783Y9982D02*
X7102Y10663D01*
X8785Y9982D02*
X7783Y9982D01*
X5968Y10663D02*
X7102Y10663D01*
X5968Y10663D02*
X4834Y10663D01*
X6468Y16909D02*
X6468Y16459D01*
X6997Y15930D02*
X6468Y16459D01*
X6997Y13733D02*
X6997Y15930D01*
X6781Y13517D02*
X6997Y13733D01*
X5968Y13517D02*
X6781Y13517D01*
X5968Y13594D02*
X4321Y13594D01*
X5968Y13517D02*
X5968Y13594D01*
X5968Y13594D02*
X5968Y13852D01*
X1334Y12685D02*
X2007Y12011D01*
X2007Y12011D02*
X2007Y10508D01*
X2007Y10508D02*
X2033Y10482D01*
X2033Y10482D02*
X3020Y9495D01*
X3020Y9495D02*
X6370Y9495D01*
X6370Y9495D02*
X6492Y9373D01*
X2036Y13346D02*
X492Y13346D01*
X203Y13057D02*
X203Y11513D01*
X492Y13346D02*
X203Y13057D01*
X203Y10393D02*
X203Y11513D01*
X1826Y8770D02*
X203Y10393D01*
X5452Y8770D02*
X1826Y8770D01*
X8766Y7440D02*
X5500Y7440D01*
X11725Y10399D02*
X8766Y7440D01*
X11725Y12013D02*
X11725Y10399D01*
X9260Y14478D02*
X11725Y12013D01*
X4325Y14194D02*
X4241Y14109D01*
X6334Y14194D02*
X4325Y14194D01*
X6662Y13865D02*
X6334Y14194D01*
X1625Y9503D02*
X1625Y11559D01*
X1625Y11559D02*
X1681Y11614D01*
X3181Y13019D02*
X3181Y13823D01*
X3181Y13823D02*
X4339Y14981D01*
X3181Y13019D02*
X1023Y13019D01*
X870Y12866D02*
X870Y10663D01*
X1023Y13019D02*
X870Y12866D01*
X6307Y13019D02*
X6574Y13019D01*
X7523Y13968D02*
X7523Y15082D01*
X6574Y13019D02*
X7523Y13968D01*
X8182Y10663D02*
X11066Y10663D01*
X6307Y13019D02*
X6307Y12220D01*
X6307Y12220D02*
X6724Y11803D01*
X6724Y11803D02*
X7043Y11803D01*
X7043Y11803D02*
X8182Y10663D01*
X4668Y14981D02*
X4339Y14981D01*
X3837Y12681D02*
X3837Y13095D01*
X3866Y12653D02*
X3837Y12681D01*
X3838Y13633D02*
X3837Y13633D01*
X3837Y13633D02*
X3838Y13633D01*
X3837Y13095D02*
X3837Y13633D01*
X5468Y15318D02*
X5468Y16909D01*
X4657Y14507D02*
X5468Y15318D01*
X4179Y14507D02*
X4657Y14507D01*
X3837Y14166D02*
X4179Y14507D01*
X3837Y13633D02*
X3837Y14166D01*
X7364Y9785D02*
X7364Y9890D01*
X6621Y9042D02*
X7364Y9785D01*
X5150Y7570D02*
X6621Y9042D01*
X4066Y7570D02*
X5150Y7570D01*
X3933Y7437D02*
X4066Y7570D01*
X8251Y12913D02*
X8185Y12913D01*
X10173Y10992D02*
X8251Y12913D01*
M02*
