M48
;DRILL file {Pcbnew (2013-12-14 BZR 4555)-product} date Thu 06 Mar 2014 10:43:21 EST
;FORMAT={-:-/ absolute / metric / decimal}
FMAT,2
METRIC,TZ
T1C0.635
T2C0.700
T3C1.016
T4C2.000
T5C3.000
%
G90
G05
M71
T1
X4.636Y34.616
X8.069Y28.315
X9.46Y17.44
X10.582Y17.916
X11.115Y27.29
X12.018Y34.451
X12.141Y32.992
X13.806Y32.898
X14.105Y21.903
X14.46Y15.501
X14.57Y13.35
X14.666Y22.953
X15.849Y14.697
X16.076Y21.46
X16.098Y17.939
X16.216Y23.022
X16.511Y19.672
X19.243Y17.756
X20.66Y29.364
X21.21Y17.49
X22.61Y21.94
X22.756Y17.988
X23.407Y25.984
T2
X8.66Y42.84
X10.66Y42.84
T3
X5.89Y13.74
X6.7Y40.1
X6.7Y37.56
X8.43Y13.74
X19.39Y42.84
X20.66Y38.34
X21.93Y42.84
T4
X2.21Y27.086
X28.11Y27.086
T5
X2.66Y41.23
X2.66Y15.23
X27.66Y41.23
X27.66Y15.23
T0
M30
