%FSLAX34Y34*%
G04 Gerber Fmt 3.4, Leading zero omitted, Abs format*
G04 (created by PCBNEW (2013-12-14 BZR 4555)-product) date Wed 05 Mar 2014 15:38:07 EST*
%MOIN*%
G01*
G70*
G90*
G04 APERTURE LIST*
%ADD10C,0.005906*%
%ADD11C,0.009843*%
%ADD12C,0.006398*%
%ADD13C,0.000100*%
%ADD14C,0.003937*%
G04 APERTURE END LIST*
G54D10*
G54D11*
X6352Y922D02*
X6352Y1315D01*
X6352Y1166D02*
X6315Y1184D01*
X6240Y1184D01*
X6202Y1166D01*
X6184Y1147D01*
X6165Y1109D01*
X6165Y997D01*
X6184Y959D01*
X6202Y941D01*
X6240Y922D01*
X6315Y922D01*
X6352Y941D01*
X6034Y1184D02*
X5940Y922D01*
X5846Y1184D02*
X5940Y922D01*
X5977Y828D01*
X5996Y809D01*
X6034Y791D01*
X7787Y272D02*
X7918Y460D01*
X8011Y272D02*
X8011Y666D01*
X7862Y666D01*
X7824Y647D01*
X7805Y628D01*
X7787Y591D01*
X7787Y535D01*
X7805Y497D01*
X7824Y478D01*
X7862Y460D01*
X8011Y460D01*
X7562Y272D02*
X7599Y291D01*
X7618Y310D01*
X7637Y347D01*
X7637Y460D01*
X7618Y497D01*
X7599Y516D01*
X7562Y535D01*
X7505Y535D01*
X7468Y516D01*
X7449Y497D01*
X7430Y460D01*
X7430Y347D01*
X7449Y310D01*
X7468Y291D01*
X7505Y272D01*
X7562Y272D01*
X7262Y272D02*
X7262Y666D01*
X7262Y516D02*
X7224Y535D01*
X7149Y535D01*
X7112Y516D01*
X7093Y497D01*
X7074Y460D01*
X7074Y347D01*
X7093Y310D01*
X7112Y291D01*
X7149Y272D01*
X7224Y272D01*
X7262Y291D01*
X6755Y291D02*
X6793Y272D01*
X6868Y272D01*
X6905Y291D01*
X6924Y328D01*
X6924Y478D01*
X6905Y516D01*
X6868Y535D01*
X6793Y535D01*
X6755Y516D01*
X6737Y478D01*
X6737Y441D01*
X6924Y403D01*
X6568Y272D02*
X6568Y535D01*
X6568Y460D02*
X6549Y497D01*
X6530Y516D01*
X6493Y535D01*
X6455Y535D01*
X6380Y535D02*
X6230Y535D01*
X6324Y666D02*
X6324Y328D01*
X6305Y291D01*
X6268Y272D01*
X6230Y272D01*
X5799Y272D02*
X5799Y666D01*
X5649Y666D01*
X5612Y647D01*
X5593Y628D01*
X5574Y591D01*
X5574Y535D01*
X5593Y497D01*
X5612Y478D01*
X5649Y460D01*
X5799Y460D01*
X5349Y272D02*
X5387Y291D01*
X5406Y310D01*
X5424Y347D01*
X5424Y460D01*
X5406Y497D01*
X5387Y516D01*
X5349Y535D01*
X5293Y535D01*
X5256Y516D01*
X5237Y497D01*
X5218Y460D01*
X5218Y347D01*
X5237Y310D01*
X5256Y291D01*
X5293Y272D01*
X5349Y272D01*
X5087Y535D02*
X5012Y272D01*
X4937Y460D01*
X4862Y272D01*
X4787Y535D01*
X4487Y291D02*
X4524Y272D01*
X4599Y272D01*
X4637Y291D01*
X4656Y328D01*
X4656Y478D01*
X4637Y516D01*
X4599Y535D01*
X4524Y535D01*
X4487Y516D01*
X4468Y478D01*
X4468Y441D01*
X4656Y403D01*
X4299Y272D02*
X4299Y535D01*
X4299Y460D02*
X4281Y497D01*
X4262Y516D01*
X4224Y535D01*
X4187Y535D01*
X4074Y291D02*
X4037Y272D01*
X3962Y272D01*
X3925Y291D01*
X3906Y328D01*
X3906Y347D01*
X3925Y385D01*
X3962Y403D01*
X4018Y403D01*
X4056Y422D01*
X4074Y460D01*
X4074Y478D01*
X4056Y516D01*
X4018Y535D01*
X3962Y535D01*
X3925Y516D01*
G54D12*
X7692Y16299D02*
X7717Y16311D01*
X7765Y16311D01*
X7790Y16299D01*
X7814Y16274D01*
X7826Y16250D01*
X7826Y16201D01*
X7814Y16177D01*
X7790Y16152D01*
X7765Y16140D01*
X7717Y16140D01*
X7692Y16152D01*
X7741Y16396D02*
X7802Y16384D01*
X7863Y16347D01*
X7899Y16287D01*
X7912Y16226D01*
X7899Y16165D01*
X7863Y16104D01*
X7802Y16067D01*
X7741Y16055D01*
X7680Y16067D01*
X7619Y16104D01*
X7583Y16165D01*
X7570Y16226D01*
X7583Y16287D01*
X7619Y16347D01*
X7680Y16384D01*
X7741Y16396D01*
X7461Y16104D02*
X7461Y16360D01*
X7375Y16177D01*
X7290Y16360D01*
X7290Y16104D01*
X7156Y16104D02*
X7107Y16104D01*
X7083Y16116D01*
X7071Y16128D01*
X7046Y16165D01*
X7034Y16213D01*
X7034Y16311D01*
X7046Y16335D01*
X7059Y16347D01*
X7083Y16360D01*
X7132Y16360D01*
X7156Y16347D01*
X7168Y16335D01*
X7181Y16311D01*
X7181Y16250D01*
X7168Y16226D01*
X7156Y16213D01*
X7132Y16201D01*
X7083Y16201D01*
X7059Y16213D01*
X7046Y16226D01*
X7034Y16250D01*
X6925Y16104D02*
X6925Y16360D01*
X6864Y16360D01*
X6827Y16347D01*
X6803Y16323D01*
X6791Y16299D01*
X6778Y16250D01*
X6778Y16213D01*
X6791Y16165D01*
X6803Y16140D01*
X6827Y16116D01*
X6864Y16104D01*
X6925Y16104D01*
X6571Y16116D02*
X6596Y16104D01*
X6644Y16104D01*
X6669Y16116D01*
X6681Y16140D01*
X6681Y16238D01*
X6669Y16262D01*
X6644Y16274D01*
X6596Y16274D01*
X6571Y16262D01*
X6559Y16238D01*
X6559Y16213D01*
X6681Y16189D01*
X6462Y16116D02*
X6437Y16104D01*
X6388Y16104D01*
X6364Y16116D01*
X6352Y16140D01*
X6352Y16152D01*
X6364Y16177D01*
X6388Y16189D01*
X6425Y16189D01*
X6449Y16201D01*
X6462Y16226D01*
X6462Y16238D01*
X6449Y16262D01*
X6425Y16274D01*
X6388Y16274D01*
X6364Y16262D01*
X6242Y16104D02*
X6242Y16274D01*
X6242Y16360D02*
X6254Y16347D01*
X6242Y16335D01*
X6230Y16347D01*
X6242Y16360D01*
X6242Y16335D01*
X6011Y16274D02*
X6011Y16067D01*
X6023Y16043D01*
X6035Y16031D01*
X6059Y16018D01*
X6096Y16018D01*
X6120Y16031D01*
X6011Y16116D02*
X6035Y16104D01*
X6084Y16104D01*
X6108Y16116D01*
X6120Y16128D01*
X6133Y16152D01*
X6133Y16226D01*
X6120Y16250D01*
X6108Y16262D01*
X6084Y16274D01*
X6035Y16274D01*
X6011Y16262D01*
X5889Y16274D02*
X5889Y16104D01*
X5889Y16250D02*
X5877Y16262D01*
X5852Y16274D01*
X5816Y16274D01*
X5791Y16262D01*
X5779Y16238D01*
X5779Y16104D01*
X5657Y16128D02*
X5645Y16116D01*
X5657Y16104D01*
X5669Y16116D01*
X5657Y16128D01*
X5657Y16104D01*
X5426Y16116D02*
X5450Y16104D01*
X5499Y16104D01*
X5523Y16116D01*
X5535Y16128D01*
X5548Y16152D01*
X5548Y16226D01*
X5535Y16250D01*
X5523Y16262D01*
X5499Y16274D01*
X5450Y16274D01*
X5426Y16262D01*
X5279Y16104D02*
X5304Y16116D01*
X5316Y16128D01*
X5328Y16152D01*
X5328Y16226D01*
X5316Y16250D01*
X5304Y16262D01*
X5279Y16274D01*
X5243Y16274D01*
X5219Y16262D01*
X5206Y16250D01*
X5194Y16226D01*
X5194Y16152D01*
X5206Y16128D01*
X5219Y16116D01*
X5243Y16104D01*
X5279Y16104D01*
X4902Y16335D02*
X4890Y16347D01*
X4865Y16360D01*
X4804Y16360D01*
X4780Y16347D01*
X4768Y16335D01*
X4755Y16311D01*
X4755Y16287D01*
X4768Y16250D01*
X4914Y16104D01*
X4755Y16104D01*
X4597Y16360D02*
X4573Y16360D01*
X4548Y16347D01*
X4536Y16335D01*
X4524Y16311D01*
X4512Y16262D01*
X4512Y16201D01*
X4524Y16152D01*
X4536Y16128D01*
X4548Y16116D01*
X4573Y16104D01*
X4597Y16104D01*
X4621Y16116D01*
X4634Y16128D01*
X4646Y16152D01*
X4658Y16201D01*
X4658Y16262D01*
X4646Y16311D01*
X4634Y16335D01*
X4621Y16347D01*
X4597Y16360D01*
X4268Y16104D02*
X4414Y16104D01*
X4341Y16104D02*
X4341Y16360D01*
X4366Y16323D01*
X4390Y16299D01*
X4414Y16287D01*
X4183Y16360D02*
X4024Y16360D01*
X4110Y16262D01*
X4073Y16262D01*
X4049Y16250D01*
X4037Y16238D01*
X4024Y16213D01*
X4024Y16152D01*
X4037Y16128D01*
X4049Y16116D01*
X4073Y16104D01*
X4146Y16104D01*
X4171Y16116D01*
X4183Y16128D01*
X7217Y15937D02*
X7168Y15937D01*
X7144Y15925D01*
X7120Y15901D01*
X7107Y15852D01*
X7107Y15767D01*
X7120Y15718D01*
X7144Y15694D01*
X7168Y15681D01*
X7217Y15681D01*
X7241Y15694D01*
X7266Y15718D01*
X7278Y15767D01*
X7278Y15852D01*
X7266Y15901D01*
X7241Y15925D01*
X7217Y15937D01*
X6998Y15852D02*
X6998Y15596D01*
X6998Y15840D02*
X6973Y15852D01*
X6925Y15852D01*
X6900Y15840D01*
X6888Y15828D01*
X6876Y15803D01*
X6876Y15730D01*
X6888Y15706D01*
X6900Y15694D01*
X6925Y15681D01*
X6973Y15681D01*
X6998Y15694D01*
X6669Y15694D02*
X6693Y15681D01*
X6742Y15681D01*
X6766Y15694D01*
X6778Y15718D01*
X6778Y15816D01*
X6766Y15840D01*
X6742Y15852D01*
X6693Y15852D01*
X6669Y15840D01*
X6657Y15816D01*
X6657Y15791D01*
X6778Y15767D01*
X6547Y15852D02*
X6547Y15681D01*
X6547Y15828D02*
X6535Y15840D01*
X6510Y15852D01*
X6474Y15852D01*
X6449Y15840D01*
X6437Y15816D01*
X6437Y15681D01*
X6315Y15681D02*
X6315Y15937D01*
X6315Y15816D02*
X6169Y15816D01*
X6169Y15681D02*
X6169Y15937D01*
X5938Y15681D02*
X5938Y15816D01*
X5950Y15840D01*
X5974Y15852D01*
X6023Y15852D01*
X6047Y15840D01*
X5938Y15694D02*
X5962Y15681D01*
X6023Y15681D01*
X6047Y15694D01*
X6059Y15718D01*
X6059Y15742D01*
X6047Y15767D01*
X6023Y15779D01*
X5962Y15779D01*
X5938Y15791D01*
X5816Y15681D02*
X5816Y15852D01*
X5816Y15803D02*
X5803Y15828D01*
X5791Y15840D01*
X5767Y15852D01*
X5743Y15852D01*
X5548Y15681D02*
X5548Y15937D01*
X5548Y15694D02*
X5572Y15681D01*
X5621Y15681D01*
X5645Y15694D01*
X5657Y15706D01*
X5669Y15730D01*
X5669Y15803D01*
X5657Y15828D01*
X5645Y15840D01*
X5621Y15852D01*
X5572Y15852D01*
X5548Y15840D01*
X5450Y15852D02*
X5401Y15681D01*
X5353Y15803D01*
X5304Y15681D01*
X5255Y15852D01*
X5048Y15681D02*
X5048Y15816D01*
X5060Y15840D01*
X5085Y15852D01*
X5133Y15852D01*
X5158Y15840D01*
X5048Y15694D02*
X5072Y15681D01*
X5133Y15681D01*
X5158Y15694D01*
X5170Y15718D01*
X5170Y15742D01*
X5158Y15767D01*
X5133Y15779D01*
X5072Y15779D01*
X5048Y15791D01*
X4926Y15681D02*
X4926Y15852D01*
X4926Y15803D02*
X4914Y15828D01*
X4902Y15840D01*
X4877Y15852D01*
X4853Y15852D01*
X4670Y15694D02*
X4695Y15681D01*
X4743Y15681D01*
X4768Y15694D01*
X4780Y15718D01*
X4780Y15816D01*
X4768Y15840D01*
X4743Y15852D01*
X4695Y15852D01*
X4670Y15840D01*
X4658Y15816D01*
X4658Y15791D01*
X4780Y15767D01*
X7394Y15515D02*
X7394Y15308D01*
X7382Y15284D01*
X7369Y15271D01*
X7345Y15259D01*
X7296Y15259D01*
X7272Y15271D01*
X7260Y15284D01*
X7248Y15308D01*
X7248Y15515D01*
X7126Y15430D02*
X7126Y15259D01*
X7126Y15405D02*
X7113Y15418D01*
X7089Y15430D01*
X7053Y15430D01*
X7028Y15418D01*
X7016Y15393D01*
X7016Y15259D01*
X6784Y15259D02*
X6784Y15515D01*
X6784Y15271D02*
X6809Y15259D01*
X6858Y15259D01*
X6882Y15271D01*
X6894Y15284D01*
X6906Y15308D01*
X6906Y15381D01*
X6894Y15405D01*
X6882Y15418D01*
X6858Y15430D01*
X6809Y15430D01*
X6784Y15418D01*
X6565Y15271D02*
X6589Y15259D01*
X6638Y15259D01*
X6663Y15271D01*
X6675Y15296D01*
X6675Y15393D01*
X6663Y15418D01*
X6638Y15430D01*
X6589Y15430D01*
X6565Y15418D01*
X6553Y15393D01*
X6553Y15369D01*
X6675Y15345D01*
X6443Y15259D02*
X6443Y15430D01*
X6443Y15381D02*
X6431Y15405D01*
X6419Y15418D01*
X6395Y15430D01*
X6370Y15430D01*
X6126Y15515D02*
X5980Y15515D01*
X6053Y15259D02*
X6053Y15515D01*
X5907Y15332D02*
X5785Y15332D01*
X5931Y15259D02*
X5846Y15515D01*
X5761Y15259D01*
X5676Y15259D02*
X5676Y15515D01*
X5578Y15515D01*
X5554Y15503D01*
X5541Y15491D01*
X5529Y15466D01*
X5529Y15430D01*
X5541Y15405D01*
X5554Y15393D01*
X5578Y15381D01*
X5676Y15381D01*
X5273Y15259D02*
X5359Y15381D01*
X5420Y15259D02*
X5420Y15515D01*
X5322Y15515D01*
X5298Y15503D01*
X5286Y15491D01*
X5273Y15466D01*
X5273Y15430D01*
X5286Y15405D01*
X5298Y15393D01*
X5322Y15381D01*
X5420Y15381D01*
X4920Y15515D02*
X4871Y15515D01*
X4847Y15503D01*
X4823Y15479D01*
X4810Y15430D01*
X4810Y15345D01*
X4823Y15296D01*
X4847Y15271D01*
X4871Y15259D01*
X4920Y15259D01*
X4944Y15271D01*
X4969Y15296D01*
X4981Y15345D01*
X4981Y15430D01*
X4969Y15479D01*
X4944Y15503D01*
X4920Y15515D01*
X4701Y15259D02*
X4701Y15515D01*
X4701Y15393D02*
X4554Y15393D01*
X4554Y15259D02*
X4554Y15515D01*
X4311Y15259D02*
X4433Y15259D01*
X4433Y15515D01*
X7107Y15008D02*
X7010Y15008D01*
X7071Y15093D02*
X7071Y14874D01*
X7059Y14849D01*
X7034Y14837D01*
X7010Y14837D01*
X6815Y14837D02*
X6815Y14971D01*
X6827Y14995D01*
X6851Y15008D01*
X6900Y15008D01*
X6925Y14995D01*
X6815Y14849D02*
X6839Y14837D01*
X6900Y14837D01*
X6925Y14849D01*
X6937Y14874D01*
X6937Y14898D01*
X6925Y14922D01*
X6900Y14934D01*
X6839Y14934D01*
X6815Y14947D01*
X6693Y15008D02*
X6693Y14752D01*
X6693Y14995D02*
X6669Y15008D01*
X6620Y15008D01*
X6596Y14995D01*
X6583Y14983D01*
X6571Y14959D01*
X6571Y14886D01*
X6583Y14861D01*
X6596Y14849D01*
X6620Y14837D01*
X6669Y14837D01*
X6693Y14849D01*
X6462Y14837D02*
X6462Y15008D01*
X6462Y14959D02*
X6449Y14983D01*
X6437Y14995D01*
X6413Y15008D01*
X6388Y15008D01*
X6303Y14861D02*
X6291Y14849D01*
X6303Y14837D01*
X6315Y14849D01*
X6303Y14861D01*
X6303Y14837D01*
X6145Y14837D02*
X6169Y14849D01*
X6181Y14861D01*
X6193Y14886D01*
X6193Y14959D01*
X6181Y14983D01*
X6169Y14995D01*
X6145Y15008D01*
X6108Y15008D01*
X6084Y14995D01*
X6072Y14983D01*
X6059Y14959D01*
X6059Y14886D01*
X6072Y14861D01*
X6084Y14849D01*
X6108Y14837D01*
X6145Y14837D01*
X5950Y14837D02*
X5950Y15008D01*
X5950Y14959D02*
X5938Y14983D01*
X5925Y14995D01*
X5901Y15008D01*
X5877Y15008D01*
X5682Y15008D02*
X5682Y14800D01*
X5694Y14776D01*
X5706Y14764D01*
X5730Y14752D01*
X5767Y14752D01*
X5791Y14764D01*
X5682Y14849D02*
X5706Y14837D01*
X5755Y14837D01*
X5779Y14849D01*
X5791Y14861D01*
X5803Y14886D01*
X5803Y14959D01*
X5791Y14983D01*
X5779Y14995D01*
X5755Y15008D01*
X5706Y15008D01*
X5682Y14995D01*
X5377Y15105D02*
X5596Y14776D01*
X5243Y15093D02*
X5194Y15093D01*
X5170Y15081D01*
X5145Y15056D01*
X5133Y15008D01*
X5133Y14922D01*
X5145Y14874D01*
X5170Y14849D01*
X5194Y14837D01*
X5243Y14837D01*
X5267Y14849D01*
X5292Y14874D01*
X5304Y14922D01*
X5304Y15008D01*
X5292Y15056D01*
X5267Y15081D01*
X5243Y15093D01*
X5024Y14837D02*
X5024Y15093D01*
X5024Y14971D02*
X4877Y14971D01*
X4877Y14837D02*
X4877Y15093D01*
X4634Y14837D02*
X4755Y14837D01*
X4755Y15093D01*
G54D10*
X968Y6864D02*
X968Y13852D01*
X10968Y6864D02*
X10968Y13852D01*
X2031Y14462D02*
X9905Y14462D01*
X2031Y14462D02*
X968Y13852D01*
X9905Y14462D02*
X10968Y13852D01*
X10791Y9640D02*
G75*
G03X10791Y9640I-4822J0D01*
G74*
G01*
X10968Y6864D02*
X968Y6864D01*
X968Y6864D02*
X968Y10663D01*
G54D13*
G36*
X6918Y3276D02*
X6010Y3267D01*
X5102Y3257D01*
X5092Y2266D01*
X5083Y1275D01*
X5075Y2283D01*
X5068Y3291D01*
X5993Y3284D01*
X6918Y3276D01*
X6918Y3276D01*
X6918Y3276D01*
G37*
G36*
X6201Y1325D02*
X6169Y1311D01*
X6076Y1300D01*
X5930Y1294D01*
X5739Y1291D01*
X5553Y1292D01*
X5422Y1296D01*
X5334Y1303D01*
X5277Y1316D01*
X5240Y1337D01*
X5218Y1358D01*
X5185Y1399D01*
X5188Y1427D01*
X5235Y1458D01*
X5309Y1491D01*
X5423Y1534D01*
X5534Y1564D01*
X5568Y1570D01*
X5652Y1593D01*
X5705Y1634D01*
X5706Y1635D01*
X5752Y1669D01*
X5805Y1661D01*
X5834Y1618D01*
X5834Y1613D01*
X5860Y1572D01*
X5923Y1515D01*
X5951Y1496D01*
X6023Y1440D01*
X6064Y1397D01*
X6068Y1387D01*
X6095Y1364D01*
X6134Y1358D01*
X6188Y1344D01*
X6201Y1325D01*
X6201Y1325D01*
X6201Y1325D01*
G37*
G36*
X6660Y2124D02*
X6650Y1968D01*
X6633Y1869D01*
X6633Y2310D01*
X6633Y2367D01*
X6609Y2391D01*
X6558Y2374D01*
X6486Y2331D01*
X6416Y2280D01*
X6372Y2237D01*
X6368Y2225D01*
X6396Y2201D01*
X6464Y2192D01*
X6545Y2201D01*
X6581Y2212D01*
X6615Y2248D01*
X6633Y2310D01*
X6633Y1869D01*
X6627Y1834D01*
X6599Y1756D01*
X6563Y1699D01*
X6563Y1913D01*
X6545Y1960D01*
X6493Y1995D01*
X6442Y2020D01*
X6440Y2010D01*
X6481Y1963D01*
X6515Y1913D01*
X6508Y1892D01*
X6507Y1891D01*
X6467Y1865D01*
X6422Y1799D01*
X6418Y1792D01*
X6390Y1734D01*
X6390Y1841D01*
X6369Y1886D01*
X6350Y1891D01*
X6306Y1918D01*
X6281Y1957D01*
X6245Y2002D01*
X6243Y2002D01*
X6243Y2227D01*
X6236Y2254D01*
X6193Y2282D01*
X6114Y2304D01*
X6020Y2318D01*
X5935Y2322D01*
X5878Y2313D01*
X5868Y2300D01*
X5896Y2281D01*
X5959Y2280D01*
X6051Y2293D01*
X5968Y2255D01*
X5911Y2227D01*
X5913Y2208D01*
X5951Y2190D01*
X6025Y2164D01*
X6061Y2170D01*
X6079Y2200D01*
X6103Y2223D01*
X6123Y2204D01*
X6168Y2180D01*
X6217Y2192D01*
X6243Y2227D01*
X6243Y2002D01*
X6201Y1990D01*
X6174Y1961D01*
X6195Y1926D01*
X6233Y1894D01*
X6315Y1831D01*
X6216Y1816D01*
X6166Y1807D01*
X6174Y1801D01*
X6245Y1797D01*
X6254Y1796D01*
X6346Y1800D01*
X6386Y1823D01*
X6390Y1841D01*
X6390Y1734D01*
X6387Y1727D01*
X6389Y1706D01*
X6417Y1713D01*
X6462Y1752D01*
X6468Y1774D01*
X6491Y1830D01*
X6518Y1858D01*
X6563Y1913D01*
X6563Y1699D01*
X6494Y1587D01*
X6382Y1479D01*
X6265Y1435D01*
X6220Y1442D01*
X6220Y1704D01*
X6181Y1730D01*
X6176Y1732D01*
X6118Y1776D01*
X6101Y1813D01*
X6074Y1853D01*
X6051Y1858D01*
X6006Y1847D01*
X6001Y1837D01*
X6027Y1794D01*
X6087Y1744D01*
X6156Y1704D01*
X6198Y1694D01*
X6220Y1704D01*
X6220Y1442D01*
X6201Y1444D01*
X6201Y1641D01*
X6184Y1658D01*
X6168Y1641D01*
X6184Y1625D01*
X6201Y1641D01*
X6201Y1444D01*
X6168Y1448D01*
X6000Y1523D01*
X5886Y1612D01*
X5817Y1728D01*
X5787Y1884D01*
X5785Y2058D01*
X5795Y2308D01*
X5965Y2461D01*
X6079Y2554D01*
X6182Y2610D01*
X6301Y2644D01*
X6324Y2648D01*
X6436Y2665D01*
X6505Y2664D01*
X6553Y2643D01*
X6580Y2620D01*
X6618Y2550D01*
X6643Y2433D01*
X6658Y2285D01*
X6660Y2124D01*
X6660Y2124D01*
X6660Y2124D01*
G37*
G36*
X6695Y1710D02*
X6689Y1683D01*
X6678Y1681D01*
X6674Y1734D01*
X6674Y1741D01*
X6679Y1793D01*
X6689Y1788D01*
X6691Y1783D01*
X6695Y1710D01*
X6695Y1710D01*
X6695Y1710D01*
G37*
G36*
X5426Y2328D02*
X5425Y2232D01*
X5418Y2166D01*
X5398Y2025D01*
X5376Y1944D01*
X5346Y1918D01*
X5305Y1939D01*
X5278Y1966D01*
X5217Y2064D01*
X5173Y2188D01*
X5154Y2313D01*
X5165Y2414D01*
X5174Y2434D01*
X5202Y2507D01*
X5206Y2550D01*
X5213Y2590D01*
X5251Y2586D01*
X5306Y2544D01*
X5363Y2476D01*
X5407Y2400D01*
X5426Y2328D01*
X5426Y2328D01*
X5426Y2328D01*
G37*
G36*
X5634Y2108D02*
X5618Y2091D01*
X5601Y2108D01*
X5618Y2125D01*
X5634Y2108D01*
X5634Y2108D01*
X5634Y2108D01*
G37*
G36*
X6234Y1941D02*
X6218Y1925D01*
X6201Y1941D01*
X6218Y1958D01*
X6234Y1941D01*
X6234Y1941D01*
X6234Y1941D01*
G37*
G36*
X6590Y2314D02*
X6585Y2294D01*
X6568Y2291D01*
X6540Y2304D01*
X6545Y2314D01*
X6585Y2318D01*
X6590Y2314D01*
X6590Y2314D01*
X6590Y2314D01*
G37*
G54D14*
X4098Y15287D02*
G75*
G03X4098Y15287I-295J0D01*
G74*
G01*
X933Y9088D02*
G75*
G03X933Y9088I-295J0D01*
G74*
G01*
X11595Y9088D02*
G75*
G03X11595Y9088I-295J0D01*
G74*
G01*
G54D10*
X8464Y5578D02*
X8464Y6071D01*
X8183Y5578D01*
X8183Y6071D01*
X7761Y5602D02*
X7808Y5578D01*
X7901Y5578D01*
X7948Y5602D01*
X7972Y5649D01*
X7972Y5836D01*
X7948Y5883D01*
X7901Y5907D01*
X7808Y5907D01*
X7761Y5883D01*
X7737Y5836D01*
X7737Y5789D01*
X7972Y5742D01*
X7315Y5907D02*
X7315Y5508D01*
X7339Y5461D01*
X7362Y5438D01*
X7409Y5414D01*
X7480Y5414D01*
X7526Y5438D01*
X7315Y5602D02*
X7362Y5578D01*
X7456Y5578D01*
X7503Y5602D01*
X7526Y5625D01*
X7550Y5672D01*
X7550Y5813D01*
X7526Y5860D01*
X7503Y5883D01*
X7456Y5907D01*
X7362Y5907D01*
X7315Y5883D01*
X7081Y5625D02*
X7058Y5602D01*
X7081Y5578D01*
X7105Y5602D01*
X7081Y5625D01*
X7081Y5578D01*
X6542Y5907D02*
X6355Y5907D01*
X6472Y6071D02*
X6472Y5649D01*
X6448Y5602D01*
X6402Y5578D01*
X6355Y5578D01*
X6120Y5578D02*
X6167Y5602D01*
X6191Y5625D01*
X6214Y5672D01*
X6214Y5813D01*
X6191Y5860D01*
X6167Y5883D01*
X6120Y5907D01*
X6050Y5907D01*
X6003Y5883D01*
X5980Y5860D01*
X5956Y5813D01*
X5956Y5672D01*
X5980Y5625D01*
X6003Y5602D01*
X6050Y5578D01*
X6120Y5578D01*
X5206Y5836D02*
X5136Y5813D01*
X5113Y5789D01*
X5089Y5742D01*
X5089Y5672D01*
X5113Y5625D01*
X5136Y5602D01*
X5183Y5578D01*
X5370Y5578D01*
X5370Y6071D01*
X5206Y6071D01*
X5160Y6047D01*
X5136Y6024D01*
X5113Y5977D01*
X5113Y5930D01*
X5136Y5883D01*
X5160Y5860D01*
X5206Y5836D01*
X5370Y5836D01*
X4808Y5578D02*
X4855Y5602D01*
X4878Y5625D01*
X4902Y5672D01*
X4902Y5813D01*
X4878Y5860D01*
X4855Y5883D01*
X4808Y5907D01*
X4738Y5907D01*
X4691Y5883D01*
X4667Y5860D01*
X4644Y5813D01*
X4644Y5672D01*
X4667Y5625D01*
X4691Y5602D01*
X4738Y5578D01*
X4808Y5578D01*
X4222Y5578D02*
X4222Y5836D01*
X4246Y5883D01*
X4292Y5907D01*
X4386Y5907D01*
X4433Y5883D01*
X4222Y5602D02*
X4269Y5578D01*
X4386Y5578D01*
X4433Y5602D01*
X4456Y5649D01*
X4456Y5696D01*
X4433Y5742D01*
X4386Y5766D01*
X4269Y5766D01*
X4222Y5789D01*
X3988Y5578D02*
X3988Y5907D01*
X3988Y5813D02*
X3964Y5860D01*
X3941Y5883D01*
X3894Y5907D01*
X3847Y5907D01*
X3472Y5578D02*
X3472Y6071D01*
X3472Y5602D02*
X3519Y5578D01*
X3613Y5578D01*
X3660Y5602D01*
X3683Y5625D01*
X3707Y5672D01*
X3707Y5813D01*
X3683Y5860D01*
X3660Y5883D01*
X3613Y5907D01*
X3519Y5907D01*
X3472Y5883D01*
M02*
