M48
;DRILL file {Pcbnew (2013-12-14 BZR 4555)-product} date Mon 24 Feb 2014 21:08:07 EST
;FORMAT={-:-/ absolute / metric / decimal}
FMAT,2
METRIC,TZ
T1C0.635
T2C0.700
T3C1.016
T4C2.000
T5C3.000
%
G90
G05
M71
T1
X4.902Y34.692
X9.464Y17.026
X10.326Y18.118
X10.912Y33.791
X11.963Y25.215
X13.06Y16.723
X14.5Y21.78
X15.16Y12.05
X15.342Y18.361
X15.73Y23.45
X16.07Y20.46
X18.495Y16.406
X20.26Y17.48
X20.814Y29.348
X21.471Y27.168
X22.661Y25.647
X22.676Y17.979
T2
X8.66Y42.84
X10.66Y42.84
T3
X5.89Y13.74
X8.43Y13.74
X19.39Y42.84
X21.93Y42.84
T4
X2.21Y27.086
X28.11Y27.086
T5
X2.66Y41.23
X2.66Y15.23
X27.66Y41.23
X27.66Y15.23
T0
M30
