G04 (created by PCBNEW (2013-mar-13)-testing) date Wed 23 Oct 2013 02:02:18 EST*
%MOIN*%
G04 Gerber Fmt 3.4, Leading zero omitted, Abs format*
%FSLAX34Y34*%
G01*
G70*
G90*
G04 APERTURE LIST*
%ADD10C,0.005906*%
%ADD11R,0.060000X0.060000*%
%ADD12C,0.060000*%
%ADD13R,0.196850X0.196850*%
%ADD14C,0.100000*%
%ADD15C,0.118110*%
%ADD16C,0.035000*%
%ADD17C,0.008000*%
G04 APERTURE END LIST*
G54D10*
G54D11*
X6468Y16909D03*
G54D12*
X5468Y16909D03*
G54D13*
X5968Y10663D03*
G54D14*
X870Y10663D03*
X11066Y10663D03*
G54D15*
X10889Y5996D03*
X1047Y5996D03*
X1047Y16232D03*
X10889Y16232D03*
G54D16*
X6542Y12197D03*
X3087Y9852D03*
X7697Y11758D03*
X6513Y9230D03*
X1208Y12520D03*
X5423Y7258D03*
X7910Y15160D03*
X8121Y14466D03*
X4692Y15046D03*
X3076Y11299D03*
X8193Y7738D03*
X6362Y6121D03*
X10682Y14138D03*
X4219Y15021D03*
X10421Y12649D03*
X6925Y13672D03*
G54D17*
X5968Y10663D02*
X4864Y10663D01*
X4053Y9852D02*
X3087Y9852D01*
X4864Y10663D02*
X4053Y9852D01*
X6468Y16909D02*
X6468Y16489D01*
X6542Y16415D02*
X6542Y12197D01*
X6468Y16489D02*
X6542Y16415D01*
X5968Y10663D02*
X5968Y11768D01*
X6542Y12197D02*
X6542Y11982D01*
X6327Y11768D02*
X6542Y11982D01*
X5968Y11768D02*
X6327Y11768D01*
X7472Y11982D02*
X7697Y11758D01*
X6542Y11982D02*
X7472Y11982D01*
X1426Y9230D02*
X6513Y9230D01*
X236Y10420D02*
X1426Y9230D01*
X236Y11548D02*
X236Y10420D01*
X1208Y12520D02*
X236Y11548D01*
X7910Y15160D02*
X9213Y15160D01*
X11687Y12686D02*
X11687Y11383D01*
X9213Y15160D02*
X11687Y12686D01*
X11687Y10399D02*
X11687Y11383D01*
X9593Y8305D02*
X11687Y10399D01*
X6470Y8305D02*
X9593Y8305D01*
X5423Y7258D02*
X6470Y8305D01*
X11066Y10663D02*
X10116Y11614D01*
X8121Y13609D02*
X8121Y14466D01*
X10116Y11614D02*
X8121Y13609D01*
X2783Y10663D02*
X870Y10663D01*
X2783Y9716D02*
X2783Y10663D01*
X2941Y9557D02*
X2783Y9716D01*
X8059Y9557D02*
X2941Y9557D01*
X10116Y11614D02*
X8059Y9557D01*
X3076Y13430D02*
X3076Y11299D01*
X4692Y15046D02*
X3076Y13430D01*
X2783Y11005D02*
X3076Y11299D01*
X2783Y10663D02*
X2783Y11005D01*
X7979Y7738D02*
X8193Y7738D01*
X6362Y6121D02*
X7979Y7738D01*
X5994Y16796D02*
X4219Y15021D01*
X5994Y17235D02*
X5994Y16796D01*
X6088Y17329D02*
X5994Y17235D01*
X7491Y17329D02*
X6088Y17329D01*
X10682Y14138D02*
X7491Y17329D01*
X6925Y13672D02*
X6925Y13897D01*
X8267Y14803D02*
X10421Y12649D01*
X7830Y14803D02*
X8267Y14803D01*
X6925Y13897D02*
X7830Y14803D01*
M02*
