%FSLAX34Y34*%
G04 Gerber Fmt 3.4, Leading zero omitted, Abs format*
G04 (created by PCBNEW (2013-12-14 BZR 4555)-product) date Thu 06 Mar 2014 10:43:19 EST*
%MOIN*%
G01*
G70*
G90*
G04 APERTURE LIST*
%ADD10C,0.005906*%
%ADD11C,0.006890*%
%ADD12C,0.004921*%
%ADD13C,0.007382*%
%ADD14C,0.004429*%
%ADD15C,0.006000*%
%ADD16C,0.004700*%
%ADD17C,0.005000*%
%ADD18C,0.000100*%
%ADD19C,0.003100*%
%ADD20C,0.003937*%
%ADD21C,0.008000*%
%ADD22C,0.004000*%
%ADD23C,0.002600*%
%ADD24C,0.003445*%
G04 APERTURE END LIST*
G54D10*
X7808Y3367D02*
X8162Y3367D01*
X7909Y3249D01*
X8162Y3131D01*
X7808Y3131D01*
X7808Y2946D02*
X7808Y2878D01*
X7825Y2844D01*
X7841Y2827D01*
X7892Y2794D01*
X7960Y2777D01*
X8095Y2777D01*
X8128Y2794D01*
X8145Y2811D01*
X8162Y2844D01*
X8162Y2912D01*
X8145Y2946D01*
X8128Y2962D01*
X8095Y2979D01*
X8010Y2979D01*
X7976Y2962D01*
X7960Y2946D01*
X7943Y2912D01*
X7943Y2844D01*
X7960Y2811D01*
X7976Y2794D01*
X8010Y2777D01*
X7808Y2625D02*
X8162Y2625D01*
X8162Y2541D01*
X8145Y2490D01*
X8111Y2456D01*
X8078Y2439D01*
X8010Y2422D01*
X7960Y2422D01*
X7892Y2439D01*
X7858Y2456D01*
X7825Y2490D01*
X7808Y2541D01*
X7808Y2625D01*
X7825Y2136D02*
X7808Y2169D01*
X7808Y2237D01*
X7825Y2271D01*
X7858Y2287D01*
X7993Y2287D01*
X8027Y2271D01*
X8044Y2237D01*
X8044Y2169D01*
X8027Y2136D01*
X7993Y2119D01*
X7960Y2119D01*
X7926Y2287D01*
X7825Y1984D02*
X7808Y1950D01*
X7808Y1883D01*
X7825Y1849D01*
X7858Y1832D01*
X7875Y1832D01*
X7909Y1849D01*
X7926Y1883D01*
X7926Y1933D01*
X7943Y1967D01*
X7976Y1984D01*
X7993Y1984D01*
X8027Y1967D01*
X8044Y1933D01*
X8044Y1883D01*
X8027Y1849D01*
X7808Y1680D02*
X8044Y1680D01*
X8162Y1680D02*
X8145Y1697D01*
X8128Y1680D01*
X8145Y1663D01*
X8162Y1680D01*
X8128Y1680D01*
X8044Y1359D02*
X7757Y1359D01*
X7723Y1376D01*
X7706Y1393D01*
X7690Y1427D01*
X7690Y1478D01*
X7706Y1511D01*
X7825Y1359D02*
X7808Y1393D01*
X7808Y1461D01*
X7825Y1494D01*
X7841Y1511D01*
X7875Y1528D01*
X7976Y1528D01*
X8010Y1511D01*
X8027Y1494D01*
X8044Y1461D01*
X8044Y1393D01*
X8027Y1359D01*
X8044Y1191D02*
X7808Y1191D01*
X8010Y1191D02*
X8027Y1174D01*
X8044Y1140D01*
X8044Y1089D01*
X8027Y1056D01*
X7993Y1039D01*
X7808Y1039D01*
X7841Y870D02*
X7825Y853D01*
X7808Y870D01*
X7825Y887D01*
X7841Y870D01*
X7808Y870D01*
X7825Y550D02*
X7808Y583D01*
X7808Y651D01*
X7825Y685D01*
X7841Y701D01*
X7875Y718D01*
X7976Y718D01*
X8010Y701D01*
X8027Y685D01*
X8044Y651D01*
X8044Y583D01*
X8027Y550D01*
X7808Y347D02*
X7825Y381D01*
X7841Y398D01*
X7875Y415D01*
X7976Y415D01*
X8010Y398D01*
X8027Y381D01*
X8044Y347D01*
X8044Y296D01*
X8027Y263D01*
X8010Y246D01*
X7976Y229D01*
X7875Y229D01*
X7841Y246D01*
X7825Y263D01*
X7808Y296D01*
X7808Y347D01*
X4128Y246D02*
X3774Y246D01*
X4027Y364D01*
X3774Y482D01*
X4128Y482D01*
X4128Y668D02*
X4128Y735D01*
X4111Y769D01*
X4095Y786D01*
X4044Y820D01*
X3976Y836D01*
X3841Y836D01*
X3808Y820D01*
X3791Y803D01*
X3774Y769D01*
X3774Y701D01*
X3791Y668D01*
X3808Y651D01*
X3841Y634D01*
X3926Y634D01*
X3960Y651D01*
X3976Y668D01*
X3993Y701D01*
X3993Y769D01*
X3976Y803D01*
X3960Y820D01*
X3926Y836D01*
X4128Y988D02*
X3774Y988D01*
X3774Y1073D01*
X3791Y1123D01*
X3825Y1157D01*
X3858Y1174D01*
X3926Y1191D01*
X3976Y1191D01*
X4044Y1174D01*
X4078Y1157D01*
X4111Y1123D01*
X4128Y1073D01*
X4128Y988D01*
X4111Y1478D02*
X4128Y1444D01*
X4128Y1376D01*
X4111Y1343D01*
X4078Y1326D01*
X3943Y1326D01*
X3909Y1343D01*
X3892Y1376D01*
X3892Y1444D01*
X3909Y1478D01*
X3943Y1494D01*
X3976Y1494D01*
X4010Y1326D01*
X4111Y1629D02*
X4128Y1663D01*
X4128Y1731D01*
X4111Y1764D01*
X4078Y1781D01*
X4061Y1781D01*
X4027Y1764D01*
X4010Y1731D01*
X4010Y1680D01*
X3993Y1646D01*
X3960Y1629D01*
X3943Y1629D01*
X3909Y1646D01*
X3892Y1680D01*
X3892Y1731D01*
X3909Y1764D01*
X4128Y1933D02*
X3892Y1933D01*
X3774Y1933D02*
X3791Y1916D01*
X3808Y1933D01*
X3791Y1950D01*
X3774Y1933D01*
X3808Y1933D01*
X3892Y2254D02*
X4179Y2254D01*
X4213Y2237D01*
X4230Y2220D01*
X4246Y2186D01*
X4246Y2136D01*
X4230Y2102D01*
X4111Y2254D02*
X4128Y2220D01*
X4128Y2152D01*
X4111Y2119D01*
X4095Y2102D01*
X4061Y2085D01*
X3960Y2085D01*
X3926Y2102D01*
X3909Y2119D01*
X3892Y2152D01*
X3892Y2220D01*
X3909Y2254D01*
X3892Y2422D02*
X4128Y2422D01*
X3926Y2422D02*
X3909Y2439D01*
X3892Y2473D01*
X3892Y2524D01*
X3909Y2557D01*
X3943Y2574D01*
X4128Y2574D01*
X4095Y2743D02*
X4111Y2760D01*
X4128Y2743D01*
X4111Y2726D01*
X4095Y2743D01*
X4128Y2743D01*
X4111Y3064D02*
X4128Y3030D01*
X4128Y2962D01*
X4111Y2929D01*
X4095Y2912D01*
X4061Y2895D01*
X3960Y2895D01*
X3926Y2912D01*
X3909Y2929D01*
X3892Y2962D01*
X3892Y3030D01*
X3909Y3064D01*
X4128Y3266D02*
X4111Y3232D01*
X4095Y3215D01*
X4061Y3199D01*
X3960Y3199D01*
X3926Y3215D01*
X3909Y3232D01*
X3892Y3266D01*
X3892Y3317D01*
X3909Y3350D01*
X3926Y3367D01*
X3960Y3384D01*
X4061Y3384D01*
X4095Y3367D01*
X4111Y3350D01*
X4128Y3317D01*
X4128Y3266D01*
X8756Y15341D02*
X8915Y15341D01*
X8724Y15246D02*
X8835Y15580D01*
X8947Y15246D01*
X9202Y15246D02*
X9202Y15580D01*
X9202Y15262D02*
X9170Y15246D01*
X9106Y15246D01*
X9074Y15262D01*
X9058Y15278D01*
X9043Y15309D01*
X9043Y15405D01*
X9058Y15437D01*
X9074Y15453D01*
X9106Y15469D01*
X9170Y15469D01*
X9202Y15453D01*
X9361Y15469D02*
X9361Y15182D01*
X9345Y15150D01*
X9313Y15134D01*
X9297Y15134D01*
X9361Y15580D02*
X9345Y15564D01*
X9361Y15549D01*
X9377Y15564D01*
X9361Y15580D01*
X9361Y15549D01*
X2306Y6324D02*
X2194Y6484D01*
X2115Y6324D02*
X2115Y6659D01*
X2242Y6659D01*
X2274Y6643D01*
X2290Y6627D01*
X2306Y6595D01*
X2306Y6548D01*
X2290Y6516D01*
X2274Y6500D01*
X2242Y6484D01*
X2115Y6484D01*
X2433Y6340D02*
X2481Y6324D01*
X2561Y6324D01*
X2593Y6340D01*
X2609Y6356D01*
X2625Y6388D01*
X2625Y6420D01*
X2609Y6452D01*
X2593Y6468D01*
X2561Y6484D01*
X2497Y6500D01*
X2465Y6516D01*
X2449Y6532D01*
X2433Y6564D01*
X2433Y6595D01*
X2449Y6627D01*
X2465Y6643D01*
X2497Y6659D01*
X2577Y6659D01*
X2625Y6643D01*
X2720Y6659D02*
X2911Y6659D01*
X2816Y6324D02*
X2816Y6659D01*
X2306Y5829D02*
X2290Y5813D01*
X2242Y5797D01*
X2210Y5797D01*
X2162Y5813D01*
X2131Y5845D01*
X2115Y5877D01*
X2099Y5940D01*
X2099Y5988D01*
X2115Y6052D01*
X2131Y6084D01*
X2162Y6116D01*
X2210Y6132D01*
X2242Y6132D01*
X2290Y6116D01*
X2306Y6100D01*
X2593Y6020D02*
X2593Y5797D01*
X2449Y6020D02*
X2449Y5845D01*
X2465Y5813D01*
X2497Y5797D01*
X2545Y5797D01*
X2577Y5813D01*
X2593Y5829D01*
X2704Y6020D02*
X2832Y6020D01*
X2752Y6132D02*
X2752Y5845D01*
X2768Y5813D01*
X2800Y5797D01*
X2832Y5797D01*
X2991Y5797D02*
X2959Y5813D01*
X2943Y5829D01*
X2927Y5861D01*
X2927Y5956D01*
X2943Y5988D01*
X2959Y6004D01*
X2991Y6020D01*
X3039Y6020D01*
X3071Y6004D01*
X3087Y5988D01*
X3103Y5956D01*
X3103Y5861D01*
X3087Y5829D01*
X3071Y5813D01*
X3039Y5797D01*
X2991Y5797D01*
X3198Y6020D02*
X3326Y6020D01*
X3246Y5797D02*
X3246Y6084D01*
X3262Y6116D01*
X3294Y6132D01*
X3326Y6132D01*
X3389Y6020D02*
X3517Y6020D01*
X3437Y5797D02*
X3437Y6084D01*
X3453Y6116D01*
X3485Y6132D01*
X3517Y6132D01*
X3595Y16348D02*
X3735Y16348D01*
X3567Y16264D02*
X3665Y16559D01*
X3764Y16264D01*
X3904Y16264D02*
X3876Y16278D01*
X3862Y16306D01*
X3862Y16559D01*
X3974Y16460D02*
X4087Y16460D01*
X4017Y16559D02*
X4017Y16306D01*
X4031Y16278D01*
X4059Y16264D01*
X4087Y16264D01*
X4185Y16292D02*
X4199Y16278D01*
X4185Y16264D01*
X4171Y16278D01*
X4185Y16292D01*
X4185Y16264D01*
X3546Y15946D02*
X3588Y15932D01*
X3602Y15918D01*
X3616Y15890D01*
X3616Y15847D01*
X3602Y15819D01*
X3588Y15805D01*
X3560Y15791D01*
X3447Y15791D01*
X3447Y16086D01*
X3546Y16086D01*
X3574Y16072D01*
X3588Y16058D01*
X3602Y16030D01*
X3602Y16002D01*
X3588Y15974D01*
X3574Y15960D01*
X3546Y15946D01*
X3447Y15946D01*
X3869Y15791D02*
X3869Y15946D01*
X3855Y15974D01*
X3827Y15988D01*
X3771Y15988D01*
X3742Y15974D01*
X3869Y15805D02*
X3841Y15791D01*
X3771Y15791D01*
X3742Y15805D01*
X3728Y15833D01*
X3728Y15861D01*
X3742Y15890D01*
X3771Y15904D01*
X3841Y15904D01*
X3869Y15918D01*
X3967Y15988D02*
X4080Y15988D01*
X4010Y16086D02*
X4010Y15833D01*
X4024Y15805D01*
X4052Y15791D01*
X4080Y15791D01*
X4136Y15988D02*
X4249Y15988D01*
X4178Y16086D02*
X4178Y15833D01*
X4192Y15805D01*
X4221Y15791D01*
X4249Y15791D01*
X4347Y15819D02*
X4361Y15805D01*
X4347Y15791D01*
X4333Y15805D01*
X4347Y15819D01*
X4347Y15791D01*
G54D11*
X3200Y14784D02*
X3247Y14768D01*
X3263Y14752D01*
X3279Y14720D01*
X3279Y14673D01*
X3263Y14641D01*
X3247Y14625D01*
X3215Y14609D01*
X3088Y14609D01*
X3088Y14944D01*
X3200Y14944D01*
X3231Y14928D01*
X3247Y14912D01*
X3263Y14880D01*
X3263Y14848D01*
X3247Y14816D01*
X3231Y14800D01*
X3200Y14784D01*
X3088Y14784D01*
X3566Y14609D02*
X3566Y14784D01*
X3550Y14816D01*
X3518Y14832D01*
X3455Y14832D01*
X3423Y14816D01*
X3566Y14625D02*
X3534Y14609D01*
X3455Y14609D01*
X3423Y14625D01*
X3407Y14657D01*
X3407Y14689D01*
X3423Y14720D01*
X3455Y14736D01*
X3534Y14736D01*
X3566Y14752D01*
X3678Y14832D02*
X3805Y14832D01*
X3725Y14944D02*
X3725Y14657D01*
X3741Y14625D01*
X3773Y14609D01*
X3805Y14609D01*
X3869Y14832D02*
X3996Y14832D01*
X3917Y14944D02*
X3917Y14657D01*
X3933Y14625D01*
X3964Y14609D01*
X3996Y14609D01*
X4108Y14641D02*
X4124Y14625D01*
X4108Y14609D01*
X4092Y14625D01*
X4108Y14641D01*
X4108Y14609D01*
X3112Y14103D02*
X3096Y14087D01*
X3048Y14072D01*
X3016Y14072D01*
X2968Y14087D01*
X2937Y14119D01*
X2921Y14151D01*
X2905Y14215D01*
X2905Y14263D01*
X2921Y14327D01*
X2937Y14358D01*
X2968Y14390D01*
X3016Y14406D01*
X3048Y14406D01*
X3096Y14390D01*
X3112Y14374D01*
X3399Y14295D02*
X3399Y14072D01*
X3255Y14295D02*
X3255Y14119D01*
X3271Y14087D01*
X3303Y14072D01*
X3351Y14072D01*
X3383Y14087D01*
X3399Y14103D01*
X3510Y14295D02*
X3638Y14295D01*
X3558Y14406D02*
X3558Y14119D01*
X3574Y14087D01*
X3606Y14072D01*
X3638Y14072D01*
X3797Y14072D02*
X3765Y14087D01*
X3749Y14103D01*
X3733Y14135D01*
X3733Y14231D01*
X3749Y14263D01*
X3765Y14279D01*
X3797Y14295D01*
X3845Y14295D01*
X3877Y14279D01*
X3893Y14263D01*
X3909Y14231D01*
X3909Y14135D01*
X3893Y14103D01*
X3877Y14087D01*
X3845Y14072D01*
X3797Y14072D01*
X4004Y14295D02*
X4132Y14295D01*
X4052Y14072D02*
X4052Y14358D01*
X4068Y14390D01*
X4100Y14406D01*
X4132Y14406D01*
X4196Y14295D02*
X4323Y14295D01*
X4243Y14072D02*
X4243Y14358D01*
X4259Y14390D01*
X4291Y14406D01*
X4323Y14406D01*
G54D12*
X6571Y17218D02*
X6571Y17359D01*
X6866Y17359D01*
X6571Y17077D02*
X6585Y17106D01*
X6599Y17120D01*
X6627Y17134D01*
X6711Y17134D01*
X6739Y17120D01*
X6753Y17106D01*
X6767Y17077D01*
X6767Y17035D01*
X6753Y17007D01*
X6739Y16993D01*
X6711Y16979D01*
X6627Y16979D01*
X6599Y16993D01*
X6585Y17007D01*
X6571Y17035D01*
X6571Y17077D01*
X6571Y16726D02*
X6725Y16726D01*
X6753Y16740D01*
X6767Y16768D01*
X6767Y16824D01*
X6753Y16852D01*
X6585Y16726D02*
X6571Y16754D01*
X6571Y16824D01*
X6585Y16852D01*
X6613Y16866D01*
X6641Y16866D01*
X6669Y16852D01*
X6683Y16824D01*
X6683Y16754D01*
X6697Y16726D01*
X6571Y16459D02*
X6866Y16459D01*
X6585Y16459D02*
X6571Y16487D01*
X6571Y16543D01*
X6585Y16571D01*
X6599Y16585D01*
X6627Y16599D01*
X6711Y16599D01*
X6739Y16585D01*
X6753Y16571D01*
X6767Y16543D01*
X6767Y16487D01*
X6753Y16459D01*
X6585Y16206D02*
X6571Y16234D01*
X6571Y16290D01*
X6585Y16318D01*
X6613Y16332D01*
X6725Y16332D01*
X6753Y16318D01*
X6767Y16290D01*
X6767Y16234D01*
X6753Y16206D01*
X6725Y16192D01*
X6697Y16192D01*
X6669Y16332D01*
X6571Y15938D02*
X6866Y15938D01*
X6585Y15938D02*
X6571Y15967D01*
X6571Y16023D01*
X6585Y16051D01*
X6599Y16065D01*
X6627Y16079D01*
X6711Y16079D01*
X6739Y16065D01*
X6753Y16051D01*
X6767Y16023D01*
X6767Y15967D01*
X6753Y15938D01*
X6599Y15798D02*
X6585Y15784D01*
X6571Y15798D01*
X6585Y15812D01*
X6599Y15798D01*
X6571Y15798D01*
X6683Y15798D02*
X6852Y15812D01*
X6866Y15798D01*
X6852Y15784D01*
X6683Y15798D01*
X6866Y15798D01*
G54D10*
X7177Y15900D02*
X7252Y15900D01*
X7290Y15919D01*
X7308Y15938D01*
X7346Y15994D01*
X7365Y16069D01*
X7365Y16219D01*
X7346Y16256D01*
X7327Y16275D01*
X7290Y16294D01*
X7215Y16294D01*
X7177Y16275D01*
X7158Y16256D01*
X7140Y16219D01*
X7140Y16125D01*
X7158Y16088D01*
X7177Y16069D01*
X7215Y16050D01*
X7290Y16050D01*
X7327Y16069D01*
X7346Y16088D01*
X7365Y16125D01*
X7477Y16294D02*
X7608Y15900D01*
X7740Y16294D01*
X8171Y15900D02*
X8171Y16294D01*
X8302Y16013D01*
X8433Y16294D01*
X8433Y15900D01*
X8790Y15900D02*
X8790Y16106D01*
X8771Y16144D01*
X8733Y16163D01*
X8658Y16163D01*
X8621Y16144D01*
X8790Y15919D02*
X8752Y15900D01*
X8658Y15900D01*
X8621Y15919D01*
X8602Y15956D01*
X8602Y15994D01*
X8621Y16031D01*
X8658Y16050D01*
X8752Y16050D01*
X8790Y16069D01*
X8940Y15900D02*
X9146Y16163D01*
X8940Y16163D02*
X9146Y15900D01*
G54D13*
X2494Y17121D02*
X2510Y17152D01*
X2510Y17200D01*
X2494Y17248D01*
X2462Y17280D01*
X2430Y17296D01*
X2366Y17312D01*
X2318Y17312D01*
X2255Y17296D01*
X2223Y17280D01*
X2191Y17248D01*
X2175Y17200D01*
X2175Y17168D01*
X2191Y17121D01*
X2207Y17105D01*
X2318Y17105D01*
X2318Y17168D01*
X2175Y16961D02*
X2510Y16961D01*
X2175Y16770D01*
X2510Y16770D01*
X2175Y16611D02*
X2510Y16611D01*
X2510Y16531D01*
X2494Y16483D01*
X2462Y16451D01*
X2430Y16435D01*
X2366Y16419D01*
X2318Y16419D01*
X2255Y16435D01*
X2223Y16451D01*
X2191Y16483D01*
X2175Y16531D01*
X2175Y16611D01*
G54D12*
X8872Y14660D02*
X8872Y14955D01*
X8984Y14955D01*
X9012Y14941D01*
X9026Y14927D01*
X9040Y14899D01*
X9040Y14857D01*
X9026Y14829D01*
X9012Y14815D01*
X8984Y14801D01*
X8872Y14801D01*
X9265Y14815D02*
X9167Y14815D01*
X9167Y14660D02*
X9167Y14955D01*
X9307Y14955D01*
X9406Y14927D02*
X9420Y14941D01*
X9448Y14955D01*
X9518Y14955D01*
X9546Y14941D01*
X9561Y14927D01*
X9575Y14899D01*
X9575Y14871D01*
X9561Y14829D01*
X9392Y14660D01*
X9575Y14660D01*
X8780Y14493D02*
X8780Y14282D01*
X8766Y14240D01*
X8738Y14212D01*
X8696Y14198D01*
X8668Y14198D01*
X8921Y14198D02*
X8921Y14493D01*
X9033Y14493D01*
X9061Y14479D01*
X9075Y14465D01*
X9089Y14437D01*
X9089Y14394D01*
X9075Y14366D01*
X9061Y14352D01*
X9033Y14338D01*
X8921Y14338D01*
X9385Y14198D02*
X9286Y14338D01*
X9216Y14198D02*
X9216Y14493D01*
X9329Y14493D01*
X9357Y14479D01*
X9371Y14465D01*
X9385Y14437D01*
X9385Y14394D01*
X9371Y14366D01*
X9357Y14352D01*
X9329Y14338D01*
X9216Y14338D01*
X9511Y14310D02*
X9736Y14310D01*
X9680Y14254D02*
X9736Y14310D01*
X9680Y14366D01*
X8875Y13015D02*
X8875Y13310D01*
X8988Y13310D01*
X9016Y13296D01*
X9030Y13282D01*
X9044Y13254D01*
X9044Y13211D01*
X9030Y13183D01*
X9016Y13169D01*
X8988Y13155D01*
X8875Y13155D01*
X9269Y13169D02*
X9171Y13169D01*
X9171Y13015D02*
X9171Y13310D01*
X9311Y13310D01*
X9396Y13310D02*
X9579Y13310D01*
X9480Y13197D01*
X9522Y13197D01*
X9550Y13183D01*
X9564Y13169D01*
X9579Y13141D01*
X9579Y13071D01*
X9564Y13043D01*
X9550Y13029D01*
X9522Y13015D01*
X9438Y13015D01*
X9410Y13029D01*
X9396Y13043D01*
X8784Y12847D02*
X8784Y12636D01*
X8770Y12594D01*
X8742Y12566D01*
X8700Y12552D01*
X8672Y12552D01*
X8925Y12552D02*
X8925Y12847D01*
X9037Y12847D01*
X9065Y12833D01*
X9079Y12819D01*
X9093Y12791D01*
X9093Y12749D01*
X9079Y12721D01*
X9065Y12707D01*
X9037Y12693D01*
X8925Y12693D01*
X9389Y12552D02*
X9290Y12693D01*
X9220Y12552D02*
X9220Y12847D01*
X9332Y12847D01*
X9361Y12833D01*
X9375Y12819D01*
X9389Y12791D01*
X9389Y12749D01*
X9375Y12721D01*
X9361Y12707D01*
X9332Y12693D01*
X9220Y12693D01*
X9515Y12664D02*
X9740Y12664D01*
X9684Y12608D02*
X9740Y12664D01*
X9684Y12721D01*
G54D14*
X8994Y8181D02*
X8994Y8477D01*
X9106Y8477D01*
X9134Y8463D01*
X9149Y8449D01*
X9163Y8420D01*
X9163Y8378D01*
X9149Y8350D01*
X9134Y8336D01*
X9106Y8322D01*
X8994Y8322D01*
X9289Y8336D02*
X9388Y8336D01*
X9430Y8181D02*
X9289Y8181D01*
X9289Y8477D01*
X9430Y8477D01*
X9683Y8378D02*
X9683Y8181D01*
X9613Y8491D02*
X9542Y8280D01*
X9725Y8280D01*
X8741Y8019D02*
X8741Y7808D01*
X8727Y7766D01*
X8699Y7738D01*
X8656Y7724D01*
X8628Y7724D01*
X8881Y7724D02*
X8881Y8019D01*
X8994Y8019D01*
X9022Y8005D01*
X9036Y7991D01*
X9050Y7963D01*
X9050Y7921D01*
X9036Y7892D01*
X9022Y7878D01*
X8994Y7864D01*
X8881Y7864D01*
X9345Y7724D02*
X9247Y7864D01*
X9177Y7724D02*
X9177Y8019D01*
X9289Y8019D01*
X9317Y8005D01*
X9331Y7991D01*
X9345Y7963D01*
X9345Y7921D01*
X9331Y7892D01*
X9317Y7878D01*
X9289Y7864D01*
X9177Y7864D01*
X9472Y7836D02*
X9697Y7836D01*
X9641Y7780D02*
X9697Y7836D01*
X9641Y7892D01*
G54D10*
X2487Y11273D02*
X2356Y11460D01*
X2262Y11273D02*
X2262Y11666D01*
X2412Y11666D01*
X2450Y11648D01*
X2469Y11629D01*
X2487Y11591D01*
X2487Y11535D01*
X2469Y11498D01*
X2450Y11479D01*
X2412Y11460D01*
X2262Y11460D01*
X2637Y11291D02*
X2675Y11273D01*
X2750Y11273D01*
X2787Y11291D01*
X2806Y11329D01*
X2806Y11348D01*
X2787Y11385D01*
X2750Y11404D01*
X2694Y11404D01*
X2656Y11423D01*
X2637Y11460D01*
X2637Y11479D01*
X2656Y11516D01*
X2694Y11535D01*
X2750Y11535D01*
X2787Y11516D01*
X2919Y11535D02*
X3068Y11535D01*
X2975Y11666D02*
X2975Y11329D01*
X2994Y11291D01*
X3031Y11273D01*
X3068Y11273D01*
X2169Y11734D02*
X3106Y11734D01*
X2262Y12847D02*
X2262Y13241D01*
X2356Y13241D01*
X2412Y13222D01*
X2450Y13185D01*
X2469Y13147D01*
X2487Y13072D01*
X2487Y13016D01*
X2469Y12941D01*
X2450Y12904D01*
X2412Y12866D01*
X2356Y12847D01*
X2262Y12847D01*
X2656Y12847D02*
X2656Y13241D01*
X2844Y13110D02*
X2844Y12847D01*
X2844Y13072D02*
X2862Y13091D01*
X2900Y13110D01*
X2956Y13110D01*
X2994Y13091D01*
X3012Y13054D01*
X3012Y12847D01*
X86Y13684D02*
X86Y13999D01*
X161Y13999D01*
X206Y13984D01*
X236Y13954D01*
X251Y13924D01*
X266Y13864D01*
X266Y13819D01*
X251Y13759D01*
X236Y13729D01*
X206Y13699D01*
X161Y13684D01*
X86Y13684D01*
X461Y13999D02*
X521Y13999D01*
X551Y13984D01*
X581Y13954D01*
X596Y13894D01*
X596Y13789D01*
X581Y13729D01*
X551Y13699D01*
X521Y13684D01*
X461Y13684D01*
X431Y13699D01*
X401Y13729D01*
X386Y13789D01*
X386Y13894D01*
X401Y13954D01*
X431Y13984D01*
X461Y13999D01*
X866Y13894D02*
X866Y13684D01*
X731Y13894D02*
X731Y13729D01*
X746Y13699D01*
X776Y13684D01*
X821Y13684D01*
X851Y13699D01*
X866Y13714D01*
X971Y13894D02*
X1091Y13894D01*
X1016Y13999D02*
X1016Y13729D01*
X1031Y13699D01*
X1061Y13684D01*
X1091Y13684D01*
G54D13*
X340Y7688D02*
X306Y7705D01*
X255Y7705D01*
X205Y7688D01*
X171Y7655D01*
X154Y7621D01*
X137Y7553D01*
X137Y7503D01*
X154Y7435D01*
X171Y7402D01*
X205Y7368D01*
X255Y7351D01*
X289Y7351D01*
X340Y7368D01*
X357Y7385D01*
X357Y7503D01*
X289Y7503D01*
X508Y7351D02*
X508Y7705D01*
X711Y7351D01*
X711Y7705D01*
X880Y7351D02*
X880Y7705D01*
X964Y7705D01*
X1015Y7688D01*
X1048Y7655D01*
X1065Y7621D01*
X1082Y7553D01*
X1082Y7503D01*
X1065Y7435D01*
X1048Y7402D01*
X1015Y7368D01*
X964Y7351D01*
X880Y7351D01*
X215Y15201D02*
X435Y15201D01*
X317Y15066D01*
X367Y15066D01*
X401Y15050D01*
X418Y15033D01*
X435Y14999D01*
X435Y14915D01*
X418Y14881D01*
X401Y14864D01*
X367Y14847D01*
X266Y14847D01*
X232Y14864D01*
X215Y14881D01*
X553Y15083D02*
X637Y14847D01*
X722Y15083D01*
X823Y15201D02*
X1042Y15201D01*
X924Y15066D01*
X975Y15066D01*
X1008Y15050D01*
X1025Y15033D01*
X1042Y14999D01*
X1042Y14915D01*
X1025Y14881D01*
X1008Y14864D01*
X975Y14847D01*
X874Y14847D01*
X840Y14864D01*
X823Y14881D01*
G54D12*
X8060Y6132D02*
X7929Y6320D01*
X7835Y6132D02*
X7835Y6526D01*
X7985Y6526D01*
X8022Y6507D01*
X8041Y6489D01*
X8060Y6451D01*
X8060Y6395D01*
X8041Y6357D01*
X8022Y6339D01*
X7985Y6320D01*
X7835Y6320D01*
X8191Y6526D02*
X8454Y6132D01*
X8454Y6526D02*
X8191Y6132D01*
X3538Y6526D02*
X3763Y6526D01*
X3651Y6132D02*
X3651Y6526D01*
X3857Y6526D02*
X4119Y6132D01*
X4119Y6526D02*
X3857Y6132D01*
X5246Y16212D02*
X5246Y16113D01*
X5401Y16113D02*
X5106Y16113D01*
X5106Y16254D01*
X5204Y16493D02*
X5401Y16493D01*
X5204Y16366D02*
X5359Y16366D01*
X5387Y16381D01*
X5401Y16409D01*
X5401Y16451D01*
X5387Y16479D01*
X5373Y16493D01*
X5401Y16676D02*
X5387Y16648D01*
X5359Y16634D01*
X5106Y16634D01*
X5401Y16830D02*
X5387Y16802D01*
X5359Y16788D01*
X5106Y16788D01*
X5204Y16915D02*
X5401Y16985D01*
X5204Y17055D02*
X5401Y16985D01*
X5471Y16957D01*
X5485Y16943D01*
X5499Y16915D01*
G54D13*
X9442Y16611D02*
X9426Y16579D01*
X9426Y16531D01*
X9442Y16483D01*
X9474Y16451D01*
X9506Y16435D01*
X9570Y16419D01*
X9618Y16419D01*
X9681Y16435D01*
X9713Y16451D01*
X9745Y16483D01*
X9761Y16531D01*
X9761Y16563D01*
X9745Y16611D01*
X9729Y16627D01*
X9618Y16627D01*
X9618Y16563D01*
X9761Y16770D02*
X9426Y16770D01*
X9761Y16961D01*
X9426Y16961D01*
X9761Y17121D02*
X9426Y17121D01*
X9426Y17200D01*
X9442Y17248D01*
X9474Y17280D01*
X9506Y17296D01*
X9570Y17312D01*
X9618Y17312D01*
X9681Y17296D01*
X9713Y17280D01*
X9745Y17248D01*
X9761Y17200D01*
X9761Y17121D01*
G54D12*
X5170Y528D02*
X5170Y784D01*
X5255Y602D01*
X5340Y784D01*
X5340Y528D01*
X5560Y541D02*
X5535Y528D01*
X5487Y528D01*
X5462Y541D01*
X5450Y565D01*
X5450Y662D01*
X5462Y687D01*
X5487Y699D01*
X5535Y699D01*
X5560Y687D01*
X5572Y662D01*
X5572Y638D01*
X5450Y614D01*
X5669Y541D02*
X5694Y528D01*
X5743Y528D01*
X5767Y541D01*
X5779Y565D01*
X5779Y577D01*
X5767Y602D01*
X5743Y614D01*
X5706Y614D01*
X5682Y626D01*
X5669Y650D01*
X5669Y662D01*
X5682Y687D01*
X5706Y699D01*
X5743Y699D01*
X5767Y687D01*
X5889Y528D02*
X5889Y784D01*
X5998Y528D02*
X5998Y662D01*
X5986Y687D01*
X5962Y699D01*
X5925Y699D01*
X5901Y687D01*
X5889Y675D01*
X6120Y784D02*
X6120Y577D01*
X6133Y553D01*
X6145Y541D01*
X6169Y528D01*
X6218Y528D01*
X6242Y541D01*
X6254Y553D01*
X6267Y577D01*
X6267Y784D01*
X6376Y541D02*
X6413Y528D01*
X6474Y528D01*
X6498Y541D01*
X6510Y553D01*
X6522Y577D01*
X6522Y602D01*
X6510Y626D01*
X6498Y638D01*
X6474Y650D01*
X6425Y662D01*
X6401Y675D01*
X6388Y687D01*
X6376Y711D01*
X6376Y736D01*
X6388Y760D01*
X6401Y772D01*
X6425Y784D01*
X6486Y784D01*
X6522Y772D01*
X6717Y662D02*
X6754Y650D01*
X6766Y638D01*
X6778Y614D01*
X6778Y577D01*
X6766Y553D01*
X6754Y541D01*
X6730Y528D01*
X6632Y528D01*
X6632Y784D01*
X6717Y784D01*
X6742Y772D01*
X6754Y760D01*
X6766Y736D01*
X6766Y711D01*
X6754Y687D01*
X6742Y675D01*
X6717Y662D01*
X6632Y662D01*
X5602Y292D02*
X5663Y121D01*
X5724Y292D01*
X5871Y377D02*
X5895Y377D01*
X5919Y365D01*
X5931Y352D01*
X5944Y328D01*
X5956Y279D01*
X5956Y218D01*
X5944Y170D01*
X5931Y145D01*
X5919Y133D01*
X5895Y121D01*
X5871Y121D01*
X5846Y133D01*
X5834Y145D01*
X5822Y170D01*
X5810Y218D01*
X5810Y279D01*
X5822Y328D01*
X5834Y352D01*
X5846Y365D01*
X5871Y377D01*
X6065Y145D02*
X6078Y133D01*
X6065Y121D01*
X6053Y133D01*
X6065Y145D01*
X6065Y121D01*
X6163Y377D02*
X6321Y377D01*
X6236Y279D01*
X6273Y279D01*
X6297Y267D01*
X6309Y255D01*
X6321Y231D01*
X6321Y170D01*
X6309Y145D01*
X6297Y133D01*
X6273Y121D01*
X6200Y121D01*
X6175Y133D01*
X6163Y145D01*
G54D10*
X2661Y16057D02*
X1638Y15191D01*
X9275Y16057D02*
X10228Y15246D01*
G54D15*
X9133Y17366D02*
X9133Y16366D01*
X9133Y16366D02*
X7133Y16366D01*
X7133Y16366D02*
X7133Y17366D01*
X7133Y17366D02*
X9133Y17366D01*
G54D10*
X5527Y5452D02*
G75*
G03X5531Y5834I-188J192D01*
G74*
G01*
X6409Y5838D02*
G75*
G03X6405Y5456I188J-192D01*
G74*
G01*
X5082Y4976D02*
X6854Y4976D01*
X5082Y6314D02*
X6854Y6314D01*
G54D16*
X8267Y8582D02*
X8542Y8582D01*
X7873Y8582D02*
X7598Y8582D01*
X8267Y9094D02*
X8542Y9094D01*
X7598Y9094D02*
X7873Y9094D01*
X8542Y9088D02*
X8542Y8588D01*
X7598Y8588D02*
X7598Y9088D01*
X3669Y9094D02*
X3394Y9094D01*
X4063Y9094D02*
X4338Y9094D01*
X3669Y8582D02*
X3394Y8582D01*
X4338Y8582D02*
X4063Y8582D01*
X3394Y8588D02*
X3394Y9088D01*
X4338Y9088D02*
X4338Y8588D01*
X4063Y9192D02*
X4338Y9192D01*
X3669Y9192D02*
X3394Y9192D01*
X4063Y9704D02*
X4338Y9704D01*
X3394Y9704D02*
X3669Y9704D01*
X4338Y9698D02*
X4338Y9198D01*
X3394Y9198D02*
X3394Y9698D01*
G54D17*
X8267Y7343D02*
X8545Y7343D01*
X8545Y7343D02*
X8545Y7893D01*
X8545Y7893D02*
X8267Y7893D01*
X7595Y7343D02*
X7873Y7343D01*
X7595Y7343D02*
X7595Y7893D01*
X7595Y7893D02*
X7873Y7893D01*
X3669Y7893D02*
X3391Y7893D01*
X3391Y7893D02*
X3391Y7343D01*
X3391Y7343D02*
X3669Y7343D01*
X4341Y7893D02*
X4063Y7893D01*
X4341Y7893D02*
X4341Y7343D01*
X4341Y7343D02*
X4063Y7343D01*
X7719Y5842D02*
X7719Y6120D01*
X7719Y6120D02*
X7169Y6120D01*
X7169Y6120D02*
X7169Y5842D01*
X7719Y5170D02*
X7719Y5448D01*
X7719Y5170D02*
X7169Y5170D01*
X7169Y5170D02*
X7169Y5448D01*
X4747Y5842D02*
X4747Y6120D01*
X4747Y6120D02*
X4197Y6120D01*
X4197Y6120D02*
X4197Y5842D01*
X4747Y5170D02*
X4747Y5448D01*
X4747Y5170D02*
X4197Y5170D01*
X4197Y5170D02*
X4197Y5448D01*
X4063Y7953D02*
X4341Y7953D01*
X4341Y7953D02*
X4341Y8503D01*
X4341Y8503D02*
X4063Y8503D01*
X3391Y7953D02*
X3669Y7953D01*
X3391Y7953D02*
X3391Y8503D01*
X3391Y8503D02*
X3669Y8503D01*
X7873Y8503D02*
X7595Y8503D01*
X7595Y8503D02*
X7595Y7953D01*
X7595Y7953D02*
X7873Y7953D01*
X8545Y8503D02*
X8267Y8503D01*
X8545Y8503D02*
X8545Y7953D01*
X8545Y7953D02*
X8267Y7953D01*
X6165Y15803D02*
X6443Y15803D01*
X6443Y15803D02*
X6443Y16353D01*
X6443Y16353D02*
X6165Y16353D01*
X5493Y15803D02*
X5771Y15803D01*
X5493Y15803D02*
X5493Y16353D01*
X5493Y16353D02*
X5771Y16353D01*
G54D18*
G36*
X6770Y3437D02*
X6780Y3441D01*
X6800Y3455D01*
X6830Y3474D01*
X6865Y3497D01*
X6900Y3521D01*
X6929Y3540D01*
X6949Y3553D01*
X6957Y3558D01*
X6962Y3556D01*
X6979Y3548D01*
X7003Y3536D01*
X7017Y3528D01*
X7039Y3519D01*
X7050Y3517D01*
X7052Y3520D01*
X7060Y3537D01*
X7073Y3566D01*
X7090Y3604D01*
X7109Y3649D01*
X7129Y3698D01*
X7150Y3747D01*
X7169Y3794D01*
X7187Y3837D01*
X7201Y3871D01*
X7210Y3895D01*
X7213Y3906D01*
X7212Y3908D01*
X7201Y3919D01*
X7182Y3933D01*
X7140Y3967D01*
X7098Y4019D01*
X7073Y4077D01*
X7065Y4143D01*
X7072Y4203D01*
X7096Y4261D01*
X7136Y4313D01*
X7185Y4352D01*
X7243Y4376D01*
X7307Y4384D01*
X7368Y4377D01*
X7428Y4354D01*
X7480Y4314D01*
X7502Y4289D01*
X7532Y4236D01*
X7550Y4180D01*
X7552Y4165D01*
X7549Y4103D01*
X7531Y4043D01*
X7498Y3990D01*
X7452Y3946D01*
X7447Y3942D01*
X7425Y3926D01*
X7411Y3915D01*
X7400Y3906D01*
X7479Y3716D01*
X7492Y3685D01*
X7514Y3633D01*
X7533Y3588D01*
X7548Y3553D01*
X7559Y3529D01*
X7563Y3519D01*
X7564Y3519D01*
X7571Y3517D01*
X7585Y3523D01*
X7612Y3536D01*
X7630Y3545D01*
X7650Y3554D01*
X7659Y3558D01*
X7667Y3554D01*
X7686Y3541D01*
X7714Y3522D01*
X7749Y3499D01*
X7781Y3477D01*
X7811Y3457D01*
X7833Y3443D01*
X7843Y3438D01*
X7845Y3438D01*
X7854Y3443D01*
X7871Y3457D01*
X7897Y3482D01*
X7934Y3518D01*
X7940Y3524D01*
X7970Y3554D01*
X7994Y3580D01*
X8011Y3598D01*
X8017Y3607D01*
X8017Y3607D01*
X8011Y3617D01*
X7998Y3639D01*
X7978Y3669D01*
X7954Y3705D01*
X7891Y3796D01*
X7925Y3883D01*
X7936Y3909D01*
X7949Y3942D01*
X7960Y3965D01*
X7965Y3975D01*
X7974Y3978D01*
X7998Y3984D01*
X8032Y3991D01*
X8073Y3998D01*
X8112Y4006D01*
X8147Y4012D01*
X8173Y4017D01*
X8184Y4019D01*
X8187Y4021D01*
X8189Y4027D01*
X8191Y4039D01*
X8192Y4060D01*
X8192Y4094D01*
X8192Y4143D01*
X8192Y4148D01*
X8192Y4195D01*
X8191Y4232D01*
X8190Y4255D01*
X8188Y4265D01*
X8188Y4265D01*
X8177Y4268D01*
X8152Y4273D01*
X8117Y4280D01*
X8075Y4288D01*
X8072Y4288D01*
X8030Y4297D01*
X7995Y4304D01*
X7971Y4309D01*
X7960Y4313D01*
X7958Y4316D01*
X7950Y4332D01*
X7938Y4358D01*
X7924Y4390D01*
X7910Y4423D01*
X7898Y4452D01*
X7890Y4474D01*
X7888Y4484D01*
X7888Y4485D01*
X7894Y4495D01*
X7909Y4516D01*
X7929Y4546D01*
X7953Y4582D01*
X7955Y4585D01*
X7979Y4620D01*
X7999Y4650D01*
X8012Y4672D01*
X8017Y4681D01*
X8017Y4682D01*
X8009Y4692D01*
X7991Y4712D01*
X7965Y4739D01*
X7934Y4771D01*
X7924Y4780D01*
X7890Y4814D01*
X7866Y4836D01*
X7851Y4848D01*
X7844Y4850D01*
X7843Y4850D01*
X7833Y4844D01*
X7810Y4829D01*
X7780Y4809D01*
X7744Y4784D01*
X7742Y4782D01*
X7706Y4758D01*
X7677Y4738D01*
X7656Y4725D01*
X7647Y4719D01*
X7645Y4719D01*
X7631Y4723D01*
X7605Y4732D01*
X7574Y4744D01*
X7542Y4757D01*
X7512Y4770D01*
X7490Y4780D01*
X7479Y4786D01*
X7479Y4786D01*
X7475Y4799D01*
X7469Y4826D01*
X7461Y4862D01*
X7453Y4905D01*
X7452Y4912D01*
X7444Y4955D01*
X7437Y4990D01*
X7432Y5014D01*
X7430Y5024D01*
X7424Y5025D01*
X7403Y5026D01*
X7372Y5027D01*
X7333Y5028D01*
X7294Y5027D01*
X7255Y5027D01*
X7221Y5025D01*
X7197Y5024D01*
X7187Y5022D01*
X7187Y5021D01*
X7183Y5008D01*
X7178Y4982D01*
X7170Y4945D01*
X7162Y4901D01*
X7160Y4894D01*
X7152Y4852D01*
X7145Y4817D01*
X7140Y4793D01*
X7138Y4784D01*
X7134Y4782D01*
X7116Y4774D01*
X7088Y4763D01*
X7053Y4749D01*
X6972Y4716D01*
X6873Y4784D01*
X6864Y4790D01*
X6828Y4814D01*
X6798Y4834D01*
X6778Y4847D01*
X6770Y4852D01*
X6769Y4852D01*
X6759Y4843D01*
X6739Y4825D01*
X6712Y4798D01*
X6681Y4767D01*
X6658Y4744D01*
X6630Y4716D01*
X6613Y4697D01*
X6604Y4685D01*
X6600Y4678D01*
X6601Y4673D01*
X6607Y4663D01*
X6622Y4641D01*
X6643Y4611D01*
X6667Y4576D01*
X6687Y4546D01*
X6708Y4513D01*
X6722Y4489D01*
X6727Y4478D01*
X6726Y4473D01*
X6719Y4453D01*
X6707Y4424D01*
X6692Y4389D01*
X6658Y4310D01*
X6606Y4300D01*
X6575Y4294D01*
X6531Y4286D01*
X6489Y4278D01*
X6424Y4265D01*
X6422Y4026D01*
X6432Y4021D01*
X6441Y4019D01*
X6466Y4013D01*
X6500Y4006D01*
X6541Y3999D01*
X6576Y3992D01*
X6611Y3986D01*
X6636Y3981D01*
X6647Y3978D01*
X6650Y3975D01*
X6658Y3958D01*
X6671Y3931D01*
X6685Y3898D01*
X6699Y3865D01*
X6711Y3834D01*
X6720Y3810D01*
X6723Y3798D01*
X6718Y3789D01*
X6705Y3768D01*
X6686Y3739D01*
X6662Y3704D01*
X6638Y3669D01*
X6618Y3639D01*
X6604Y3618D01*
X6598Y3608D01*
X6601Y3602D01*
X6615Y3585D01*
X6641Y3558D01*
X6680Y3519D01*
X6687Y3513D01*
X6718Y3483D01*
X6744Y3459D01*
X6762Y3443D01*
X6770Y3437D01*
X6770Y3437D01*
G37*
G54D10*
X6677Y9996D02*
X6677Y10377D01*
X6677Y11314D02*
X6677Y11110D01*
X6677Y11110D02*
X6677Y11492D01*
X6185Y11314D02*
X6185Y10173D01*
X6893Y10173D02*
X5082Y10173D01*
X6893Y11314D02*
X5082Y11314D01*
G54D17*
X8622Y5448D02*
X8622Y5170D01*
X8622Y5170D02*
X9172Y5170D01*
X9172Y5170D02*
X9172Y5448D01*
X8622Y6120D02*
X8622Y5842D01*
X8622Y6120D02*
X9172Y6120D01*
X9172Y6120D02*
X9172Y5842D01*
X9262Y5448D02*
X9262Y5170D01*
X9262Y5170D02*
X9812Y5170D01*
X9812Y5170D02*
X9812Y5448D01*
X9262Y6120D02*
X9262Y5842D01*
X9262Y6120D02*
X9812Y6120D01*
X9812Y6120D02*
X9812Y5842D01*
G54D16*
X7873Y9704D02*
X7598Y9704D01*
X8267Y9704D02*
X8542Y9704D01*
X7873Y9192D02*
X7598Y9192D01*
X8542Y9192D02*
X8267Y9192D01*
X7598Y9198D02*
X7598Y9698D01*
X8542Y9698D02*
X8542Y9198D01*
G54D19*
X3402Y10527D02*
G75*
G03X3402Y10527I-62J0D01*
G74*
G01*
X4303Y10865D02*
X4303Y10465D01*
X3278Y10865D02*
X3278Y10465D01*
X4303Y10465D02*
X3278Y10465D01*
X3278Y10865D02*
X4303Y10865D01*
X8647Y13519D02*
G75*
G03X8647Y13519I-62J0D01*
G74*
G01*
X7622Y13181D02*
X7622Y13581D01*
X8647Y13181D02*
X8647Y13581D01*
X7622Y13581D02*
X8647Y13581D01*
X8647Y13181D02*
X7622Y13181D01*
X7733Y10527D02*
G75*
G03X7733Y10527I-62J0D01*
G74*
G01*
X8633Y10865D02*
X8633Y10465D01*
X7608Y10865D02*
X7608Y10465D01*
X8633Y10465D02*
X7608Y10465D01*
X7608Y10865D02*
X8633Y10865D01*
X6494Y13519D02*
G75*
G03X6494Y13519I-62J0D01*
G74*
G01*
X5468Y13181D02*
X5468Y13581D01*
X6493Y13181D02*
X6493Y13581D01*
X5468Y13581D02*
X6493Y13581D01*
X6493Y13181D02*
X5468Y13181D01*
X4328Y13519D02*
G75*
G03X4328Y13519I-62J0D01*
G74*
G01*
X3303Y13181D02*
X3303Y13581D01*
X4328Y13181D02*
X4328Y13581D01*
X3303Y13581D02*
X4328Y13581D01*
X4328Y13181D02*
X3303Y13181D01*
G54D18*
G36*
X5438Y4402D02*
X5437Y4390D01*
X5433Y4360D01*
X5427Y4317D01*
X5418Y4261D01*
X5408Y4196D01*
X5396Y4124D01*
X5393Y4106D01*
X5344Y3821D01*
X5124Y3633D01*
X5089Y3603D01*
X5089Y4210D01*
X5089Y4239D01*
X5089Y4329D01*
X5088Y4401D01*
X5086Y4457D01*
X5083Y4501D01*
X5078Y4534D01*
X5070Y4558D01*
X5060Y4577D01*
X5046Y4592D01*
X5029Y4606D01*
X5019Y4612D01*
X4998Y4624D01*
X4978Y4631D01*
X4950Y4633D01*
X4910Y4633D01*
X4906Y4632D01*
X4865Y4630D01*
X4840Y4626D01*
X4822Y4618D01*
X4806Y4605D01*
X4794Y4593D01*
X4771Y4561D01*
X4755Y4521D01*
X4745Y4470D01*
X4740Y4405D01*
X4739Y4356D01*
X4742Y4286D01*
X4753Y4232D01*
X4771Y4193D01*
X4797Y4166D01*
X4810Y4158D01*
X4847Y4148D01*
X4889Y4147D01*
X4927Y4156D01*
X4949Y4169D01*
X4958Y4177D01*
X4964Y4177D01*
X4967Y4168D01*
X4969Y4145D01*
X4969Y4107D01*
X4969Y4089D01*
X4967Y4033D01*
X4962Y3994D01*
X4951Y3969D01*
X4934Y3957D01*
X4913Y3954D01*
X4889Y3963D01*
X4874Y3988D01*
X4869Y4028D01*
X4869Y4064D01*
X4814Y4064D01*
X4759Y4064D01*
X4759Y4008D01*
X4765Y3953D01*
X4783Y3909D01*
X4811Y3877D01*
X4847Y3855D01*
X4894Y3844D01*
X4944Y3843D01*
X4992Y3853D01*
X5027Y3871D01*
X5044Y3884D01*
X5058Y3898D01*
X5068Y3915D01*
X5076Y3937D01*
X5082Y3967D01*
X5085Y4007D01*
X5087Y4059D01*
X5089Y4126D01*
X5089Y4210D01*
X5089Y3603D01*
X4904Y3445D01*
X4669Y3445D01*
X4669Y3854D01*
X4669Y4244D01*
X4669Y4634D01*
X4585Y4634D01*
X4501Y4634D01*
X4464Y4441D01*
X4453Y4381D01*
X4441Y4326D01*
X4432Y4280D01*
X4425Y4247D01*
X4421Y4230D01*
X4421Y4229D01*
X4417Y4232D01*
X4411Y4252D01*
X4402Y4289D01*
X4390Y4339D01*
X4377Y4402D01*
X4374Y4419D01*
X4333Y4629D01*
X4251Y4632D01*
X4169Y4635D01*
X4169Y4244D01*
X4169Y3854D01*
X4224Y3854D01*
X4279Y3854D01*
X4280Y4121D01*
X4280Y4389D01*
X4308Y4244D01*
X4321Y4178D01*
X4334Y4106D01*
X4347Y4036D01*
X4358Y3977D01*
X4359Y3976D01*
X4381Y3853D01*
X4417Y3856D01*
X4453Y3859D01*
X4503Y4134D01*
X4554Y4409D01*
X4556Y4131D01*
X4559Y3854D01*
X4614Y3854D01*
X4669Y3854D01*
X4669Y3445D01*
X4607Y3444D01*
X4311Y3444D01*
X4097Y3620D01*
X4041Y3667D01*
X3990Y3709D01*
X3946Y3746D01*
X3911Y3775D01*
X3886Y3795D01*
X3876Y3804D01*
X3875Y3804D01*
X3872Y3816D01*
X3865Y3844D01*
X3856Y3887D01*
X3844Y3942D01*
X3832Y4008D01*
X3818Y4080D01*
X3815Y4099D01*
X3762Y4387D01*
X3905Y4638D01*
X3942Y4702D01*
X3976Y4761D01*
X4007Y4812D01*
X4032Y4852D01*
X4050Y4881D01*
X4060Y4894D01*
X4061Y4895D01*
X4073Y4900D01*
X4102Y4911D01*
X4144Y4927D01*
X4198Y4948D01*
X4260Y4971D01*
X4328Y4996D01*
X4336Y4999D01*
X4599Y5096D01*
X4873Y4998D01*
X5147Y4899D01*
X5291Y4655D01*
X5328Y4592D01*
X5362Y4534D01*
X5391Y4483D01*
X5414Y4443D01*
X5430Y4415D01*
X5437Y4402D01*
X5438Y4402D01*
X5438Y4402D01*
X5438Y4402D01*
G37*
G36*
X4969Y4391D02*
X4968Y4339D01*
X4964Y4303D01*
X4954Y4280D01*
X4939Y4269D01*
X4916Y4264D01*
X4907Y4264D01*
X4888Y4267D01*
X4877Y4280D01*
X4869Y4301D01*
X4862Y4348D01*
X4860Y4401D01*
X4865Y4452D01*
X4872Y4484D01*
X4889Y4512D01*
X4913Y4523D01*
X4940Y4516D01*
X4950Y4508D01*
X4959Y4498D01*
X4964Y4482D01*
X4967Y4457D01*
X4969Y4420D01*
X4969Y4391D01*
X4969Y4391D01*
X4969Y4391D01*
G37*
G54D20*
X4098Y15287D02*
G75*
G03X4098Y15287I-295J0D01*
G74*
G01*
X933Y9088D02*
G75*
G03X933Y9088I-295J0D01*
G74*
G01*
X11595Y9088D02*
G75*
G03X11595Y9088I-295J0D01*
G74*
G01*
G54D15*
X8633Y14594D02*
X7633Y14594D01*
X7633Y15594D02*
X8633Y15594D01*
X7633Y14594D02*
X7633Y15594D01*
X8633Y15594D02*
X8633Y14594D01*
G54D10*
X4944Y16196D02*
X2661Y16196D01*
X4964Y16866D02*
X4964Y16511D01*
X4964Y16866D02*
X4964Y17220D01*
X2641Y16866D02*
X2641Y16511D01*
X2641Y16866D02*
X2641Y17220D01*
X4728Y15527D02*
X7208Y15527D01*
X7208Y14188D02*
X4728Y14188D01*
X6677Y6657D02*
X6677Y10082D01*
X6677Y10082D02*
X5259Y10082D01*
X5259Y10082D02*
X5259Y6657D01*
X5267Y6657D02*
X6673Y6657D01*
G54D15*
X5268Y9870D02*
X6668Y9870D01*
G54D17*
X5609Y9670D02*
G75*
G03X5609Y9670I-141J0D01*
G74*
G01*
X6218Y9870D02*
X6218Y9570D01*
X6218Y9570D02*
X5718Y9570D01*
X5718Y9570D02*
X5718Y9870D01*
G54D21*
X6578Y11433D02*
X6578Y11531D01*
X6578Y12653D02*
X6578Y12555D01*
X5358Y12653D02*
X5358Y12555D01*
X5358Y11433D02*
X5358Y11531D01*
G54D15*
X5318Y12777D02*
G75*
G03X5318Y12777I-79J0D01*
G74*
G01*
G54D21*
X6578Y12653D02*
X5358Y12653D01*
X5358Y11433D02*
X6578Y11433D01*
G54D10*
X3728Y19D02*
X8209Y19D01*
X8209Y19D02*
X8209Y5019D01*
X3728Y5019D02*
X3728Y19D01*
X5948Y16956D02*
X5948Y16889D01*
X5948Y16889D02*
X5996Y16889D01*
X5996Y16889D02*
X5996Y16960D01*
G54D22*
X6125Y16980D02*
X6125Y16755D01*
X5811Y16976D02*
X5811Y16759D01*
G54D23*
X5791Y16689D02*
X5791Y16532D01*
X6145Y16689D02*
X6145Y16532D01*
X5791Y17200D02*
X5791Y17043D01*
X6145Y17200D02*
X6145Y17043D01*
X6145Y16866D02*
X6086Y16866D01*
X6086Y16984D02*
X6086Y16866D01*
X6145Y16984D02*
X6086Y16984D01*
X6145Y16984D02*
X6145Y16866D01*
X5850Y16866D02*
X5791Y16866D01*
X5791Y16984D02*
X5791Y16866D01*
X5850Y16984D02*
X5791Y16984D01*
X5850Y16984D02*
X5850Y16866D01*
X6027Y16984D02*
X5909Y16984D01*
X5909Y16984D02*
X5909Y16866D01*
X6027Y16866D02*
X5909Y16866D01*
X6027Y16984D02*
X6027Y16866D01*
G54D10*
X3960Y5555D02*
X3960Y5622D01*
X3960Y5622D02*
X3913Y5622D01*
X3913Y5622D02*
X3913Y5551D01*
G54D22*
X3783Y5531D02*
X3783Y5755D01*
X4098Y5535D02*
X4098Y5751D01*
G54D23*
X4117Y5822D02*
X4117Y5979D01*
X3763Y5822D02*
X3763Y5979D01*
X4117Y5311D02*
X4117Y5468D01*
X3763Y5311D02*
X3763Y5468D01*
X3763Y5645D02*
X3822Y5645D01*
X3822Y5527D02*
X3822Y5645D01*
X3763Y5527D02*
X3822Y5527D01*
X3763Y5527D02*
X3763Y5645D01*
X4058Y5645D02*
X4117Y5645D01*
X4117Y5527D02*
X4117Y5645D01*
X4058Y5527D02*
X4117Y5527D01*
X4058Y5527D02*
X4058Y5645D01*
X3881Y5527D02*
X3999Y5527D01*
X3999Y5527D02*
X3999Y5645D01*
X3881Y5645D02*
X3999Y5645D01*
X3881Y5527D02*
X3881Y5645D01*
G54D10*
X8015Y5543D02*
X8015Y5610D01*
X8015Y5610D02*
X7968Y5610D01*
X7968Y5610D02*
X7968Y5539D01*
G54D22*
X7838Y5519D02*
X7838Y5744D01*
X8153Y5523D02*
X8153Y5740D01*
G54D23*
X8173Y5810D02*
X8173Y5967D01*
X7819Y5810D02*
X7819Y5967D01*
X8173Y5299D02*
X8173Y5456D01*
X7819Y5299D02*
X7819Y5456D01*
X7819Y5633D02*
X7878Y5633D01*
X7878Y5515D02*
X7878Y5633D01*
X7819Y5515D02*
X7878Y5515D01*
X7819Y5515D02*
X7819Y5633D01*
X8114Y5633D02*
X8173Y5633D01*
X8173Y5515D02*
X8173Y5633D01*
X8114Y5515D02*
X8173Y5515D01*
X8114Y5515D02*
X8114Y5633D01*
X7937Y5515D02*
X8055Y5515D01*
X8055Y5515D02*
X8055Y5633D01*
X7937Y5633D02*
X8055Y5633D01*
X7937Y5515D02*
X7937Y5633D01*
G54D10*
X2110Y14207D02*
X1165Y14207D01*
X1165Y7022D02*
X1165Y15092D01*
X1165Y15092D02*
X2110Y15092D01*
X2110Y15092D02*
X2110Y7022D01*
X2110Y7022D02*
X1165Y7022D01*
X9827Y7907D02*
X10772Y7907D01*
X10772Y15092D02*
X10772Y7022D01*
X10772Y7022D02*
X9827Y7022D01*
X9827Y7022D02*
X9827Y15092D01*
X9827Y15092D02*
X10772Y15092D01*
G54D24*
M02*
