G04 (created by PCBNEW (2013-mar-13)-testing) date Sun 15 Sep 2013 23:58:05 EST*
%MOIN*%
G04 Gerber Fmt 3.4, Leading zero omitted, Abs format*
%FSLAX34Y34*%
G01*
G70*
G90*
G04 APERTURE LIST*
%ADD10C,0.005906*%
%ADD11R,0.100000X0.050000*%
%ADD12R,0.060000X0.060000*%
%ADD13C,0.060000*%
%ADD14R,0.050000X0.016000*%
%ADD15R,0.046000X0.016500*%
%ADD16R,0.082000X0.110000*%
%ADD17R,0.125984X0.059055*%
%ADD18R,0.090157X0.035039*%
%ADD19R,0.078740X0.059055*%
%ADD20R,0.035000X0.016535*%
%ADD21R,0.045000X0.025000*%
%ADD22R,0.031496X0.031496*%
%ADD23R,0.031500X0.039400*%
%ADD24C,0.100000*%
%ADD25R,0.062992X0.291732*%
%ADD26R,0.039370X0.252362*%
G04 APERTURE END LIST*
G54D10*
G54D11*
X9102Y8407D03*
X9102Y7207D03*
G54D12*
X6445Y15448D03*
G54D13*
X5445Y15448D03*
G54D14*
X4895Y7858D03*
X4895Y7608D03*
X4895Y7348D03*
X4895Y7088D03*
X4895Y6838D03*
X4895Y6578D03*
X4895Y6318D03*
X4895Y6068D03*
X4895Y5808D03*
X4895Y5558D03*
X6995Y5558D03*
X6995Y5808D03*
X6995Y6068D03*
X6995Y6318D03*
X6995Y6578D03*
X6995Y6838D03*
X6995Y7088D03*
X6995Y7348D03*
X6995Y7608D03*
X6995Y7858D03*
G54D15*
X6732Y8507D03*
X6732Y8763D03*
X6732Y9023D03*
X6732Y9279D03*
X5158Y9279D03*
X5158Y9023D03*
X5158Y8763D03*
X5158Y8507D03*
G54D16*
X5945Y8893D03*
G54D17*
X2948Y6070D03*
X2948Y7724D03*
G54D18*
X2614Y13305D03*
X614Y12518D03*
X2614Y11730D03*
X614Y10943D03*
X2614Y10155D03*
X2614Y8581D03*
X614Y7793D03*
X2614Y7006D03*
X614Y6218D03*
X11276Y13305D03*
X9276Y12518D03*
X11276Y11730D03*
X9276Y10943D03*
X11276Y10155D03*
X9276Y9368D03*
X9276Y7793D03*
X11276Y7006D03*
X9276Y6218D03*
G54D19*
X7952Y11476D03*
X7952Y9657D03*
X3937Y11472D03*
X3937Y9653D03*
G54D20*
X6750Y13450D03*
X6750Y13706D03*
X6750Y13962D03*
X6750Y14218D03*
X6750Y14474D03*
X6750Y14730D03*
X5140Y14730D03*
X5140Y14474D03*
X5140Y14218D03*
X5140Y13962D03*
X5140Y13706D03*
X5140Y13450D03*
G54D21*
X4539Y14689D03*
X4539Y14089D03*
X5295Y13028D03*
X5295Y12428D03*
X3240Y14689D03*
X3240Y14089D03*
X7350Y14089D03*
X7350Y14689D03*
X7248Y13028D03*
X7248Y12428D03*
X4645Y13028D03*
X4645Y12428D03*
X3937Y9036D03*
X3937Y8436D03*
G54D22*
X8324Y15173D03*
X8324Y15763D03*
X7675Y15173D03*
X7675Y15763D03*
X3889Y15763D03*
X3889Y15173D03*
G54D21*
X4200Y5961D03*
X4200Y5361D03*
X7669Y5361D03*
X7669Y5961D03*
X7952Y7008D03*
X7952Y6408D03*
X5945Y12428D03*
X5945Y13028D03*
X6594Y13028D03*
X6594Y12428D03*
X7952Y9032D03*
X7952Y8432D03*
X8649Y14089D03*
X8649Y14689D03*
X8000Y14089D03*
X8000Y14689D03*
X8318Y5957D03*
X8318Y5357D03*
X4200Y6408D03*
X4200Y7008D03*
X3889Y14089D03*
X3889Y14689D03*
G54D23*
X5945Y10716D03*
X6320Y9850D03*
X5570Y9850D03*
G54D24*
X846Y9000D03*
X11043Y9000D03*
G54D25*
X4567Y2049D03*
X7323Y2049D03*
G54D26*
X5551Y2246D03*
X6338Y2246D03*
M02*
