G04 (created by PCBNEW (2013-mar-13)-testing) date Wed 23 Oct 2013 02:02:18 EST*
%MOIN*%
G04 Gerber Fmt 3.4, Leading zero omitted, Abs format*
%FSLAX34Y34*%
G01*
G70*
G90*
G04 APERTURE LIST*
%ADD10C,0.005906*%
%ADD11R,0.062992X0.291732*%
%ADD12R,0.039370X0.252362*%
%ADD13R,0.060000X0.060000*%
%ADD14C,0.060000*%
%ADD15R,0.046000X0.016500*%
%ADD16R,0.082000X0.110000*%
%ADD17R,0.125984X0.059055*%
%ADD18R,0.045000X0.025000*%
%ADD19R,0.025000X0.045000*%
%ADD20R,0.039400X0.031500*%
%ADD21C,0.100000*%
%ADD22R,0.031500X0.039400*%
%ADD23R,0.098425X0.066929*%
%ADD24R,0.090157X0.035039*%
%ADD25R,0.031496X0.031496*%
%ADD26R,0.050000X0.016000*%
%ADD27R,0.035433X0.019685*%
%ADD28R,0.008000X0.059055*%
%ADD29R,0.019685X0.035433*%
%ADD30R,0.059055X0.008000*%
%ADD31C,0.118110*%
%ADD32C,0.035000*%
%ADD33C,0.008000*%
%ADD34C,0.010000*%
G04 APERTURE END LIST*
G54D10*
G54D11*
X4590Y1966D03*
X7346Y1966D03*
G54D12*
X5575Y2163D03*
X6362Y2163D03*
G54D13*
X6468Y16909D03*
G54D14*
X5468Y16909D03*
G54D15*
X5181Y15074D03*
X5181Y14818D03*
X5181Y14558D03*
X5181Y14302D03*
X6755Y14302D03*
X6755Y14558D03*
X6755Y14818D03*
X6755Y15074D03*
G54D16*
X5968Y14688D03*
G54D17*
X8070Y6972D03*
X8070Y8625D03*
G54D18*
X5354Y16174D03*
X5354Y15574D03*
X5968Y16174D03*
X5968Y15574D03*
G54D19*
X4166Y9397D03*
X3566Y9397D03*
X3566Y10663D03*
X4166Y10663D03*
X7770Y9397D03*
X8370Y9397D03*
X3566Y8161D03*
X4166Y8161D03*
X7770Y10663D03*
X8370Y10663D03*
G54D18*
X7224Y15574D03*
X7224Y16174D03*
X6594Y15574D03*
X6594Y16174D03*
G54D19*
X4166Y8787D03*
X3566Y8787D03*
X7770Y10047D03*
X8370Y10047D03*
G54D18*
X4724Y16174D03*
X4724Y15574D03*
G54D20*
X7704Y13813D03*
X8570Y14188D03*
X8570Y13438D03*
G54D21*
X870Y10663D03*
X11066Y10663D03*
G54D19*
X4166Y10047D03*
X3566Y10047D03*
G54D22*
X5968Y11854D03*
X5593Y12720D03*
X6343Y12720D03*
X8070Y12114D03*
X8445Y11248D03*
X7695Y11248D03*
G54D20*
X4232Y13813D03*
X3366Y13438D03*
X3366Y14188D03*
G54D23*
X5181Y11007D03*
X6755Y11007D03*
G54D24*
X637Y14600D03*
X2637Y13813D03*
X637Y13025D03*
X2637Y12238D03*
X637Y11451D03*
X2637Y10663D03*
X637Y9876D03*
X2637Y9088D03*
X637Y8301D03*
X2637Y7514D03*
X9300Y7514D03*
X11300Y8301D03*
X9300Y9088D03*
X11300Y9876D03*
X9300Y10663D03*
X11300Y11451D03*
X9300Y12238D03*
X11300Y13025D03*
X9300Y13813D03*
X11300Y14600D03*
G54D22*
X3866Y12114D03*
X4241Y11248D03*
X3491Y11248D03*
G54D25*
X7807Y16169D03*
X7807Y15578D03*
X8322Y16169D03*
X8322Y15578D03*
X4141Y16169D03*
X4141Y15578D03*
G54D26*
X4918Y9495D03*
X4918Y9245D03*
X4918Y8995D03*
X4918Y8745D03*
X4918Y8495D03*
X4918Y8245D03*
X4918Y7995D03*
X4918Y7745D03*
X4918Y7495D03*
X4918Y7245D03*
X7018Y7245D03*
X7018Y7495D03*
X7018Y7745D03*
X7018Y7995D03*
X7018Y8245D03*
X7018Y8495D03*
X7018Y8745D03*
X7018Y8995D03*
X7018Y9245D03*
X7018Y9495D03*
G54D27*
X11300Y13551D03*
X11300Y14062D03*
G54D28*
X11300Y13807D03*
G54D18*
X5011Y12692D03*
X5011Y13292D03*
X6925Y13292D03*
X6925Y12692D03*
G54D27*
X11300Y11972D03*
X11300Y12484D03*
G54D28*
X11300Y12228D03*
G54D29*
X6224Y13295D03*
X5712Y13295D03*
G54D30*
X5968Y13295D03*
G54D31*
X10889Y5996D03*
X1047Y5996D03*
X1047Y16232D03*
X10889Y16232D03*
G54D32*
X6542Y12197D03*
X3087Y9852D03*
X7697Y11758D03*
X6513Y9230D03*
X1208Y12520D03*
X5423Y7258D03*
X7910Y15160D03*
X8121Y14466D03*
X4692Y15046D03*
X3076Y11299D03*
X8193Y7738D03*
X6362Y6121D03*
X10682Y14138D03*
X4219Y15021D03*
X10421Y12649D03*
X6925Y13672D03*
G54D33*
X3496Y14600D02*
X637Y14600D01*
X3852Y14245D02*
X3496Y14600D01*
X3852Y13323D02*
X3852Y14245D01*
X4737Y12438D02*
X3852Y13323D01*
X5311Y12438D02*
X4737Y12438D01*
X5593Y12720D02*
X5311Y12438D01*
X6925Y12692D02*
X6925Y12447D01*
X5354Y15574D02*
X5354Y15696D01*
X5968Y15574D02*
X5623Y15574D01*
X3566Y9397D02*
X3483Y9397D01*
X3483Y9397D02*
X3321Y9397D01*
X5500Y15696D02*
X5354Y15696D01*
X5623Y15574D02*
X5500Y15696D01*
X5122Y15928D02*
X4724Y15928D01*
X5354Y15696D02*
X5122Y15928D01*
X4724Y16174D02*
X4724Y15928D01*
X5968Y15574D02*
X5968Y15328D01*
X6755Y14302D02*
X6405Y14302D01*
X6354Y14302D02*
X6405Y14302D01*
X5968Y14688D02*
X6354Y14302D01*
X3321Y9618D02*
X3087Y9852D01*
X3321Y9397D02*
X3321Y9618D01*
X2637Y7514D02*
X3208Y7514D01*
X3566Y9315D02*
X3566Y8787D01*
X3483Y9397D02*
X3566Y9315D01*
X3566Y8787D02*
X3321Y8787D01*
X3264Y7514D02*
X3208Y7514D01*
X3321Y7570D02*
X3264Y7514D01*
X3321Y8787D02*
X3321Y7570D01*
X4590Y4278D02*
X4590Y1966D01*
X3264Y5604D02*
X4590Y4278D01*
X3264Y7514D02*
X3264Y5604D01*
X5968Y14688D02*
X5968Y15277D01*
X5968Y15277D02*
X5968Y15328D01*
X8125Y11360D02*
X8125Y10047D01*
X7727Y11758D02*
X8125Y11360D01*
X7697Y11758D02*
X7727Y11758D01*
X8370Y10047D02*
X8125Y10047D01*
X5181Y11007D02*
X5181Y11462D01*
X4918Y8245D02*
X5288Y8245D01*
X5968Y11854D02*
X5690Y11854D01*
X5181Y11462D02*
X5181Y11707D01*
X4775Y12114D02*
X5181Y11707D01*
X3866Y12114D02*
X4775Y12114D01*
X5544Y11707D02*
X5690Y11854D01*
X5181Y11707D02*
X5544Y11707D01*
X6675Y12197D02*
X6542Y12197D01*
X6925Y12447D02*
X6675Y12197D01*
X6246Y11900D02*
X6246Y11854D01*
X6542Y12197D02*
X6246Y11900D01*
X5968Y11854D02*
X6246Y11854D01*
X5181Y11007D02*
X5181Y10553D01*
X5603Y10130D02*
X5181Y10553D01*
X5603Y8560D02*
X5603Y10130D01*
X5668Y8495D02*
X5603Y8560D01*
X7018Y8495D02*
X5668Y8495D01*
X5603Y8560D02*
X5288Y8245D01*
X7401Y12692D02*
X6925Y12692D01*
X7870Y13160D02*
X7401Y12692D01*
X9458Y13160D02*
X7870Y13160D01*
X9870Y13572D02*
X9458Y13160D01*
X9870Y14046D02*
X9870Y13572D01*
X9071Y14846D02*
X9870Y14046D01*
X7806Y14846D02*
X9071Y14846D01*
X7375Y15277D02*
X7806Y14846D01*
X5968Y15277D02*
X7375Y15277D01*
X7770Y10855D02*
X7770Y10663D01*
X7695Y10930D02*
X7770Y10855D01*
X7695Y11248D02*
X7695Y10930D01*
X637Y13025D02*
X1208Y13025D01*
X1208Y12520D02*
X1208Y13025D01*
X7018Y9495D02*
X6648Y9495D01*
X6648Y9365D02*
X6513Y9230D01*
X6648Y9495D02*
X6648Y9365D01*
X4548Y10281D02*
X4166Y10663D01*
X4548Y9495D02*
X4548Y10281D01*
X4918Y9495D02*
X4548Y9495D01*
X7807Y15578D02*
X7807Y15301D01*
X5410Y7245D02*
X5423Y7258D01*
X4918Y7245D02*
X5410Y7245D01*
X7807Y15263D02*
X7910Y15160D01*
X7807Y15301D02*
X7807Y15263D01*
X7018Y8745D02*
X6648Y8745D01*
X8322Y15578D02*
X8600Y15578D01*
X6563Y8745D02*
X6648Y8745D01*
X6143Y9164D02*
X6563Y8745D01*
X6143Y11392D02*
X6143Y9164D01*
X6293Y11542D02*
X6143Y11392D01*
X6689Y11542D02*
X6293Y11542D01*
X8062Y12915D02*
X6689Y11542D01*
X9456Y12915D02*
X8062Y12915D01*
X10037Y13497D02*
X9456Y12915D01*
X10037Y14141D02*
X10037Y13497D01*
X8600Y15578D02*
X10037Y14141D01*
X7557Y16419D02*
X6594Y16419D01*
X7807Y16169D02*
X7557Y16419D01*
X6594Y16174D02*
X6594Y16419D01*
X7261Y15891D02*
X7224Y15928D01*
X8045Y15891D02*
X7261Y15891D01*
X8322Y16169D02*
X8045Y15891D01*
X7224Y16174D02*
X7224Y15928D01*
G54D34*
X6224Y13295D02*
X6343Y13176D01*
X5712Y13295D02*
X5711Y13293D01*
X5709Y13292D02*
X5011Y13292D01*
X5711Y13293D02*
X5709Y13292D01*
G54D33*
X5966Y13293D02*
X5968Y13295D01*
X5711Y13293D02*
X5966Y13293D01*
G54D34*
X6343Y13176D02*
X6343Y12976D01*
G54D33*
X7145Y12976D02*
X7704Y13535D01*
X6343Y12976D02*
X7145Y12976D01*
X7704Y13813D02*
X7704Y13535D01*
G54D34*
X6343Y12976D02*
X6343Y12848D01*
X6343Y12848D02*
X6343Y12720D01*
G54D33*
X6343Y12848D02*
X6343Y12720D01*
X6343Y12848D02*
X6343Y12848D01*
G54D34*
X11300Y13326D02*
X11300Y13025D01*
X9566Y11972D02*
X9300Y12238D01*
X10046Y11972D02*
X9566Y11972D01*
X10564Y11972D02*
X10046Y11972D01*
G54D33*
X7508Y14558D02*
X6755Y14558D01*
X8351Y13716D02*
X7508Y14558D01*
X8570Y13716D02*
X8351Y13716D01*
X8570Y13438D02*
X8570Y13716D01*
X8370Y10663D02*
X8615Y10663D01*
X8615Y10550D02*
X8615Y10663D01*
X8803Y10363D02*
X8615Y10550D01*
X10766Y10363D02*
X8803Y10363D01*
X11066Y10663D02*
X10766Y10363D01*
X5181Y14558D02*
X5181Y14818D01*
X1275Y10258D02*
X870Y10663D01*
X3109Y10258D02*
X1275Y10258D01*
X3321Y10047D02*
X3109Y10258D01*
X3566Y10047D02*
X3321Y10047D01*
X8570Y14188D02*
X8570Y14466D01*
X5181Y14818D02*
X4831Y14818D01*
X4831Y14907D02*
X4831Y14818D01*
X4692Y15046D02*
X4831Y14907D01*
X3491Y11248D02*
X3213Y11248D01*
X3162Y11299D02*
X3213Y11248D01*
X3076Y11299D02*
X3162Y11299D01*
X8570Y14466D02*
X8121Y14466D01*
X7238Y15074D02*
X7105Y15074D01*
X7847Y14466D02*
X7238Y15074D01*
X8121Y14466D02*
X7847Y14466D01*
X6755Y15074D02*
X7105Y15074D01*
X3921Y11385D02*
X3921Y10047D01*
X3705Y11601D02*
X3921Y11385D01*
X3599Y11601D02*
X3705Y11601D01*
X3211Y11988D02*
X3599Y11601D01*
X3211Y12476D02*
X3211Y11988D01*
X3104Y12582D02*
X3211Y12476D01*
X3065Y12582D02*
X3104Y12582D01*
X2066Y13581D02*
X3065Y12582D01*
X2066Y14062D02*
X2066Y13581D01*
X2192Y14188D02*
X2066Y14062D01*
X3366Y14188D02*
X2192Y14188D01*
X4166Y10047D02*
X3921Y10047D01*
X5354Y16174D02*
X5354Y16379D01*
X3933Y16446D02*
X5354Y16446D01*
X3702Y16215D02*
X3933Y16446D01*
X3702Y15104D02*
X3702Y16215D01*
X4232Y14574D02*
X3702Y15104D01*
X4232Y13813D02*
X4232Y14574D01*
X5354Y16379D02*
X5354Y16446D01*
X5354Y16795D02*
X5468Y16909D01*
X5354Y16446D02*
X5354Y16795D01*
X8530Y9557D02*
X8370Y9397D01*
X9858Y9557D02*
X8530Y9557D01*
X10031Y9384D02*
X9858Y9557D01*
X10031Y8791D02*
X10031Y9384D01*
X9572Y8333D02*
X10031Y8791D01*
X9217Y8333D02*
X9572Y8333D01*
X8327Y7443D02*
X9217Y8333D01*
X7773Y7443D02*
X8327Y7443D01*
X7721Y7495D02*
X7773Y7443D01*
X7018Y7495D02*
X7721Y7495D01*
X7770Y10047D02*
X7770Y9487D01*
X7770Y9487D02*
X7770Y9397D01*
X6362Y6121D02*
X6362Y2163D01*
X8396Y7738D02*
X8193Y7738D01*
X9342Y8684D02*
X8396Y7738D01*
X9697Y8684D02*
X9342Y8684D01*
X9870Y8858D02*
X9697Y8684D01*
X9870Y9318D02*
X9870Y8858D01*
X9791Y9397D02*
X9870Y9318D01*
X8781Y9397D02*
X9791Y9397D01*
X8672Y9288D02*
X8781Y9397D01*
X8672Y9179D02*
X8672Y9288D01*
X8545Y9052D02*
X8672Y9179D01*
X8196Y9052D02*
X8545Y9052D01*
X7770Y9477D02*
X8196Y9052D01*
X7770Y9487D02*
X7770Y9477D01*
X4374Y15578D02*
X4379Y15574D01*
X4141Y15578D02*
X4374Y15578D01*
X4724Y15574D02*
X4379Y15574D01*
X3566Y8161D02*
X3688Y8161D01*
X3921Y8393D02*
X3688Y8161D01*
X3921Y8787D02*
X3921Y8393D01*
X4166Y8787D02*
X3921Y8787D01*
X3688Y6563D02*
X3688Y8161D01*
X5575Y4677D02*
X3688Y6563D01*
X5575Y2163D02*
X5575Y4677D01*
X7346Y5833D02*
X7346Y1966D01*
X8070Y6557D02*
X7346Y5833D01*
X8070Y6972D02*
X8070Y6557D01*
X2637Y13315D02*
X2637Y13813D01*
X3588Y12364D02*
X2637Y13315D01*
X3588Y11867D02*
X3588Y12364D01*
X3658Y11796D02*
X3588Y11867D01*
X4216Y11796D02*
X3658Y11796D01*
X4568Y11444D02*
X4216Y11796D01*
X4568Y10487D02*
X4568Y11444D01*
X5288Y9767D02*
X4568Y10487D01*
X5288Y8745D02*
X5288Y9767D01*
X4918Y8745D02*
X5288Y8745D01*
X7018Y7245D02*
X6648Y7245D01*
X6203Y6800D02*
X6648Y7245D01*
X4636Y6800D02*
X6203Y6800D01*
X4166Y7271D02*
X4636Y6800D01*
X4166Y8161D02*
X4166Y7271D01*
X3321Y10779D02*
X3321Y10663D01*
X3139Y10961D02*
X3321Y10779D01*
X1698Y10961D02*
X3139Y10961D01*
X1208Y11451D02*
X1698Y10961D01*
X637Y11451D02*
X1208Y11451D01*
X3566Y10663D02*
X3321Y10663D01*
X6056Y16174D02*
X6594Y15635D01*
X5968Y16174D02*
X6056Y16174D01*
X6594Y15574D02*
X6594Y15604D01*
X6594Y15604D02*
X6594Y15635D01*
X6848Y15604D02*
X6879Y15574D01*
X6594Y15604D02*
X6848Y15604D01*
X7224Y15574D02*
X6879Y15574D01*
X8070Y12114D02*
X8348Y12114D01*
X7388Y8625D02*
X8070Y8625D01*
X7388Y9920D02*
X7388Y8625D01*
X6755Y10553D02*
X7388Y9920D01*
X7388Y8245D02*
X7388Y8245D01*
X7388Y8625D02*
X7388Y8245D01*
X7018Y8245D02*
X7388Y8245D01*
X6755Y11007D02*
X6755Y10553D01*
X6755Y11234D02*
X6755Y11007D01*
X7635Y12114D02*
X6755Y11234D01*
X8070Y12114D02*
X7635Y12114D01*
X5968Y17209D02*
X5968Y16174D01*
X6088Y17329D02*
X5968Y17209D01*
X7651Y17329D02*
X6088Y17329D01*
X10198Y14783D02*
X7651Y17329D01*
X10198Y13398D02*
X10198Y14783D01*
X9498Y12698D02*
X10198Y13398D01*
X8932Y12698D02*
X9498Y12698D01*
X8348Y12114D02*
X8932Y12698D01*
X4548Y9260D02*
X4411Y9397D01*
X4548Y8995D02*
X4548Y9260D01*
X4166Y9397D02*
X4411Y9397D01*
X4733Y8995D02*
X4548Y8995D01*
X4733Y8995D02*
X4918Y8995D01*
X4548Y7115D02*
X4548Y8995D01*
X4702Y6960D02*
X4548Y7115D01*
X5702Y6960D02*
X4702Y6960D01*
X6486Y7745D02*
X5702Y6960D01*
X7018Y7745D02*
X6486Y7745D01*
X7388Y7995D02*
X7388Y7745D01*
X7018Y7995D02*
X7388Y7995D01*
X7018Y7745D02*
X7388Y7745D01*
X11300Y13807D02*
X11300Y13844D01*
X4141Y16169D02*
X4141Y15891D01*
X5181Y14302D02*
X4831Y14302D01*
X11300Y14062D02*
X11300Y13953D01*
X11300Y13953D02*
X11300Y13844D01*
G54D34*
X11300Y13551D02*
X11300Y13326D01*
G54D33*
X4166Y15021D02*
X4219Y15021D01*
X3864Y15323D02*
X4166Y15021D01*
X3864Y15787D02*
X3864Y15323D01*
X3968Y15891D02*
X3864Y15787D01*
X4141Y15891D02*
X3968Y15891D01*
X4219Y14914D02*
X4831Y14302D01*
X4219Y15021D02*
X4219Y14914D01*
X10867Y13953D02*
X10682Y14138D01*
X10990Y13953D02*
X10867Y13953D01*
X11300Y13953D02*
X10990Y13953D01*
X10586Y12484D02*
X11300Y12484D01*
X10421Y12649D02*
X10586Y12484D01*
X6925Y13292D02*
X6925Y13537D01*
X6925Y13672D02*
X6925Y13595D01*
X6925Y13595D02*
X6925Y13537D01*
X4827Y12937D02*
X5011Y12937D01*
X4656Y13108D02*
X4827Y12937D01*
X4656Y13462D02*
X4656Y13108D01*
X4789Y13595D02*
X4656Y13462D01*
X6925Y13595D02*
X4789Y13595D01*
X5011Y12692D02*
X5011Y12937D01*
G54D34*
X11300Y11972D02*
X10564Y11972D01*
G54D33*
X11300Y12484D02*
X11300Y12265D01*
X11300Y12228D02*
X11300Y12265D01*
M02*
