%FSLAX34Y34*%
G04 Gerber Fmt 3.4, Leading zero omitted, Abs format*
G04 (created by PCBNEW (2013-12-14 BZR 4555)-product) date Wed 05 Mar 2014 15:38:07 EST*
%MOIN*%
G01*
G70*
G90*
G04 APERTURE LIST*
%ADD10C,0.005906*%
%ADD11R,0.060000X0.060000*%
%ADD12C,0.060000*%
%ADD13R,0.196850X0.196850*%
%ADD14C,0.100000*%
%ADD15C,0.118110*%
%ADD16C,0.029528*%
%ADD17R,0.050000X0.050000*%
%ADD18C,0.050000*%
%ADD19C,0.035000*%
%ADD20C,0.010000*%
%ADD21C,0.008000*%
G04 APERTURE END LIST*
G54D10*
G54D11*
X8633Y16866D03*
G54D12*
X7633Y16866D03*
G54D13*
X5968Y10663D03*
G54D14*
X11066Y10663D03*
X870Y10663D03*
G54D15*
X1047Y5996D03*
X1047Y16232D03*
X10889Y16232D03*
G54D16*
X3803Y15287D03*
X637Y9088D03*
X11300Y9088D03*
G54D11*
X8133Y15094D03*
G54D12*
X3318Y5409D03*
X2318Y5409D03*
X2637Y14787D03*
X2637Y15787D03*
G54D17*
X3409Y16866D03*
G54D18*
X4196Y16866D03*
G54D15*
X10889Y5996D03*
G54D19*
X3176Y11147D03*
X9215Y10229D03*
X8901Y8637D03*
X5736Y5255D03*
X4376Y10744D03*
X6328Y8448D03*
X5435Y12952D03*
X6384Y9063D03*
X7576Y6990D03*
X5552Y8623D03*
X1825Y13628D03*
X3724Y6866D03*
X5693Y6102D03*
X8350Y6885D03*
X6239Y5786D03*
X4780Y12988D03*
X8133Y11560D03*
X8959Y7081D03*
X4731Y13563D03*
X6337Y7062D03*
X4166Y7053D03*
X6500Y7745D03*
X5774Y9036D03*
G54D20*
X3118Y15787D02*
X2637Y15787D01*
X4196Y16866D02*
X3118Y15787D01*
X2017Y11811D02*
X870Y10663D01*
X2060Y11811D02*
X2017Y11811D01*
X2200Y11951D02*
X2060Y11811D01*
X2200Y15350D02*
X2200Y11951D01*
X2637Y15787D02*
X2200Y15350D01*
X9772Y9369D02*
X11066Y10663D01*
X4502Y9369D02*
X9772Y9369D01*
X2060Y11811D02*
X4502Y9369D01*
X3176Y14248D02*
X3176Y11147D01*
X2637Y14787D02*
X3176Y14248D01*
X8534Y9549D02*
X9215Y10229D01*
X4775Y9549D02*
X8534Y9549D01*
X3176Y11147D02*
X4775Y9549D01*
X9011Y8527D02*
X9011Y7994D01*
X8901Y8637D02*
X9011Y8527D01*
X5736Y5714D02*
X6707Y6685D01*
X5736Y5255D02*
X5736Y5714D01*
X5968Y10663D02*
X4854Y10663D01*
X4773Y10744D02*
X4854Y10663D01*
X4376Y10744D02*
X4773Y10744D01*
X3409Y16866D02*
X3789Y16866D01*
X4309Y13705D02*
X4602Y13998D01*
X4309Y10810D02*
X4309Y13705D01*
X4376Y10744D02*
X4309Y10810D01*
X8633Y16866D02*
X8203Y16866D01*
X8203Y16919D02*
X8203Y16866D01*
X7827Y17296D02*
X8203Y16919D01*
X4889Y17296D02*
X7827Y17296D01*
X4602Y17009D02*
X4889Y17296D01*
X4602Y13998D02*
X4602Y17009D01*
X3789Y17008D02*
X3789Y16866D01*
X4027Y17246D02*
X3789Y17008D01*
X4365Y17246D02*
X4027Y17246D01*
X4602Y17009D02*
X4365Y17246D01*
X5435Y12952D02*
X5435Y12952D01*
X5435Y13297D02*
X5435Y12952D01*
X4734Y13998D02*
X5435Y13297D01*
X4602Y13998D02*
X4734Y13998D01*
X6817Y7960D02*
X6328Y8448D01*
X6817Y6685D02*
X6817Y7960D01*
X7702Y6685D02*
X6817Y6685D01*
X9011Y7994D02*
X7702Y6685D01*
X6817Y6685D02*
X6707Y6685D01*
G54D21*
X7576Y7871D02*
X7576Y6990D01*
X6384Y9063D02*
X7576Y7871D01*
X228Y12031D02*
X1825Y13628D01*
X228Y10413D02*
X228Y12031D01*
X2018Y8623D02*
X228Y10413D01*
X5552Y8623D02*
X2018Y8623D01*
X4285Y6102D02*
X4285Y6304D01*
X4285Y6304D02*
X3724Y6866D01*
X4285Y6102D02*
X5693Y6102D01*
X7559Y5786D02*
X8350Y6577D01*
X8350Y6577D02*
X8350Y6885D01*
X7559Y5786D02*
X6239Y5786D01*
X8133Y15094D02*
X7713Y15094D01*
X7713Y14812D02*
X7713Y15094D01*
X5542Y12641D02*
X7713Y14812D01*
X5127Y12641D02*
X5542Y12641D01*
X4780Y12988D02*
X5127Y12641D01*
X8959Y7672D02*
X8959Y7081D01*
X11689Y10402D02*
X8959Y7672D01*
X11689Y10928D02*
X11689Y10402D01*
X11057Y11560D02*
X11689Y10928D01*
X8133Y11560D02*
X11057Y11560D01*
X7212Y12481D02*
X8133Y11560D01*
X4862Y12481D02*
X7212Y12481D01*
X4484Y12859D02*
X4862Y12481D01*
X4484Y13316D02*
X4484Y12859D01*
X4731Y13563D02*
X4484Y13316D01*
X4175Y7062D02*
X6337Y7062D01*
X4166Y7053D02*
X4175Y7062D01*
X5848Y8962D02*
X5774Y9036D01*
X5848Y8397D02*
X5848Y8962D01*
X6500Y7745D02*
X5848Y8397D01*
M02*
