G04 (created by PCBNEW (2013-mar-13)-testing) date Sun 15 Sep 2013 23:58:05 EST*
%MOIN*%
G04 Gerber Fmt 3.4, Leading zero omitted, Abs format*
%FSLAX34Y34*%
G01*
G70*
G90*
G04 APERTURE LIST*
%ADD10C,0.005906*%
G04 APERTURE END LIST*
G54D10*
X10945Y12799D02*
X10945Y5811D01*
X945Y12799D02*
X945Y5811D01*
X9882Y5200D02*
X2008Y5200D01*
X9882Y5200D02*
X10945Y5811D01*
X2008Y5200D02*
X945Y5811D01*
X10768Y10023D02*
G75*
G03X10768Y10023I-4822J0D01*
G74*
G01*
X945Y12799D02*
X10945Y12799D01*
X10945Y12799D02*
X10945Y9000D01*
X8441Y13639D02*
X8441Y14131D01*
X8159Y13639D01*
X8159Y14131D01*
X7738Y13663D02*
X7784Y13639D01*
X7878Y13639D01*
X7925Y13663D01*
X7948Y13709D01*
X7948Y13897D01*
X7925Y13944D01*
X7878Y13967D01*
X7784Y13967D01*
X7738Y13944D01*
X7714Y13897D01*
X7714Y13850D01*
X7948Y13803D01*
X7292Y13967D02*
X7292Y13569D01*
X7316Y13522D01*
X7339Y13498D01*
X7386Y13475D01*
X7456Y13475D01*
X7503Y13498D01*
X7292Y13663D02*
X7339Y13639D01*
X7433Y13639D01*
X7480Y13663D01*
X7503Y13686D01*
X7527Y13733D01*
X7527Y13873D01*
X7503Y13920D01*
X7480Y13944D01*
X7433Y13967D01*
X7339Y13967D01*
X7292Y13944D01*
X7058Y13686D02*
X7034Y13663D01*
X7058Y13639D01*
X7081Y13663D01*
X7058Y13686D01*
X7058Y13639D01*
X6519Y13967D02*
X6331Y13967D01*
X6449Y14131D02*
X6449Y13709D01*
X6425Y13663D01*
X6378Y13639D01*
X6331Y13639D01*
X6097Y13639D02*
X6144Y13663D01*
X6167Y13686D01*
X6191Y13733D01*
X6191Y13873D01*
X6167Y13920D01*
X6144Y13944D01*
X6097Y13967D01*
X6027Y13967D01*
X5980Y13944D01*
X5956Y13920D01*
X5933Y13873D01*
X5933Y13733D01*
X5956Y13686D01*
X5980Y13663D01*
X6027Y13639D01*
X6097Y13639D01*
X5183Y13897D02*
X5113Y13873D01*
X5089Y13850D01*
X5066Y13803D01*
X5066Y13733D01*
X5089Y13686D01*
X5113Y13663D01*
X5160Y13639D01*
X5347Y13639D01*
X5347Y14131D01*
X5183Y14131D01*
X5136Y14108D01*
X5113Y14084D01*
X5089Y14037D01*
X5089Y13991D01*
X5113Y13944D01*
X5136Y13920D01*
X5183Y13897D01*
X5347Y13897D01*
X4785Y13639D02*
X4832Y13663D01*
X4855Y13686D01*
X4879Y13733D01*
X4879Y13873D01*
X4855Y13920D01*
X4832Y13944D01*
X4785Y13967D01*
X4714Y13967D01*
X4668Y13944D01*
X4644Y13920D01*
X4621Y13873D01*
X4621Y13733D01*
X4644Y13686D01*
X4668Y13663D01*
X4714Y13639D01*
X4785Y13639D01*
X4199Y13639D02*
X4199Y13897D01*
X4222Y13944D01*
X4269Y13967D01*
X4363Y13967D01*
X4410Y13944D01*
X4199Y13663D02*
X4246Y13639D01*
X4363Y13639D01*
X4410Y13663D01*
X4433Y13709D01*
X4433Y13756D01*
X4410Y13803D01*
X4363Y13827D01*
X4246Y13827D01*
X4199Y13850D01*
X3965Y13639D02*
X3965Y13967D01*
X3965Y13873D02*
X3941Y13920D01*
X3918Y13944D01*
X3871Y13967D01*
X3824Y13967D01*
X3449Y13639D02*
X3449Y14131D01*
X3449Y13663D02*
X3496Y13639D01*
X3590Y13639D01*
X3636Y13663D01*
X3660Y13686D01*
X3683Y13733D01*
X3683Y13873D01*
X3660Y13920D01*
X3636Y13944D01*
X3590Y13967D01*
X3496Y13967D01*
X3449Y13944D01*
M02*
