%FSLAX34Y34*%
G04 Gerber Fmt 3.4, Leading zero omitted, Abs format*
G04 (created by PCBNEW (2013-12-14 BZR 4555)-product) date Mon 24 Feb 2014 21:08:05 EST*
%MOIN*%
G01*
G70*
G90*
G04 APERTURE LIST*
%ADD10C,0.005906*%
%ADD11R,0.050394X0.233386*%
%ADD12R,0.031496X0.201890*%
%ADD13R,0.036800X0.013200*%
%ADD14R,0.065600X0.088000*%
%ADD15R,0.047244X0.100787*%
%ADD16R,0.020000X0.036000*%
%ADD17R,0.036000X0.020000*%
%ADD18R,0.078740X0.053543*%
%ADD19R,0.072126X0.028031*%
%ADD20R,0.025197X0.025197*%
%ADD21R,0.040000X0.012800*%
%ADD22R,0.031496X0.100787*%
%ADD23R,0.025200X0.031520*%
G04 APERTURE END LIST*
G54D10*
G54D11*
X4590Y1966D03*
X7346Y1966D03*
G54D12*
X5575Y2163D03*
X6362Y2163D03*
G54D13*
X5181Y12429D03*
X5181Y12173D03*
X5181Y11913D03*
X5181Y11657D03*
X6755Y11657D03*
X6755Y11913D03*
X6755Y12173D03*
X6755Y12429D03*
G54D14*
X5968Y12043D03*
G54D15*
X6795Y5645D03*
X5141Y5645D03*
G54D16*
X7770Y8838D03*
X8370Y8838D03*
X4166Y8838D03*
X3566Y8838D03*
X3566Y9448D03*
X4166Y9448D03*
X8370Y7618D03*
X7770Y7618D03*
X3566Y7618D03*
X4166Y7618D03*
G54D17*
X7444Y5945D03*
X7444Y5345D03*
X4472Y5945D03*
X4472Y5345D03*
G54D16*
X4166Y8228D03*
X3566Y8228D03*
X7770Y8228D03*
X8370Y8228D03*
X6268Y16078D03*
X5668Y16078D03*
G54D18*
X5200Y10744D03*
X6775Y10744D03*
G54D19*
X637Y14600D03*
X2637Y13813D03*
X637Y13025D03*
X2637Y12238D03*
X637Y11451D03*
X2637Y10663D03*
X637Y9876D03*
X2637Y9088D03*
X637Y8301D03*
X2637Y7514D03*
X9300Y7514D03*
X11300Y8301D03*
X9300Y9088D03*
X11300Y9876D03*
X9300Y10663D03*
X11300Y11451D03*
X9300Y12238D03*
X11300Y13025D03*
X9300Y13813D03*
X11300Y14600D03*
G54D20*
X3940Y5350D03*
X3940Y5940D03*
X7996Y5338D03*
X7996Y5929D03*
X5968Y17161D03*
X5968Y16570D03*
G54D21*
X4918Y9495D03*
X4918Y9245D03*
X4918Y8995D03*
X4918Y8745D03*
X4918Y8495D03*
X4918Y8245D03*
X4918Y7995D03*
X4918Y7745D03*
X4918Y7495D03*
X4918Y7245D03*
X7018Y7245D03*
X7018Y7495D03*
X7018Y7745D03*
X7018Y7995D03*
X7018Y8245D03*
X7018Y8495D03*
X7018Y8745D03*
X7018Y8995D03*
X7018Y9245D03*
X7018Y9495D03*
G54D17*
X8897Y5345D03*
X8897Y5945D03*
X9515Y5345D03*
X9515Y5945D03*
G54D16*
X8370Y9448D03*
X7770Y9448D03*
G54D22*
X7169Y14858D03*
X4767Y14858D03*
G54D23*
X3803Y11098D03*
X4178Y10232D03*
X3428Y10232D03*
X8122Y12948D03*
X7747Y13814D03*
X8497Y13814D03*
X8133Y11098D03*
X8508Y10232D03*
X7758Y10232D03*
X5968Y12948D03*
X5593Y13814D03*
X6343Y13814D03*
X3803Y12948D03*
X3428Y13814D03*
X4178Y13814D03*
M02*
