%FSLAX34Y34*%
G04 Gerber Fmt 3.4, Leading zero omitted, Abs format*
G04 (created by PCBNEW (2013-12-14 BZR 4555)-product) date Mon 24 Feb 2014 21:08:05 EST*
%MOIN*%
G01*
G70*
G90*
G04 APERTURE LIST*
%ADD10C,0.005906*%
%ADD11R,0.062992X0.291732*%
%ADD12R,0.039370X0.252362*%
%ADD13R,0.060000X0.060000*%
%ADD14C,0.060000*%
%ADD15R,0.046000X0.016500*%
%ADD16R,0.082000X0.110000*%
%ADD17R,0.059055X0.125984*%
%ADD18R,0.025000X0.045000*%
%ADD19R,0.045000X0.025000*%
%ADD20C,0.100000*%
%ADD21R,0.098425X0.066929*%
%ADD22R,0.090157X0.035039*%
%ADD23R,0.031496X0.031496*%
%ADD24R,0.050000X0.016000*%
%ADD25C,0.118110*%
%ADD26R,0.055118X0.008000*%
%ADD27R,0.050000X0.050000*%
%ADD28C,0.050000*%
%ADD29R,0.039370X0.125984*%
%ADD30R,0.031500X0.039400*%
%ADD31R,0.035433X0.019685*%
%ADD32R,0.008000X0.059055*%
%ADD33C,0.035000*%
%ADD34C,0.008000*%
G04 APERTURE END LIST*
G54D10*
G54D11*
X4590Y1966D03*
X7346Y1966D03*
G54D12*
X5575Y2163D03*
X6362Y2163D03*
G54D13*
X8633Y16866D03*
G54D14*
X7633Y16866D03*
G54D15*
X5181Y12429D03*
X5181Y12173D03*
X5181Y11913D03*
X5181Y11657D03*
X6755Y11657D03*
X6755Y11913D03*
X6755Y12173D03*
X6755Y12429D03*
G54D16*
X5968Y12043D03*
G54D17*
X6795Y5645D03*
X5141Y5645D03*
G54D18*
X7770Y8838D03*
X8370Y8838D03*
X4166Y8838D03*
X3566Y8838D03*
X3566Y9448D03*
X4166Y9448D03*
X8370Y7618D03*
X7770Y7618D03*
X3566Y7618D03*
X4166Y7618D03*
G54D19*
X7444Y5945D03*
X7444Y5345D03*
X4472Y5945D03*
X4472Y5345D03*
G54D18*
X4166Y8228D03*
X3566Y8228D03*
X7770Y8228D03*
X8370Y8228D03*
X6268Y16078D03*
X5668Y16078D03*
G54D20*
X11066Y10663D03*
X870Y10663D03*
G54D21*
X5200Y10744D03*
X6775Y10744D03*
G54D22*
X637Y14600D03*
X2637Y13813D03*
X637Y13025D03*
X2637Y12238D03*
X637Y11451D03*
X2637Y10663D03*
X637Y9876D03*
X2637Y9088D03*
X637Y8301D03*
X2637Y7514D03*
X9300Y7514D03*
X11300Y8301D03*
X9300Y9088D03*
X11300Y9876D03*
X9300Y10663D03*
X11300Y11451D03*
X9300Y12238D03*
X11300Y13025D03*
X9300Y13813D03*
X11300Y14600D03*
G54D23*
X3940Y5350D03*
X3940Y5940D03*
X7996Y5338D03*
X7996Y5929D03*
X5968Y17161D03*
X5968Y16570D03*
G54D24*
X4918Y9495D03*
X4918Y9245D03*
X4918Y8995D03*
X4918Y8745D03*
X4918Y8495D03*
X4918Y8245D03*
X4918Y7995D03*
X4918Y7745D03*
X4918Y7495D03*
X4918Y7245D03*
X7018Y7245D03*
X7018Y7495D03*
X7018Y7745D03*
X7018Y7995D03*
X7018Y8245D03*
X7018Y8495D03*
X7018Y8745D03*
X7018Y8995D03*
X7018Y9245D03*
X7018Y9495D03*
G54D19*
X8897Y5345D03*
X8897Y5945D03*
X9515Y5345D03*
X9515Y5945D03*
G54D25*
X1047Y5996D03*
X1047Y16232D03*
X10889Y16232D03*
G54D18*
X8370Y9448D03*
X7770Y9448D03*
G54D14*
X3318Y5409D03*
X2318Y5409D03*
G54D26*
X2818Y5409D03*
G54D27*
X3409Y16866D03*
G54D28*
X4196Y16866D03*
G54D25*
X10889Y5996D03*
G54D29*
X7169Y14858D03*
X4767Y14858D03*
G54D30*
X3803Y11098D03*
X4178Y10232D03*
X3428Y10232D03*
X8122Y12948D03*
X7747Y13814D03*
X8497Y13814D03*
X8133Y11098D03*
X8508Y10232D03*
X7758Y10232D03*
X5968Y12948D03*
X5593Y13814D03*
X6343Y13814D03*
X3803Y12948D03*
X3428Y13814D03*
X4178Y13814D03*
G54D31*
X11314Y7826D03*
X11314Y7314D03*
G54D32*
X11314Y7570D03*
G54D31*
X11300Y12484D03*
X11300Y11972D03*
G54D32*
X11300Y12228D03*
G54D31*
X11300Y13551D03*
X11300Y14062D03*
G54D32*
X11300Y13807D03*
G54D33*
X8453Y10696D03*
X4709Y9927D03*
X8921Y10097D03*
X7976Y6881D03*
X6192Y9232D03*
X5708Y8574D03*
X1930Y13658D03*
X3726Y6703D03*
X5968Y4744D03*
X8927Y7078D03*
X4295Y13303D03*
X8194Y11554D03*
X6040Y7228D03*
X4065Y7133D03*
X6326Y8055D03*
X5141Y6583D03*
X7281Y6458D03*
G54D34*
X1677Y14132D02*
X1208Y14600D01*
X3428Y14132D02*
X1677Y14132D01*
X3428Y13814D02*
X3428Y14132D01*
X637Y14600D02*
X1208Y14600D01*
X2637Y7514D02*
X2637Y6881D01*
X3116Y6402D02*
X3609Y6402D01*
X2637Y6881D02*
X3116Y6402D01*
X3409Y16866D02*
X3409Y16496D01*
X8370Y8838D02*
X8248Y8838D01*
X8248Y8838D02*
X8125Y8838D01*
X8248Y8696D02*
X8370Y8573D01*
X8248Y8838D02*
X8248Y8696D01*
X8370Y8228D02*
X8370Y8573D01*
X3566Y8228D02*
X3443Y8228D01*
X3566Y8838D02*
X3566Y8493D01*
X4918Y8245D02*
X5288Y8245D01*
X8213Y16918D02*
X8213Y16866D01*
X7846Y17286D02*
X8213Y16918D01*
X7130Y17286D02*
X7846Y17286D01*
X6268Y16423D02*
X7130Y17286D01*
X6268Y16078D02*
X6268Y16423D01*
X8633Y16866D02*
X8213Y16866D01*
X8125Y9339D02*
X8015Y9448D01*
X8125Y8838D02*
X8125Y9339D01*
X7770Y9448D02*
X8015Y9448D01*
X8419Y10696D02*
X8453Y10696D01*
X8224Y10500D02*
X8419Y10696D01*
X8224Y9887D02*
X8224Y10500D01*
X8015Y9679D02*
X8224Y9887D01*
X8015Y9448D02*
X8015Y9679D01*
X3803Y16102D02*
X3803Y12948D01*
X3409Y16496D02*
X3803Y16102D01*
X5968Y12948D02*
X5968Y12043D01*
X5968Y12043D02*
X5968Y11581D01*
X6755Y11657D02*
X6405Y11657D01*
X3443Y8370D02*
X3566Y8493D01*
X3443Y8228D02*
X3443Y8370D01*
X3208Y7993D02*
X3208Y7514D01*
X3443Y8228D02*
X3208Y7993D01*
X4590Y3907D02*
X4590Y1966D01*
X5557Y4873D02*
X4590Y3907D01*
X5557Y7976D02*
X5557Y4873D01*
X5288Y8245D02*
X5557Y7976D01*
X2637Y7514D02*
X2923Y7514D01*
X2923Y7514D02*
X3208Y7514D01*
X4548Y7471D02*
X4548Y8245D01*
X4918Y8245D02*
X4548Y8245D01*
X3609Y6402D02*
X3862Y6402D01*
X3862Y6402D02*
X4374Y6914D01*
X4374Y6914D02*
X4374Y7297D01*
X4374Y7297D02*
X4548Y7471D01*
X3803Y12948D02*
X3803Y11098D01*
X4234Y11098D02*
X4588Y10744D01*
X3803Y11098D02*
X4234Y11098D01*
X5200Y10744D02*
X5813Y10744D01*
X6330Y11581D02*
X6405Y11657D01*
X5968Y11581D02*
X6330Y11581D01*
X5968Y10899D02*
X5813Y10744D01*
X5968Y11581D02*
X5968Y10899D01*
X5200Y10744D02*
X4588Y10744D01*
X3811Y9620D02*
X3811Y8838D01*
X4106Y9915D02*
X3811Y9620D01*
X4697Y9915D02*
X4106Y9915D01*
X4709Y9927D02*
X4697Y9915D01*
X3566Y8838D02*
X3811Y8838D01*
X5080Y9927D02*
X4709Y9927D01*
X6512Y8495D02*
X5080Y9927D01*
X7018Y8495D02*
X6512Y8495D01*
X8370Y9448D02*
X8370Y9793D01*
X4767Y14858D02*
X4767Y14311D01*
X4767Y16295D02*
X4767Y14858D01*
X4196Y16866D02*
X4767Y16295D01*
X4831Y13381D02*
X5264Y13814D01*
X4831Y12173D02*
X4831Y13381D01*
X4767Y14311D02*
X5264Y13814D01*
X5264Y13814D02*
X5315Y13814D01*
X5181Y12173D02*
X4831Y12173D01*
X5454Y13814D02*
X5315Y13814D01*
X5454Y13814D02*
X5593Y13814D01*
X6755Y12701D02*
X6755Y12429D01*
X5871Y13586D02*
X6755Y12701D01*
X5871Y13814D02*
X5871Y13586D01*
X5593Y13814D02*
X5871Y13814D01*
X8508Y10232D02*
X8508Y9987D01*
X8508Y9931D02*
X8508Y9987D01*
X8370Y9793D02*
X8508Y9931D01*
X8508Y10232D02*
X8786Y10232D01*
X8921Y10097D02*
X8786Y10232D01*
X1301Y10232D02*
X3428Y10232D01*
X870Y10663D02*
X1301Y10232D01*
X2066Y7772D02*
X2066Y7226D01*
X3318Y5974D02*
X3318Y5409D01*
X2066Y7226D02*
X3318Y5974D01*
X3321Y8957D02*
X3321Y9448D01*
X2725Y8362D02*
X3321Y8957D01*
X2656Y8362D02*
X2725Y8362D01*
X2066Y7772D02*
X2656Y8362D01*
X3566Y9448D02*
X3321Y9448D01*
X4457Y9495D02*
X4411Y9448D01*
X4918Y9495D02*
X4457Y9495D01*
X4166Y9448D02*
X4411Y9448D01*
X7797Y5338D02*
X7790Y5345D01*
X7996Y5338D02*
X7797Y5338D01*
X7444Y5345D02*
X7790Y5345D01*
X7996Y5929D02*
X7996Y6862D01*
X7996Y6862D02*
X7976Y6881D01*
X7018Y8745D02*
X6680Y8745D01*
X6680Y8745D02*
X6192Y9232D01*
X4122Y5350D02*
X4127Y5345D01*
X3940Y5350D02*
X4122Y5350D01*
X4472Y5345D02*
X4127Y5345D01*
X4548Y6825D02*
X3940Y6218D01*
X4548Y7245D02*
X4548Y6825D01*
X4918Y7245D02*
X4548Y7245D01*
X3940Y5940D02*
X3940Y6218D01*
X7633Y14245D02*
X7633Y16866D01*
X7747Y14132D02*
X7633Y14245D01*
X7747Y13814D02*
X7747Y14132D01*
X8122Y12948D02*
X7844Y12948D01*
X7169Y13850D02*
X7169Y14858D01*
X7844Y13175D02*
X7169Y13850D01*
X7844Y12948D02*
X7844Y13175D01*
X5913Y16238D02*
X5913Y16078D01*
X5968Y16293D02*
X5913Y16238D01*
X5968Y16570D02*
X5968Y16293D01*
X5668Y16078D02*
X5913Y16078D01*
X6795Y4096D02*
X7346Y3545D01*
X6795Y5645D02*
X6795Y4096D01*
X7346Y1966D02*
X7346Y3545D01*
X4918Y8745D02*
X5538Y8745D01*
X5538Y8745D02*
X5708Y8574D01*
X2637Y13813D02*
X2066Y13813D01*
X2066Y13795D02*
X2066Y13813D01*
X1930Y13658D02*
X2066Y13795D01*
X637Y13025D02*
X1208Y13025D01*
X1208Y12841D02*
X1208Y13025D01*
X2106Y11943D02*
X1208Y12841D01*
X2400Y11943D02*
X2106Y11943D01*
X3562Y10781D02*
X2400Y11943D01*
X4155Y10781D02*
X3562Y10781D01*
X4714Y10222D02*
X4155Y10781D01*
X5921Y10222D02*
X4714Y10222D01*
X6648Y9495D02*
X5921Y10222D01*
X7018Y9495D02*
X6648Y9495D01*
X2318Y5409D02*
X2318Y6681D01*
X2318Y6681D02*
X1895Y7104D01*
X1895Y9152D02*
X1895Y7104D01*
X2536Y9793D02*
X1895Y9152D01*
X3533Y9793D02*
X2536Y9793D01*
X3708Y9969D02*
X3533Y9793D01*
X3708Y10480D02*
X3708Y9969D01*
X3639Y10549D02*
X3708Y10480D01*
X3551Y10549D02*
X3639Y10549D01*
X2649Y11451D02*
X3551Y10549D01*
X637Y11451D02*
X2649Y11451D01*
X9612Y7826D02*
X9300Y7514D01*
X11314Y7826D02*
X9612Y7826D01*
X9545Y12484D02*
X9300Y12238D01*
X11300Y12484D02*
X9545Y12484D01*
X3566Y7618D02*
X3566Y6863D01*
X3566Y6863D02*
X3726Y6703D01*
X5968Y4744D02*
X5575Y4350D01*
X5575Y4350D02*
X5575Y2163D01*
X3566Y7618D02*
X3701Y7618D01*
X3921Y7837D02*
X3701Y7618D01*
X3921Y8228D02*
X3921Y7837D01*
X4166Y8228D02*
X3921Y8228D01*
X8370Y7618D02*
X8248Y7618D01*
X8015Y7850D02*
X8248Y7618D01*
X8015Y8228D02*
X8015Y7850D01*
X6362Y6313D02*
X6362Y2163D01*
X6983Y6933D02*
X6362Y6313D01*
X7606Y6933D02*
X6983Y6933D01*
X8248Y7574D02*
X7606Y6933D01*
X8248Y7618D02*
X8248Y7574D01*
X7770Y8228D02*
X8015Y8228D01*
X7529Y11489D02*
X7105Y11913D01*
X7529Y10778D02*
X7529Y11489D01*
X7758Y10549D02*
X7529Y10778D01*
X7758Y10232D02*
X7758Y10549D01*
X6755Y11913D02*
X7105Y11913D01*
X8897Y7048D02*
X8927Y7078D01*
X8897Y5945D02*
X8897Y7048D01*
X4178Y13814D02*
X4178Y13497D01*
X4295Y13379D02*
X4295Y13303D01*
X4178Y13497D02*
X4295Y13379D01*
X8133Y11493D02*
X8133Y11098D01*
X8194Y11554D02*
X8133Y11493D01*
X7105Y13330D02*
X7105Y12173D01*
X6621Y13814D02*
X7105Y13330D01*
X6343Y13814D02*
X6621Y13814D01*
X6755Y12173D02*
X7105Y12173D01*
X7402Y7495D02*
X7525Y7618D01*
X7018Y7495D02*
X7402Y7495D01*
X7770Y7618D02*
X7525Y7618D01*
X6632Y7228D02*
X6040Y7228D01*
X6648Y7245D02*
X6632Y7228D01*
X4166Y7618D02*
X4166Y7272D01*
X4065Y7172D02*
X4065Y7133D01*
X4166Y7272D02*
X4065Y7172D01*
X7018Y7245D02*
X6648Y7245D01*
X7018Y8245D02*
X6516Y8245D01*
X6516Y8245D02*
X6326Y8055D01*
X4472Y5945D02*
X4817Y5945D01*
X4817Y5945D02*
X5141Y5945D01*
X5141Y5945D02*
X5141Y5645D01*
X5141Y6583D02*
X5141Y5945D01*
X7018Y8245D02*
X7388Y8245D01*
X7770Y8838D02*
X7565Y8838D01*
X7281Y6354D02*
X7444Y6190D01*
X7281Y6458D02*
X7281Y6354D01*
X7444Y5945D02*
X7444Y6190D01*
X7565Y8838D02*
X7525Y8838D01*
X7525Y8382D02*
X7388Y8245D01*
X7525Y8838D02*
X7525Y8382D01*
X8497Y13814D02*
X8497Y13497D01*
X6775Y10744D02*
X6775Y10289D01*
X7330Y9734D02*
X6775Y10289D01*
X7525Y9734D02*
X7330Y9734D01*
X7645Y9854D02*
X7525Y9734D01*
X7919Y9854D02*
X7645Y9854D01*
X8036Y9971D02*
X7919Y9854D01*
X8036Y10633D02*
X8036Y9971D01*
X7856Y10813D02*
X8036Y10633D01*
X7856Y11905D02*
X7856Y10813D01*
X8586Y12635D02*
X7856Y11905D01*
X8586Y13408D02*
X8586Y12635D01*
X8497Y13497D02*
X8586Y13408D01*
X7525Y9734D02*
X7525Y8838D01*
X7018Y7745D02*
X6105Y7745D01*
X6015Y7834D02*
X6015Y8076D01*
X6105Y7745D02*
X6015Y7834D01*
X5441Y8995D02*
X5717Y8995D01*
X5441Y8995D02*
X4918Y8995D01*
X5717Y8995D02*
X6015Y8696D01*
X6015Y8696D02*
X6015Y8076D01*
X4548Y8975D02*
X4411Y8838D01*
X4548Y8995D02*
X4548Y8975D01*
X4166Y8838D02*
X4411Y8838D01*
X4918Y8995D02*
X4548Y8995D01*
X7388Y7995D02*
X7388Y7745D01*
X7018Y7995D02*
X7388Y7995D01*
X7018Y7745D02*
X7388Y7745D01*
X11314Y7570D02*
X11314Y7314D01*
X9515Y5945D02*
X9515Y6190D01*
X10639Y7314D02*
X9515Y6190D01*
X11314Y7314D02*
X10639Y7314D01*
X11300Y13551D02*
X11300Y13025D01*
X5181Y11657D02*
X4831Y11657D01*
X5968Y17161D02*
X5690Y17161D01*
X4671Y11817D02*
X4831Y11657D01*
X4671Y13902D02*
X4671Y11817D01*
X4401Y14172D02*
X4671Y13902D01*
X4401Y16058D02*
X4401Y14172D01*
X3807Y16651D02*
X4401Y16058D01*
X3807Y17005D02*
X3807Y16651D01*
X4049Y17247D02*
X3807Y17005D01*
X5048Y17247D02*
X4049Y17247D01*
X5407Y16888D02*
X5048Y17247D01*
X5680Y17161D02*
X5690Y17161D01*
X5407Y16888D02*
X5680Y17161D01*
X11300Y13807D02*
X11300Y14062D01*
X5407Y15768D02*
X5407Y16888D01*
X6753Y14422D02*
X5407Y15768D01*
X6753Y13926D02*
X6753Y14422D01*
X7602Y13077D02*
X6753Y13926D01*
X7602Y12918D02*
X7602Y13077D01*
X7907Y12612D02*
X7602Y12918D01*
X8332Y12612D02*
X7907Y12612D01*
X8415Y12696D02*
X8332Y12612D01*
X8415Y13351D02*
X8415Y12696D01*
X8219Y13547D02*
X8415Y13351D01*
X8219Y14064D02*
X8219Y13547D01*
X8286Y14132D02*
X8219Y14064D01*
X10933Y14132D02*
X8286Y14132D01*
X11002Y14062D02*
X10933Y14132D01*
X11300Y14062D02*
X11002Y14062D01*
X8897Y5345D02*
X8897Y5468D01*
X9048Y5468D02*
X9170Y5345D01*
X8897Y5468D02*
X9048Y5468D01*
X9515Y5345D02*
X9170Y5345D01*
X11300Y12228D02*
X11300Y11972D01*
X11300Y11972D02*
X11002Y11972D01*
X10195Y11165D02*
X11002Y11972D01*
X10195Y9162D02*
X10195Y11165D01*
X9558Y8525D02*
X10195Y9162D01*
X9505Y8525D02*
X9558Y8525D01*
X8616Y7635D02*
X9505Y8525D01*
X8616Y6865D02*
X8616Y7635D01*
X8542Y6792D02*
X8616Y6865D01*
X8542Y5774D02*
X8542Y6792D01*
X8848Y5468D02*
X8542Y5774D01*
X8897Y5468D02*
X8848Y5468D01*
M02*
