G04 This is an RS-274x file exported by *
G04 gerbv version 2.6.0 *
G04 More information is available about gerbv at *
G04 http://gerbv.gpleda.org/ *
G04 --End of header info--*
%MOIN*%
%FSLAX34Y34*%
%IPPOS*%
G04 --Define apertures--*
%ADD10C,0.0059*%
%ADD11R,0.0600X0.0600*%
%ADD12C,0.0600*%
%ADD13R,0.1968X0.1968*%
%ADD14C,0.1000*%
%ADD15C,0.1181*%
%ADD16C,0.0295*%
%ADD17R,0.0500X0.0500*%
%ADD18C,0.0500*%
%ADD19C,0.0350*%
%ADD20C,0.0100*%
%ADD21C,0.0080*%
G04 --Start main section--*
G54D11*
G01X0008633Y0016866D03*
G54D12*
G01X0007633Y0016866D03*
G54D13*
G01X0005968Y0010663D03*
G54D14*
G01X0011066Y0010663D03*
G01X0000870Y0010663D03*
G54D15*
G01X0001047Y0005996D03*
G01X0001047Y0016232D03*
G01X0010889Y0016232D03*
G54D16*
G01X0003803Y0015287D03*
G01X0000637Y0009088D03*
G01X0011300Y0009088D03*
G54D11*
G01X0008133Y0015094D03*
G54D12*
G01X0003318Y0005409D03*
G01X0002318Y0005409D03*
G01X0002637Y0014787D03*
G01X0002637Y0015787D03*
G54D17*
G01X0003409Y0016866D03*
G54D18*
G01X0004196Y0016866D03*
G54D15*
G01X0010889Y0005996D03*
G54D19*
G01X0003176Y0011147D03*
G01X0009215Y0010229D03*
G01X0008901Y0008637D03*
G01X0005736Y0005255D03*
G01X0004376Y0010744D03*
G01X0006328Y0008448D03*
G01X0005435Y0012952D03*
G01X0006384Y0009063D03*
G01X0007576Y0006990D03*
G01X0005552Y0008623D03*
G01X0001825Y0013628D03*
G01X0003724Y0006866D03*
G01X0005693Y0006102D03*
G01X0008350Y0006885D03*
G01X0006239Y0005786D03*
G01X0004780Y0012988D03*
G01X0008133Y0011560D03*
G01X0008959Y0007081D03*
G01X0004731Y0013563D03*
G01X0006337Y0007062D03*
G01X0004166Y0007053D03*
G01X0006500Y0007745D03*
G01X0005774Y0009036D03*
G54D20*
G01X0003118Y0015787D02*
G01X0002637Y0015787D01*
G01X0004196Y0016866D02*
G01X0003118Y0015787D01*
G01X0002017Y0011811D02*
G01X0000870Y0010663D01*
G01X0002060Y0011811D02*
G01X0002017Y0011811D01*
G01X0002200Y0011951D02*
G01X0002060Y0011811D01*
G01X0002200Y0015350D02*
G01X0002200Y0011951D01*
G01X0002637Y0015787D02*
G01X0002200Y0015350D01*
G01X0009772Y0009369D02*
G01X0011066Y0010663D01*
G01X0004502Y0009369D02*
G01X0009772Y0009369D01*
G01X0002060Y0011811D02*
G01X0004502Y0009369D01*
G01X0003176Y0014248D02*
G01X0003176Y0011147D01*
G01X0002637Y0014787D02*
G01X0003176Y0014248D01*
G01X0008534Y0009549D02*
G01X0009215Y0010229D01*
G01X0004775Y0009549D02*
G01X0008534Y0009549D01*
G01X0003176Y0011147D02*
G01X0004775Y0009549D01*
G01X0009011Y0008527D02*
G01X0009011Y0007994D01*
G01X0008901Y0008637D02*
G01X0009011Y0008527D01*
G01X0005736Y0005714D02*
G01X0006707Y0006685D01*
G01X0005736Y0005255D02*
G01X0005736Y0005714D01*
G01X0005968Y0010663D02*
G01X0004854Y0010663D01*
G01X0004773Y0010744D02*
G01X0004854Y0010663D01*
G01X0004376Y0010744D02*
G01X0004773Y0010744D01*
G01X0003409Y0016866D02*
G01X0003789Y0016866D01*
G01X0004309Y0013705D02*
G01X0004602Y0013998D01*
G01X0004309Y0010810D02*
G01X0004309Y0013705D01*
G01X0004376Y0010744D02*
G01X0004309Y0010810D01*
G01X0008633Y0016866D02*
G01X0008203Y0016866D01*
G01X0008203Y0016919D02*
G01X0008203Y0016866D01*
G01X0007827Y0017296D02*
G01X0008203Y0016919D01*
G01X0004889Y0017296D02*
G01X0007827Y0017296D01*
G01X0004602Y0017009D02*
G01X0004889Y0017296D01*
G01X0004602Y0013998D02*
G01X0004602Y0017009D01*
G01X0003789Y0017008D02*
G01X0003789Y0016866D01*
G01X0004027Y0017246D02*
G01X0003789Y0017008D01*
G01X0004365Y0017246D02*
G01X0004027Y0017246D01*
G01X0004602Y0017009D02*
G01X0004365Y0017246D01*
G01X0005435Y0012952D02*
G01X0005435Y0012952D01*
G01X0005435Y0013297D02*
G01X0005435Y0012952D01*
G01X0004734Y0013998D02*
G01X0005435Y0013297D01*
G01X0004602Y0013998D02*
G01X0004734Y0013998D01*
G01X0006817Y0007960D02*
G01X0006328Y0008448D01*
G01X0006817Y0006685D02*
G01X0006817Y0007960D01*
G01X0007702Y0006685D02*
G01X0006817Y0006685D01*
G01X0009011Y0007994D02*
G01X0007702Y0006685D01*
G01X0006817Y0006685D02*
G01X0006707Y0006685D01*
G54D21*
G01X0007576Y0007871D02*
G01X0007576Y0006990D01*
G01X0006384Y0009063D02*
G01X0007576Y0007871D01*
G01X0000228Y0012031D02*
G01X0001825Y0013628D01*
G01X0000228Y0010413D02*
G01X0000228Y0012031D01*
G01X0002018Y0008623D02*
G01X0000228Y0010413D01*
G01X0005552Y0008623D02*
G01X0002018Y0008623D01*
G01X0004285Y0006102D02*
G01X0004285Y0006304D01*
G01X0004285Y0006304D02*
G01X0003724Y0006866D01*
G01X0004285Y0006102D02*
G01X0005693Y0006102D01*
G01X0007559Y0005786D02*
G01X0008350Y0006577D01*
G01X0008350Y0006577D02*
G01X0008350Y0006885D01*
G01X0007559Y0005786D02*
G01X0006239Y0005786D01*
G01X0008133Y0015094D02*
G01X0007713Y0015094D01*
G01X0007713Y0014812D02*
G01X0007713Y0015094D01*
G01X0005542Y0012641D02*
G01X0007713Y0014812D01*
G01X0005127Y0012641D02*
G01X0005542Y0012641D01*
G01X0004780Y0012988D02*
G01X0005127Y0012641D01*
G01X0008959Y0007672D02*
G01X0008959Y0007081D01*
G01X0011689Y0010402D02*
G01X0008959Y0007672D01*
G01X0011689Y0010928D02*
G01X0011689Y0010402D01*
G01X0011057Y0011560D02*
G01X0011689Y0010928D01*
G01X0008133Y0011560D02*
G01X0011057Y0011560D01*
G01X0007212Y0012481D02*
G01X0008133Y0011560D01*
G01X0004862Y0012481D02*
G01X0007212Y0012481D01*
G01X0004484Y0012859D02*
G01X0004862Y0012481D01*
G01X0004484Y0013316D02*
G01X0004484Y0012859D01*
G01X0004731Y0013563D02*
G01X0004484Y0013316D01*
G01X0004175Y0007062D02*
G01X0006337Y0007062D01*
G01X0004166Y0007053D02*
G01X0004175Y0007062D01*
G01X0005848Y0008962D02*
G01X0005774Y0009036D01*
G01X0005848Y0008397D02*
G01X0005848Y0008962D01*
G01X0006500Y0007745D02*
G01X0005848Y0008397D01*
M02*
