M48
;DRILL file {Pcbnew (2013-mar-13)-testing} date Sun 15 Sep 2013 23:42:03 EST
;FORMAT={-:-/ absolute / metric / decimal}
FMAT,2
METRIC,TZ
T1C0.635
T2C1.016
T3C2.000
%
G90
G05
M71
T1
X1.849Y26.462
X2.204Y17.6
X3.03Y29.24
X3.63Y15.14
X4.277Y21.426
X6.64Y27.564
X8.163Y38.803
X8.718Y17.642
X10.67Y18.837
X11.31Y22.86
X11.887Y39.302
X13.774Y17.692
X13.784Y16.04
X13.796Y14.897
X14.239Y35.304
X15.836Y17.751
X15.946Y13.371
X16.372Y19.657
X16.744Y26.254
X18.066Y30.511
X19.709Y32.857
X20.2Y20.373
X20.2Y18.977
X25.088Y30.713
X25.951Y28.583
T2
X13.831Y39.24
X16.371Y39.24
T3
X2.151Y22.86
X28.051Y22.86
T0
M30
