%FSLAX34Y34*%
G04 Gerber Fmt 3.4, Leading zero omitted, Abs format*
G04 (created by PCBNEW (2013-12-14 BZR 4555)-product) date Thu 06 Mar 2014 10:43:19 EST*
%MOIN*%
G01*
G70*
G90*
G04 APERTURE LIST*
%ADD10C,0.005906*%
%ADD11R,0.060000X0.060000*%
%ADD12C,0.060000*%
%ADD13R,0.059055X0.125984*%
%ADD14R,0.025000X0.045000*%
%ADD15R,0.045000X0.025000*%
%ADD16C,0.100000*%
%ADD17R,0.098425X0.066929*%
%ADD18C,0.118110*%
%ADD19R,0.031500X0.039400*%
%ADD20R,0.035433X0.019685*%
%ADD21R,0.008000X0.059055*%
%ADD22C,0.029134*%
%ADD23R,0.055118X0.008000*%
%ADD24R,0.008000X0.055118*%
%ADD25R,0.050000X0.050000*%
%ADD26C,0.050000*%
%ADD27R,0.039370X0.125984*%
%ADD28R,0.050000X0.016000*%
%ADD29R,0.046000X0.016500*%
%ADD30R,0.082000X0.110000*%
%ADD31R,0.062992X0.291732*%
%ADD32R,0.039370X0.252362*%
%ADD33R,0.031496X0.031496*%
%ADD34R,0.090157X0.035039*%
%ADD35C,0.035000*%
%ADD36C,0.010000*%
%ADD37C,0.008000*%
G04 APERTURE END LIST*
G54D10*
G54D11*
X8633Y16866D03*
G54D12*
X7633Y16866D03*
G54D13*
X6795Y5645D03*
X5141Y5645D03*
G54D14*
X7770Y8838D03*
X8370Y8838D03*
X4166Y8838D03*
X3566Y8838D03*
X3566Y9448D03*
X4166Y9448D03*
X8370Y7618D03*
X7770Y7618D03*
X3566Y7618D03*
X4166Y7618D03*
G54D15*
X7444Y5945D03*
X7444Y5345D03*
X4472Y5945D03*
X4472Y5345D03*
G54D14*
X4166Y8228D03*
X3566Y8228D03*
X7770Y8228D03*
X8370Y8228D03*
X6268Y16078D03*
X5668Y16078D03*
G54D16*
X11066Y10663D03*
X870Y10663D03*
G54D17*
X5200Y10744D03*
X6775Y10744D03*
G54D15*
X8897Y5345D03*
X8897Y5945D03*
X9537Y5345D03*
X9537Y5945D03*
G54D18*
X1047Y5996D03*
X1047Y16232D03*
X10889Y16232D03*
G54D14*
X8370Y9448D03*
X7770Y9448D03*
G54D19*
X3803Y11098D03*
X4178Y10232D03*
X3428Y10232D03*
X8122Y12948D03*
X7747Y13814D03*
X8497Y13814D03*
X8133Y11098D03*
X8508Y10232D03*
X7758Y10232D03*
X5968Y12948D03*
X5593Y13814D03*
X6343Y13814D03*
X3803Y12948D03*
X3428Y13814D03*
X4178Y13814D03*
G54D20*
X11314Y7826D03*
X11314Y7314D03*
G54D21*
X11314Y7570D03*
G54D20*
X11300Y12484D03*
X11300Y11972D03*
G54D21*
X11300Y12228D03*
G54D20*
X11300Y13551D03*
X11300Y14062D03*
G54D21*
X11300Y13807D03*
G54D22*
X3803Y15287D03*
X637Y9088D03*
X11300Y9088D03*
G54D11*
X8133Y15094D03*
G54D12*
X3318Y5409D03*
X2318Y5409D03*
G54D23*
X2818Y5409D03*
G54D12*
X2637Y14787D03*
X2637Y15787D03*
G54D24*
X2637Y15287D03*
G54D25*
X3409Y16866D03*
G54D26*
X4196Y16866D03*
G54D27*
X7169Y14858D03*
X4767Y14858D03*
G54D28*
X4918Y9495D03*
X4918Y9245D03*
X4918Y8995D03*
X4918Y8745D03*
X4918Y8495D03*
X4918Y8245D03*
X4918Y7995D03*
X4918Y7745D03*
X4918Y7495D03*
X4918Y7245D03*
X7018Y7245D03*
X7018Y7495D03*
X7018Y7745D03*
X7018Y7995D03*
X7018Y8245D03*
X7018Y8495D03*
X7018Y8745D03*
X7018Y8995D03*
X7018Y9245D03*
X7018Y9495D03*
G54D18*
X10889Y5996D03*
G54D29*
X5181Y12429D03*
X5181Y12173D03*
X5181Y11913D03*
X5181Y11657D03*
X6755Y11657D03*
X6755Y11913D03*
X6755Y12173D03*
X6755Y12429D03*
G54D30*
X5968Y12043D03*
G54D31*
X4590Y1966D03*
X7346Y1966D03*
G54D32*
X5575Y2163D03*
X6362Y2163D03*
G54D33*
X5968Y17161D03*
X5968Y16570D03*
X3940Y5350D03*
X3940Y5940D03*
X7996Y5338D03*
X7996Y5929D03*
G54D34*
X637Y14600D03*
X2637Y13813D03*
X637Y13025D03*
X2637Y12238D03*
X637Y11451D03*
X2637Y10663D03*
X637Y9876D03*
X2637Y9088D03*
X637Y8301D03*
X2637Y7514D03*
X9300Y7514D03*
X11300Y8301D03*
X9300Y9088D03*
X11300Y9876D03*
X9300Y10663D03*
X11300Y11451D03*
X9300Y12238D03*
X11300Y13025D03*
X9300Y13813D03*
X11300Y14600D03*
G54D35*
X3176Y11147D03*
X9215Y10229D03*
X8901Y8637D03*
X5736Y5255D03*
X4376Y10744D03*
X6328Y8448D03*
X5435Y12952D03*
X6384Y9063D03*
X7576Y6990D03*
X5552Y8623D03*
X1825Y13628D03*
X3724Y6866D03*
X5693Y6102D03*
X8350Y6885D03*
X6239Y5786D03*
X4780Y12988D03*
X8133Y11560D03*
X8959Y7081D03*
X4731Y13563D03*
X6337Y7062D03*
X4166Y7053D03*
X6500Y7745D03*
X5774Y9036D03*
G54D36*
X2637Y15787D02*
X2637Y14787D01*
X8122Y12948D02*
X7834Y12948D01*
X7169Y14858D02*
X7169Y14098D01*
X7169Y13614D02*
X7169Y14098D01*
X7834Y12948D02*
X7169Y13614D01*
X6755Y12429D02*
X7085Y12429D01*
X6677Y13362D02*
X6097Y13362D01*
X7251Y12788D02*
X6677Y13362D01*
X7251Y12594D02*
X7251Y12788D01*
X7085Y12429D02*
X7251Y12594D01*
X8508Y10232D02*
X8508Y10043D01*
X5181Y12173D02*
X4821Y12173D01*
X4611Y14787D02*
X4767Y14631D01*
X2637Y14787D02*
X4611Y14787D01*
X4767Y14858D02*
X4767Y14631D01*
X4767Y14631D02*
X4767Y14098D01*
X8370Y9448D02*
X8370Y9803D01*
X8508Y9941D02*
X8370Y9803D01*
X8508Y10043D02*
X8508Y9941D01*
X3428Y10232D02*
X3428Y10559D01*
X5449Y13814D02*
X5305Y13814D01*
X5305Y13814D02*
X5178Y13687D01*
X4767Y14098D02*
X5178Y13687D01*
X5449Y13814D02*
X5593Y13814D01*
X5593Y13814D02*
X5881Y13814D01*
X5881Y13578D02*
X6097Y13362D01*
X5881Y13814D02*
X5881Y13578D01*
X8508Y10232D02*
X8796Y10232D01*
X3428Y10896D02*
X3176Y11147D01*
X3428Y10559D02*
X3428Y10896D01*
X4821Y12591D02*
X4821Y12173D01*
X5085Y12855D02*
X4821Y12591D01*
X5085Y13594D02*
X5085Y12855D01*
X5178Y13687D02*
X5085Y13594D01*
X8798Y10229D02*
X9215Y10229D01*
X8796Y10232D02*
X8798Y10229D01*
X7633Y14255D02*
X7633Y16866D01*
X7747Y14142D02*
X7633Y14255D01*
X7747Y13814D02*
X7747Y14142D01*
X7346Y1966D02*
X7346Y3555D01*
X7346Y4334D02*
X6795Y4885D01*
X7346Y3555D02*
X7346Y4334D01*
X6795Y5645D02*
X6795Y4885D01*
G54D37*
X1677Y14132D02*
X1208Y14600D01*
X3428Y14132D02*
X1677Y14132D01*
X3428Y13814D02*
X3428Y14132D01*
X637Y14600D02*
X1208Y14600D01*
G54D36*
X8370Y8228D02*
X8492Y8228D01*
X8492Y8228D02*
X8901Y8637D01*
X4590Y1966D02*
X4590Y3437D01*
X5736Y4582D02*
X5736Y5255D01*
X4590Y3437D02*
X5736Y4582D01*
X5968Y12948D02*
X5968Y12043D01*
X3803Y12621D02*
X3803Y11425D01*
X3803Y12948D02*
X3803Y12621D01*
X3803Y11261D02*
X3803Y11425D01*
X3803Y11261D02*
X3803Y11098D01*
X3803Y11098D02*
X3803Y10771D01*
X5200Y10744D02*
X4578Y10744D01*
X4376Y10744D02*
X4578Y10744D01*
X8370Y8228D02*
X8370Y8583D01*
X5913Y15723D02*
X6268Y16078D01*
X4789Y15723D02*
X5913Y15723D01*
X3789Y16723D02*
X4789Y15723D01*
X3789Y16866D02*
X3789Y16723D01*
X3409Y16866D02*
X3789Y16866D01*
X5968Y12043D02*
X5968Y11576D01*
X6755Y11657D02*
X6395Y11657D01*
X3566Y8838D02*
X3821Y8838D01*
X3830Y8847D02*
X3821Y8838D01*
X3830Y10744D02*
X3830Y8847D01*
X4376Y10744D02*
X3830Y10744D01*
X3830Y10744D02*
X3803Y10771D01*
X2637Y7514D02*
X2928Y7514D01*
X3566Y8838D02*
X3566Y8228D01*
X3311Y7896D02*
X2928Y7514D01*
X3311Y8228D02*
X3311Y7896D01*
X3566Y8228D02*
X3311Y8228D01*
X8370Y8583D02*
X8370Y8838D01*
X8115Y9359D02*
X8025Y9448D01*
X8115Y8838D02*
X8115Y9359D01*
X8370Y8838D02*
X8115Y8838D01*
X7770Y9448D02*
X8025Y9448D01*
X6315Y11576D02*
X6395Y11657D01*
X5968Y11576D02*
X6315Y11576D01*
X5200Y10511D02*
X5200Y10689D01*
X5200Y10511D02*
X5200Y10279D01*
X7018Y8495D02*
X6638Y8495D01*
X6371Y8495D02*
X6638Y8495D01*
X6371Y8491D02*
X6371Y8495D01*
X6328Y8448D02*
X6371Y8491D01*
X5200Y10716D02*
X5200Y10744D01*
X5200Y10716D02*
X5200Y10689D01*
X5968Y12948D02*
X5680Y12948D01*
X6131Y8735D02*
X6096Y8735D01*
X6371Y8495D02*
X6131Y8735D01*
X5606Y8245D02*
X6096Y8735D01*
X4918Y8245D02*
X5606Y8245D01*
X6079Y9400D02*
X5200Y10279D01*
X6079Y8752D02*
X6079Y9400D01*
X6096Y8735D02*
X6079Y8752D01*
X5438Y12948D02*
X5435Y12952D01*
X5680Y12948D02*
X5438Y12948D01*
G54D37*
X3318Y5409D02*
X3318Y5984D01*
X3318Y5984D02*
X2066Y7236D01*
X2066Y7236D02*
X2059Y7236D01*
X2059Y7236D02*
X2066Y7236D01*
X3321Y8937D02*
X3321Y9448D01*
X2961Y8577D02*
X3321Y8937D01*
X2878Y8577D02*
X2961Y8577D01*
X2066Y7766D02*
X2878Y8577D01*
X2066Y7236D02*
X2066Y7766D01*
X3566Y9448D02*
X3321Y9448D01*
X4457Y9495D02*
X4411Y9448D01*
X4918Y9495D02*
X4457Y9495D01*
X4166Y9448D02*
X4411Y9448D01*
X7797Y5338D02*
X7790Y5345D01*
X7996Y5338D02*
X7797Y5338D01*
X7444Y5345D02*
X7790Y5345D01*
X7996Y5929D02*
X7996Y6206D01*
X7018Y8745D02*
X6648Y8745D01*
X6384Y9009D02*
X6384Y9063D01*
X6648Y8745D02*
X6384Y9009D01*
X7576Y6626D02*
X7576Y6990D01*
X7996Y6206D02*
X7576Y6626D01*
X4122Y5350D02*
X4127Y5345D01*
X3940Y5350D02*
X4122Y5350D01*
X4472Y5345D02*
X4127Y5345D01*
X4548Y6825D02*
X3940Y6218D01*
X4548Y7245D02*
X4548Y6825D01*
X4918Y7245D02*
X4548Y7245D01*
X3940Y5940D02*
X3940Y6218D01*
X5913Y16238D02*
X5913Y16078D01*
X5968Y16293D02*
X5913Y16238D01*
X5968Y16570D02*
X5968Y16293D01*
X5668Y16078D02*
X5913Y16078D01*
X2637Y13813D02*
X2066Y13813D01*
X5431Y8745D02*
X5552Y8623D01*
X4918Y8745D02*
X5431Y8745D01*
X1825Y13628D02*
X1825Y13628D01*
X1881Y13628D02*
X1825Y13628D01*
X2066Y13813D02*
X1881Y13628D01*
X1448Y13266D02*
X1208Y13025D01*
X4039Y13266D02*
X1448Y13266D01*
X4262Y13043D02*
X4039Y13266D01*
X4262Y11977D02*
X4262Y13043D01*
X5005Y11234D02*
X4262Y11977D01*
X5706Y11234D02*
X5005Y11234D01*
X6021Y10920D02*
X5706Y11234D01*
X6021Y10121D02*
X6021Y10920D01*
X6648Y9495D02*
X6021Y10121D01*
X7018Y9495D02*
X6648Y9495D01*
X637Y13025D02*
X1208Y13025D01*
X2318Y5409D02*
X2318Y6594D01*
X2318Y6594D02*
X1899Y7013D01*
X1899Y10760D02*
X1208Y11451D01*
X1899Y7013D02*
X1899Y10760D01*
X637Y11451D02*
X1208Y11451D01*
X9612Y7826D02*
X9300Y7514D01*
X11314Y7826D02*
X9612Y7826D01*
X9545Y12484D02*
X9300Y12238D01*
X11300Y12484D02*
X9545Y12484D01*
X11300Y13326D02*
X11300Y13025D01*
X3842Y7476D02*
X3701Y7618D01*
X3842Y6984D02*
X3842Y7476D01*
X3724Y6866D02*
X3842Y6984D01*
X5693Y6102D02*
X5693Y5850D01*
X6047Y4017D02*
X5693Y3663D01*
X6047Y5496D02*
X6047Y4017D01*
X5693Y5850D02*
X6047Y5496D01*
X3566Y7618D02*
X3701Y7618D01*
X3921Y7837D02*
X3701Y7618D01*
X3921Y8228D02*
X3921Y7837D01*
X4166Y8228D02*
X3921Y8228D01*
X5575Y2163D02*
X5575Y3545D01*
X5575Y3545D02*
X5693Y3663D01*
X8074Y7471D02*
X8221Y7618D01*
X8074Y7181D02*
X8074Y7471D01*
X8350Y6905D02*
X8074Y7181D01*
X8350Y6885D02*
X8350Y6905D01*
X8370Y7618D02*
X8266Y7618D01*
X8221Y7618D02*
X8266Y7618D01*
X7770Y8228D02*
X8015Y8228D01*
X8015Y8228D02*
X8015Y7823D01*
X8015Y7823D02*
X8221Y7618D01*
X6362Y2163D02*
X6362Y3545D01*
X6362Y5663D02*
X6239Y5786D01*
X6362Y3545D02*
X6362Y5663D01*
X4650Y12859D02*
X4780Y12988D01*
X4650Y12084D02*
X4650Y12859D01*
X4821Y11913D02*
X4650Y12084D01*
X5181Y11913D02*
X4821Y11913D01*
X7758Y10232D02*
X7758Y10549D01*
X6755Y11913D02*
X7105Y11913D01*
X7758Y11260D02*
X7758Y10549D01*
X7105Y11913D02*
X7758Y11260D01*
X8133Y11560D02*
X8133Y11098D01*
X8897Y7020D02*
X8959Y7081D01*
X8897Y5945D02*
X8897Y7020D01*
X4178Y13814D02*
X4455Y13814D01*
X4707Y13563D02*
X4731Y13563D01*
X4455Y13814D02*
X4707Y13563D01*
X6755Y12173D02*
X7141Y12173D01*
X7421Y13014D02*
X7105Y13330D01*
X7421Y12452D02*
X7421Y13014D01*
X7141Y12173D02*
X7421Y12452D01*
X6621Y13814D02*
X7105Y13330D01*
X6343Y13814D02*
X6621Y13814D01*
X7402Y7495D02*
X7525Y7618D01*
X7018Y7495D02*
X7402Y7495D01*
X7770Y7618D02*
X7525Y7618D01*
X4166Y7618D02*
X4166Y7272D01*
X7018Y7245D02*
X6648Y7245D01*
X4166Y7272D02*
X4166Y7053D01*
X6466Y7062D02*
X6337Y7062D01*
X6648Y7245D02*
X6466Y7062D01*
G54D36*
X7444Y5945D02*
X7444Y6200D01*
X6828Y8245D02*
X6638Y8245D01*
X5141Y5645D02*
X5141Y6025D01*
X4907Y6025D02*
X4827Y5945D01*
X5141Y6025D02*
X4907Y6025D01*
X4472Y5945D02*
X4827Y5945D01*
X7770Y8838D02*
X7515Y8838D01*
X6828Y8245D02*
X7018Y8245D01*
X7398Y8721D02*
X7515Y8838D01*
X7398Y8245D02*
X7398Y8721D01*
X7018Y8245D02*
X7398Y8245D01*
X6775Y10744D02*
X6775Y10279D01*
X6970Y10279D02*
X6775Y10279D01*
X7515Y9734D02*
X6970Y10279D01*
X7686Y9905D02*
X7515Y9734D01*
X7971Y9905D02*
X7686Y9905D01*
X8137Y10071D02*
X7971Y9905D01*
X8137Y10551D02*
X8137Y10071D01*
X8497Y10910D02*
X8137Y10551D01*
X8497Y13814D02*
X8497Y10910D01*
X7515Y9734D02*
X7515Y8838D01*
X6030Y7711D02*
X6030Y6914D01*
X6564Y8245D02*
X6030Y7711D01*
X6638Y8245D02*
X6564Y8245D01*
X6344Y6600D02*
X6030Y6914D01*
X7044Y6600D02*
X6344Y6600D01*
X7444Y6200D02*
X7044Y6600D01*
X6030Y6914D02*
X5141Y6025D01*
G54D37*
X7018Y7745D02*
X6500Y7745D01*
X4166Y8838D02*
X4411Y8838D01*
X4548Y8975D02*
X4411Y8838D01*
X4548Y8995D02*
X4548Y8975D01*
X4918Y8995D02*
X4548Y8995D01*
X7388Y7995D02*
X7388Y7745D01*
X7018Y7995D02*
X7388Y7995D01*
X7018Y7745D02*
X7388Y7745D01*
X4918Y8995D02*
X5288Y8995D01*
X5330Y9036D02*
X5774Y9036D01*
X5288Y8995D02*
X5330Y9036D01*
X9537Y5945D02*
X9537Y6655D01*
X10196Y7314D02*
X11314Y7314D01*
X9537Y6655D02*
X10196Y7314D01*
X11314Y7570D02*
X11314Y7314D01*
X11300Y14045D02*
X11300Y14062D01*
X11300Y13807D02*
X11300Y13844D01*
X11300Y14045D02*
X11300Y13945D01*
X11300Y13945D02*
X11300Y13844D01*
X11300Y13551D02*
X11300Y13326D01*
X11300Y13945D02*
X10991Y13945D01*
X10781Y13945D02*
X10991Y13945D01*
X8190Y16536D02*
X10781Y13945D01*
X8190Y16929D02*
X8190Y16536D01*
X7830Y17289D02*
X8190Y16929D01*
X6374Y17289D02*
X7830Y17289D01*
X6246Y17161D02*
X6374Y17289D01*
X5968Y17161D02*
X5993Y17161D01*
X5993Y17161D02*
X6246Y17161D01*
X5181Y11657D02*
X4831Y11657D01*
X4484Y12003D02*
X4831Y11657D01*
X4484Y13058D02*
X4484Y12003D01*
X4087Y13456D02*
X4484Y13058D01*
X4002Y13456D02*
X4087Y13456D01*
X3888Y13569D02*
X4002Y13456D01*
X3888Y13900D02*
X3888Y13569D01*
X3497Y14292D02*
X3888Y13900D01*
X2529Y14292D02*
X3497Y14292D01*
X2205Y14616D02*
X2529Y14292D01*
X2205Y16343D02*
X2205Y14616D01*
X3097Y17236D02*
X2205Y16343D01*
X5918Y17236D02*
X3097Y17236D01*
X5993Y17161D02*
X5918Y17236D01*
X8897Y5345D02*
X8897Y5468D01*
X9069Y5468D02*
X9191Y5345D01*
X8897Y5468D02*
X9069Y5468D01*
X9537Y5345D02*
X9191Y5345D01*
X11300Y12228D02*
X11300Y11972D01*
X11300Y11972D02*
X11002Y11972D01*
X10158Y11128D02*
X11002Y11972D01*
X10158Y9095D02*
X10158Y11128D01*
X9133Y8070D02*
X10158Y9095D01*
X9055Y8070D02*
X9133Y8070D01*
X8655Y7670D02*
X9055Y8070D01*
X8655Y6321D02*
X8655Y7670D01*
X8545Y6211D02*
X8655Y6321D01*
X8545Y5775D02*
X8545Y6211D01*
X8852Y5468D02*
X8545Y5775D01*
X8897Y5468D02*
X8852Y5468D01*
M02*
