G04 (created by PCBNEW (2013-mar-13)-testing) date Wed 23 Oct 2013 02:02:18 EST*
%MOIN*%
G04 Gerber Fmt 3.4, Leading zero omitted, Abs format*
%FSLAX34Y34*%
G01*
G70*
G90*
G04 APERTURE LIST*
%ADD10C,0.005906*%
%ADD11C,0.006398*%
G04 APERTURE END LIST*
G54D10*
G54D11*
X10443Y17220D02*
X10467Y17233D01*
X10516Y17233D01*
X10540Y17220D01*
X10565Y17196D01*
X10577Y17172D01*
X10577Y17123D01*
X10565Y17099D01*
X10540Y17074D01*
X10516Y17062D01*
X10467Y17062D01*
X10443Y17074D01*
X10491Y17318D02*
X10552Y17306D01*
X10613Y17269D01*
X10650Y17208D01*
X10662Y17147D01*
X10650Y17086D01*
X10613Y17025D01*
X10552Y16989D01*
X10491Y16977D01*
X10431Y16989D01*
X10370Y17025D01*
X10333Y17086D01*
X10321Y17147D01*
X10333Y17208D01*
X10370Y17269D01*
X10431Y17306D01*
X10491Y17318D01*
X10126Y17160D02*
X10089Y17147D01*
X10077Y17135D01*
X10065Y17111D01*
X10065Y17074D01*
X10077Y17050D01*
X10089Y17038D01*
X10114Y17025D01*
X10211Y17025D01*
X10211Y17281D01*
X10126Y17281D01*
X10101Y17269D01*
X10089Y17257D01*
X10077Y17233D01*
X10077Y17208D01*
X10089Y17184D01*
X10101Y17172D01*
X10126Y17160D01*
X10211Y17160D01*
X9919Y17025D02*
X9943Y17038D01*
X9955Y17050D01*
X9967Y17074D01*
X9967Y17147D01*
X9955Y17172D01*
X9943Y17184D01*
X9919Y17196D01*
X9882Y17196D01*
X9858Y17184D01*
X9846Y17172D01*
X9833Y17147D01*
X9833Y17074D01*
X9846Y17050D01*
X9858Y17038D01*
X9882Y17025D01*
X9919Y17025D01*
X9724Y17025D02*
X9724Y17281D01*
X9724Y17184D02*
X9699Y17196D01*
X9651Y17196D01*
X9626Y17184D01*
X9614Y17172D01*
X9602Y17147D01*
X9602Y17074D01*
X9614Y17050D01*
X9626Y17038D01*
X9651Y17025D01*
X9699Y17025D01*
X9724Y17038D01*
X9492Y17025D02*
X9492Y17281D01*
X9395Y17281D01*
X9370Y17269D01*
X9358Y17257D01*
X9346Y17233D01*
X9346Y17196D01*
X9358Y17172D01*
X9370Y17160D01*
X9395Y17147D01*
X9492Y17147D01*
X9200Y17025D02*
X9224Y17038D01*
X9236Y17050D01*
X9248Y17074D01*
X9248Y17147D01*
X9236Y17172D01*
X9224Y17184D01*
X9200Y17196D01*
X9163Y17196D01*
X9139Y17184D01*
X9127Y17172D01*
X9114Y17147D01*
X9114Y17074D01*
X9127Y17050D01*
X9139Y17038D01*
X9163Y17025D01*
X9200Y17025D01*
X9029Y17196D02*
X8980Y17025D01*
X8932Y17147D01*
X8883Y17025D01*
X8834Y17196D01*
X8639Y17038D02*
X8664Y17025D01*
X8712Y17025D01*
X8737Y17038D01*
X8749Y17062D01*
X8749Y17160D01*
X8737Y17184D01*
X8712Y17196D01*
X8664Y17196D01*
X8639Y17184D01*
X8627Y17160D01*
X8627Y17135D01*
X8749Y17111D01*
X8517Y17025D02*
X8517Y17196D01*
X8517Y17147D02*
X8505Y17172D01*
X8493Y17184D01*
X8469Y17196D01*
X8444Y17196D01*
X8371Y17038D02*
X8347Y17025D01*
X8298Y17025D01*
X8274Y17038D01*
X8261Y17062D01*
X8261Y17074D01*
X8274Y17099D01*
X8298Y17111D01*
X8335Y17111D01*
X8359Y17123D01*
X8371Y17147D01*
X8371Y17160D01*
X8359Y17184D01*
X8335Y17196D01*
X8298Y17196D01*
X8274Y17184D01*
X7969Y17257D02*
X7957Y17269D01*
X7932Y17281D01*
X7871Y17281D01*
X7847Y17269D01*
X7835Y17257D01*
X7823Y17233D01*
X7823Y17208D01*
X7835Y17172D01*
X7981Y17025D01*
X7823Y17025D01*
X7664Y17281D02*
X7640Y17281D01*
X7616Y17269D01*
X7603Y17257D01*
X7591Y17233D01*
X7579Y17184D01*
X7579Y17123D01*
X7591Y17074D01*
X7603Y17050D01*
X7616Y17038D01*
X7640Y17025D01*
X7664Y17025D01*
X7689Y17038D01*
X7701Y17050D01*
X7713Y17074D01*
X7725Y17123D01*
X7725Y17184D01*
X7713Y17233D01*
X7701Y17257D01*
X7689Y17269D01*
X7664Y17281D01*
X7335Y17025D02*
X7482Y17025D01*
X7408Y17025D02*
X7408Y17281D01*
X7433Y17245D01*
X7457Y17220D01*
X7482Y17208D01*
X7250Y17281D02*
X7092Y17281D01*
X7177Y17184D01*
X7140Y17184D01*
X7116Y17172D01*
X7104Y17160D01*
X7092Y17135D01*
X7092Y17074D01*
X7104Y17050D01*
X7116Y17038D01*
X7140Y17025D01*
X7213Y17025D01*
X7238Y17038D01*
X7250Y17050D01*
X9651Y16859D02*
X9602Y16859D01*
X9577Y16847D01*
X9553Y16823D01*
X9541Y16774D01*
X9541Y16689D01*
X9553Y16640D01*
X9577Y16615D01*
X9602Y16603D01*
X9651Y16603D01*
X9675Y16615D01*
X9699Y16640D01*
X9712Y16689D01*
X9712Y16774D01*
X9699Y16823D01*
X9675Y16847D01*
X9651Y16859D01*
X9431Y16774D02*
X9431Y16518D01*
X9431Y16762D02*
X9407Y16774D01*
X9358Y16774D01*
X9334Y16762D01*
X9322Y16749D01*
X9309Y16725D01*
X9309Y16652D01*
X9322Y16628D01*
X9334Y16615D01*
X9358Y16603D01*
X9407Y16603D01*
X9431Y16615D01*
X9102Y16615D02*
X9127Y16603D01*
X9175Y16603D01*
X9200Y16615D01*
X9212Y16640D01*
X9212Y16737D01*
X9200Y16762D01*
X9175Y16774D01*
X9127Y16774D01*
X9102Y16762D01*
X9090Y16737D01*
X9090Y16713D01*
X9212Y16689D01*
X8980Y16774D02*
X8980Y16603D01*
X8980Y16749D02*
X8968Y16762D01*
X8944Y16774D01*
X8907Y16774D01*
X8883Y16762D01*
X8871Y16737D01*
X8871Y16603D01*
X8749Y16603D02*
X8749Y16859D01*
X8749Y16737D02*
X8603Y16737D01*
X8603Y16603D02*
X8603Y16859D01*
X8371Y16603D02*
X8371Y16737D01*
X8383Y16762D01*
X8408Y16774D01*
X8456Y16774D01*
X8481Y16762D01*
X8371Y16615D02*
X8395Y16603D01*
X8456Y16603D01*
X8481Y16615D01*
X8493Y16640D01*
X8493Y16664D01*
X8481Y16689D01*
X8456Y16701D01*
X8395Y16701D01*
X8371Y16713D01*
X8249Y16603D02*
X8249Y16774D01*
X8249Y16725D02*
X8237Y16749D01*
X8225Y16762D01*
X8200Y16774D01*
X8176Y16774D01*
X7981Y16603D02*
X7981Y16859D01*
X7981Y16615D02*
X8005Y16603D01*
X8054Y16603D01*
X8079Y16615D01*
X8091Y16628D01*
X8103Y16652D01*
X8103Y16725D01*
X8091Y16749D01*
X8079Y16762D01*
X8054Y16774D01*
X8005Y16774D01*
X7981Y16762D01*
X7884Y16774D02*
X7835Y16603D01*
X7786Y16725D01*
X7737Y16603D01*
X7689Y16774D01*
X7482Y16603D02*
X7482Y16737D01*
X7494Y16762D01*
X7518Y16774D01*
X7567Y16774D01*
X7591Y16762D01*
X7482Y16615D02*
X7506Y16603D01*
X7567Y16603D01*
X7591Y16615D01*
X7603Y16640D01*
X7603Y16664D01*
X7591Y16689D01*
X7567Y16701D01*
X7506Y16701D01*
X7482Y16713D01*
X7360Y16603D02*
X7360Y16774D01*
X7360Y16725D02*
X7347Y16749D01*
X7335Y16762D01*
X7311Y16774D01*
X7287Y16774D01*
X7104Y16615D02*
X7128Y16603D01*
X7177Y16603D01*
X7201Y16615D01*
X7213Y16640D01*
X7213Y16737D01*
X7201Y16762D01*
X7177Y16774D01*
X7128Y16774D01*
X7104Y16762D01*
X7092Y16737D01*
X7092Y16713D01*
X7213Y16689D01*
X10150Y16437D02*
X10150Y16230D01*
X10138Y16205D01*
X10126Y16193D01*
X10101Y16181D01*
X10053Y16181D01*
X10028Y16193D01*
X10016Y16205D01*
X10004Y16230D01*
X10004Y16437D01*
X9882Y16352D02*
X9882Y16181D01*
X9882Y16327D02*
X9870Y16339D01*
X9846Y16352D01*
X9809Y16352D01*
X9785Y16339D01*
X9772Y16315D01*
X9772Y16181D01*
X9541Y16181D02*
X9541Y16437D01*
X9541Y16193D02*
X9565Y16181D01*
X9614Y16181D01*
X9638Y16193D01*
X9651Y16205D01*
X9663Y16230D01*
X9663Y16303D01*
X9651Y16327D01*
X9638Y16339D01*
X9614Y16352D01*
X9565Y16352D01*
X9541Y16339D01*
X9322Y16193D02*
X9346Y16181D01*
X9395Y16181D01*
X9419Y16193D01*
X9431Y16218D01*
X9431Y16315D01*
X9419Y16339D01*
X9395Y16352D01*
X9346Y16352D01*
X9322Y16339D01*
X9309Y16315D01*
X9309Y16291D01*
X9431Y16266D01*
X9200Y16181D02*
X9200Y16352D01*
X9200Y16303D02*
X9188Y16327D01*
X9175Y16339D01*
X9151Y16352D01*
X9127Y16352D01*
X8883Y16437D02*
X8737Y16437D01*
X8810Y16181D02*
X8810Y16437D01*
X8664Y16254D02*
X8542Y16254D01*
X8688Y16181D02*
X8603Y16437D01*
X8517Y16181D01*
X8432Y16181D02*
X8432Y16437D01*
X8335Y16437D01*
X8310Y16425D01*
X8298Y16413D01*
X8286Y16388D01*
X8286Y16352D01*
X8298Y16327D01*
X8310Y16315D01*
X8335Y16303D01*
X8432Y16303D01*
X8030Y16181D02*
X8115Y16303D01*
X8176Y16181D02*
X8176Y16437D01*
X8079Y16437D01*
X8054Y16425D01*
X8042Y16413D01*
X8030Y16388D01*
X8030Y16352D01*
X8042Y16327D01*
X8054Y16315D01*
X8079Y16303D01*
X8176Y16303D01*
X7676Y16437D02*
X7628Y16437D01*
X7603Y16425D01*
X7579Y16400D01*
X7567Y16352D01*
X7567Y16266D01*
X7579Y16218D01*
X7603Y16193D01*
X7628Y16181D01*
X7676Y16181D01*
X7701Y16193D01*
X7725Y16218D01*
X7737Y16266D01*
X7737Y16352D01*
X7725Y16400D01*
X7701Y16425D01*
X7676Y16437D01*
X7457Y16181D02*
X7457Y16437D01*
X7457Y16315D02*
X7311Y16315D01*
X7311Y16181D02*
X7311Y16437D01*
X7067Y16181D02*
X7189Y16181D01*
X7189Y16437D01*
X9541Y15929D02*
X9443Y15929D01*
X9504Y16015D02*
X9504Y15795D01*
X9492Y15771D01*
X9468Y15759D01*
X9443Y15759D01*
X9248Y15759D02*
X9248Y15893D01*
X9261Y15917D01*
X9285Y15929D01*
X9334Y15929D01*
X9358Y15917D01*
X9248Y15771D02*
X9273Y15759D01*
X9334Y15759D01*
X9358Y15771D01*
X9370Y15795D01*
X9370Y15820D01*
X9358Y15844D01*
X9334Y15856D01*
X9273Y15856D01*
X9248Y15868D01*
X9127Y15929D02*
X9127Y15673D01*
X9127Y15917D02*
X9102Y15929D01*
X9053Y15929D01*
X9029Y15917D01*
X9017Y15905D01*
X9005Y15881D01*
X9005Y15807D01*
X9017Y15783D01*
X9029Y15771D01*
X9053Y15759D01*
X9102Y15759D01*
X9127Y15771D01*
X8895Y15759D02*
X8895Y15929D01*
X8895Y15881D02*
X8883Y15905D01*
X8871Y15917D01*
X8846Y15929D01*
X8822Y15929D01*
X8737Y15783D02*
X8724Y15771D01*
X8737Y15759D01*
X8749Y15771D01*
X8737Y15783D01*
X8737Y15759D01*
X8578Y15759D02*
X8603Y15771D01*
X8615Y15783D01*
X8627Y15807D01*
X8627Y15881D01*
X8615Y15905D01*
X8603Y15917D01*
X8578Y15929D01*
X8542Y15929D01*
X8517Y15917D01*
X8505Y15905D01*
X8493Y15881D01*
X8493Y15807D01*
X8505Y15783D01*
X8517Y15771D01*
X8542Y15759D01*
X8578Y15759D01*
X8383Y15759D02*
X8383Y15929D01*
X8383Y15881D02*
X8371Y15905D01*
X8359Y15917D01*
X8335Y15929D01*
X8310Y15929D01*
X8115Y15929D02*
X8115Y15722D01*
X8127Y15698D01*
X8140Y15686D01*
X8164Y15673D01*
X8200Y15673D01*
X8225Y15686D01*
X8115Y15771D02*
X8140Y15759D01*
X8188Y15759D01*
X8213Y15771D01*
X8225Y15783D01*
X8237Y15807D01*
X8237Y15881D01*
X8225Y15905D01*
X8213Y15917D01*
X8188Y15929D01*
X8140Y15929D01*
X8115Y15917D01*
X7811Y16027D02*
X8030Y15698D01*
X7676Y16015D02*
X7628Y16015D01*
X7603Y16002D01*
X7579Y15978D01*
X7567Y15929D01*
X7567Y15844D01*
X7579Y15795D01*
X7603Y15771D01*
X7628Y15759D01*
X7676Y15759D01*
X7701Y15771D01*
X7725Y15795D01*
X7737Y15844D01*
X7737Y15929D01*
X7725Y15978D01*
X7701Y16002D01*
X7676Y16015D01*
X7457Y15759D02*
X7457Y16015D01*
X7457Y15893D02*
X7311Y15893D01*
X7311Y15759D02*
X7311Y16015D01*
X7067Y15759D02*
X7189Y15759D01*
X7189Y16015D01*
G54D10*
X10968Y14462D02*
X10968Y7474D01*
X968Y14462D02*
X968Y7474D01*
X9905Y6864D02*
X2031Y6864D01*
X9905Y6864D02*
X10968Y7474D01*
X2031Y6864D02*
X968Y7474D01*
X10791Y11687D02*
G75*
G03X10791Y11687I-4822J0D01*
G74*
G01*
X968Y14462D02*
X10968Y14462D01*
X10968Y14462D02*
X10968Y10663D01*
X8464Y15303D02*
X8464Y15795D01*
X8183Y15303D01*
X8183Y15795D01*
X7761Y15326D02*
X7808Y15303D01*
X7901Y15303D01*
X7948Y15326D01*
X7972Y15373D01*
X7972Y15561D01*
X7948Y15608D01*
X7901Y15631D01*
X7808Y15631D01*
X7761Y15608D01*
X7737Y15561D01*
X7737Y15514D01*
X7972Y15467D01*
X7315Y15631D02*
X7315Y15233D01*
X7339Y15186D01*
X7362Y15162D01*
X7409Y15139D01*
X7480Y15139D01*
X7526Y15162D01*
X7315Y15326D02*
X7362Y15303D01*
X7456Y15303D01*
X7503Y15326D01*
X7526Y15350D01*
X7550Y15397D01*
X7550Y15537D01*
X7526Y15584D01*
X7503Y15608D01*
X7456Y15631D01*
X7362Y15631D01*
X7315Y15608D01*
X7081Y15350D02*
X7058Y15326D01*
X7081Y15303D01*
X7105Y15326D01*
X7081Y15350D01*
X7081Y15303D01*
X6542Y15631D02*
X6355Y15631D01*
X6472Y15795D02*
X6472Y15373D01*
X6448Y15326D01*
X6402Y15303D01*
X6355Y15303D01*
X6120Y15303D02*
X6167Y15326D01*
X6191Y15350D01*
X6214Y15397D01*
X6214Y15537D01*
X6191Y15584D01*
X6167Y15608D01*
X6120Y15631D01*
X6050Y15631D01*
X6003Y15608D01*
X5980Y15584D01*
X5956Y15537D01*
X5956Y15397D01*
X5980Y15350D01*
X6003Y15326D01*
X6050Y15303D01*
X6120Y15303D01*
X5206Y15561D02*
X5136Y15537D01*
X5113Y15514D01*
X5089Y15467D01*
X5089Y15397D01*
X5113Y15350D01*
X5136Y15326D01*
X5183Y15303D01*
X5370Y15303D01*
X5370Y15795D01*
X5206Y15795D01*
X5160Y15772D01*
X5136Y15748D01*
X5113Y15701D01*
X5113Y15654D01*
X5136Y15608D01*
X5160Y15584D01*
X5206Y15561D01*
X5370Y15561D01*
X4808Y15303D02*
X4855Y15326D01*
X4878Y15350D01*
X4902Y15397D01*
X4902Y15537D01*
X4878Y15584D01*
X4855Y15608D01*
X4808Y15631D01*
X4738Y15631D01*
X4691Y15608D01*
X4667Y15584D01*
X4644Y15537D01*
X4644Y15397D01*
X4667Y15350D01*
X4691Y15326D01*
X4738Y15303D01*
X4808Y15303D01*
X4222Y15303D02*
X4222Y15561D01*
X4246Y15608D01*
X4292Y15631D01*
X4386Y15631D01*
X4433Y15608D01*
X4222Y15326D02*
X4269Y15303D01*
X4386Y15303D01*
X4433Y15326D01*
X4456Y15373D01*
X4456Y15420D01*
X4433Y15467D01*
X4386Y15490D01*
X4269Y15490D01*
X4222Y15514D01*
X3988Y15303D02*
X3988Y15631D01*
X3988Y15537D02*
X3964Y15584D01*
X3941Y15608D01*
X3894Y15631D01*
X3847Y15631D01*
X3472Y15303D02*
X3472Y15795D01*
X3472Y15326D02*
X3519Y15303D01*
X3613Y15303D01*
X3660Y15326D01*
X3683Y15350D01*
X3707Y15397D01*
X3707Y15537D01*
X3683Y15584D01*
X3660Y15608D01*
X3613Y15631D01*
X3519Y15631D01*
X3472Y15608D01*
M02*
