%FSLAX34Y34*%
G04 Gerber Fmt 3.4, Leading zero omitted, Abs format*
G04 (created by PCBNEW (2013-12-14 BZR 4555)-product) date Fri 28 Feb 2014 10:41:20 EST*
%MOIN*%
G01*
G70*
G90*
G04 APERTURE LIST*
%ADD10C,0.005000*%
%ADD11C,0.003937*%
%ADD12C,0.007874*%
%ADD13C,0.011811*%
G04 APERTURE END LIST*
G54D10*
G54D11*
X8212Y4661D02*
X8212Y19D01*
X11913Y5015D02*
X8566Y5015D01*
X8212Y4661D02*
X8566Y5015D01*
X11913Y17456D02*
X11913Y5015D01*
X23Y17456D02*
X11913Y17456D01*
X23Y5015D02*
X23Y17456D01*
X3374Y5015D02*
X23Y5015D01*
X3728Y4661D02*
X3374Y5015D01*
X3728Y19D02*
X3728Y4661D01*
X3728Y19D02*
X8212Y19D01*
G54D12*
X1700Y13753D02*
X1950Y13503D01*
X1950Y13753D02*
X1700Y13503D01*
X3051Y11272D02*
X3301Y11022D01*
X3301Y11272D02*
X3051Y11022D01*
X3599Y6991D02*
X3849Y6741D01*
X3849Y6991D02*
X3599Y6741D01*
X4041Y7178D02*
X4291Y6928D01*
X4291Y7178D02*
X4041Y6928D01*
X4251Y10869D02*
X4501Y10619D01*
X4501Y10869D02*
X4251Y10619D01*
X4606Y13688D02*
X4856Y13438D01*
X4856Y13688D02*
X4606Y13438D01*
X4655Y13113D02*
X4905Y12863D01*
X4905Y13113D02*
X4655Y12863D01*
X5310Y13077D02*
X5560Y12827D01*
X5560Y13077D02*
X5310Y12827D01*
X5427Y8748D02*
X5677Y8498D01*
X5677Y8748D02*
X5427Y8498D01*
X5568Y6227D02*
X5818Y5977D01*
X5818Y6227D02*
X5568Y5977D01*
X5611Y5380D02*
X5861Y5130D01*
X5861Y5380D02*
X5611Y5130D01*
X5649Y9161D02*
X5899Y8911D01*
X5899Y9161D02*
X5649Y8911D01*
X6114Y5911D02*
X6364Y5661D01*
X6364Y5911D02*
X6114Y5661D01*
X6203Y8573D02*
X6453Y8323D01*
X6453Y8573D02*
X6203Y8323D01*
X6212Y7187D02*
X6462Y6937D01*
X6462Y7187D02*
X6212Y6937D01*
X6259Y9188D02*
X6509Y8938D01*
X6509Y9188D02*
X6259Y8938D01*
X6375Y7870D02*
X6625Y7620D01*
X6625Y7870D02*
X6375Y7620D01*
X7451Y7115D02*
X7701Y6865D01*
X7701Y7115D02*
X7451Y6865D01*
X8008Y11685D02*
X8258Y11435D01*
X8258Y11685D02*
X8008Y11435D01*
X8225Y7010D02*
X8475Y6760D01*
X8475Y7010D02*
X8225Y6760D01*
X8776Y8762D02*
X9026Y8512D01*
X9026Y8762D02*
X8776Y8512D01*
X8834Y7206D02*
X9084Y6956D01*
X9084Y7206D02*
X8834Y6956D01*
X9090Y10354D02*
X9340Y10104D01*
X9340Y10354D02*
X9090Y10104D01*
X3547Y16866D02*
G75*
G03X3547Y16866I-137J0D01*
G74*
G01*
X4334Y16866D02*
G75*
G03X4334Y16866I-137J0D01*
G74*
G01*
X2318Y5609D02*
X2318Y5209D01*
X2118Y5409D02*
X2518Y5409D01*
X2637Y15987D02*
X2637Y15587D01*
X2437Y15787D02*
X2837Y15787D01*
X2637Y14987D02*
X2637Y14587D01*
X2437Y14787D02*
X2837Y14787D01*
X3318Y5609D02*
X3318Y5209D01*
X3118Y5409D02*
X3518Y5409D01*
X7633Y17066D02*
X7633Y16666D01*
X7433Y16866D02*
X7833Y16866D01*
X8133Y15294D02*
X8133Y14894D01*
X7933Y15094D02*
X8333Y15094D01*
X8633Y17066D02*
X8633Y16666D01*
X8433Y16866D02*
X8833Y16866D01*
X1148Y10385D02*
X1148Y10942D01*
X591Y10942D01*
X591Y10385D01*
X1148Y10385D01*
X11345Y10385D02*
X11345Y10942D01*
X10788Y10942D01*
X10788Y10385D01*
X11345Y10385D01*
X1047Y15641D02*
X1637Y16232D01*
X1047Y16822D01*
X456Y16232D01*
X1047Y15641D01*
X1047Y5405D02*
X1637Y5996D01*
X1047Y6586D01*
X456Y5996D01*
X1047Y5405D01*
X10889Y15641D02*
X11480Y16232D01*
X10889Y16822D01*
X10299Y16232D01*
X10889Y15641D01*
X10889Y5405D02*
X11480Y5996D01*
X10889Y6586D01*
X10299Y5996D01*
X10889Y5405D01*
G54D13*
X1072Y-1833D02*
X1072Y-652D01*
X1353Y-652D01*
X1522Y-708D01*
X1634Y-821D01*
X1691Y-933D01*
X1747Y-1158D01*
X1747Y-1327D01*
X1691Y-1552D01*
X1634Y-1664D01*
X1522Y-1777D01*
X1353Y-1833D01*
X1072Y-1833D01*
X2253Y-1833D02*
X2253Y-1046D01*
X2253Y-1271D02*
X2309Y-1158D01*
X2366Y-1102D01*
X2478Y-1046D01*
X2591Y-1046D01*
X2984Y-1833D02*
X2984Y-1046D01*
X2984Y-652D02*
X2928Y-708D01*
X2984Y-764D01*
X3041Y-708D01*
X2984Y-652D01*
X2984Y-764D01*
X3715Y-1833D02*
X3603Y-1777D01*
X3547Y-1664D01*
X3547Y-652D01*
X4334Y-1833D02*
X4222Y-1777D01*
X4165Y-1664D01*
X4165Y-652D01*
X5684Y-1833D02*
X5684Y-652D01*
X6078Y-1496D01*
X6471Y-652D01*
X6471Y-1833D01*
X7540Y-1833D02*
X7540Y-1214D01*
X7484Y-1102D01*
X7371Y-1046D01*
X7146Y-1046D01*
X7034Y-1102D01*
X7540Y-1777D02*
X7428Y-1833D01*
X7146Y-1833D01*
X7034Y-1777D01*
X6978Y-1664D01*
X6978Y-1552D01*
X7034Y-1439D01*
X7146Y-1383D01*
X7428Y-1383D01*
X7540Y-1327D01*
X8102Y-1046D02*
X8102Y-2227D01*
X8102Y-1102D02*
X8215Y-1046D01*
X8440Y-1046D01*
X8552Y-1102D01*
X8609Y-1158D01*
X8665Y-1271D01*
X8665Y-1608D01*
X8609Y-1721D01*
X8552Y-1777D01*
X8440Y-1833D01*
X8215Y-1833D01*
X8102Y-1777D01*
X9171Y-1721D02*
X9227Y-1777D01*
X9171Y-1833D01*
X9115Y-1777D01*
X9171Y-1721D01*
X9171Y-1833D01*
X9171Y-1102D02*
X9227Y-1158D01*
X9171Y-1214D01*
X9115Y-1158D01*
X9171Y-1102D01*
X9171Y-1214D01*
X-246Y-3654D02*
X3Y-3904D01*
X3Y-3654D02*
X-246Y-3904D01*
X1297Y-3132D02*
X1410Y-3132D01*
X1522Y-3188D01*
X1578Y-3245D01*
X1634Y-3357D01*
X1691Y-3582D01*
X1691Y-3863D01*
X1634Y-4088D01*
X1578Y-4201D01*
X1522Y-4257D01*
X1410Y-4313D01*
X1297Y-4313D01*
X1185Y-4257D01*
X1128Y-4201D01*
X1072Y-4088D01*
X1016Y-3863D01*
X1016Y-3582D01*
X1072Y-3357D01*
X1128Y-3245D01*
X1185Y-3188D01*
X1297Y-3132D01*
X2197Y-4201D02*
X2253Y-4257D01*
X2197Y-4313D01*
X2141Y-4257D01*
X2197Y-4201D01*
X2197Y-4313D01*
X3266Y-3132D02*
X3041Y-3132D01*
X2928Y-3188D01*
X2872Y-3245D01*
X2759Y-3413D01*
X2703Y-3638D01*
X2703Y-4088D01*
X2759Y-4201D01*
X2816Y-4257D01*
X2928Y-4313D01*
X3153Y-4313D01*
X3266Y-4257D01*
X3322Y-4201D01*
X3378Y-4088D01*
X3378Y-3807D01*
X3322Y-3695D01*
X3266Y-3638D01*
X3153Y-3582D01*
X2928Y-3582D01*
X2816Y-3638D01*
X2759Y-3695D01*
X2703Y-3807D01*
X4390Y-3526D02*
X4390Y-4313D01*
X4109Y-3076D02*
X3828Y-3920D01*
X4559Y-3920D01*
X5009Y-4313D02*
X5009Y-3526D01*
X5009Y-3638D02*
X5065Y-3582D01*
X5178Y-3526D01*
X5347Y-3526D01*
X5459Y-3582D01*
X5515Y-3695D01*
X5515Y-4313D01*
X5515Y-3695D02*
X5571Y-3582D01*
X5684Y-3526D01*
X5853Y-3526D01*
X5965Y-3582D01*
X6021Y-3695D01*
X6021Y-4313D01*
X6584Y-4313D02*
X6584Y-3526D01*
X6584Y-3638D02*
X6640Y-3582D01*
X6753Y-3526D01*
X6921Y-3526D01*
X7034Y-3582D01*
X7090Y-3695D01*
X7090Y-4313D01*
X7090Y-3695D02*
X7146Y-3582D01*
X7259Y-3526D01*
X7428Y-3526D01*
X7540Y-3582D01*
X7596Y-3695D01*
X7596Y-4313D01*
X9902Y-3076D02*
X8890Y-4595D01*
X11421Y-3132D02*
X11533Y-3132D01*
X11646Y-3188D01*
X11702Y-3245D01*
X11758Y-3357D01*
X11814Y-3582D01*
X11814Y-3863D01*
X11758Y-4088D01*
X11702Y-4201D01*
X11646Y-4257D01*
X11533Y-4313D01*
X11421Y-4313D01*
X11308Y-4257D01*
X11252Y-4201D01*
X11196Y-4088D01*
X11140Y-3863D01*
X11140Y-3582D01*
X11196Y-3357D01*
X11252Y-3245D01*
X11308Y-3188D01*
X11421Y-3132D01*
X12321Y-4201D02*
X12377Y-4257D01*
X12321Y-4313D01*
X12264Y-4257D01*
X12321Y-4201D01*
X12321Y-4313D01*
X13108Y-3132D02*
X13221Y-3132D01*
X13333Y-3188D01*
X13389Y-3245D01*
X13446Y-3357D01*
X13502Y-3582D01*
X13502Y-3863D01*
X13446Y-4088D01*
X13389Y-4201D01*
X13333Y-4257D01*
X13221Y-4313D01*
X13108Y-4313D01*
X12996Y-4257D01*
X12939Y-4201D01*
X12883Y-4088D01*
X12827Y-3863D01*
X12827Y-3582D01*
X12883Y-3357D01*
X12939Y-3245D01*
X12996Y-3188D01*
X13108Y-3132D01*
X13952Y-3245D02*
X14008Y-3188D01*
X14120Y-3132D01*
X14402Y-3132D01*
X14514Y-3188D01*
X14570Y-3245D01*
X14627Y-3357D01*
X14627Y-3470D01*
X14570Y-3638D01*
X13895Y-4313D01*
X14627Y-4313D01*
X15695Y-3132D02*
X15133Y-3132D01*
X15077Y-3695D01*
X15133Y-3638D01*
X15245Y-3582D01*
X15526Y-3582D01*
X15639Y-3638D01*
X15695Y-3695D01*
X15751Y-3807D01*
X15751Y-4088D01*
X15695Y-4201D01*
X15639Y-4257D01*
X15526Y-4313D01*
X15245Y-4313D01*
X15133Y-4257D01*
X15077Y-4201D01*
X16201Y-3132D02*
X16201Y-3357D01*
X16651Y-3132D02*
X16651Y-3357D01*
X18395Y-4763D02*
X18339Y-4707D01*
X18226Y-4538D01*
X18170Y-4426D01*
X18114Y-4257D01*
X18057Y-3976D01*
X18057Y-3751D01*
X18114Y-3470D01*
X18170Y-3301D01*
X18226Y-3188D01*
X18339Y-3020D01*
X18395Y-2964D01*
X18789Y-3245D02*
X18845Y-3188D01*
X18957Y-3132D01*
X19239Y-3132D01*
X19351Y-3188D01*
X19407Y-3245D01*
X19464Y-3357D01*
X19464Y-3470D01*
X19407Y-3638D01*
X18732Y-4313D01*
X19464Y-4313D01*
X19857Y-3132D02*
X20588Y-3132D01*
X20195Y-3582D01*
X20363Y-3582D01*
X20476Y-3638D01*
X20532Y-3695D01*
X20588Y-3807D01*
X20588Y-4088D01*
X20532Y-4201D01*
X20476Y-4257D01*
X20363Y-4313D01*
X20026Y-4313D01*
X19913Y-4257D01*
X19857Y-4201D01*
X21994Y-4313D02*
X21994Y-3132D01*
X22501Y-4313D02*
X22501Y-3695D01*
X22444Y-3582D01*
X22332Y-3526D01*
X22163Y-3526D01*
X22051Y-3582D01*
X21994Y-3638D01*
X23232Y-4313D02*
X23119Y-4257D01*
X23063Y-4201D01*
X23007Y-4088D01*
X23007Y-3751D01*
X23063Y-3638D01*
X23119Y-3582D01*
X23232Y-3526D01*
X23401Y-3526D01*
X23513Y-3582D01*
X23569Y-3638D01*
X23625Y-3751D01*
X23625Y-4088D01*
X23569Y-4201D01*
X23513Y-4257D01*
X23401Y-4313D01*
X23232Y-4313D01*
X24300Y-4313D02*
X24188Y-4257D01*
X24132Y-4145D01*
X24132Y-3132D01*
X25200Y-4257D02*
X25088Y-4313D01*
X24863Y-4313D01*
X24750Y-4257D01*
X24694Y-4145D01*
X24694Y-3695D01*
X24750Y-3582D01*
X24863Y-3526D01*
X25088Y-3526D01*
X25200Y-3582D01*
X25257Y-3695D01*
X25257Y-3807D01*
X24694Y-3920D01*
X25706Y-4257D02*
X25819Y-4313D01*
X26044Y-4313D01*
X26156Y-4257D01*
X26213Y-4145D01*
X26213Y-4088D01*
X26156Y-3976D01*
X26044Y-3920D01*
X25875Y-3920D01*
X25763Y-3863D01*
X25706Y-3751D01*
X25706Y-3695D01*
X25763Y-3582D01*
X25875Y-3526D01*
X26044Y-3526D01*
X26156Y-3582D01*
X26606Y-4763D02*
X26663Y-4707D01*
X26775Y-4538D01*
X26831Y-4426D01*
X26888Y-4257D01*
X26944Y-3976D01*
X26944Y-3751D01*
X26888Y-3470D01*
X26831Y-3301D01*
X26775Y-3188D01*
X26663Y-3020D01*
X26606Y-2964D01*
G54D12*
X3Y-5338D02*
G75*
G03X3Y-5338I-137J0D01*
G74*
G01*
G54D13*
X1297Y-4691D02*
X1410Y-4691D01*
X1522Y-4748D01*
X1578Y-4804D01*
X1634Y-4916D01*
X1691Y-5141D01*
X1691Y-5422D01*
X1634Y-5647D01*
X1578Y-5760D01*
X1522Y-5816D01*
X1410Y-5872D01*
X1297Y-5872D01*
X1185Y-5816D01*
X1128Y-5760D01*
X1072Y-5647D01*
X1016Y-5422D01*
X1016Y-5141D01*
X1072Y-4916D01*
X1128Y-4804D01*
X1185Y-4748D01*
X1297Y-4691D01*
X2197Y-5760D02*
X2253Y-5816D01*
X2197Y-5872D01*
X2141Y-5816D01*
X2197Y-5760D01*
X2197Y-5872D01*
X2647Y-4691D02*
X3434Y-4691D01*
X2928Y-5872D01*
X4109Y-4691D02*
X4222Y-4691D01*
X4334Y-4748D01*
X4390Y-4804D01*
X4447Y-4916D01*
X4503Y-5141D01*
X4503Y-5422D01*
X4447Y-5647D01*
X4390Y-5760D01*
X4334Y-5816D01*
X4222Y-5872D01*
X4109Y-5872D01*
X3997Y-5816D01*
X3940Y-5760D01*
X3884Y-5647D01*
X3828Y-5422D01*
X3828Y-5141D01*
X3884Y-4916D01*
X3940Y-4804D01*
X3997Y-4748D01*
X4109Y-4691D01*
X5009Y-5872D02*
X5009Y-5085D01*
X5009Y-5197D02*
X5065Y-5141D01*
X5178Y-5085D01*
X5347Y-5085D01*
X5459Y-5141D01*
X5515Y-5254D01*
X5515Y-5872D01*
X5515Y-5254D02*
X5571Y-5141D01*
X5684Y-5085D01*
X5853Y-5085D01*
X5965Y-5141D01*
X6021Y-5254D01*
X6021Y-5872D01*
X6584Y-5872D02*
X6584Y-5085D01*
X6584Y-5197D02*
X6640Y-5141D01*
X6753Y-5085D01*
X6921Y-5085D01*
X7034Y-5141D01*
X7090Y-5254D01*
X7090Y-5872D01*
X7090Y-5254D02*
X7146Y-5141D01*
X7259Y-5085D01*
X7428Y-5085D01*
X7540Y-5141D01*
X7596Y-5254D01*
X7596Y-5872D01*
X9902Y-4635D02*
X8890Y-6154D01*
X11421Y-4691D02*
X11533Y-4691D01*
X11646Y-4748D01*
X11702Y-4804D01*
X11758Y-4916D01*
X11814Y-5141D01*
X11814Y-5422D01*
X11758Y-5647D01*
X11702Y-5760D01*
X11646Y-5816D01*
X11533Y-5872D01*
X11421Y-5872D01*
X11308Y-5816D01*
X11252Y-5760D01*
X11196Y-5647D01*
X11140Y-5422D01*
X11140Y-5141D01*
X11196Y-4916D01*
X11252Y-4804D01*
X11308Y-4748D01*
X11421Y-4691D01*
X12321Y-5760D02*
X12377Y-5816D01*
X12321Y-5872D01*
X12264Y-5816D01*
X12321Y-5760D01*
X12321Y-5872D01*
X13108Y-4691D02*
X13221Y-4691D01*
X13333Y-4748D01*
X13389Y-4804D01*
X13446Y-4916D01*
X13502Y-5141D01*
X13502Y-5422D01*
X13446Y-5647D01*
X13389Y-5760D01*
X13333Y-5816D01*
X13221Y-5872D01*
X13108Y-5872D01*
X12996Y-5816D01*
X12939Y-5760D01*
X12883Y-5647D01*
X12827Y-5422D01*
X12827Y-5141D01*
X12883Y-4916D01*
X12939Y-4804D01*
X12996Y-4748D01*
X13108Y-4691D01*
X13952Y-4804D02*
X14008Y-4748D01*
X14120Y-4691D01*
X14402Y-4691D01*
X14514Y-4748D01*
X14570Y-4804D01*
X14627Y-4916D01*
X14627Y-5029D01*
X14570Y-5197D01*
X13895Y-5872D01*
X14627Y-5872D01*
X15302Y-5197D02*
X15189Y-5141D01*
X15133Y-5085D01*
X15077Y-4973D01*
X15077Y-4916D01*
X15133Y-4804D01*
X15189Y-4748D01*
X15302Y-4691D01*
X15526Y-4691D01*
X15639Y-4748D01*
X15695Y-4804D01*
X15751Y-4916D01*
X15751Y-4973D01*
X15695Y-5085D01*
X15639Y-5141D01*
X15526Y-5197D01*
X15302Y-5197D01*
X15189Y-5254D01*
X15133Y-5310D01*
X15077Y-5422D01*
X15077Y-5647D01*
X15133Y-5760D01*
X15189Y-5816D01*
X15302Y-5872D01*
X15526Y-5872D01*
X15639Y-5816D01*
X15695Y-5760D01*
X15751Y-5647D01*
X15751Y-5422D01*
X15695Y-5310D01*
X15639Y-5254D01*
X15526Y-5197D01*
X16201Y-4691D02*
X16201Y-4916D01*
X16651Y-4691D02*
X16651Y-4916D01*
X18395Y-6322D02*
X18339Y-6266D01*
X18226Y-6097D01*
X18170Y-5985D01*
X18114Y-5816D01*
X18057Y-5535D01*
X18057Y-5310D01*
X18114Y-5029D01*
X18170Y-4860D01*
X18226Y-4748D01*
X18339Y-4579D01*
X18395Y-4523D01*
X18789Y-4804D02*
X18845Y-4748D01*
X18957Y-4691D01*
X19239Y-4691D01*
X19351Y-4748D01*
X19407Y-4804D01*
X19464Y-4916D01*
X19464Y-5029D01*
X19407Y-5197D01*
X18732Y-5872D01*
X19464Y-5872D01*
X20870Y-5872D02*
X20870Y-4691D01*
X21376Y-5872D02*
X21376Y-5254D01*
X21320Y-5141D01*
X21207Y-5085D01*
X21038Y-5085D01*
X20926Y-5141D01*
X20870Y-5197D01*
X22107Y-5872D02*
X21994Y-5816D01*
X21938Y-5760D01*
X21882Y-5647D01*
X21882Y-5310D01*
X21938Y-5197D01*
X21994Y-5141D01*
X22107Y-5085D01*
X22276Y-5085D01*
X22388Y-5141D01*
X22444Y-5197D01*
X22501Y-5310D01*
X22501Y-5647D01*
X22444Y-5760D01*
X22388Y-5816D01*
X22276Y-5872D01*
X22107Y-5872D01*
X23176Y-5872D02*
X23063Y-5816D01*
X23007Y-5704D01*
X23007Y-4691D01*
X24075Y-5816D02*
X23963Y-5872D01*
X23738Y-5872D01*
X23625Y-5816D01*
X23569Y-5704D01*
X23569Y-5254D01*
X23625Y-5141D01*
X23738Y-5085D01*
X23963Y-5085D01*
X24075Y-5141D01*
X24132Y-5254D01*
X24132Y-5366D01*
X23569Y-5479D01*
X24582Y-5816D02*
X24694Y-5872D01*
X24919Y-5872D01*
X25032Y-5816D01*
X25088Y-5704D01*
X25088Y-5647D01*
X25032Y-5535D01*
X24919Y-5479D01*
X24750Y-5479D01*
X24638Y-5422D01*
X24582Y-5310D01*
X24582Y-5254D01*
X24638Y-5141D01*
X24750Y-5085D01*
X24919Y-5085D01*
X25032Y-5141D01*
X25482Y-6322D02*
X25538Y-6266D01*
X25650Y-6097D01*
X25706Y-5985D01*
X25763Y-5816D01*
X25819Y-5535D01*
X25819Y-5310D01*
X25763Y-5029D01*
X25706Y-4860D01*
X25650Y-4748D01*
X25538Y-4579D01*
X25482Y-4523D01*
X-196Y-6697D02*
X-196Y-7097D01*
X-396Y-6897D02*
X3Y-6897D01*
X1691Y-7431D02*
X1016Y-7431D01*
X1353Y-7431D02*
X1353Y-6250D01*
X1241Y-6419D01*
X1128Y-6532D01*
X1016Y-6588D01*
X2197Y-7319D02*
X2253Y-7375D01*
X2197Y-7431D01*
X2141Y-7375D01*
X2197Y-7319D01*
X2197Y-7431D01*
X2984Y-6250D02*
X3097Y-6250D01*
X3209Y-6307D01*
X3266Y-6363D01*
X3322Y-6475D01*
X3378Y-6700D01*
X3378Y-6982D01*
X3322Y-7206D01*
X3266Y-7319D01*
X3209Y-7375D01*
X3097Y-7431D01*
X2984Y-7431D01*
X2872Y-7375D01*
X2816Y-7319D01*
X2759Y-7206D01*
X2703Y-6982D01*
X2703Y-6700D01*
X2759Y-6475D01*
X2816Y-6363D01*
X2872Y-6307D01*
X2984Y-6250D01*
X3828Y-6363D02*
X3884Y-6307D01*
X3997Y-6250D01*
X4278Y-6250D01*
X4390Y-6307D01*
X4447Y-6363D01*
X4503Y-6475D01*
X4503Y-6588D01*
X4447Y-6757D01*
X3772Y-7431D01*
X4503Y-7431D01*
X5009Y-7431D02*
X5009Y-6644D01*
X5009Y-6757D02*
X5065Y-6700D01*
X5178Y-6644D01*
X5347Y-6644D01*
X5459Y-6700D01*
X5515Y-6813D01*
X5515Y-7431D01*
X5515Y-6813D02*
X5571Y-6700D01*
X5684Y-6644D01*
X5853Y-6644D01*
X5965Y-6700D01*
X6021Y-6813D01*
X6021Y-7431D01*
X6584Y-7431D02*
X6584Y-6644D01*
X6584Y-6757D02*
X6640Y-6700D01*
X6753Y-6644D01*
X6921Y-6644D01*
X7034Y-6700D01*
X7090Y-6813D01*
X7090Y-7431D01*
X7090Y-6813D02*
X7146Y-6700D01*
X7259Y-6644D01*
X7428Y-6644D01*
X7540Y-6700D01*
X7596Y-6813D01*
X7596Y-7431D01*
X9902Y-6194D02*
X8890Y-7713D01*
X11421Y-6250D02*
X11533Y-6250D01*
X11646Y-6307D01*
X11702Y-6363D01*
X11758Y-6475D01*
X11814Y-6700D01*
X11814Y-6982D01*
X11758Y-7206D01*
X11702Y-7319D01*
X11646Y-7375D01*
X11533Y-7431D01*
X11421Y-7431D01*
X11308Y-7375D01*
X11252Y-7319D01*
X11196Y-7206D01*
X11140Y-6982D01*
X11140Y-6700D01*
X11196Y-6475D01*
X11252Y-6363D01*
X11308Y-6307D01*
X11421Y-6250D01*
X12321Y-7319D02*
X12377Y-7375D01*
X12321Y-7431D01*
X12264Y-7375D01*
X12321Y-7319D01*
X12321Y-7431D01*
X13108Y-6250D02*
X13221Y-6250D01*
X13333Y-6307D01*
X13389Y-6363D01*
X13446Y-6475D01*
X13502Y-6700D01*
X13502Y-6982D01*
X13446Y-7206D01*
X13389Y-7319D01*
X13333Y-7375D01*
X13221Y-7431D01*
X13108Y-7431D01*
X12996Y-7375D01*
X12939Y-7319D01*
X12883Y-7206D01*
X12827Y-6982D01*
X12827Y-6700D01*
X12883Y-6475D01*
X12939Y-6363D01*
X12996Y-6307D01*
X13108Y-6250D01*
X14514Y-6644D02*
X14514Y-7431D01*
X14233Y-6194D02*
X13952Y-7038D01*
X14683Y-7038D01*
X15358Y-6250D02*
X15470Y-6250D01*
X15583Y-6307D01*
X15639Y-6363D01*
X15695Y-6475D01*
X15751Y-6700D01*
X15751Y-6982D01*
X15695Y-7206D01*
X15639Y-7319D01*
X15583Y-7375D01*
X15470Y-7431D01*
X15358Y-7431D01*
X15245Y-7375D01*
X15189Y-7319D01*
X15133Y-7206D01*
X15077Y-6982D01*
X15077Y-6700D01*
X15133Y-6475D01*
X15189Y-6363D01*
X15245Y-6307D01*
X15358Y-6250D01*
X16201Y-6250D02*
X16201Y-6475D01*
X16651Y-6250D02*
X16651Y-6475D01*
X18395Y-7881D02*
X18339Y-7825D01*
X18226Y-7656D01*
X18170Y-7544D01*
X18114Y-7375D01*
X18057Y-7094D01*
X18057Y-6869D01*
X18114Y-6588D01*
X18170Y-6419D01*
X18226Y-6307D01*
X18339Y-6138D01*
X18395Y-6082D01*
X18732Y-6250D02*
X19520Y-6250D01*
X19014Y-7431D01*
X20870Y-7431D02*
X20870Y-6250D01*
X21376Y-7431D02*
X21376Y-6813D01*
X21320Y-6700D01*
X21207Y-6644D01*
X21038Y-6644D01*
X20926Y-6700D01*
X20870Y-6757D01*
X22107Y-7431D02*
X21994Y-7375D01*
X21938Y-7319D01*
X21882Y-7206D01*
X21882Y-6869D01*
X21938Y-6757D01*
X21994Y-6700D01*
X22107Y-6644D01*
X22276Y-6644D01*
X22388Y-6700D01*
X22444Y-6757D01*
X22501Y-6869D01*
X22501Y-7206D01*
X22444Y-7319D01*
X22388Y-7375D01*
X22276Y-7431D01*
X22107Y-7431D01*
X23176Y-7431D02*
X23063Y-7375D01*
X23007Y-7263D01*
X23007Y-6250D01*
X24075Y-7375D02*
X23963Y-7431D01*
X23738Y-7431D01*
X23625Y-7375D01*
X23569Y-7263D01*
X23569Y-6813D01*
X23625Y-6700D01*
X23738Y-6644D01*
X23963Y-6644D01*
X24075Y-6700D01*
X24132Y-6813D01*
X24132Y-6925D01*
X23569Y-7038D01*
X24582Y-7375D02*
X24694Y-7431D01*
X24919Y-7431D01*
X25032Y-7375D01*
X25088Y-7263D01*
X25088Y-7206D01*
X25032Y-7094D01*
X24919Y-7038D01*
X24750Y-7038D01*
X24638Y-6982D01*
X24582Y-6869D01*
X24582Y-6813D01*
X24638Y-6700D01*
X24750Y-6644D01*
X24919Y-6644D01*
X25032Y-6700D01*
X25482Y-7881D02*
X25538Y-7825D01*
X25650Y-7656D01*
X25706Y-7544D01*
X25763Y-7375D01*
X25819Y-7094D01*
X25819Y-6869D01*
X25763Y-6588D01*
X25706Y-6419D01*
X25650Y-6307D01*
X25538Y-6138D01*
X25482Y-6082D01*
G54D12*
X-111Y-8735D02*
X-111Y-8178D01*
X-668Y-8178D01*
X-668Y-8735D01*
X-111Y-8735D01*
G54D13*
X1016Y-7922D02*
X1072Y-7866D01*
X1185Y-7809D01*
X1466Y-7809D01*
X1578Y-7866D01*
X1634Y-7922D01*
X1691Y-8034D01*
X1691Y-8147D01*
X1634Y-8316D01*
X960Y-8991D01*
X1691Y-8991D01*
X2197Y-8878D02*
X2253Y-8934D01*
X2197Y-8991D01*
X2141Y-8934D01*
X2197Y-8878D01*
X2197Y-8991D01*
X2984Y-7809D02*
X3097Y-7809D01*
X3209Y-7866D01*
X3266Y-7922D01*
X3322Y-8034D01*
X3378Y-8259D01*
X3378Y-8541D01*
X3322Y-8766D01*
X3266Y-8878D01*
X3209Y-8934D01*
X3097Y-8991D01*
X2984Y-8991D01*
X2872Y-8934D01*
X2816Y-8878D01*
X2759Y-8766D01*
X2703Y-8541D01*
X2703Y-8259D01*
X2759Y-8034D01*
X2816Y-7922D01*
X2872Y-7866D01*
X2984Y-7809D01*
X4109Y-7809D02*
X4222Y-7809D01*
X4334Y-7866D01*
X4390Y-7922D01*
X4447Y-8034D01*
X4503Y-8259D01*
X4503Y-8541D01*
X4447Y-8766D01*
X4390Y-8878D01*
X4334Y-8934D01*
X4222Y-8991D01*
X4109Y-8991D01*
X3997Y-8934D01*
X3940Y-8878D01*
X3884Y-8766D01*
X3828Y-8541D01*
X3828Y-8259D01*
X3884Y-8034D01*
X3940Y-7922D01*
X3997Y-7866D01*
X4109Y-7809D01*
X5009Y-8991D02*
X5009Y-8203D01*
X5009Y-8316D02*
X5065Y-8259D01*
X5178Y-8203D01*
X5347Y-8203D01*
X5459Y-8259D01*
X5515Y-8372D01*
X5515Y-8991D01*
X5515Y-8372D02*
X5571Y-8259D01*
X5684Y-8203D01*
X5853Y-8203D01*
X5965Y-8259D01*
X6021Y-8372D01*
X6021Y-8991D01*
X6584Y-8991D02*
X6584Y-8203D01*
X6584Y-8316D02*
X6640Y-8259D01*
X6753Y-8203D01*
X6921Y-8203D01*
X7034Y-8259D01*
X7090Y-8372D01*
X7090Y-8991D01*
X7090Y-8372D02*
X7146Y-8259D01*
X7259Y-8203D01*
X7428Y-8203D01*
X7540Y-8259D01*
X7596Y-8372D01*
X7596Y-8991D01*
X9902Y-7753D02*
X8890Y-9272D01*
X11421Y-7809D02*
X11533Y-7809D01*
X11646Y-7866D01*
X11702Y-7922D01*
X11758Y-8034D01*
X11814Y-8259D01*
X11814Y-8541D01*
X11758Y-8766D01*
X11702Y-8878D01*
X11646Y-8934D01*
X11533Y-8991D01*
X11421Y-8991D01*
X11308Y-8934D01*
X11252Y-8878D01*
X11196Y-8766D01*
X11140Y-8541D01*
X11140Y-8259D01*
X11196Y-8034D01*
X11252Y-7922D01*
X11308Y-7866D01*
X11421Y-7809D01*
X12321Y-8878D02*
X12377Y-8934D01*
X12321Y-8991D01*
X12264Y-8934D01*
X12321Y-8878D01*
X12321Y-8991D01*
X13108Y-7809D02*
X13221Y-7809D01*
X13333Y-7866D01*
X13389Y-7922D01*
X13446Y-8034D01*
X13502Y-8259D01*
X13502Y-8541D01*
X13446Y-8766D01*
X13389Y-8878D01*
X13333Y-8934D01*
X13221Y-8991D01*
X13108Y-8991D01*
X12996Y-8934D01*
X12939Y-8878D01*
X12883Y-8766D01*
X12827Y-8541D01*
X12827Y-8259D01*
X12883Y-8034D01*
X12939Y-7922D01*
X12996Y-7866D01*
X13108Y-7809D01*
X13895Y-7809D02*
X14683Y-7809D01*
X14177Y-8991D01*
X15189Y-8991D02*
X15414Y-8991D01*
X15526Y-8934D01*
X15583Y-8878D01*
X15695Y-8709D01*
X15751Y-8484D01*
X15751Y-8034D01*
X15695Y-7922D01*
X15639Y-7866D01*
X15526Y-7809D01*
X15302Y-7809D01*
X15189Y-7866D01*
X15133Y-7922D01*
X15077Y-8034D01*
X15077Y-8316D01*
X15133Y-8428D01*
X15189Y-8484D01*
X15302Y-8541D01*
X15526Y-8541D01*
X15639Y-8484D01*
X15695Y-8428D01*
X15751Y-8316D01*
X16201Y-7809D02*
X16201Y-8034D01*
X16651Y-7809D02*
X16651Y-8034D01*
X18395Y-9440D02*
X18339Y-9384D01*
X18226Y-9215D01*
X18170Y-9103D01*
X18114Y-8934D01*
X18057Y-8653D01*
X18057Y-8428D01*
X18114Y-8147D01*
X18170Y-7978D01*
X18226Y-7866D01*
X18339Y-7697D01*
X18395Y-7641D01*
X18789Y-7922D02*
X18845Y-7866D01*
X18957Y-7809D01*
X19239Y-7809D01*
X19351Y-7866D01*
X19407Y-7922D01*
X19464Y-8034D01*
X19464Y-8147D01*
X19407Y-8316D01*
X18732Y-8991D01*
X19464Y-8991D01*
X20870Y-8991D02*
X20870Y-7809D01*
X21376Y-8991D02*
X21376Y-8372D01*
X21320Y-8259D01*
X21207Y-8203D01*
X21038Y-8203D01*
X20926Y-8259D01*
X20870Y-8316D01*
X22107Y-8991D02*
X21994Y-8934D01*
X21938Y-8878D01*
X21882Y-8766D01*
X21882Y-8428D01*
X21938Y-8316D01*
X21994Y-8259D01*
X22107Y-8203D01*
X22276Y-8203D01*
X22388Y-8259D01*
X22444Y-8316D01*
X22501Y-8428D01*
X22501Y-8766D01*
X22444Y-8878D01*
X22388Y-8934D01*
X22276Y-8991D01*
X22107Y-8991D01*
X23176Y-8991D02*
X23063Y-8934D01*
X23007Y-8822D01*
X23007Y-7809D01*
X24075Y-8934D02*
X23963Y-8991D01*
X23738Y-8991D01*
X23625Y-8934D01*
X23569Y-8822D01*
X23569Y-8372D01*
X23625Y-8259D01*
X23738Y-8203D01*
X23963Y-8203D01*
X24075Y-8259D01*
X24132Y-8372D01*
X24132Y-8484D01*
X23569Y-8597D01*
X24582Y-8934D02*
X24694Y-8991D01*
X24919Y-8991D01*
X25032Y-8934D01*
X25088Y-8822D01*
X25088Y-8766D01*
X25032Y-8653D01*
X24919Y-8597D01*
X24750Y-8597D01*
X24638Y-8541D01*
X24582Y-8428D01*
X24582Y-8372D01*
X24638Y-8259D01*
X24750Y-8203D01*
X24919Y-8203D01*
X25032Y-8259D01*
X25482Y-9440D02*
X25538Y-9384D01*
X25650Y-9215D01*
X25706Y-9103D01*
X25763Y-8934D01*
X25819Y-8653D01*
X25819Y-8428D01*
X25763Y-8147D01*
X25706Y-7978D01*
X25650Y-7866D01*
X25538Y-7697D01*
X25482Y-7641D01*
G54D12*
X-586Y-10606D02*
X3Y-10015D01*
X-586Y-9425D01*
X-1177Y-10015D01*
X-586Y-10606D01*
G54D13*
X960Y-9368D02*
X1691Y-9368D01*
X1297Y-9818D01*
X1466Y-9818D01*
X1578Y-9875D01*
X1634Y-9931D01*
X1691Y-10043D01*
X1691Y-10325D01*
X1634Y-10437D01*
X1578Y-10493D01*
X1466Y-10550D01*
X1128Y-10550D01*
X1016Y-10493D01*
X960Y-10437D01*
X2197Y-10437D02*
X2253Y-10493D01*
X2197Y-10550D01*
X2141Y-10493D01*
X2197Y-10437D01*
X2197Y-10550D01*
X2984Y-9368D02*
X3097Y-9368D01*
X3209Y-9425D01*
X3266Y-9481D01*
X3322Y-9593D01*
X3378Y-9818D01*
X3378Y-10100D01*
X3322Y-10325D01*
X3266Y-10437D01*
X3209Y-10493D01*
X3097Y-10550D01*
X2984Y-10550D01*
X2872Y-10493D01*
X2816Y-10437D01*
X2759Y-10325D01*
X2703Y-10100D01*
X2703Y-9818D01*
X2759Y-9593D01*
X2816Y-9481D01*
X2872Y-9425D01*
X2984Y-9368D01*
X4109Y-9368D02*
X4222Y-9368D01*
X4334Y-9425D01*
X4390Y-9481D01*
X4447Y-9593D01*
X4503Y-9818D01*
X4503Y-10100D01*
X4447Y-10325D01*
X4390Y-10437D01*
X4334Y-10493D01*
X4222Y-10550D01*
X4109Y-10550D01*
X3997Y-10493D01*
X3940Y-10437D01*
X3884Y-10325D01*
X3828Y-10100D01*
X3828Y-9818D01*
X3884Y-9593D01*
X3940Y-9481D01*
X3997Y-9425D01*
X4109Y-9368D01*
X5009Y-10550D02*
X5009Y-9762D01*
X5009Y-9875D02*
X5065Y-9818D01*
X5178Y-9762D01*
X5347Y-9762D01*
X5459Y-9818D01*
X5515Y-9931D01*
X5515Y-10550D01*
X5515Y-9931D02*
X5571Y-9818D01*
X5684Y-9762D01*
X5853Y-9762D01*
X5965Y-9818D01*
X6021Y-9931D01*
X6021Y-10550D01*
X6584Y-10550D02*
X6584Y-9762D01*
X6584Y-9875D02*
X6640Y-9818D01*
X6753Y-9762D01*
X6921Y-9762D01*
X7034Y-9818D01*
X7090Y-9931D01*
X7090Y-10550D01*
X7090Y-9931D02*
X7146Y-9818D01*
X7259Y-9762D01*
X7428Y-9762D01*
X7540Y-9818D01*
X7596Y-9931D01*
X7596Y-10550D01*
X9902Y-9312D02*
X8890Y-10831D01*
X11421Y-9368D02*
X11533Y-9368D01*
X11646Y-9425D01*
X11702Y-9481D01*
X11758Y-9593D01*
X11814Y-9818D01*
X11814Y-10100D01*
X11758Y-10325D01*
X11702Y-10437D01*
X11646Y-10493D01*
X11533Y-10550D01*
X11421Y-10550D01*
X11308Y-10493D01*
X11252Y-10437D01*
X11196Y-10325D01*
X11140Y-10100D01*
X11140Y-9818D01*
X11196Y-9593D01*
X11252Y-9481D01*
X11308Y-9425D01*
X11421Y-9368D01*
X12321Y-10437D02*
X12377Y-10493D01*
X12321Y-10550D01*
X12264Y-10493D01*
X12321Y-10437D01*
X12321Y-10550D01*
X13502Y-10550D02*
X12827Y-10550D01*
X13164Y-10550D02*
X13164Y-9368D01*
X13052Y-9537D01*
X12939Y-9650D01*
X12827Y-9706D01*
X14627Y-10550D02*
X13952Y-10550D01*
X14289Y-10550D02*
X14289Y-9368D01*
X14177Y-9537D01*
X14064Y-9650D01*
X13952Y-9706D01*
X15302Y-9875D02*
X15189Y-9818D01*
X15133Y-9762D01*
X15077Y-9650D01*
X15077Y-9593D01*
X15133Y-9481D01*
X15189Y-9425D01*
X15302Y-9368D01*
X15526Y-9368D01*
X15639Y-9425D01*
X15695Y-9481D01*
X15751Y-9593D01*
X15751Y-9650D01*
X15695Y-9762D01*
X15639Y-9818D01*
X15526Y-9875D01*
X15302Y-9875D01*
X15189Y-9931D01*
X15133Y-9987D01*
X15077Y-10100D01*
X15077Y-10325D01*
X15133Y-10437D01*
X15189Y-10493D01*
X15302Y-10550D01*
X15526Y-10550D01*
X15639Y-10493D01*
X15695Y-10437D01*
X15751Y-10325D01*
X15751Y-10100D01*
X15695Y-9987D01*
X15639Y-9931D01*
X15526Y-9875D01*
X16201Y-9368D02*
X16201Y-9593D01*
X16651Y-9368D02*
X16651Y-9593D01*
X18395Y-11000D02*
X18339Y-10943D01*
X18226Y-10775D01*
X18170Y-10662D01*
X18114Y-10493D01*
X18057Y-10212D01*
X18057Y-9987D01*
X18114Y-9706D01*
X18170Y-9537D01*
X18226Y-9425D01*
X18339Y-9256D01*
X18395Y-9200D01*
X19351Y-9762D02*
X19351Y-10550D01*
X19070Y-9312D02*
X18789Y-10156D01*
X19520Y-10156D01*
X20870Y-10550D02*
X20870Y-9368D01*
X21376Y-10550D02*
X21376Y-9931D01*
X21320Y-9818D01*
X21207Y-9762D01*
X21038Y-9762D01*
X20926Y-9818D01*
X20870Y-9875D01*
X22107Y-10550D02*
X21994Y-10493D01*
X21938Y-10437D01*
X21882Y-10325D01*
X21882Y-9987D01*
X21938Y-9875D01*
X21994Y-9818D01*
X22107Y-9762D01*
X22276Y-9762D01*
X22388Y-9818D01*
X22444Y-9875D01*
X22501Y-9987D01*
X22501Y-10325D01*
X22444Y-10437D01*
X22388Y-10493D01*
X22276Y-10550D01*
X22107Y-10550D01*
X23176Y-10550D02*
X23063Y-10493D01*
X23007Y-10381D01*
X23007Y-9368D01*
X24075Y-10493D02*
X23963Y-10550D01*
X23738Y-10550D01*
X23625Y-10493D01*
X23569Y-10381D01*
X23569Y-9931D01*
X23625Y-9818D01*
X23738Y-9762D01*
X23963Y-9762D01*
X24075Y-9818D01*
X24132Y-9931D01*
X24132Y-10043D01*
X23569Y-10156D01*
X24582Y-10493D02*
X24694Y-10550D01*
X24919Y-10550D01*
X25032Y-10493D01*
X25088Y-10381D01*
X25088Y-10325D01*
X25032Y-10212D01*
X24919Y-10156D01*
X24750Y-10156D01*
X24638Y-10100D01*
X24582Y-9987D01*
X24582Y-9931D01*
X24638Y-9818D01*
X24750Y-9762D01*
X24919Y-9762D01*
X25032Y-9818D01*
X25482Y-11000D02*
X25538Y-10943D01*
X25650Y-10775D01*
X25706Y-10662D01*
X25763Y-10493D01*
X25819Y-10212D01*
X25819Y-9987D01*
X25763Y-9706D01*
X25706Y-9537D01*
X25650Y-9425D01*
X25538Y-9256D01*
X25482Y-9200D01*
M02*
