G04 (created by PCBNEW (2013-mar-13)-testing) date Tue 15 Oct 2013 01:29:33 EST*
%MOIN*%
G04 Gerber Fmt 3.4, Leading zero omitted, Abs format*
%FSLAX34Y34*%
G01*
G70*
G90*
G04 APERTURE LIST*
%ADD10C,0.005906*%
%ADD11R,0.062992X0.291732*%
%ADD12R,0.039370X0.252362*%
%ADD13R,0.060000X0.060000*%
%ADD14C,0.060000*%
%ADD15R,0.046000X0.016500*%
%ADD16R,0.082000X0.110000*%
%ADD17R,0.125984X0.059055*%
%ADD18R,0.045000X0.025000*%
%ADD19R,0.025000X0.045000*%
%ADD20R,0.031500X0.039400*%
%ADD21C,0.100000*%
%ADD22R,0.098425X0.066929*%
%ADD23R,0.090157X0.035039*%
%ADD24R,0.031496X0.031496*%
%ADD25R,0.050000X0.016000*%
%ADD26R,0.035433X0.019685*%
%ADD27R,0.008000X0.059055*%
%ADD28C,0.118110*%
%ADD29C,0.035000*%
%ADD30C,0.010000*%
%ADD31C,0.012000*%
G04 APERTURE END LIST*
G54D10*
G54D11*
X4590Y1966D03*
X7346Y1966D03*
G54D12*
X5575Y2163D03*
X6362Y2163D03*
G54D13*
X6468Y16909D03*
G54D14*
X5468Y16909D03*
G54D15*
X5181Y15074D03*
X5181Y14818D03*
X5181Y14558D03*
X5181Y14302D03*
X6755Y14302D03*
X6755Y14558D03*
X6755Y14818D03*
X6755Y15074D03*
G54D16*
X5968Y14688D03*
G54D17*
X8070Y6972D03*
X8070Y8625D03*
G54D18*
X5354Y16174D03*
X5354Y15574D03*
X5968Y16174D03*
X5968Y15574D03*
G54D19*
X4166Y9397D03*
X3566Y9397D03*
X3566Y10663D03*
X4166Y10663D03*
X7770Y9397D03*
X8370Y9397D03*
X3566Y8161D03*
X4166Y8161D03*
X7770Y10663D03*
X8370Y10663D03*
G54D18*
X7224Y15574D03*
X7224Y16174D03*
X6594Y15574D03*
X6594Y16174D03*
G54D19*
X4166Y8787D03*
X3566Y8787D03*
X7770Y10047D03*
X8370Y10047D03*
G54D18*
X4724Y16174D03*
X4724Y15574D03*
G54D20*
X8070Y13716D03*
X7695Y14582D03*
X8445Y14582D03*
G54D21*
X870Y10663D03*
X11066Y10663D03*
G54D19*
X4166Y10047D03*
X3566Y10047D03*
G54D20*
X3866Y13716D03*
X3491Y14582D03*
X4241Y14582D03*
X8070Y12153D03*
X8445Y11287D03*
X7695Y11287D03*
X3866Y12153D03*
X4241Y11287D03*
X3491Y11287D03*
G54D22*
X5181Y11468D03*
X6755Y11468D03*
G54D23*
X637Y14600D03*
X2637Y13813D03*
X637Y13025D03*
X2637Y12238D03*
X637Y11451D03*
X2637Y10663D03*
X637Y9876D03*
X2637Y9088D03*
X637Y8301D03*
X2637Y7514D03*
X9300Y7514D03*
X11300Y8301D03*
X9300Y9088D03*
X11300Y9876D03*
X9300Y10663D03*
X11300Y11451D03*
X9300Y12238D03*
X11300Y13025D03*
X9300Y13813D03*
X11300Y14600D03*
G54D20*
X5968Y12502D03*
X5593Y13368D03*
X6343Y13368D03*
G54D24*
X7807Y16169D03*
X7807Y15578D03*
X8322Y16169D03*
X8322Y15578D03*
X4141Y16169D03*
X4141Y15578D03*
G54D25*
X4918Y9495D03*
X4918Y9245D03*
X4918Y8995D03*
X4918Y8745D03*
X4918Y8495D03*
X4918Y8245D03*
X4918Y7995D03*
X4918Y7745D03*
X4918Y7495D03*
X4918Y7245D03*
X7018Y7245D03*
X7018Y7495D03*
X7018Y7745D03*
X7018Y7995D03*
X7018Y8245D03*
X7018Y8495D03*
X7018Y8745D03*
X7018Y8995D03*
X7018Y9245D03*
X7018Y9495D03*
G54D26*
X551Y8846D03*
X551Y9358D03*
G54D27*
X551Y9102D03*
G54D18*
X7578Y12837D03*
X7578Y13437D03*
X6956Y13437D03*
X6956Y12837D03*
G54D26*
X11346Y8775D03*
X11346Y9287D03*
G54D27*
X11346Y9031D03*
G54D26*
X8527Y13787D03*
X8527Y13275D03*
G54D27*
X8527Y13531D03*
G54D28*
X10889Y5996D03*
X1047Y5996D03*
X1047Y16232D03*
X10889Y16232D03*
G54D29*
X5251Y12188D03*
X8785Y9982D03*
X5968Y13852D03*
X3155Y9827D03*
X4321Y13594D03*
X1334Y12685D03*
X6492Y9373D03*
X2036Y13346D03*
X5452Y8770D03*
X9260Y14478D03*
X5500Y7440D03*
X4241Y14109D03*
X6662Y13865D03*
X1625Y9503D03*
X1681Y11614D03*
X3181Y13019D03*
X7523Y15082D03*
X6307Y13019D03*
X4668Y14981D03*
X3866Y12653D03*
X7364Y9890D03*
X3933Y7437D03*
X8185Y12913D03*
X10173Y10992D03*
G54D30*
X3165Y14600D02*
X3183Y14582D01*
X637Y14600D02*
X3165Y14600D01*
X3491Y14582D02*
X3183Y14582D01*
X4590Y1966D02*
X4590Y5838D01*
X6956Y12837D02*
X6792Y12837D01*
X6456Y12502D02*
X5968Y12502D01*
X6792Y12837D02*
X6456Y12502D01*
X4918Y8245D02*
X5591Y8245D01*
X5591Y8245D02*
X6002Y8656D01*
X7018Y8495D02*
X6164Y8495D01*
X6164Y8495D02*
X6002Y8656D01*
X5181Y11468D02*
X5251Y11539D01*
X5251Y11539D02*
X5251Y12188D01*
X5968Y12502D02*
X5655Y12188D01*
X5655Y12188D02*
X5251Y12188D01*
X3478Y9397D02*
X3491Y9397D01*
X3478Y9397D02*
X3291Y9397D01*
X3291Y9397D02*
X3291Y9692D01*
X3291Y9692D02*
X3155Y9827D01*
X2637Y7514D02*
X3238Y7514D01*
X6755Y14302D02*
X6375Y14302D01*
X6375Y14302D02*
X6354Y14302D01*
X6354Y14302D02*
X5968Y14688D01*
X8710Y9982D02*
X8785Y9982D01*
X8645Y10047D02*
X8710Y9982D01*
X8370Y10047D02*
X8645Y10047D01*
X4590Y4098D02*
X4590Y4953D01*
X4590Y4098D02*
X4590Y3344D01*
X5968Y13917D02*
X6354Y14302D01*
X5968Y13852D02*
X5968Y13917D01*
X5181Y11468D02*
X5181Y10983D01*
X3238Y7514D02*
X3238Y7514D01*
X3238Y8735D02*
X3291Y8787D01*
X3238Y7514D02*
X3238Y8735D01*
X3566Y9397D02*
X3491Y9397D01*
X3491Y9397D02*
X3491Y8787D01*
X3566Y8787D02*
X3491Y8787D01*
X3491Y8787D02*
X3291Y8787D01*
X4590Y5838D02*
X4590Y4953D01*
X3238Y7190D02*
X4590Y5838D01*
X3238Y7514D02*
X3238Y7190D01*
X3866Y13716D02*
X4173Y13716D01*
X4296Y13594D02*
X4173Y13716D01*
X4321Y13594D02*
X4296Y13594D01*
X5968Y15574D02*
X5968Y14688D01*
X5354Y15574D02*
X5729Y15574D01*
X5968Y15574D02*
X5729Y15574D01*
X5304Y15898D02*
X5354Y15849D01*
X4724Y15898D02*
X5304Y15898D01*
X4724Y16174D02*
X4724Y15898D01*
X5354Y15574D02*
X5354Y15849D01*
X5665Y10498D02*
X5181Y10983D01*
X5665Y9110D02*
X5665Y10498D01*
X6002Y8773D02*
X5665Y9110D01*
X6002Y8656D02*
X6002Y8773D01*
X7770Y10865D02*
X7770Y10663D01*
X7695Y10940D02*
X7770Y10865D01*
X7695Y11287D02*
X7695Y10940D01*
X637Y13025D02*
X993Y13025D01*
X993Y13025D02*
X1334Y12685D01*
X7018Y9495D02*
X6614Y9495D01*
X6614Y9495D02*
X6492Y9373D01*
X4918Y8745D02*
X5427Y8745D01*
X5427Y8745D02*
X5452Y8770D01*
X2637Y13813D02*
X2036Y13813D01*
X2036Y13813D02*
X2036Y13346D01*
X4918Y7245D02*
X5305Y7245D01*
X5305Y7245D02*
X5500Y7440D01*
X9260Y14665D02*
X9260Y14478D01*
X8654Y15271D02*
X9260Y14665D01*
X7807Y15271D02*
X8654Y15271D01*
X7807Y15578D02*
X7807Y15271D01*
X8317Y12561D02*
X8597Y12841D01*
X9907Y13558D02*
X9907Y13572D01*
X9190Y12841D02*
X9907Y13558D01*
X8597Y12841D02*
X9190Y12841D01*
X6110Y11873D02*
X6799Y12561D01*
X6106Y11868D02*
X6110Y11873D01*
X6106Y9263D02*
X6106Y11868D01*
X6625Y8745D02*
X6106Y9263D01*
X7018Y8745D02*
X6625Y8745D01*
X6799Y12561D02*
X8317Y12561D01*
X9907Y13572D02*
X9900Y13565D01*
X9900Y13565D02*
X9900Y14308D01*
X8322Y15578D02*
X8630Y15578D01*
X9900Y14308D02*
X8630Y15578D01*
X7536Y15898D02*
X6594Y15898D01*
X7807Y16169D02*
X7536Y15898D01*
X6594Y16174D02*
X6594Y15898D01*
X7252Y16476D02*
X7224Y16449D01*
X8322Y16476D02*
X7252Y16476D01*
X8322Y16169D02*
X8322Y16476D01*
X7224Y16174D02*
X7224Y16449D01*
X8527Y13275D02*
X8437Y13366D01*
X7650Y13366D02*
X7578Y13437D01*
X8437Y13366D02*
X7650Y13366D01*
G54D31*
X8070Y13716D02*
X8141Y13787D01*
X8141Y13787D02*
X8527Y13787D01*
G54D30*
X8070Y13716D02*
X7763Y13716D01*
X7613Y13865D02*
X7763Y13716D01*
X6662Y13865D02*
X7613Y13865D01*
X4241Y14582D02*
X4241Y14235D01*
X4241Y14235D02*
X4241Y14109D01*
X551Y9358D02*
X551Y9789D01*
X551Y9789D02*
X637Y9876D01*
X968Y8846D02*
X1625Y9503D01*
X551Y8846D02*
X968Y8846D01*
X1692Y11625D02*
X1692Y13854D01*
X1681Y11614D02*
X1692Y11625D01*
X2000Y14161D02*
X3368Y14161D01*
X1692Y13854D02*
X2000Y14161D01*
X3368Y14161D02*
X3556Y13973D01*
X3556Y13973D02*
X3556Y13456D01*
X3830Y14247D02*
X3556Y13973D01*
X3830Y15857D02*
X3830Y14247D01*
X3556Y13456D02*
X3744Y13268D01*
X3744Y13268D02*
X4490Y13268D01*
X4801Y13578D02*
X4801Y14302D01*
X4490Y13268D02*
X4801Y13578D01*
X7018Y7495D02*
X8442Y7495D01*
X8442Y7495D02*
X9574Y8626D01*
X8662Y9414D02*
X8645Y9397D01*
X9821Y9414D02*
X8662Y9414D01*
X9904Y9331D02*
X9821Y9414D01*
X9904Y8834D02*
X9904Y9331D01*
X9696Y8626D02*
X9904Y8834D01*
X9574Y8626D02*
X9696Y8626D01*
X8370Y9397D02*
X8645Y9397D01*
X11300Y8729D02*
X11300Y8301D01*
X8775Y11193D02*
X8901Y11318D01*
X8901Y11318D02*
X10411Y11318D01*
X8775Y10989D02*
X8775Y11193D01*
X10411Y11318D02*
X11066Y10663D01*
X6307Y13019D02*
X3181Y13019D01*
X7695Y14910D02*
X7695Y14582D01*
X7523Y15082D02*
X7695Y14910D01*
X6343Y13368D02*
X6307Y13331D01*
X6307Y13331D02*
X6307Y13019D01*
X5181Y14558D02*
X5181Y14818D01*
X4801Y14849D02*
X4668Y14981D01*
X4801Y14818D02*
X4801Y14849D01*
X5181Y14818D02*
X4801Y14818D01*
X7695Y14582D02*
X7542Y14582D01*
X1290Y10243D02*
X870Y10663D01*
X3566Y10047D02*
X3369Y10243D01*
X3369Y10243D02*
X1290Y10243D01*
X8645Y10859D02*
X8645Y10663D01*
X8775Y10989D02*
X8645Y10859D01*
X8370Y10663D02*
X8645Y10663D01*
X7135Y14989D02*
X7135Y15074D01*
X7542Y14582D02*
X7135Y14989D01*
X6755Y15074D02*
X7135Y15074D01*
X3891Y11195D02*
X3891Y10047D01*
X3798Y11287D02*
X3891Y11195D01*
X3491Y11287D02*
X3798Y11287D01*
X4166Y10047D02*
X3891Y10047D01*
X3866Y12153D02*
X3866Y12653D01*
X5354Y16174D02*
X5354Y16399D01*
X5354Y16795D02*
X5468Y16909D01*
X5354Y16399D02*
X5354Y16795D01*
X7459Y14235D02*
X7135Y14558D01*
X7944Y14235D02*
X7459Y14235D01*
X8138Y14428D02*
X7944Y14235D01*
X8138Y14582D02*
X8138Y14428D01*
X8445Y14582D02*
X8138Y14582D01*
X6755Y14558D02*
X7135Y14558D01*
X7018Y7245D02*
X6643Y7245D01*
X6643Y7245D02*
X6177Y6779D01*
X6177Y6779D02*
X4522Y6779D01*
X4522Y6779D02*
X4318Y6983D01*
X4318Y6983D02*
X4318Y8009D01*
X4318Y8009D02*
X4166Y8161D01*
X6362Y2163D02*
X6362Y3541D01*
X7364Y9890D02*
X7495Y9890D01*
X3933Y7061D02*
X3933Y7437D01*
X4888Y6106D02*
X5417Y6106D01*
X3933Y7061D02*
X4888Y6106D01*
X6362Y5680D02*
X5937Y6106D01*
X5937Y6106D02*
X5417Y6106D01*
X6362Y3541D02*
X6362Y5680D01*
X7770Y9397D02*
X7495Y9397D01*
X7770Y10047D02*
X7545Y10047D01*
X7495Y9997D02*
X7495Y9890D01*
X7545Y10047D02*
X7495Y9997D01*
X7495Y9890D02*
X7495Y9397D01*
X5575Y3547D02*
X5575Y2163D01*
X5575Y3541D02*
X5575Y3547D01*
X5575Y3547D02*
X5575Y5137D01*
X3566Y7146D02*
X3566Y8161D01*
X5575Y5137D02*
X3566Y7146D01*
X3891Y8211D02*
X3841Y8161D01*
X3891Y8787D02*
X3891Y8211D01*
X4166Y8787D02*
X3891Y8787D01*
X3566Y8161D02*
X3841Y8161D01*
X7346Y1966D02*
X7346Y5803D01*
X7346Y5803D02*
X8070Y6527D01*
X7346Y3344D02*
X7346Y5803D01*
X8070Y6972D02*
X8070Y6527D01*
X4344Y15578D02*
X4349Y15574D01*
X4141Y15578D02*
X4344Y15578D01*
X4724Y15574D02*
X4349Y15574D01*
X4918Y9495D02*
X4543Y9495D01*
X4543Y9495D02*
X4518Y9520D01*
X4518Y10586D02*
X4441Y10663D01*
X4518Y9520D02*
X4518Y10586D01*
X4166Y10663D02*
X4441Y10663D01*
X3566Y10663D02*
X3291Y10663D01*
X637Y11451D02*
X1238Y11451D01*
X3291Y10860D02*
X3291Y10663D01*
X3084Y11066D02*
X3291Y10860D01*
X1456Y11066D02*
X3084Y11066D01*
X1238Y11285D02*
X1456Y11066D01*
X1238Y11451D02*
X1238Y11285D01*
X7018Y8245D02*
X7689Y8245D01*
X7689Y8245D02*
X8070Y8625D01*
X8070Y8625D02*
X8070Y9071D01*
X6922Y11634D02*
X8046Y11634D01*
X6755Y11468D02*
X6922Y11634D01*
X8046Y12153D02*
X8046Y11634D01*
X8046Y9096D02*
X8070Y9071D01*
X8046Y11634D02*
X8046Y9096D01*
X8058Y12153D02*
X8046Y12153D01*
X7224Y15574D02*
X6594Y15574D01*
X8058Y12153D02*
X8070Y12153D01*
X8070Y12153D02*
X8378Y12153D01*
X6274Y16454D02*
X5994Y16174D01*
X6937Y16454D02*
X6274Y16454D01*
X7161Y16677D02*
X6937Y16454D01*
X8407Y16677D02*
X7161Y16677D01*
X10108Y14976D02*
X8407Y16677D01*
X10108Y13476D02*
X10108Y14976D01*
X9273Y12641D02*
X10108Y13476D01*
X8820Y12641D02*
X9273Y12641D01*
X8378Y12200D02*
X8820Y12641D01*
X8378Y12153D02*
X8378Y12200D01*
X6594Y15574D02*
X5994Y16174D01*
X5994Y16174D02*
X5968Y16174D01*
X7018Y7995D02*
X7516Y7995D01*
X7516Y7995D02*
X7649Y7862D01*
X7018Y7745D02*
X7532Y7745D01*
X7532Y7745D02*
X7649Y7862D01*
X4918Y8995D02*
X4568Y8995D01*
X4568Y8995D02*
X4166Y9397D01*
X5510Y6989D02*
X6265Y7745D01*
X6265Y7745D02*
X7018Y7745D01*
X4518Y9045D02*
X4166Y9397D01*
X4518Y9010D02*
X4518Y9045D01*
X4518Y9010D02*
X4518Y9010D01*
X4595Y6989D02*
X5510Y6989D01*
X4518Y7066D02*
X4595Y6989D01*
X4518Y9010D02*
X4518Y7066D01*
X4141Y16169D02*
X3830Y15857D01*
X5181Y14302D02*
X4801Y14302D01*
X11346Y8775D02*
X11300Y8729D01*
X11346Y9287D02*
X10744Y9287D01*
X8109Y12837D02*
X7578Y12837D01*
X8185Y12913D02*
X8109Y12837D01*
X10173Y9858D02*
X10173Y10992D01*
X10744Y9287D02*
X10173Y9858D01*
X6956Y13437D02*
X6956Y13291D01*
X7274Y13141D02*
X7578Y12837D01*
X7106Y13141D02*
X7274Y13141D01*
X6956Y13291D02*
X7106Y13141D01*
M02*
