G04 (created by PCBNEW (2013-mar-13)-testing) date Wed 23 Oct 2013 02:02:18 EST*
%MOIN*%
G04 Gerber Fmt 3.4, Leading zero omitted, Abs format*
%FSLAX34Y34*%
G01*
G70*
G90*
G04 APERTURE LIST*
%ADD10C,0.005906*%
%ADD11C,0.004921*%
%ADD12C,0.004429*%
%ADD13C,0.007382*%
%ADD14C,0.006890*%
%ADD15C,0.006398*%
%ADD16C,0.015000*%
%ADD17C,0.006000*%
%ADD18C,0.008000*%
%ADD19C,0.004700*%
%ADD20C,0.005000*%
%ADD21C,0.003100*%
%ADD22C,0.000100*%
%ADD23C,0.004000*%
%ADD24C,0.002600*%
%ADD25C,0.003445*%
G04 APERTURE END LIST*
G54D10*
G54D11*
X8918Y14745D02*
X8918Y14942D01*
X8964Y14942D01*
X8993Y14933D01*
X9011Y14914D01*
X9021Y14895D01*
X9030Y14858D01*
X9030Y14829D01*
X9021Y14792D01*
X9011Y14773D01*
X8993Y14754D01*
X8964Y14745D01*
X8918Y14745D01*
X9114Y14764D02*
X9124Y14754D01*
X9114Y14745D01*
X9105Y14754D01*
X9114Y14764D01*
X9114Y14745D01*
X9274Y14848D02*
X9302Y14839D01*
X9311Y14829D01*
X9321Y14811D01*
X9321Y14783D01*
X9311Y14764D01*
X9302Y14754D01*
X9283Y14745D01*
X9208Y14745D01*
X9208Y14942D01*
X9274Y14942D01*
X9293Y14933D01*
X9302Y14923D01*
X9311Y14904D01*
X9311Y14886D01*
X9302Y14867D01*
X9293Y14858D01*
X9274Y14848D01*
X9208Y14848D01*
X9489Y14745D02*
X9489Y14848D01*
X9480Y14867D01*
X9461Y14876D01*
X9424Y14876D01*
X9405Y14867D01*
X9489Y14754D02*
X9471Y14745D01*
X9424Y14745D01*
X9405Y14754D01*
X9396Y14773D01*
X9396Y14792D01*
X9405Y14811D01*
X9424Y14820D01*
X9471Y14820D01*
X9489Y14829D01*
X9555Y14876D02*
X9630Y14876D01*
X9583Y14942D02*
X9583Y14773D01*
X9592Y14754D01*
X9611Y14745D01*
X9630Y14745D01*
X9696Y14764D02*
X9705Y14754D01*
X9696Y14745D01*
X9686Y14754D01*
X9696Y14764D01*
X9696Y14745D01*
X9138Y14617D02*
X9138Y14477D01*
X9128Y14448D01*
X9110Y14430D01*
X9082Y14420D01*
X9063Y14420D01*
X9232Y14552D02*
X9232Y14355D01*
X9232Y14542D02*
X9250Y14552D01*
X9288Y14552D01*
X9307Y14542D01*
X9316Y14533D01*
X9325Y14514D01*
X9325Y14458D01*
X9316Y14439D01*
X9307Y14430D01*
X9288Y14420D01*
X9250Y14420D01*
X9232Y14430D01*
X9410Y14420D02*
X9410Y14552D01*
X9410Y14514D02*
X9419Y14533D01*
X9428Y14542D01*
X9447Y14552D01*
X9466Y14552D01*
X9532Y14439D02*
X9541Y14430D01*
X9532Y14420D01*
X9522Y14430D01*
X9532Y14439D01*
X9532Y14420D01*
X9232Y14170D02*
X9382Y14170D01*
X9344Y14133D02*
X9382Y14170D01*
X9344Y14208D01*
X8922Y13290D02*
X9016Y13290D01*
X8904Y13233D02*
X8969Y13430D01*
X9035Y13233D01*
X9100Y13252D02*
X9110Y13243D01*
X9100Y13233D01*
X9091Y13243D01*
X9100Y13252D01*
X9100Y13233D01*
X9260Y13336D02*
X9288Y13327D01*
X9297Y13318D01*
X9307Y13299D01*
X9307Y13271D01*
X9297Y13252D01*
X9288Y13243D01*
X9269Y13233D01*
X9194Y13233D01*
X9194Y13430D01*
X9260Y13430D01*
X9278Y13421D01*
X9288Y13411D01*
X9297Y13393D01*
X9297Y13374D01*
X9288Y13355D01*
X9278Y13346D01*
X9260Y13336D01*
X9194Y13336D01*
X9475Y13233D02*
X9475Y13336D01*
X9466Y13355D01*
X9447Y13365D01*
X9410Y13365D01*
X9391Y13355D01*
X9475Y13243D02*
X9457Y13233D01*
X9410Y13233D01*
X9391Y13243D01*
X9382Y13261D01*
X9382Y13280D01*
X9391Y13299D01*
X9410Y13308D01*
X9457Y13308D01*
X9475Y13318D01*
X9541Y13365D02*
X9616Y13365D01*
X9569Y13430D02*
X9569Y13261D01*
X9578Y13243D01*
X9597Y13233D01*
X9616Y13233D01*
X9682Y13252D02*
X9691Y13243D01*
X9682Y13233D01*
X9672Y13243D01*
X9682Y13252D01*
X9682Y13233D01*
X9138Y13105D02*
X9138Y12965D01*
X9128Y12937D01*
X9110Y12918D01*
X9082Y12908D01*
X9063Y12908D01*
X9232Y12908D02*
X9232Y13105D01*
X9307Y13105D01*
X9325Y13096D01*
X9335Y13087D01*
X9344Y13068D01*
X9344Y13040D01*
X9335Y13021D01*
X9325Y13012D01*
X9307Y13002D01*
X9232Y13002D01*
X9541Y12908D02*
X9475Y13002D01*
X9428Y12908D02*
X9428Y13105D01*
X9503Y13105D01*
X9522Y13096D01*
X9532Y13087D01*
X9541Y13068D01*
X9541Y13040D01*
X9532Y13021D01*
X9522Y13012D01*
X9503Y13002D01*
X9428Y13002D01*
X9232Y12659D02*
X9382Y12659D01*
X9344Y12621D02*
X9382Y12659D01*
X9344Y12696D01*
G54D12*
X5626Y13974D02*
X5685Y13797D01*
X5744Y13974D01*
X5803Y13814D02*
X5812Y13806D01*
X5803Y13797D01*
X5795Y13806D01*
X5803Y13814D01*
X5803Y13797D01*
X5888Y13797D02*
X5888Y13974D01*
X5930Y13974D01*
X5955Y13966D01*
X5972Y13949D01*
X5981Y13932D01*
X5989Y13899D01*
X5989Y13873D01*
X5981Y13839D01*
X5972Y13823D01*
X5955Y13806D01*
X5930Y13797D01*
X5888Y13797D01*
X6065Y13797D02*
X6065Y13915D01*
X6065Y13974D02*
X6057Y13966D01*
X6065Y13958D01*
X6073Y13966D01*
X6065Y13974D01*
X6065Y13958D01*
X6133Y13915D02*
X6175Y13797D01*
X6217Y13915D01*
X6284Y13814D02*
X6293Y13806D01*
X6284Y13797D01*
X6276Y13806D01*
X6284Y13814D01*
X6284Y13797D01*
X5816Y13682D02*
X5816Y13556D01*
X5808Y13530D01*
X5791Y13513D01*
X5766Y13505D01*
X5749Y13505D01*
X5901Y13505D02*
X5901Y13682D01*
X5968Y13682D01*
X5985Y13674D01*
X5993Y13665D01*
X6002Y13648D01*
X6002Y13623D01*
X5993Y13606D01*
X5985Y13598D01*
X5968Y13589D01*
X5901Y13589D01*
X6179Y13505D02*
X6120Y13589D01*
X6078Y13505D02*
X6078Y13682D01*
X6145Y13682D01*
X6162Y13674D01*
X6170Y13665D01*
X6179Y13648D01*
X6179Y13623D01*
X6170Y13606D01*
X6162Y13598D01*
X6145Y13589D01*
X6078Y13589D01*
G54D13*
X2525Y11317D02*
X2426Y11458D01*
X2356Y11317D02*
X2356Y11612D01*
X2469Y11612D01*
X2497Y11598D01*
X2511Y11584D01*
X2525Y11556D01*
X2525Y11514D01*
X2511Y11486D01*
X2497Y11472D01*
X2469Y11458D01*
X2356Y11458D01*
X2637Y11331D02*
X2665Y11317D01*
X2722Y11317D01*
X2750Y11331D01*
X2764Y11359D01*
X2764Y11373D01*
X2750Y11401D01*
X2722Y11416D01*
X2679Y11416D01*
X2651Y11430D01*
X2637Y11458D01*
X2637Y11472D01*
X2651Y11500D01*
X2679Y11514D01*
X2722Y11514D01*
X2750Y11500D01*
X2848Y11514D02*
X2961Y11514D01*
X2890Y11612D02*
X2890Y11359D01*
X2904Y11331D01*
X2933Y11317D01*
X2961Y11317D01*
X2286Y11663D02*
X2989Y11663D01*
X2356Y12892D02*
X2356Y13187D01*
X2426Y13187D01*
X2469Y13173D01*
X2497Y13145D01*
X2511Y13117D01*
X2525Y13061D01*
X2525Y13018D01*
X2511Y12962D01*
X2497Y12934D01*
X2469Y12906D01*
X2426Y12892D01*
X2356Y12892D01*
X2651Y12892D02*
X2651Y13187D01*
X2792Y13089D02*
X2792Y12892D01*
X2792Y13061D02*
X2806Y13075D01*
X2834Y13089D01*
X2876Y13089D01*
X2904Y13075D01*
X2919Y13047D01*
X2919Y12892D01*
G54D14*
X217Y13688D02*
X217Y13964D01*
X283Y13964D01*
X322Y13951D01*
X349Y13924D01*
X362Y13898D01*
X375Y13846D01*
X375Y13806D01*
X362Y13754D01*
X349Y13728D01*
X322Y13701D01*
X283Y13688D01*
X217Y13688D01*
X545Y13964D02*
X598Y13964D01*
X624Y13951D01*
X650Y13924D01*
X664Y13872D01*
X664Y13780D01*
X650Y13728D01*
X624Y13701D01*
X598Y13688D01*
X545Y13688D01*
X519Y13701D01*
X493Y13728D01*
X480Y13780D01*
X480Y13872D01*
X493Y13924D01*
X519Y13951D01*
X545Y13964D01*
X900Y13872D02*
X900Y13688D01*
X782Y13872D02*
X782Y13728D01*
X795Y13701D01*
X821Y13688D01*
X860Y13688D01*
X887Y13701D01*
X900Y13714D01*
X992Y13872D02*
X1097Y13872D01*
X1031Y13964D02*
X1031Y13728D01*
X1044Y13701D01*
X1070Y13688D01*
X1097Y13688D01*
G54D13*
X412Y7661D02*
X384Y7675D01*
X342Y7675D01*
X300Y7661D01*
X272Y7633D01*
X258Y7605D01*
X244Y7549D01*
X244Y7507D01*
X258Y7450D01*
X272Y7422D01*
X300Y7394D01*
X342Y7380D01*
X370Y7380D01*
X412Y7394D01*
X426Y7408D01*
X426Y7507D01*
X370Y7507D01*
X553Y7380D02*
X553Y7675D01*
X722Y7380D01*
X722Y7675D01*
X862Y7380D02*
X862Y7675D01*
X933Y7675D01*
X975Y7661D01*
X1003Y7633D01*
X1017Y7605D01*
X1031Y7549D01*
X1031Y7507D01*
X1017Y7450D01*
X1003Y7422D01*
X975Y7394D01*
X933Y7380D01*
X862Y7380D01*
G54D15*
X2244Y14762D02*
X2342Y14467D01*
X2440Y14762D01*
X2539Y14467D02*
X2539Y14762D01*
X2609Y14762D01*
X2651Y14748D01*
X2679Y14720D01*
X2694Y14692D01*
X2708Y14635D01*
X2708Y14593D01*
X2694Y14537D01*
X2679Y14509D01*
X2651Y14481D01*
X2609Y14467D01*
X2539Y14467D01*
X2834Y14467D02*
X2834Y14762D01*
X2904Y14762D01*
X2947Y14748D01*
X2975Y14720D01*
X2989Y14692D01*
X3003Y14635D01*
X3003Y14593D01*
X2989Y14537D01*
X2975Y14509D01*
X2947Y14481D01*
X2904Y14467D01*
X2834Y14467D01*
G54D11*
X7774Y16481D02*
X7708Y16575D01*
X7661Y16481D02*
X7661Y16678D01*
X7736Y16678D01*
X7755Y16669D01*
X7764Y16659D01*
X7774Y16641D01*
X7774Y16613D01*
X7764Y16594D01*
X7755Y16584D01*
X7736Y16575D01*
X7661Y16575D01*
X7839Y16678D02*
X7971Y16481D01*
X7971Y16678D02*
X7839Y16481D01*
X8172Y16678D02*
X8285Y16678D01*
X8229Y16481D02*
X8229Y16678D01*
X8332Y16678D02*
X8463Y16481D01*
X8463Y16678D02*
X8332Y16481D01*
X3654Y17163D02*
X3589Y17163D01*
X3589Y17060D02*
X3589Y17257D01*
X3682Y17257D01*
X3842Y17191D02*
X3842Y17060D01*
X3757Y17191D02*
X3757Y17088D01*
X3767Y17069D01*
X3785Y17060D01*
X3814Y17060D01*
X3832Y17069D01*
X3842Y17079D01*
X3964Y17060D02*
X3945Y17069D01*
X3935Y17088D01*
X3935Y17257D01*
X4067Y17060D02*
X4048Y17069D01*
X4038Y17088D01*
X4038Y17257D01*
X4123Y17191D02*
X4170Y17060D01*
X4217Y17191D02*
X4170Y17060D01*
X4151Y17013D01*
X4142Y17004D01*
X4123Y16994D01*
X3467Y16735D02*
X3373Y16735D01*
X3373Y16932D01*
X3560Y16735D02*
X3542Y16745D01*
X3532Y16754D01*
X3523Y16773D01*
X3523Y16829D01*
X3532Y16848D01*
X3542Y16857D01*
X3560Y16866D01*
X3589Y16866D01*
X3607Y16857D01*
X3617Y16848D01*
X3626Y16829D01*
X3626Y16773D01*
X3617Y16754D01*
X3607Y16745D01*
X3589Y16735D01*
X3560Y16735D01*
X3795Y16735D02*
X3795Y16838D01*
X3785Y16857D01*
X3767Y16866D01*
X3729Y16866D01*
X3710Y16857D01*
X3795Y16745D02*
X3776Y16735D01*
X3729Y16735D01*
X3710Y16745D01*
X3701Y16763D01*
X3701Y16782D01*
X3710Y16801D01*
X3729Y16810D01*
X3776Y16810D01*
X3795Y16820D01*
X3973Y16735D02*
X3973Y16932D01*
X3973Y16745D02*
X3954Y16735D01*
X3917Y16735D01*
X3898Y16745D01*
X3889Y16754D01*
X3879Y16773D01*
X3879Y16829D01*
X3889Y16848D01*
X3898Y16857D01*
X3917Y16866D01*
X3954Y16866D01*
X3973Y16857D01*
X4142Y16745D02*
X4123Y16735D01*
X4085Y16735D01*
X4067Y16745D01*
X4057Y16763D01*
X4057Y16838D01*
X4067Y16857D01*
X4085Y16866D01*
X4123Y16866D01*
X4142Y16857D01*
X4151Y16838D01*
X4151Y16820D01*
X4057Y16801D01*
X4320Y16735D02*
X4320Y16932D01*
X4320Y16745D02*
X4301Y16735D01*
X4263Y16735D01*
X4245Y16745D01*
X4235Y16754D01*
X4226Y16773D01*
X4226Y16829D01*
X4235Y16848D01*
X4245Y16857D01*
X4263Y16866D01*
X4301Y16866D01*
X4320Y16857D01*
X4413Y16754D02*
X4423Y16745D01*
X4413Y16735D01*
X4404Y16745D01*
X4413Y16754D01*
X4413Y16735D01*
X4413Y16810D02*
X4404Y16923D01*
X4413Y16932D01*
X4423Y16923D01*
X4413Y16810D01*
X4413Y16932D01*
G54D13*
X4844Y16522D02*
X4544Y16522D01*
X4544Y16635D01*
X4559Y16663D01*
X4573Y16677D01*
X4601Y16691D01*
X4644Y16691D01*
X4673Y16677D01*
X4687Y16663D01*
X4701Y16635D01*
X4701Y16522D01*
X4544Y16775D02*
X4844Y16874D01*
X4544Y16972D01*
X4730Y17071D02*
X4730Y17296D01*
X4844Y17183D02*
X4616Y17183D01*
X7075Y17296D02*
X7370Y17296D01*
X7370Y17183D01*
X7356Y17155D01*
X7342Y17141D01*
X7314Y17127D01*
X7271Y17127D01*
X7243Y17141D01*
X7229Y17155D01*
X7215Y17183D01*
X7215Y17296D01*
X7370Y17043D02*
X7075Y16944D01*
X7370Y16846D01*
X7187Y16747D02*
X7187Y16522D01*
G54D11*
X7685Y17025D02*
X7685Y17281D01*
X7770Y17099D01*
X7856Y17281D01*
X7856Y17025D01*
X8075Y17038D02*
X8051Y17025D01*
X8002Y17025D01*
X7977Y17038D01*
X7965Y17062D01*
X7965Y17160D01*
X7977Y17184D01*
X8002Y17196D01*
X8051Y17196D01*
X8075Y17184D01*
X8087Y17160D01*
X8087Y17135D01*
X7965Y17111D01*
X8185Y17038D02*
X8209Y17025D01*
X8258Y17025D01*
X8282Y17038D01*
X8294Y17062D01*
X8294Y17074D01*
X8282Y17099D01*
X8258Y17111D01*
X8221Y17111D01*
X8197Y17123D01*
X8185Y17147D01*
X8185Y17160D01*
X8197Y17184D01*
X8221Y17196D01*
X8258Y17196D01*
X8282Y17184D01*
X8404Y17025D02*
X8404Y17281D01*
X8514Y17025D02*
X8514Y17160D01*
X8501Y17184D01*
X8477Y17196D01*
X8441Y17196D01*
X8416Y17184D01*
X8404Y17172D01*
X8636Y17281D02*
X8636Y17074D01*
X8648Y17050D01*
X8660Y17038D01*
X8684Y17025D01*
X8733Y17025D01*
X8757Y17038D01*
X8770Y17050D01*
X8782Y17074D01*
X8782Y17281D01*
X8891Y17038D02*
X8928Y17025D01*
X8989Y17025D01*
X9013Y17038D01*
X9025Y17050D01*
X9038Y17074D01*
X9038Y17099D01*
X9025Y17123D01*
X9013Y17135D01*
X8989Y17147D01*
X8940Y17160D01*
X8916Y17172D01*
X8904Y17184D01*
X8891Y17208D01*
X8891Y17233D01*
X8904Y17257D01*
X8916Y17269D01*
X8940Y17281D01*
X9001Y17281D01*
X9038Y17269D01*
X9233Y17160D02*
X9269Y17147D01*
X9281Y17135D01*
X9294Y17111D01*
X9294Y17074D01*
X9281Y17050D01*
X9269Y17038D01*
X9245Y17025D01*
X9147Y17025D01*
X9147Y17281D01*
X9233Y17281D01*
X9257Y17269D01*
X9269Y17257D01*
X9281Y17233D01*
X9281Y17208D01*
X9269Y17184D01*
X9257Y17172D01*
X9233Y17160D01*
X9147Y17160D01*
X9379Y17196D02*
X9440Y17025D01*
X9501Y17196D01*
X9647Y17281D02*
X9671Y17281D01*
X9696Y17269D01*
X9708Y17257D01*
X9720Y17233D01*
X9732Y17184D01*
X9732Y17123D01*
X9720Y17074D01*
X9708Y17050D01*
X9696Y17038D01*
X9671Y17025D01*
X9647Y17025D01*
X9623Y17038D01*
X9610Y17050D01*
X9598Y17074D01*
X9586Y17123D01*
X9586Y17184D01*
X9598Y17233D01*
X9610Y17257D01*
X9623Y17269D01*
X9647Y17281D01*
X9842Y17050D02*
X9854Y17038D01*
X9842Y17025D01*
X9830Y17038D01*
X9842Y17050D01*
X9842Y17025D01*
X9952Y17257D02*
X9964Y17269D01*
X9988Y17281D01*
X10049Y17281D01*
X10073Y17269D01*
X10086Y17257D01*
X10098Y17233D01*
X10098Y17208D01*
X10086Y17172D01*
X9939Y17025D01*
X10098Y17025D01*
G54D16*
X1068Y14600D02*
X1068Y14700D01*
G54D10*
X8661Y16608D02*
X10228Y15246D01*
G54D16*
X1068Y6900D02*
X1068Y6500D01*
X10868Y6900D02*
X10868Y6500D01*
X10868Y14600D02*
X10868Y14700D01*
X1068Y6500D02*
X10868Y6500D01*
G54D17*
X6968Y17409D02*
X6968Y16409D01*
X6968Y16409D02*
X4968Y16409D01*
X4968Y16409D02*
X4968Y17409D01*
X4968Y17409D02*
X6968Y17409D01*
X5672Y15088D02*
G75*
G03X5672Y15088I-79J0D01*
G74*
G01*
G54D18*
X6578Y14688D02*
X6578Y15298D01*
X6578Y15298D02*
X5358Y15298D01*
X5358Y15298D02*
X5358Y14078D01*
X5358Y14078D02*
X6578Y14078D01*
X6578Y14078D02*
X6578Y14688D01*
G54D10*
X7877Y8240D02*
G75*
G03X8259Y8236I192J188D01*
G74*
G01*
X8263Y7358D02*
G75*
G03X7881Y7362I-192J-188D01*
G74*
G01*
X7401Y8685D02*
X7401Y6913D01*
X8740Y8685D02*
X8740Y6913D01*
G54D19*
X5098Y15677D02*
X5098Y15402D01*
X5098Y16071D02*
X5098Y16346D01*
X5610Y15677D02*
X5610Y15402D01*
X5610Y16346D02*
X5610Y16071D01*
X5604Y15402D02*
X5104Y15402D01*
X5104Y16346D02*
X5604Y16346D01*
X5712Y15677D02*
X5712Y15402D01*
X5712Y16071D02*
X5712Y16346D01*
X6224Y15677D02*
X6224Y15402D01*
X6224Y16346D02*
X6224Y16071D01*
X6218Y15402D02*
X5718Y15402D01*
X5718Y16346D02*
X6218Y16346D01*
X3669Y9653D02*
X3394Y9653D01*
X4063Y9653D02*
X4338Y9653D01*
X3669Y9141D02*
X3394Y9141D01*
X4338Y9141D02*
X4063Y9141D01*
X3394Y9147D02*
X3394Y9647D01*
X4338Y9647D02*
X4338Y9147D01*
X4063Y10407D02*
X4338Y10407D01*
X3669Y10407D02*
X3394Y10407D01*
X4063Y10919D02*
X4338Y10919D01*
X3394Y10919D02*
X3669Y10919D01*
X4338Y10913D02*
X4338Y10413D01*
X3394Y10413D02*
X3394Y10913D01*
G54D20*
X7873Y9672D02*
X7595Y9672D01*
X7595Y9672D02*
X7595Y9122D01*
X7595Y9122D02*
X7873Y9122D01*
X8545Y9672D02*
X8267Y9672D01*
X8545Y9672D02*
X8545Y9122D01*
X8545Y9122D02*
X8267Y9122D01*
X3669Y8436D02*
X3391Y8436D01*
X3391Y8436D02*
X3391Y7886D01*
X3391Y7886D02*
X3669Y7886D01*
X4341Y8436D02*
X4063Y8436D01*
X4341Y8436D02*
X4341Y7886D01*
X4341Y7886D02*
X4063Y7886D01*
X7873Y10938D02*
X7595Y10938D01*
X7595Y10938D02*
X7595Y10388D01*
X7595Y10388D02*
X7873Y10388D01*
X8545Y10938D02*
X8267Y10938D01*
X8545Y10938D02*
X8545Y10388D01*
X8545Y10388D02*
X8267Y10388D01*
X6949Y15677D02*
X6949Y15399D01*
X6949Y15399D02*
X7499Y15399D01*
X7499Y15399D02*
X7499Y15677D01*
X6949Y16349D02*
X6949Y16071D01*
X6949Y16349D02*
X7499Y16349D01*
X7499Y16349D02*
X7499Y16071D01*
X6319Y15677D02*
X6319Y15399D01*
X6319Y15399D02*
X6869Y15399D01*
X6869Y15399D02*
X6869Y15677D01*
X6319Y16349D02*
X6319Y16071D01*
X6319Y16349D02*
X6869Y16349D01*
X6869Y16349D02*
X6869Y16071D01*
X4063Y8512D02*
X4341Y8512D01*
X4341Y8512D02*
X4341Y9062D01*
X4341Y9062D02*
X4063Y9062D01*
X3391Y8512D02*
X3669Y8512D01*
X3391Y8512D02*
X3391Y9062D01*
X3391Y9062D02*
X3669Y9062D01*
X7873Y10322D02*
X7595Y10322D01*
X7595Y10322D02*
X7595Y9772D01*
X7595Y9772D02*
X7873Y9772D01*
X8545Y10322D02*
X8267Y10322D01*
X8545Y10322D02*
X8545Y9772D01*
X8545Y9772D02*
X8267Y9772D01*
X4999Y16071D02*
X4999Y16349D01*
X4999Y16349D02*
X4449Y16349D01*
X4449Y16349D02*
X4449Y16071D01*
X4999Y15399D02*
X4999Y15677D01*
X4999Y15399D02*
X4449Y15399D01*
X4449Y15399D02*
X4449Y15677D01*
G54D21*
X8338Y13350D02*
G75*
G03X8338Y13350I-62J0D01*
G74*
G01*
X7937Y14313D02*
X8337Y14313D01*
X7937Y13288D02*
X8337Y13288D01*
X8337Y14313D02*
X8337Y13288D01*
X7937Y13288D02*
X7937Y14313D01*
G54D22*
G36*
X3564Y17366D02*
X2656Y17357D01*
X1748Y17347D01*
X1738Y16356D01*
X1729Y15365D01*
X1721Y16373D01*
X1714Y17381D01*
X2639Y17374D01*
X3564Y17366D01*
X3564Y17366D01*
X3564Y17366D01*
G37*
G36*
X2847Y15415D02*
X2815Y15401D01*
X2722Y15390D01*
X2576Y15384D01*
X2385Y15381D01*
X2199Y15382D01*
X2068Y15386D01*
X1980Y15393D01*
X1923Y15406D01*
X1886Y15427D01*
X1864Y15448D01*
X1831Y15489D01*
X1834Y15517D01*
X1881Y15548D01*
X1955Y15581D01*
X2069Y15624D01*
X2180Y15654D01*
X2214Y15660D01*
X2298Y15683D01*
X2351Y15724D01*
X2352Y15725D01*
X2398Y15759D01*
X2451Y15751D01*
X2480Y15708D01*
X2480Y15703D01*
X2506Y15662D01*
X2569Y15605D01*
X2597Y15586D01*
X2669Y15530D01*
X2710Y15487D01*
X2714Y15477D01*
X2741Y15454D01*
X2780Y15448D01*
X2834Y15434D01*
X2847Y15415D01*
X2847Y15415D01*
X2847Y15415D01*
G37*
G36*
X3306Y16214D02*
X3296Y16058D01*
X3279Y15959D01*
X3279Y16400D01*
X3279Y16457D01*
X3255Y16481D01*
X3204Y16464D01*
X3132Y16421D01*
X3062Y16370D01*
X3018Y16327D01*
X3014Y16315D01*
X3042Y16291D01*
X3110Y16282D01*
X3191Y16291D01*
X3227Y16302D01*
X3261Y16338D01*
X3279Y16400D01*
X3279Y15959D01*
X3273Y15924D01*
X3245Y15846D01*
X3209Y15789D01*
X3209Y16003D01*
X3191Y16050D01*
X3139Y16085D01*
X3088Y16110D01*
X3086Y16100D01*
X3127Y16053D01*
X3161Y16003D01*
X3154Y15982D01*
X3153Y15981D01*
X3113Y15955D01*
X3068Y15889D01*
X3064Y15882D01*
X3036Y15824D01*
X3036Y15931D01*
X3015Y15976D01*
X2996Y15981D01*
X2952Y16008D01*
X2927Y16047D01*
X2891Y16092D01*
X2889Y16092D01*
X2889Y16317D01*
X2882Y16344D01*
X2839Y16372D01*
X2760Y16394D01*
X2666Y16408D01*
X2581Y16412D01*
X2524Y16403D01*
X2514Y16390D01*
X2542Y16371D01*
X2605Y16370D01*
X2697Y16383D01*
X2614Y16345D01*
X2557Y16317D01*
X2559Y16298D01*
X2597Y16280D01*
X2671Y16254D01*
X2707Y16260D01*
X2725Y16290D01*
X2749Y16313D01*
X2769Y16294D01*
X2814Y16270D01*
X2863Y16282D01*
X2889Y16317D01*
X2889Y16092D01*
X2847Y16080D01*
X2820Y16051D01*
X2841Y16016D01*
X2879Y15984D01*
X2961Y15921D01*
X2862Y15906D01*
X2812Y15897D01*
X2820Y15891D01*
X2891Y15887D01*
X2900Y15886D01*
X2992Y15890D01*
X3032Y15913D01*
X3036Y15931D01*
X3036Y15824D01*
X3033Y15817D01*
X3035Y15796D01*
X3063Y15803D01*
X3108Y15842D01*
X3114Y15864D01*
X3137Y15920D01*
X3164Y15948D01*
X3209Y16003D01*
X3209Y15789D01*
X3140Y15677D01*
X3028Y15569D01*
X2911Y15525D01*
X2866Y15532D01*
X2866Y15794D01*
X2827Y15820D01*
X2822Y15822D01*
X2764Y15866D01*
X2747Y15903D01*
X2720Y15943D01*
X2697Y15948D01*
X2652Y15937D01*
X2647Y15927D01*
X2673Y15884D01*
X2733Y15834D01*
X2802Y15794D01*
X2844Y15784D01*
X2866Y15794D01*
X2866Y15532D01*
X2847Y15534D01*
X2847Y15731D01*
X2830Y15748D01*
X2814Y15731D01*
X2830Y15715D01*
X2847Y15731D01*
X2847Y15534D01*
X2814Y15538D01*
X2646Y15613D01*
X2532Y15702D01*
X2463Y15818D01*
X2433Y15974D01*
X2431Y16148D01*
X2441Y16398D01*
X2611Y16551D01*
X2725Y16644D01*
X2828Y16700D01*
X2947Y16734D01*
X2970Y16738D01*
X3082Y16755D01*
X3151Y16754D01*
X3199Y16733D01*
X3226Y16710D01*
X3264Y16640D01*
X3289Y16523D01*
X3304Y16375D01*
X3306Y16214D01*
X3306Y16214D01*
X3306Y16214D01*
G37*
G36*
X3341Y15800D02*
X3335Y15773D01*
X3324Y15771D01*
X3320Y15824D01*
X3320Y15831D01*
X3325Y15883D01*
X3335Y15878D01*
X3337Y15873D01*
X3341Y15800D01*
X3341Y15800D01*
X3341Y15800D01*
G37*
G36*
X2072Y16418D02*
X2071Y16322D01*
X2064Y16256D01*
X2044Y16115D01*
X2022Y16034D01*
X1992Y16008D01*
X1951Y16029D01*
X1924Y16056D01*
X1863Y16154D01*
X1819Y16278D01*
X1800Y16403D01*
X1811Y16504D01*
X1820Y16524D01*
X1848Y16597D01*
X1852Y16640D01*
X1859Y16680D01*
X1897Y16676D01*
X1952Y16634D01*
X2009Y16566D01*
X2053Y16490D01*
X2072Y16418D01*
X2072Y16418D01*
X2072Y16418D01*
G37*
G36*
X2280Y16198D02*
X2264Y16181D01*
X2247Y16198D01*
X2264Y16215D01*
X2280Y16198D01*
X2280Y16198D01*
X2280Y16198D01*
G37*
G36*
X2880Y16031D02*
X2864Y16015D01*
X2847Y16031D01*
X2864Y16048D01*
X2880Y16031D01*
X2880Y16031D01*
X2880Y16031D01*
G37*
G36*
X3236Y16404D02*
X3231Y16384D01*
X3214Y16381D01*
X3186Y16394D01*
X3191Y16404D01*
X3231Y16408D01*
X3236Y16404D01*
X3236Y16404D01*
X3236Y16404D01*
G37*
G36*
X5431Y4697D02*
X5441Y4701D01*
X5461Y4715D01*
X5491Y4734D01*
X5526Y4757D01*
X5561Y4781D01*
X5590Y4800D01*
X5610Y4813D01*
X5618Y4818D01*
X5623Y4816D01*
X5640Y4808D01*
X5664Y4796D01*
X5678Y4788D01*
X5700Y4779D01*
X5711Y4777D01*
X5713Y4780D01*
X5721Y4797D01*
X5734Y4826D01*
X5751Y4864D01*
X5770Y4909D01*
X5790Y4958D01*
X5811Y5007D01*
X5830Y5054D01*
X5848Y5097D01*
X5862Y5131D01*
X5871Y5155D01*
X5874Y5166D01*
X5873Y5168D01*
X5862Y5179D01*
X5843Y5193D01*
X5801Y5227D01*
X5759Y5279D01*
X5734Y5337D01*
X5726Y5403D01*
X5733Y5463D01*
X5757Y5521D01*
X5797Y5573D01*
X5846Y5612D01*
X5904Y5636D01*
X5968Y5644D01*
X6029Y5637D01*
X6089Y5614D01*
X6141Y5574D01*
X6163Y5549D01*
X6193Y5496D01*
X6211Y5440D01*
X6213Y5425D01*
X6210Y5363D01*
X6192Y5303D01*
X6159Y5250D01*
X6113Y5206D01*
X6108Y5202D01*
X6086Y5186D01*
X6072Y5175D01*
X6061Y5166D01*
X6140Y4976D01*
X6153Y4945D01*
X6175Y4893D01*
X6194Y4848D01*
X6209Y4813D01*
X6220Y4789D01*
X6224Y4779D01*
X6225Y4779D01*
X6232Y4777D01*
X6246Y4783D01*
X6273Y4796D01*
X6291Y4805D01*
X6311Y4814D01*
X6320Y4818D01*
X6328Y4814D01*
X6347Y4801D01*
X6375Y4782D01*
X6410Y4759D01*
X6442Y4737D01*
X6472Y4717D01*
X6494Y4703D01*
X6504Y4698D01*
X6506Y4698D01*
X6515Y4703D01*
X6532Y4717D01*
X6558Y4742D01*
X6595Y4778D01*
X6601Y4784D01*
X6631Y4814D01*
X6655Y4840D01*
X6672Y4858D01*
X6678Y4867D01*
X6678Y4867D01*
X6672Y4877D01*
X6659Y4899D01*
X6639Y4929D01*
X6615Y4965D01*
X6552Y5056D01*
X6586Y5143D01*
X6597Y5169D01*
X6610Y5202D01*
X6621Y5225D01*
X6626Y5235D01*
X6635Y5238D01*
X6659Y5244D01*
X6693Y5251D01*
X6734Y5258D01*
X6773Y5266D01*
X6808Y5272D01*
X6834Y5277D01*
X6845Y5279D01*
X6848Y5281D01*
X6850Y5287D01*
X6852Y5299D01*
X6853Y5320D01*
X6853Y5354D01*
X6853Y5403D01*
X6853Y5408D01*
X6853Y5455D01*
X6852Y5492D01*
X6851Y5515D01*
X6849Y5525D01*
X6849Y5525D01*
X6838Y5528D01*
X6813Y5533D01*
X6778Y5540D01*
X6736Y5548D01*
X6733Y5548D01*
X6691Y5557D01*
X6656Y5564D01*
X6632Y5569D01*
X6621Y5573D01*
X6619Y5576D01*
X6611Y5592D01*
X6599Y5618D01*
X6585Y5650D01*
X6571Y5683D01*
X6559Y5712D01*
X6551Y5734D01*
X6549Y5744D01*
X6549Y5745D01*
X6555Y5755D01*
X6570Y5776D01*
X6590Y5806D01*
X6614Y5842D01*
X6616Y5845D01*
X6640Y5880D01*
X6660Y5910D01*
X6673Y5932D01*
X6678Y5941D01*
X6678Y5942D01*
X6670Y5952D01*
X6652Y5972D01*
X6626Y5999D01*
X6595Y6031D01*
X6585Y6040D01*
X6551Y6074D01*
X6527Y6096D01*
X6512Y6108D01*
X6505Y6110D01*
X6504Y6110D01*
X6494Y6104D01*
X6471Y6089D01*
X6441Y6069D01*
X6405Y6044D01*
X6403Y6042D01*
X6367Y6018D01*
X6338Y5998D01*
X6317Y5985D01*
X6308Y5979D01*
X6306Y5979D01*
X6292Y5983D01*
X6266Y5992D01*
X6235Y6004D01*
X6203Y6017D01*
X6173Y6030D01*
X6151Y6040D01*
X6140Y6046D01*
X6140Y6046D01*
X6136Y6059D01*
X6130Y6086D01*
X6122Y6122D01*
X6114Y6165D01*
X6113Y6172D01*
X6105Y6215D01*
X6098Y6250D01*
X6093Y6274D01*
X6091Y6284D01*
X6085Y6285D01*
X6064Y6286D01*
X6033Y6287D01*
X5994Y6288D01*
X5955Y6287D01*
X5916Y6287D01*
X5882Y6285D01*
X5858Y6284D01*
X5848Y6282D01*
X5848Y6281D01*
X5844Y6268D01*
X5839Y6242D01*
X5831Y6205D01*
X5823Y6161D01*
X5821Y6154D01*
X5813Y6112D01*
X5806Y6077D01*
X5801Y6053D01*
X5799Y6044D01*
X5795Y6042D01*
X5777Y6034D01*
X5749Y6023D01*
X5714Y6009D01*
X5633Y5976D01*
X5534Y6044D01*
X5525Y6050D01*
X5489Y6074D01*
X5459Y6094D01*
X5439Y6107D01*
X5431Y6112D01*
X5430Y6112D01*
X5420Y6103D01*
X5400Y6085D01*
X5373Y6058D01*
X5342Y6027D01*
X5319Y6004D01*
X5291Y5976D01*
X5274Y5957D01*
X5265Y5945D01*
X5261Y5938D01*
X5262Y5933D01*
X5268Y5923D01*
X5283Y5901D01*
X5304Y5871D01*
X5328Y5836D01*
X5348Y5806D01*
X5369Y5773D01*
X5383Y5749D01*
X5388Y5738D01*
X5387Y5733D01*
X5380Y5713D01*
X5368Y5684D01*
X5353Y5649D01*
X5319Y5570D01*
X5267Y5560D01*
X5236Y5554D01*
X5192Y5546D01*
X5150Y5538D01*
X5085Y5525D01*
X5083Y5286D01*
X5093Y5281D01*
X5102Y5279D01*
X5127Y5273D01*
X5161Y5266D01*
X5202Y5259D01*
X5237Y5252D01*
X5272Y5246D01*
X5297Y5241D01*
X5308Y5238D01*
X5311Y5235D01*
X5319Y5218D01*
X5332Y5191D01*
X5346Y5158D01*
X5360Y5125D01*
X5372Y5094D01*
X5381Y5070D01*
X5384Y5058D01*
X5379Y5049D01*
X5366Y5028D01*
X5347Y4999D01*
X5323Y4964D01*
X5299Y4929D01*
X5279Y4899D01*
X5265Y4878D01*
X5259Y4868D01*
X5262Y4862D01*
X5276Y4845D01*
X5302Y4818D01*
X5341Y4779D01*
X5348Y4773D01*
X5379Y4743D01*
X5405Y4719D01*
X5423Y4703D01*
X5431Y4697D01*
X5431Y4697D01*
G37*
G54D20*
X4063Y9772D02*
X4341Y9772D01*
X4341Y9772D02*
X4341Y10322D01*
X4341Y10322D02*
X4063Y10322D01*
X3391Y9772D02*
X3669Y9772D01*
X3391Y9772D02*
X3391Y10322D01*
X3391Y10322D02*
X3669Y10322D01*
G54D21*
X6494Y12425D02*
G75*
G03X6494Y12425I-62J0D01*
G74*
G01*
X5468Y12087D02*
X5468Y12487D01*
X6493Y12087D02*
X6493Y12487D01*
X5468Y12487D02*
X6493Y12487D01*
X6493Y12087D02*
X5468Y12087D01*
X7670Y11543D02*
G75*
G03X7670Y11543I-62J0D01*
G74*
G01*
X8570Y11881D02*
X8570Y11481D01*
X7545Y11881D02*
X7545Y11481D01*
X8570Y11481D02*
X7545Y11481D01*
X7545Y11881D02*
X8570Y11881D01*
X3723Y14276D02*
G75*
G03X3723Y14276I-62J0D01*
G74*
G01*
X3999Y13313D02*
X3599Y13313D01*
X3999Y14338D02*
X3599Y14338D01*
X3599Y13313D02*
X3599Y14338D01*
X3999Y14338D02*
X3999Y13313D01*
G54D10*
X6657Y10259D02*
X6657Y10641D01*
X6657Y11578D02*
X6657Y11374D01*
X6657Y11374D02*
X6657Y11755D01*
X6165Y11578D02*
X6165Y10437D01*
X6874Y10437D02*
X5062Y10437D01*
X6874Y11578D02*
X5062Y11578D01*
X2110Y14207D02*
X1165Y14207D01*
X1165Y7022D02*
X1165Y15092D01*
X1165Y15092D02*
X2110Y15092D01*
X2110Y15092D02*
X2110Y7022D01*
X2110Y7022D02*
X1165Y7022D01*
X9827Y7907D02*
X10772Y7907D01*
X10772Y15092D02*
X10772Y7022D01*
X10772Y7022D02*
X9827Y7022D01*
X9827Y7022D02*
X9827Y15092D01*
X9827Y15092D02*
X10772Y15092D01*
G54D21*
X3465Y11543D02*
G75*
G03X3465Y11543I-62J0D01*
G74*
G01*
X4366Y11881D02*
X4366Y11481D01*
X3341Y11881D02*
X3341Y11481D01*
X4366Y11481D02*
X3341Y11481D01*
X3341Y11881D02*
X4366Y11881D01*
G54D10*
X7787Y15846D02*
X7787Y15779D01*
X7787Y15779D02*
X7834Y15779D01*
X7834Y15779D02*
X7834Y15850D01*
G54D23*
X7964Y15988D02*
X7964Y15763D01*
X7649Y15984D02*
X7649Y15767D01*
G54D24*
X7630Y15697D02*
X7630Y15540D01*
X7984Y15697D02*
X7984Y15540D01*
X7630Y16208D02*
X7630Y16051D01*
X7984Y16208D02*
X7984Y16051D01*
X7984Y15874D02*
X7925Y15874D01*
X7925Y15874D02*
X7925Y15756D01*
X7984Y15756D02*
X7925Y15756D01*
X7984Y15874D02*
X7984Y15756D01*
X7689Y15874D02*
X7630Y15874D01*
X7630Y15874D02*
X7630Y15756D01*
X7689Y15756D02*
X7630Y15756D01*
X7689Y15874D02*
X7689Y15756D01*
X7866Y15874D02*
X7748Y15874D01*
X7748Y15874D02*
X7748Y15756D01*
X7866Y15756D02*
X7748Y15756D01*
X7866Y15874D02*
X7866Y15756D01*
G54D10*
X8303Y15846D02*
X8303Y15779D01*
X8303Y15779D02*
X8350Y15779D01*
X8350Y15779D02*
X8350Y15850D01*
G54D23*
X8480Y15988D02*
X8480Y15763D01*
X8165Y15984D02*
X8165Y15767D01*
G54D24*
X8145Y15697D02*
X8145Y15540D01*
X8499Y15697D02*
X8499Y15540D01*
X8145Y16208D02*
X8145Y16051D01*
X8499Y16208D02*
X8499Y16051D01*
X8499Y15874D02*
X8440Y15874D01*
X8440Y15874D02*
X8440Y15756D01*
X8499Y15756D02*
X8440Y15756D01*
X8499Y15874D02*
X8499Y15756D01*
X8204Y15874D02*
X8145Y15874D01*
X8145Y15874D02*
X8145Y15756D01*
X8204Y15756D02*
X8145Y15756D01*
X8204Y15874D02*
X8204Y15756D01*
X8381Y15874D02*
X8263Y15874D01*
X8263Y15874D02*
X8263Y15756D01*
X8381Y15756D02*
X8263Y15756D01*
X8381Y15874D02*
X8381Y15756D01*
G54D10*
X4122Y15846D02*
X4122Y15779D01*
X4122Y15779D02*
X4169Y15779D01*
X4169Y15779D02*
X4169Y15850D01*
G54D23*
X4299Y15988D02*
X4299Y15763D01*
X3984Y15984D02*
X3984Y15767D01*
G54D24*
X3964Y15697D02*
X3964Y15540D01*
X4318Y15697D02*
X4318Y15540D01*
X3964Y16208D02*
X3964Y16051D01*
X4318Y16208D02*
X4318Y16051D01*
X4318Y15874D02*
X4259Y15874D01*
X4259Y15874D02*
X4259Y15756D01*
X4318Y15756D02*
X4259Y15756D01*
X4318Y15874D02*
X4318Y15756D01*
X4023Y15874D02*
X3964Y15874D01*
X3964Y15874D02*
X3964Y15756D01*
X4023Y15756D02*
X3964Y15756D01*
X4023Y15874D02*
X4023Y15756D01*
X4200Y15874D02*
X4082Y15874D01*
X4082Y15874D02*
X4082Y15756D01*
X4200Y15756D02*
X4082Y15756D01*
X4200Y15874D02*
X4200Y15756D01*
G54D10*
X6677Y6657D02*
X6677Y10082D01*
X6677Y10082D02*
X5259Y10082D01*
X5259Y10082D02*
X5259Y6657D01*
X5267Y6657D02*
X6673Y6657D01*
G54D17*
X5268Y9870D02*
X6668Y9870D01*
G54D20*
X5609Y9670D02*
G75*
G03X5609Y9670I-141J0D01*
G74*
G01*
X6218Y9870D02*
X6218Y9570D01*
X6218Y9570D02*
X5718Y9570D01*
X5718Y9570D02*
X5718Y9870D01*
X4736Y12795D02*
X4736Y12517D01*
X4736Y12517D02*
X5286Y12517D01*
X5286Y12517D02*
X5286Y12795D01*
X4736Y13467D02*
X4736Y13189D01*
X4736Y13467D02*
X5286Y13467D01*
X5286Y13467D02*
X5286Y13189D01*
X7200Y13189D02*
X7200Y13467D01*
X7200Y13467D02*
X6650Y13467D01*
X6650Y13467D02*
X6650Y13189D01*
X7200Y12517D02*
X7200Y12795D01*
X7200Y12517D02*
X6650Y12517D01*
X6650Y12517D02*
X6650Y12795D01*
G54D25*
M02*
