%FSLAX34Y34*%
G04 Gerber Fmt 3.4, Leading zero omitted, Abs format*
G04 (created by PCBNEW (2013-12-14 BZR 4555)-product) date Mon 24 Feb 2014 21:08:05 EST*
%MOIN*%
G01*
G70*
G90*
G04 APERTURE LIST*
%ADD10C,0.005906*%
%ADD11C,0.009843*%
%ADD12C,0.006398*%
%ADD13C,0.000100*%
G04 APERTURE END LIST*
G54D10*
G54D11*
X6352Y922D02*
X6352Y1315D01*
X6352Y1166D02*
X6315Y1184D01*
X6240Y1184D01*
X6202Y1166D01*
X6184Y1147D01*
X6165Y1109D01*
X6165Y997D01*
X6184Y959D01*
X6202Y941D01*
X6240Y922D01*
X6315Y922D01*
X6352Y941D01*
X6034Y1184D02*
X5940Y922D01*
X5846Y1184D02*
X5940Y922D01*
X5977Y828D01*
X5996Y809D01*
X6034Y791D01*
X7787Y272D02*
X7918Y460D01*
X8011Y272D02*
X8011Y666D01*
X7862Y666D01*
X7824Y647D01*
X7805Y628D01*
X7787Y591D01*
X7787Y535D01*
X7805Y497D01*
X7824Y478D01*
X7862Y460D01*
X8011Y460D01*
X7562Y272D02*
X7599Y291D01*
X7618Y310D01*
X7637Y347D01*
X7637Y460D01*
X7618Y497D01*
X7599Y516D01*
X7562Y535D01*
X7505Y535D01*
X7468Y516D01*
X7449Y497D01*
X7430Y460D01*
X7430Y347D01*
X7449Y310D01*
X7468Y291D01*
X7505Y272D01*
X7562Y272D01*
X7262Y272D02*
X7262Y666D01*
X7262Y516D02*
X7224Y535D01*
X7149Y535D01*
X7112Y516D01*
X7093Y497D01*
X7074Y460D01*
X7074Y347D01*
X7093Y310D01*
X7112Y291D01*
X7149Y272D01*
X7224Y272D01*
X7262Y291D01*
X6755Y291D02*
X6793Y272D01*
X6868Y272D01*
X6905Y291D01*
X6924Y328D01*
X6924Y478D01*
X6905Y516D01*
X6868Y535D01*
X6793Y535D01*
X6755Y516D01*
X6737Y478D01*
X6737Y441D01*
X6924Y403D01*
X6568Y272D02*
X6568Y535D01*
X6568Y460D02*
X6549Y497D01*
X6530Y516D01*
X6493Y535D01*
X6455Y535D01*
X6380Y535D02*
X6230Y535D01*
X6324Y666D02*
X6324Y328D01*
X6305Y291D01*
X6268Y272D01*
X6230Y272D01*
X5799Y272D02*
X5799Y666D01*
X5649Y666D01*
X5612Y647D01*
X5593Y628D01*
X5574Y591D01*
X5574Y535D01*
X5593Y497D01*
X5612Y478D01*
X5649Y460D01*
X5799Y460D01*
X5349Y272D02*
X5387Y291D01*
X5406Y310D01*
X5424Y347D01*
X5424Y460D01*
X5406Y497D01*
X5387Y516D01*
X5349Y535D01*
X5293Y535D01*
X5256Y516D01*
X5237Y497D01*
X5218Y460D01*
X5218Y347D01*
X5237Y310D01*
X5256Y291D01*
X5293Y272D01*
X5349Y272D01*
X5087Y535D02*
X5012Y272D01*
X4937Y460D01*
X4862Y272D01*
X4787Y535D01*
X4487Y291D02*
X4524Y272D01*
X4599Y272D01*
X4637Y291D01*
X4656Y328D01*
X4656Y478D01*
X4637Y516D01*
X4599Y535D01*
X4524Y535D01*
X4487Y516D01*
X4468Y478D01*
X4468Y441D01*
X4656Y403D01*
X4299Y272D02*
X4299Y535D01*
X4299Y460D02*
X4281Y497D01*
X4262Y516D01*
X4224Y535D01*
X4187Y535D01*
X4074Y291D02*
X4037Y272D01*
X3962Y272D01*
X3925Y291D01*
X3906Y328D01*
X3906Y347D01*
X3925Y385D01*
X3962Y403D01*
X4018Y403D01*
X4056Y422D01*
X4074Y460D01*
X4074Y478D01*
X4056Y516D01*
X4018Y535D01*
X3962Y535D01*
X3925Y516D01*
G54D12*
X5909Y16122D02*
X5934Y16134D01*
X5982Y16134D01*
X6007Y16122D01*
X6031Y16097D01*
X6043Y16073D01*
X6043Y16024D01*
X6031Y16000D01*
X6007Y15975D01*
X5982Y15963D01*
X5934Y15963D01*
X5909Y15975D01*
X5958Y16219D02*
X6019Y16207D01*
X6080Y16170D01*
X6116Y16109D01*
X6128Y16048D01*
X6116Y15987D01*
X6080Y15927D01*
X6019Y15890D01*
X5958Y15878D01*
X5897Y15890D01*
X5836Y15927D01*
X5799Y15987D01*
X5787Y16048D01*
X5799Y16109D01*
X5836Y16170D01*
X5897Y16207D01*
X5958Y16219D01*
X5678Y15927D02*
X5678Y16182D01*
X5592Y16000D01*
X5507Y16182D01*
X5507Y15927D01*
X5373Y15927D02*
X5324Y15927D01*
X5300Y15939D01*
X5288Y15951D01*
X5263Y15987D01*
X5251Y16036D01*
X5251Y16134D01*
X5263Y16158D01*
X5275Y16170D01*
X5300Y16182D01*
X5349Y16182D01*
X5373Y16170D01*
X5385Y16158D01*
X5397Y16134D01*
X5397Y16073D01*
X5385Y16048D01*
X5373Y16036D01*
X5349Y16024D01*
X5300Y16024D01*
X5275Y16036D01*
X5263Y16048D01*
X5251Y16073D01*
X5141Y15927D02*
X5141Y16182D01*
X5080Y16182D01*
X5044Y16170D01*
X5020Y16146D01*
X5007Y16122D01*
X4995Y16073D01*
X4995Y16036D01*
X5007Y15987D01*
X5020Y15963D01*
X5044Y15939D01*
X5080Y15927D01*
X5141Y15927D01*
X4788Y15939D02*
X4812Y15927D01*
X4861Y15927D01*
X4886Y15939D01*
X4898Y15963D01*
X4898Y16061D01*
X4886Y16085D01*
X4861Y16097D01*
X4812Y16097D01*
X4788Y16085D01*
X4776Y16061D01*
X4776Y16036D01*
X4898Y16012D01*
X4678Y15939D02*
X4654Y15927D01*
X4605Y15927D01*
X4581Y15939D01*
X4569Y15963D01*
X4569Y15975D01*
X4581Y16000D01*
X4605Y16012D01*
X4642Y16012D01*
X4666Y16024D01*
X4678Y16048D01*
X4678Y16061D01*
X4666Y16085D01*
X4642Y16097D01*
X4605Y16097D01*
X4581Y16085D01*
X4459Y15927D02*
X4459Y16097D01*
X4459Y16182D02*
X4471Y16170D01*
X4459Y16158D01*
X4447Y16170D01*
X4459Y16182D01*
X4459Y16158D01*
X4227Y16097D02*
X4227Y15890D01*
X4240Y15866D01*
X4252Y15853D01*
X4276Y15841D01*
X4313Y15841D01*
X4337Y15853D01*
X4227Y15939D02*
X4252Y15927D01*
X4301Y15927D01*
X4325Y15939D01*
X4337Y15951D01*
X4349Y15975D01*
X4349Y16048D01*
X4337Y16073D01*
X4325Y16085D01*
X4301Y16097D01*
X4252Y16097D01*
X4227Y16085D01*
X4106Y16097D02*
X4106Y15927D01*
X4106Y16073D02*
X4093Y16085D01*
X4069Y16097D01*
X4032Y16097D01*
X4008Y16085D01*
X3996Y16061D01*
X3996Y15927D01*
X3874Y15951D02*
X3862Y15939D01*
X3874Y15927D01*
X3886Y15939D01*
X3874Y15951D01*
X3874Y15927D01*
X3643Y15939D02*
X3667Y15927D01*
X3716Y15927D01*
X3740Y15939D01*
X3752Y15951D01*
X3764Y15975D01*
X3764Y16048D01*
X3752Y16073D01*
X3740Y16085D01*
X3716Y16097D01*
X3667Y16097D01*
X3643Y16085D01*
X3496Y15927D02*
X3521Y15939D01*
X3533Y15951D01*
X3545Y15975D01*
X3545Y16048D01*
X3533Y16073D01*
X3521Y16085D01*
X3496Y16097D01*
X3460Y16097D01*
X3435Y16085D01*
X3423Y16073D01*
X3411Y16048D01*
X3411Y15975D01*
X3423Y15951D01*
X3435Y15939D01*
X3460Y15927D01*
X3496Y15927D01*
X3119Y16158D02*
X3106Y16170D01*
X3082Y16182D01*
X3021Y16182D01*
X2997Y16170D01*
X2985Y16158D01*
X2972Y16134D01*
X2972Y16109D01*
X2985Y16073D01*
X3131Y15927D01*
X2972Y15927D01*
X2814Y16182D02*
X2790Y16182D01*
X2765Y16170D01*
X2753Y16158D01*
X2741Y16134D01*
X2729Y16085D01*
X2729Y16024D01*
X2741Y15975D01*
X2753Y15951D01*
X2765Y15939D01*
X2790Y15927D01*
X2814Y15927D01*
X2838Y15939D01*
X2850Y15951D01*
X2863Y15975D01*
X2875Y16024D01*
X2875Y16085D01*
X2863Y16134D01*
X2850Y16158D01*
X2838Y16170D01*
X2814Y16182D01*
X2485Y15927D02*
X2631Y15927D01*
X2558Y15927D02*
X2558Y16182D01*
X2582Y16146D01*
X2607Y16122D01*
X2631Y16109D01*
X2400Y16182D02*
X2241Y16182D01*
X2326Y16085D01*
X2290Y16085D01*
X2266Y16073D01*
X2253Y16061D01*
X2241Y16036D01*
X2241Y15975D01*
X2253Y15951D01*
X2266Y15939D01*
X2290Y15927D01*
X2363Y15927D01*
X2387Y15939D01*
X2400Y15951D01*
X4800Y15760D02*
X4751Y15760D01*
X4727Y15748D01*
X4703Y15724D01*
X4691Y15675D01*
X4691Y15590D01*
X4703Y15541D01*
X4727Y15516D01*
X4751Y15504D01*
X4800Y15504D01*
X4825Y15516D01*
X4849Y15541D01*
X4861Y15590D01*
X4861Y15675D01*
X4849Y15724D01*
X4825Y15748D01*
X4800Y15760D01*
X4581Y15675D02*
X4581Y15419D01*
X4581Y15663D02*
X4556Y15675D01*
X4508Y15675D01*
X4483Y15663D01*
X4471Y15651D01*
X4459Y15626D01*
X4459Y15553D01*
X4471Y15529D01*
X4483Y15516D01*
X4508Y15504D01*
X4556Y15504D01*
X4581Y15516D01*
X4252Y15516D02*
X4276Y15504D01*
X4325Y15504D01*
X4349Y15516D01*
X4362Y15541D01*
X4362Y15638D01*
X4349Y15663D01*
X4325Y15675D01*
X4276Y15675D01*
X4252Y15663D01*
X4240Y15638D01*
X4240Y15614D01*
X4362Y15590D01*
X4130Y15675D02*
X4130Y15504D01*
X4130Y15651D02*
X4118Y15663D01*
X4093Y15675D01*
X4057Y15675D01*
X4032Y15663D01*
X4020Y15638D01*
X4020Y15504D01*
X3898Y15504D02*
X3898Y15760D01*
X3898Y15638D02*
X3752Y15638D01*
X3752Y15504D02*
X3752Y15760D01*
X3521Y15504D02*
X3521Y15638D01*
X3533Y15663D01*
X3557Y15675D01*
X3606Y15675D01*
X3630Y15663D01*
X3521Y15516D02*
X3545Y15504D01*
X3606Y15504D01*
X3630Y15516D01*
X3643Y15541D01*
X3643Y15565D01*
X3630Y15590D01*
X3606Y15602D01*
X3545Y15602D01*
X3521Y15614D01*
X3399Y15504D02*
X3399Y15675D01*
X3399Y15626D02*
X3387Y15651D01*
X3374Y15663D01*
X3350Y15675D01*
X3326Y15675D01*
X3131Y15504D02*
X3131Y15760D01*
X3131Y15516D02*
X3155Y15504D01*
X3204Y15504D01*
X3228Y15516D01*
X3240Y15529D01*
X3253Y15553D01*
X3253Y15626D01*
X3240Y15651D01*
X3228Y15663D01*
X3204Y15675D01*
X3155Y15675D01*
X3131Y15663D01*
X3033Y15675D02*
X2985Y15504D01*
X2936Y15626D01*
X2887Y15504D01*
X2838Y15675D01*
X2631Y15504D02*
X2631Y15638D01*
X2643Y15663D01*
X2668Y15675D01*
X2716Y15675D01*
X2741Y15663D01*
X2631Y15516D02*
X2655Y15504D01*
X2716Y15504D01*
X2741Y15516D01*
X2753Y15541D01*
X2753Y15565D01*
X2741Y15590D01*
X2716Y15602D01*
X2655Y15602D01*
X2631Y15614D01*
X2509Y15504D02*
X2509Y15675D01*
X2509Y15626D02*
X2497Y15651D01*
X2485Y15663D01*
X2461Y15675D01*
X2436Y15675D01*
X2253Y15516D02*
X2278Y15504D01*
X2326Y15504D01*
X2351Y15516D01*
X2363Y15541D01*
X2363Y15638D01*
X2351Y15663D01*
X2326Y15675D01*
X2278Y15675D01*
X2253Y15663D01*
X2241Y15638D01*
X2241Y15614D01*
X2363Y15590D01*
X5300Y15338D02*
X5300Y15131D01*
X5288Y15106D01*
X5275Y15094D01*
X5251Y15082D01*
X5202Y15082D01*
X5178Y15094D01*
X5166Y15106D01*
X5154Y15131D01*
X5154Y15338D01*
X5032Y15253D02*
X5032Y15082D01*
X5032Y15228D02*
X5020Y15240D01*
X4995Y15253D01*
X4959Y15253D01*
X4934Y15240D01*
X4922Y15216D01*
X4922Y15082D01*
X4691Y15082D02*
X4691Y15338D01*
X4691Y15094D02*
X4715Y15082D01*
X4764Y15082D01*
X4788Y15094D01*
X4800Y15106D01*
X4812Y15131D01*
X4812Y15204D01*
X4800Y15228D01*
X4788Y15240D01*
X4764Y15253D01*
X4715Y15253D01*
X4691Y15240D01*
X4471Y15094D02*
X4496Y15082D01*
X4544Y15082D01*
X4569Y15094D01*
X4581Y15119D01*
X4581Y15216D01*
X4569Y15240D01*
X4544Y15253D01*
X4496Y15253D01*
X4471Y15240D01*
X4459Y15216D01*
X4459Y15192D01*
X4581Y15167D01*
X4349Y15082D02*
X4349Y15253D01*
X4349Y15204D02*
X4337Y15228D01*
X4325Y15240D01*
X4301Y15253D01*
X4276Y15253D01*
X4032Y15338D02*
X3886Y15338D01*
X3959Y15082D02*
X3959Y15338D01*
X3813Y15155D02*
X3691Y15155D01*
X3838Y15082D02*
X3752Y15338D01*
X3667Y15082D01*
X3582Y15082D02*
X3582Y15338D01*
X3484Y15338D01*
X3460Y15326D01*
X3448Y15314D01*
X3435Y15289D01*
X3435Y15253D01*
X3448Y15228D01*
X3460Y15216D01*
X3484Y15204D01*
X3582Y15204D01*
X3179Y15082D02*
X3265Y15204D01*
X3326Y15082D02*
X3326Y15338D01*
X3228Y15338D01*
X3204Y15326D01*
X3192Y15314D01*
X3179Y15289D01*
X3179Y15253D01*
X3192Y15228D01*
X3204Y15216D01*
X3228Y15204D01*
X3326Y15204D01*
X2826Y15338D02*
X2777Y15338D01*
X2753Y15326D01*
X2729Y15301D01*
X2716Y15253D01*
X2716Y15167D01*
X2729Y15119D01*
X2753Y15094D01*
X2777Y15082D01*
X2826Y15082D01*
X2850Y15094D01*
X2875Y15119D01*
X2887Y15167D01*
X2887Y15253D01*
X2875Y15301D01*
X2850Y15326D01*
X2826Y15338D01*
X2607Y15082D02*
X2607Y15338D01*
X2607Y15216D02*
X2461Y15216D01*
X2461Y15082D02*
X2461Y15338D01*
X2217Y15082D02*
X2339Y15082D01*
X2339Y15338D01*
X4691Y14830D02*
X4593Y14830D01*
X4654Y14916D02*
X4654Y14696D01*
X4642Y14672D01*
X4617Y14660D01*
X4593Y14660D01*
X4398Y14660D02*
X4398Y14794D01*
X4410Y14818D01*
X4435Y14830D01*
X4483Y14830D01*
X4508Y14818D01*
X4398Y14672D02*
X4422Y14660D01*
X4483Y14660D01*
X4508Y14672D01*
X4520Y14696D01*
X4520Y14721D01*
X4508Y14745D01*
X4483Y14757D01*
X4422Y14757D01*
X4398Y14769D01*
X4276Y14830D02*
X4276Y14575D01*
X4276Y14818D02*
X4252Y14830D01*
X4203Y14830D01*
X4179Y14818D01*
X4167Y14806D01*
X4154Y14782D01*
X4154Y14709D01*
X4167Y14684D01*
X4179Y14672D01*
X4203Y14660D01*
X4252Y14660D01*
X4276Y14672D01*
X4045Y14660D02*
X4045Y14830D01*
X4045Y14782D02*
X4032Y14806D01*
X4020Y14818D01*
X3996Y14830D01*
X3972Y14830D01*
X3886Y14684D02*
X3874Y14672D01*
X3886Y14660D01*
X3898Y14672D01*
X3886Y14684D01*
X3886Y14660D01*
X3728Y14660D02*
X3752Y14672D01*
X3764Y14684D01*
X3777Y14709D01*
X3777Y14782D01*
X3764Y14806D01*
X3752Y14818D01*
X3728Y14830D01*
X3691Y14830D01*
X3667Y14818D01*
X3655Y14806D01*
X3643Y14782D01*
X3643Y14709D01*
X3655Y14684D01*
X3667Y14672D01*
X3691Y14660D01*
X3728Y14660D01*
X3533Y14660D02*
X3533Y14830D01*
X3533Y14782D02*
X3521Y14806D01*
X3508Y14818D01*
X3484Y14830D01*
X3460Y14830D01*
X3265Y14830D02*
X3265Y14623D01*
X3277Y14599D01*
X3289Y14587D01*
X3314Y14575D01*
X3350Y14575D01*
X3374Y14587D01*
X3265Y14672D02*
X3289Y14660D01*
X3338Y14660D01*
X3362Y14672D01*
X3374Y14684D01*
X3387Y14709D01*
X3387Y14782D01*
X3374Y14806D01*
X3362Y14818D01*
X3338Y14830D01*
X3289Y14830D01*
X3265Y14818D01*
X2960Y14928D02*
X3179Y14599D01*
X2826Y14916D02*
X2777Y14916D01*
X2753Y14904D01*
X2729Y14879D01*
X2716Y14830D01*
X2716Y14745D01*
X2729Y14696D01*
X2753Y14672D01*
X2777Y14660D01*
X2826Y14660D01*
X2850Y14672D01*
X2875Y14696D01*
X2887Y14745D01*
X2887Y14830D01*
X2875Y14879D01*
X2850Y14904D01*
X2826Y14916D01*
X2607Y14660D02*
X2607Y14916D01*
X2607Y14794D02*
X2461Y14794D01*
X2461Y14660D02*
X2461Y14916D01*
X2217Y14660D02*
X2339Y14660D01*
X2339Y14916D01*
G54D10*
X968Y6864D02*
X968Y13852D01*
X10968Y6864D02*
X10968Y13852D01*
X2031Y14462D02*
X9905Y14462D01*
X2031Y14462D02*
X968Y13852D01*
X9905Y14462D02*
X10968Y13852D01*
X10791Y9640D02*
G75*
G03X10791Y9640I-4822J0D01*
G74*
G01*
X10968Y6864D02*
X968Y6864D01*
X968Y6864D02*
X968Y10663D01*
G54D13*
G36*
X6918Y3276D02*
X6010Y3267D01*
X5102Y3257D01*
X5092Y2266D01*
X5083Y1275D01*
X5075Y2283D01*
X5068Y3291D01*
X5993Y3284D01*
X6918Y3276D01*
X6918Y3276D01*
X6918Y3276D01*
G37*
G36*
X6201Y1325D02*
X6169Y1311D01*
X6076Y1300D01*
X5930Y1294D01*
X5739Y1291D01*
X5553Y1292D01*
X5422Y1296D01*
X5334Y1303D01*
X5277Y1316D01*
X5240Y1337D01*
X5218Y1358D01*
X5185Y1399D01*
X5188Y1427D01*
X5235Y1458D01*
X5309Y1491D01*
X5423Y1534D01*
X5534Y1564D01*
X5568Y1570D01*
X5652Y1593D01*
X5705Y1634D01*
X5706Y1635D01*
X5752Y1669D01*
X5805Y1661D01*
X5834Y1618D01*
X5834Y1613D01*
X5860Y1572D01*
X5923Y1515D01*
X5951Y1496D01*
X6023Y1440D01*
X6064Y1397D01*
X6068Y1387D01*
X6095Y1364D01*
X6134Y1358D01*
X6188Y1344D01*
X6201Y1325D01*
X6201Y1325D01*
X6201Y1325D01*
G37*
G36*
X6660Y2124D02*
X6650Y1968D01*
X6633Y1869D01*
X6633Y2310D01*
X6633Y2367D01*
X6609Y2391D01*
X6558Y2374D01*
X6486Y2331D01*
X6416Y2280D01*
X6372Y2237D01*
X6368Y2225D01*
X6396Y2201D01*
X6464Y2192D01*
X6545Y2201D01*
X6581Y2212D01*
X6615Y2248D01*
X6633Y2310D01*
X6633Y1869D01*
X6627Y1834D01*
X6599Y1756D01*
X6563Y1699D01*
X6563Y1913D01*
X6545Y1960D01*
X6493Y1995D01*
X6442Y2020D01*
X6440Y2010D01*
X6481Y1963D01*
X6515Y1913D01*
X6508Y1892D01*
X6507Y1891D01*
X6467Y1865D01*
X6422Y1799D01*
X6418Y1792D01*
X6390Y1734D01*
X6390Y1841D01*
X6369Y1886D01*
X6350Y1891D01*
X6306Y1918D01*
X6281Y1957D01*
X6245Y2002D01*
X6243Y2002D01*
X6243Y2227D01*
X6236Y2254D01*
X6193Y2282D01*
X6114Y2304D01*
X6020Y2318D01*
X5935Y2322D01*
X5878Y2313D01*
X5868Y2300D01*
X5896Y2281D01*
X5959Y2280D01*
X6051Y2293D01*
X5968Y2255D01*
X5911Y2227D01*
X5913Y2208D01*
X5951Y2190D01*
X6025Y2164D01*
X6061Y2170D01*
X6079Y2200D01*
X6103Y2223D01*
X6123Y2204D01*
X6168Y2180D01*
X6217Y2192D01*
X6243Y2227D01*
X6243Y2002D01*
X6201Y1990D01*
X6174Y1961D01*
X6195Y1926D01*
X6233Y1894D01*
X6315Y1831D01*
X6216Y1816D01*
X6166Y1807D01*
X6174Y1801D01*
X6245Y1797D01*
X6254Y1796D01*
X6346Y1800D01*
X6386Y1823D01*
X6390Y1841D01*
X6390Y1734D01*
X6387Y1727D01*
X6389Y1706D01*
X6417Y1713D01*
X6462Y1752D01*
X6468Y1774D01*
X6491Y1830D01*
X6518Y1858D01*
X6563Y1913D01*
X6563Y1699D01*
X6494Y1587D01*
X6382Y1479D01*
X6265Y1435D01*
X6220Y1442D01*
X6220Y1704D01*
X6181Y1730D01*
X6176Y1732D01*
X6118Y1776D01*
X6101Y1813D01*
X6074Y1853D01*
X6051Y1858D01*
X6006Y1847D01*
X6001Y1837D01*
X6027Y1794D01*
X6087Y1744D01*
X6156Y1704D01*
X6198Y1694D01*
X6220Y1704D01*
X6220Y1442D01*
X6201Y1444D01*
X6201Y1641D01*
X6184Y1658D01*
X6168Y1641D01*
X6184Y1625D01*
X6201Y1641D01*
X6201Y1444D01*
X6168Y1448D01*
X6000Y1523D01*
X5886Y1612D01*
X5817Y1728D01*
X5787Y1884D01*
X5785Y2058D01*
X5795Y2308D01*
X5965Y2461D01*
X6079Y2554D01*
X6182Y2610D01*
X6301Y2644D01*
X6324Y2648D01*
X6436Y2665D01*
X6505Y2664D01*
X6553Y2643D01*
X6580Y2620D01*
X6618Y2550D01*
X6643Y2433D01*
X6658Y2285D01*
X6660Y2124D01*
X6660Y2124D01*
X6660Y2124D01*
G37*
G36*
X6695Y1710D02*
X6689Y1683D01*
X6678Y1681D01*
X6674Y1734D01*
X6674Y1741D01*
X6679Y1793D01*
X6689Y1788D01*
X6691Y1783D01*
X6695Y1710D01*
X6695Y1710D01*
X6695Y1710D01*
G37*
G36*
X5426Y2328D02*
X5425Y2232D01*
X5418Y2166D01*
X5398Y2025D01*
X5376Y1944D01*
X5346Y1918D01*
X5305Y1939D01*
X5278Y1966D01*
X5217Y2064D01*
X5173Y2188D01*
X5154Y2313D01*
X5165Y2414D01*
X5174Y2434D01*
X5202Y2507D01*
X5206Y2550D01*
X5213Y2590D01*
X5251Y2586D01*
X5306Y2544D01*
X5363Y2476D01*
X5407Y2400D01*
X5426Y2328D01*
X5426Y2328D01*
X5426Y2328D01*
G37*
G36*
X5634Y2108D02*
X5618Y2091D01*
X5601Y2108D01*
X5618Y2125D01*
X5634Y2108D01*
X5634Y2108D01*
X5634Y2108D01*
G37*
G36*
X6234Y1941D02*
X6218Y1925D01*
X6201Y1941D01*
X6218Y1958D01*
X6234Y1941D01*
X6234Y1941D01*
X6234Y1941D01*
G37*
G36*
X6590Y2314D02*
X6585Y2294D01*
X6568Y2291D01*
X6540Y2304D01*
X6545Y2314D01*
X6585Y2318D01*
X6590Y2314D01*
X6590Y2314D01*
X6590Y2314D01*
G37*
G54D10*
X8464Y5578D02*
X8464Y6071D01*
X8183Y5578D01*
X8183Y6071D01*
X7761Y5602D02*
X7808Y5578D01*
X7901Y5578D01*
X7948Y5602D01*
X7972Y5649D01*
X7972Y5836D01*
X7948Y5883D01*
X7901Y5907D01*
X7808Y5907D01*
X7761Y5883D01*
X7737Y5836D01*
X7737Y5789D01*
X7972Y5742D01*
X7315Y5907D02*
X7315Y5508D01*
X7339Y5461D01*
X7362Y5438D01*
X7409Y5414D01*
X7480Y5414D01*
X7526Y5438D01*
X7315Y5602D02*
X7362Y5578D01*
X7456Y5578D01*
X7503Y5602D01*
X7526Y5625D01*
X7550Y5672D01*
X7550Y5813D01*
X7526Y5860D01*
X7503Y5883D01*
X7456Y5907D01*
X7362Y5907D01*
X7315Y5883D01*
X7081Y5625D02*
X7058Y5602D01*
X7081Y5578D01*
X7105Y5602D01*
X7081Y5625D01*
X7081Y5578D01*
X6542Y5907D02*
X6355Y5907D01*
X6472Y6071D02*
X6472Y5649D01*
X6448Y5602D01*
X6402Y5578D01*
X6355Y5578D01*
X6120Y5578D02*
X6167Y5602D01*
X6191Y5625D01*
X6214Y5672D01*
X6214Y5813D01*
X6191Y5860D01*
X6167Y5883D01*
X6120Y5907D01*
X6050Y5907D01*
X6003Y5883D01*
X5980Y5860D01*
X5956Y5813D01*
X5956Y5672D01*
X5980Y5625D01*
X6003Y5602D01*
X6050Y5578D01*
X6120Y5578D01*
X5206Y5836D02*
X5136Y5813D01*
X5113Y5789D01*
X5089Y5742D01*
X5089Y5672D01*
X5113Y5625D01*
X5136Y5602D01*
X5183Y5578D01*
X5370Y5578D01*
X5370Y6071D01*
X5206Y6071D01*
X5160Y6047D01*
X5136Y6024D01*
X5113Y5977D01*
X5113Y5930D01*
X5136Y5883D01*
X5160Y5860D01*
X5206Y5836D01*
X5370Y5836D01*
X4808Y5578D02*
X4855Y5602D01*
X4878Y5625D01*
X4902Y5672D01*
X4902Y5813D01*
X4878Y5860D01*
X4855Y5883D01*
X4808Y5907D01*
X4738Y5907D01*
X4691Y5883D01*
X4667Y5860D01*
X4644Y5813D01*
X4644Y5672D01*
X4667Y5625D01*
X4691Y5602D01*
X4738Y5578D01*
X4808Y5578D01*
X4222Y5578D02*
X4222Y5836D01*
X4246Y5883D01*
X4292Y5907D01*
X4386Y5907D01*
X4433Y5883D01*
X4222Y5602D02*
X4269Y5578D01*
X4386Y5578D01*
X4433Y5602D01*
X4456Y5649D01*
X4456Y5696D01*
X4433Y5742D01*
X4386Y5766D01*
X4269Y5766D01*
X4222Y5789D01*
X3988Y5578D02*
X3988Y5907D01*
X3988Y5813D02*
X3964Y5860D01*
X3941Y5883D01*
X3894Y5907D01*
X3847Y5907D01*
X3472Y5578D02*
X3472Y6071D01*
X3472Y5602D02*
X3519Y5578D01*
X3613Y5578D01*
X3660Y5602D01*
X3683Y5625D01*
X3707Y5672D01*
X3707Y5813D01*
X3683Y5860D01*
X3660Y5883D01*
X3613Y5907D01*
X3519Y5907D01*
X3472Y5883D01*
M02*
