M48
;DRILL file {Pcbnew (2013-mar-13)-testing} date Tue 15 Oct 2013 01:29:39 EST
;FORMAT={-:-/ absolute / metric / decimal}
FMAT,2
METRIC,TZ
T1C0.635
T2C1.016
T3C2.000
T4C3.000
%
G90
G05
M71
T1
X3.39Y32.22
X4.13Y24.14
X4.27Y29.5
X5.174Y33.901
X8.015Y24.962
X8.08Y33.07
X9.82Y32.14
X9.99Y18.89
X10.772Y35.839
X10.977Y34.529
X11.859Y38.054
X13.34Y30.96
X13.849Y22.276
X13.972Y18.898
X15.16Y35.184
X16.02Y33.07
X16.492Y23.808
X16.924Y35.219
X18.706Y25.121
X19.11Y38.31
X20.79Y32.8
X22.314Y25.357
X23.521Y36.776
X25.84Y27.92
T2
X13.89Y42.95
X16.43Y42.95
T3
X2.21Y27.086
X28.11Y27.086
T4
X2.66Y41.23
X2.66Y15.23
X27.66Y41.23
X27.66Y15.23
T0
M30
