%FSLAX34Y34*%
G04 Gerber Fmt 3.4, Leading zero omitted, Abs format*
G04 (created by PCBNEW (2013-12-14 BZR 4555)-product) date Fri 28 Feb 2014 10:41:18 EST*
%MOIN*%
G01*
G70*
G90*
G04 APERTURE LIST*
%ADD10C,0.005906*%
%ADD11R,0.076000X0.076000*%
%ADD12C,0.076000*%
%ADD13R,0.075055X0.141984*%
%ADD14R,0.041000X0.061000*%
%ADD15R,0.061000X0.041000*%
%ADD16C,0.116000*%
%ADD17R,0.114425X0.082929*%
%ADD18R,0.106157X0.051039*%
%ADD19R,0.047496X0.047496*%
%ADD20C,0.134110*%
%ADD21R,0.047500X0.055400*%
%ADD22R,0.024000X0.075055*%
%ADD23C,0.045134*%
%ADD24R,0.066000X0.066000*%
%ADD25C,0.066000*%
%ADD26R,0.055370X0.141984*%
%ADD27R,0.066000X0.032000*%
%ADD28R,0.062000X0.032500*%
%ADD29R,0.098000X0.126000*%
%ADD30R,0.078992X0.307732*%
%ADD31R,0.055370X0.268362*%
G04 APERTURE END LIST*
G54D10*
G54D11*
X8633Y16866D03*
G54D12*
X7633Y16866D03*
G54D13*
X6795Y5645D03*
X5141Y5645D03*
G54D14*
X7770Y8838D03*
X8370Y8838D03*
X4166Y8838D03*
X3566Y8838D03*
X3566Y9448D03*
X4166Y9448D03*
X8370Y7618D03*
X7770Y7618D03*
X3566Y7618D03*
X4166Y7618D03*
G54D15*
X7444Y5945D03*
X7444Y5345D03*
X4472Y5945D03*
X4472Y5345D03*
G54D14*
X4166Y8228D03*
X3566Y8228D03*
X7770Y8228D03*
X8370Y8228D03*
X6268Y16078D03*
X5668Y16078D03*
G54D16*
X11066Y10663D03*
X870Y10663D03*
G54D17*
X5200Y10744D03*
X6775Y10744D03*
G54D18*
X637Y14600D03*
X2637Y13813D03*
X637Y13025D03*
X2637Y12238D03*
X637Y11451D03*
X2637Y10663D03*
X637Y9876D03*
X2637Y9088D03*
X637Y8301D03*
X2637Y7514D03*
X9300Y7514D03*
X11300Y8301D03*
X9300Y9088D03*
X11300Y9876D03*
X9300Y10663D03*
X11300Y11451D03*
X9300Y12238D03*
X11300Y13025D03*
X9300Y13813D03*
X11300Y14600D03*
G54D19*
X3940Y5350D03*
X3940Y5940D03*
X7996Y5338D03*
X7996Y5929D03*
X5968Y17161D03*
X5968Y16570D03*
G54D15*
X8897Y5345D03*
X8897Y5945D03*
X9537Y5345D03*
X9537Y5945D03*
G54D20*
X1047Y5996D03*
X1047Y16232D03*
X10889Y16232D03*
G54D14*
X8370Y9448D03*
X7770Y9448D03*
G54D21*
X3803Y11098D03*
X4178Y10232D03*
X3428Y10232D03*
X8122Y12948D03*
X7747Y13814D03*
X8497Y13814D03*
X8133Y11098D03*
X8508Y10232D03*
X7758Y10232D03*
X5968Y12948D03*
X5593Y13814D03*
X6343Y13814D03*
X3803Y12948D03*
X3428Y13814D03*
X4178Y13814D03*
G54D22*
X11314Y7570D03*
X11300Y12228D03*
X11300Y13807D03*
G54D23*
X3803Y15287D03*
X637Y9088D03*
X11300Y9088D03*
G54D11*
X8133Y15094D03*
G54D12*
X3318Y5409D03*
X2318Y5409D03*
X2637Y14787D03*
X2637Y15787D03*
G54D24*
X3409Y16866D03*
G54D25*
X4196Y16866D03*
G54D26*
X7169Y14858D03*
X4767Y14858D03*
G54D27*
X4918Y9495D03*
X4918Y9245D03*
X4918Y8995D03*
X4918Y8745D03*
X4918Y8495D03*
X4918Y8245D03*
X4918Y7995D03*
X4918Y7745D03*
X4918Y7495D03*
X4918Y7245D03*
X7018Y7245D03*
X7018Y7495D03*
X7018Y7745D03*
X7018Y7995D03*
X7018Y8245D03*
X7018Y8495D03*
X7018Y8745D03*
X7018Y8995D03*
X7018Y9245D03*
X7018Y9495D03*
G54D20*
X10889Y5996D03*
G54D28*
X5181Y12429D03*
X5181Y12173D03*
X5181Y11913D03*
X5181Y11657D03*
X6755Y11657D03*
X6755Y11913D03*
X6755Y12173D03*
X6755Y12429D03*
G54D29*
X5968Y12043D03*
G54D30*
X4590Y1966D03*
X7346Y1966D03*
G54D31*
X5575Y2163D03*
X6362Y2163D03*
M02*
