G04 (created by PCBNEW (2013-mar-13)-testing) date Sun 15 Sep 2013 23:58:05 EST*
%MOIN*%
G04 Gerber Fmt 3.4, Leading zero omitted, Abs format*
%FSLAX34Y34*%
G01*
G70*
G90*
G04 APERTURE LIST*
%ADD10C,0.005906*%
%ADD11R,0.100000X0.050000*%
%ADD12R,0.060000X0.060000*%
%ADD13C,0.060000*%
%ADD14R,0.050000X0.016000*%
%ADD15R,0.046000X0.016500*%
%ADD16R,0.082000X0.110000*%
%ADD17R,0.125984X0.059055*%
%ADD18R,0.090157X0.035039*%
%ADD19R,0.078740X0.059055*%
%ADD20R,0.035000X0.016535*%
%ADD21R,0.045000X0.025000*%
%ADD22R,0.031496X0.031496*%
%ADD23R,0.031500X0.039400*%
%ADD24C,0.100000*%
%ADD25R,0.062992X0.291732*%
%ADD26R,0.039370X0.252362*%
%ADD27C,0.035000*%
%ADD28C,0.012000*%
%ADD29C,0.010000*%
G04 APERTURE END LIST*
G54D10*
G54D11*
X9102Y8407D03*
X9102Y7207D03*
G54D12*
X6445Y15448D03*
G54D13*
X5445Y15448D03*
G54D14*
X4895Y7858D03*
X4895Y7608D03*
X4895Y7348D03*
X4895Y7088D03*
X4895Y6838D03*
X4895Y6578D03*
X4895Y6318D03*
X4895Y6068D03*
X4895Y5808D03*
X4895Y5558D03*
X6995Y5558D03*
X6995Y5808D03*
X6995Y6068D03*
X6995Y6318D03*
X6995Y6578D03*
X6995Y6838D03*
X6995Y7088D03*
X6995Y7348D03*
X6995Y7608D03*
X6995Y7858D03*
G54D15*
X6732Y8507D03*
X6732Y8763D03*
X6732Y9023D03*
X6732Y9279D03*
X5158Y9279D03*
X5158Y9023D03*
X5158Y8763D03*
X5158Y8507D03*
G54D16*
X5945Y8893D03*
G54D17*
X2948Y6070D03*
X2948Y7724D03*
G54D18*
X2614Y13305D03*
X614Y12518D03*
X2614Y11730D03*
X614Y10943D03*
X2614Y10155D03*
X2614Y8581D03*
X614Y7793D03*
X2614Y7006D03*
X614Y6218D03*
X11276Y13305D03*
X9276Y12518D03*
X11276Y11730D03*
X9276Y10943D03*
X11276Y10155D03*
X9276Y9368D03*
X9276Y7793D03*
X11276Y7006D03*
X9276Y6218D03*
G54D19*
X7952Y11476D03*
X7952Y9657D03*
X3937Y11472D03*
X3937Y9653D03*
G54D20*
X6750Y13450D03*
X6750Y13706D03*
X6750Y13962D03*
X6750Y14218D03*
X6750Y14474D03*
X6750Y14730D03*
X5140Y14730D03*
X5140Y14474D03*
X5140Y14218D03*
X5140Y13962D03*
X5140Y13706D03*
X5140Y13450D03*
G54D21*
X4539Y14689D03*
X4539Y14089D03*
X5295Y13028D03*
X5295Y12428D03*
X3240Y14689D03*
X3240Y14089D03*
X7350Y14089D03*
X7350Y14689D03*
X7248Y13028D03*
X7248Y12428D03*
X4645Y13028D03*
X4645Y12428D03*
X3937Y9036D03*
X3937Y8436D03*
G54D22*
X8324Y15173D03*
X8324Y15763D03*
X7675Y15173D03*
X7675Y15763D03*
X3889Y15763D03*
X3889Y15173D03*
G54D21*
X4200Y5961D03*
X4200Y5361D03*
X7669Y5361D03*
X7669Y5961D03*
X7952Y7008D03*
X7952Y6408D03*
X5945Y12428D03*
X5945Y13028D03*
X6594Y13028D03*
X6594Y12428D03*
X7952Y9032D03*
X7952Y8432D03*
X8649Y14089D03*
X8649Y14689D03*
X8000Y14089D03*
X8000Y14689D03*
X8318Y5957D03*
X8318Y5357D03*
X4200Y6408D03*
X4200Y7008D03*
X3889Y14089D03*
X3889Y14689D03*
G54D23*
X5945Y10716D03*
X6320Y9850D03*
X5570Y9850D03*
G54D24*
X846Y9000D03*
X11043Y9000D03*
G54D25*
X4567Y2049D03*
X7323Y2049D03*
G54D26*
X5551Y2246D03*
X6338Y2246D03*
G54D27*
X5426Y6315D03*
X6277Y5264D03*
X4200Y7416D03*
X727Y10418D03*
X867Y6929D03*
X5431Y5864D03*
X4679Y15473D03*
X2614Y10852D03*
X6445Y7738D03*
X1684Y8435D03*
X5422Y6965D03*
X1192Y11511D03*
X1429Y5960D03*
X7112Y12012D03*
X3213Y15276D03*
X5605Y13899D03*
X10217Y11253D03*
X7952Y8021D03*
X4452Y9000D03*
X6592Y10336D03*
X9877Y12091D03*
X7952Y7471D03*
X3432Y6945D03*
X7759Y12935D03*
X6234Y6988D03*
G54D28*
X2614Y13305D02*
X2702Y13305D01*
X2702Y13305D02*
X3215Y12792D01*
G54D29*
X3215Y11275D02*
X3215Y12792D01*
X5945Y10716D02*
X3774Y10716D01*
X3774Y10716D02*
X3215Y11275D01*
X4200Y7008D02*
X4134Y7008D01*
X1238Y5594D02*
X614Y6218D01*
X1657Y5594D02*
X1238Y5594D01*
X1921Y5858D02*
X1657Y5594D01*
X1921Y6389D02*
X1921Y5858D01*
X2122Y6590D02*
X1921Y6389D01*
X3716Y6590D02*
X2122Y6590D01*
X4134Y7008D02*
X3716Y6590D01*
G54D28*
X6445Y15448D02*
X6445Y15035D01*
X6445Y15035D02*
X6750Y14730D01*
G54D29*
X7248Y12428D02*
X7623Y12428D01*
X6594Y12428D02*
X7248Y12428D01*
X6594Y12428D02*
X6594Y12153D01*
X4895Y6578D02*
X5295Y6578D01*
X7323Y2049D02*
X7323Y3657D01*
X7350Y14689D02*
X7350Y14414D01*
X6934Y14730D02*
X6975Y14689D01*
X7350Y14689D02*
X6975Y14689D01*
X6750Y14730D02*
X6934Y14730D01*
X5945Y10153D02*
X5945Y9593D01*
X5945Y8893D02*
X5945Y9375D01*
X5945Y9375D02*
X5945Y9593D01*
X5633Y9375D02*
X5538Y9279D01*
X5945Y9375D02*
X5633Y9375D01*
X5158Y9279D02*
X5538Y9279D01*
X6445Y15448D02*
X6445Y14998D01*
X4200Y7008D02*
X4200Y7283D01*
X4200Y7283D02*
X4200Y7416D01*
X8912Y14414D02*
X7350Y14414D01*
X9039Y14288D02*
X8912Y14414D01*
X9039Y13733D02*
X9039Y14288D01*
X7878Y12573D02*
X9039Y13733D01*
X7768Y12573D02*
X7878Y12573D01*
X7623Y12428D02*
X7768Y12573D01*
X6750Y14730D02*
X6681Y14730D01*
X6681Y14730D02*
X6521Y14730D01*
X6750Y14474D02*
X6425Y14474D01*
X6521Y14730D02*
X6475Y14730D01*
X5140Y14730D02*
X5465Y14730D01*
X5495Y14760D02*
X6445Y14760D01*
X5465Y14730D02*
X5495Y14760D01*
X6475Y14730D02*
X6445Y14760D01*
X6445Y14760D02*
X6445Y14998D01*
X6425Y14634D02*
X6425Y14474D01*
X6521Y14730D02*
X6425Y14634D01*
X6425Y14474D02*
X6425Y13962D01*
X6750Y13962D02*
X6425Y13962D01*
X6995Y6838D02*
X6595Y6838D01*
X6255Y10442D02*
X6255Y11917D01*
X5966Y10153D02*
X6255Y10442D01*
X5945Y10153D02*
X5966Y10153D01*
X6359Y11917D02*
X6255Y11917D01*
X6594Y12153D02*
X6359Y11917D01*
X5530Y11917D02*
X5295Y12153D01*
X6255Y11917D02*
X5530Y11917D01*
X4539Y14089D02*
X3889Y14089D01*
X3889Y14089D02*
X3240Y14089D01*
X5295Y12428D02*
X5295Y12290D01*
X5295Y12290D02*
X5295Y12153D01*
X5158Y12290D02*
X5020Y12428D01*
X5295Y12290D02*
X5158Y12290D01*
X4645Y12428D02*
X5020Y12428D01*
X7323Y4513D02*
X7323Y3657D01*
X7388Y4513D02*
X7323Y4513D01*
X8231Y5357D02*
X7388Y4513D01*
X8318Y5357D02*
X8231Y5357D01*
X5295Y6446D02*
X5295Y6578D01*
X5426Y6315D02*
X5295Y6446D01*
X7028Y4513D02*
X6277Y5264D01*
X7323Y4513D02*
X7028Y4513D01*
X5594Y10481D02*
X2092Y10481D01*
X5922Y10153D02*
X5594Y10481D01*
X5945Y10153D02*
X5922Y10153D01*
X6595Y7097D02*
X6595Y6838D01*
X5824Y7867D02*
X6595Y7097D01*
X5454Y7867D02*
X5824Y7867D01*
X5047Y8275D02*
X5454Y7867D01*
X4678Y8275D02*
X5047Y8275D01*
X4241Y8711D02*
X4678Y8275D01*
X3431Y8711D02*
X4241Y8711D01*
X3206Y8936D02*
X3431Y8711D01*
X2995Y8936D02*
X3206Y8936D01*
X1997Y9934D02*
X2995Y8936D01*
X1997Y10385D02*
X1997Y9934D01*
X2092Y10481D02*
X1997Y10385D01*
X2548Y14089D02*
X3240Y14089D01*
X2013Y13554D02*
X2548Y14089D01*
X2013Y10561D02*
X2013Y13554D01*
X2092Y10481D02*
X2013Y10561D01*
X7429Y15783D02*
X7655Y15783D01*
X867Y6929D02*
X1229Y7290D01*
X1229Y7290D02*
X1229Y8044D01*
X1229Y8044D02*
X923Y8349D01*
X923Y8349D02*
X574Y8349D01*
X574Y8349D02*
X187Y8737D01*
X187Y8737D02*
X187Y9877D01*
X187Y9877D02*
X727Y10418D01*
X5431Y5864D02*
X5431Y5694D01*
X5431Y5694D02*
X5295Y5558D01*
X7429Y15783D02*
X7121Y15783D01*
X4895Y5558D02*
X5295Y5558D01*
X7121Y15783D02*
X7006Y15898D01*
X7006Y15898D02*
X5105Y15898D01*
X5105Y15898D02*
X4679Y15473D01*
X7655Y15783D02*
X7675Y15763D01*
G54D28*
X2614Y11730D02*
X2614Y10852D01*
G54D29*
X6995Y7858D02*
X6565Y7858D01*
X6565Y7858D02*
X6445Y7738D01*
X1433Y12300D02*
X1596Y12136D01*
G54D28*
X614Y12518D02*
X1214Y12518D01*
X1433Y12299D02*
X1433Y12300D01*
X1214Y12518D02*
X1433Y12299D01*
G54D29*
X1596Y12136D02*
X1596Y9733D01*
X1596Y9733D02*
X1708Y9621D01*
X1708Y9621D02*
X1708Y8460D01*
X1708Y8460D02*
X1684Y8435D01*
X5295Y7088D02*
X5299Y7088D01*
X5299Y7088D02*
X5422Y6965D01*
X4895Y7088D02*
X5295Y7088D01*
X8318Y5957D02*
X8318Y5682D01*
X7990Y5682D02*
X7669Y5361D01*
X8318Y5682D02*
X7990Y5682D01*
X7669Y5361D02*
X7669Y5086D01*
X6338Y2246D02*
X6338Y3657D01*
X5952Y4044D02*
X6338Y3657D01*
X5952Y5398D02*
X5952Y4044D01*
X6143Y5589D02*
X5952Y5398D01*
X6412Y5589D02*
X6143Y5589D01*
X6915Y5086D02*
X6412Y5589D01*
X7669Y5086D02*
X6915Y5086D01*
X4200Y6408D02*
X4200Y5961D01*
X5551Y2246D02*
X5551Y3657D01*
X4200Y5961D02*
X4200Y5686D01*
X3960Y5686D02*
X4200Y5686D01*
X3823Y5549D02*
X3960Y5686D01*
X3823Y5169D02*
X3823Y5549D01*
X4822Y4170D02*
X3823Y5169D01*
X5039Y4170D02*
X4822Y4170D01*
X5551Y3657D02*
X5039Y4170D01*
X4567Y2049D02*
X4567Y4137D01*
X3622Y5397D02*
X2948Y6070D01*
X3622Y5082D02*
X3622Y5397D01*
X4567Y4137D02*
X3622Y5082D01*
X4778Y9437D02*
X4778Y9023D01*
X5191Y9850D02*
X4778Y9437D01*
X5570Y9850D02*
X5191Y9850D01*
X5158Y9023D02*
X4778Y9023D01*
X7952Y9032D02*
X7952Y9657D01*
X8324Y15763D02*
X8326Y15763D01*
X9239Y14851D02*
X9239Y14693D01*
X8326Y15763D02*
X9239Y14851D01*
X6995Y7088D02*
X7395Y7088D01*
X7395Y7088D02*
X7395Y11827D01*
X7395Y11827D02*
X7941Y12373D01*
X7941Y12373D02*
X7969Y12373D01*
X7969Y12373D02*
X9239Y13642D01*
X9239Y13642D02*
X9239Y14693D01*
X7675Y15173D02*
X7675Y15014D01*
X7675Y15014D02*
X8000Y14689D01*
X3889Y14689D02*
X3889Y15173D01*
X4645Y13028D02*
X4645Y12890D01*
X3937Y12288D02*
X3937Y11472D01*
X4540Y12890D02*
X3937Y12288D01*
X4645Y12890D02*
X4540Y12890D01*
X4815Y13473D02*
X4645Y13303D01*
X4815Y13706D02*
X4815Y13473D01*
X5140Y13706D02*
X4815Y13706D01*
X4645Y13028D02*
X4645Y13303D01*
X4832Y12703D02*
X4645Y12890D01*
X5945Y12703D02*
X4832Y12703D01*
X5945Y12428D02*
X5945Y12703D01*
X7248Y13533D02*
X7075Y13706D01*
X7248Y13028D02*
X7248Y13533D01*
X6750Y13706D02*
X7075Y13706D01*
X1396Y11011D02*
X1396Y11174D01*
X1192Y11377D02*
X1192Y11511D01*
X1396Y11174D02*
X1192Y11377D01*
X6732Y9279D02*
X7112Y9279D01*
X7112Y9279D02*
X7112Y12012D01*
X1429Y6511D02*
X1429Y5960D01*
X1429Y8230D02*
X1429Y6511D01*
X1339Y8319D02*
X1429Y8230D01*
X1339Y8570D02*
X1339Y8319D01*
X1500Y8730D02*
X1339Y8570D01*
X1500Y9523D02*
X1500Y8730D01*
X1396Y9627D02*
X1500Y9523D01*
X1396Y11011D02*
X1396Y9627D01*
X3889Y15763D02*
X3586Y15763D01*
X3183Y15306D02*
X3160Y15283D01*
X3213Y15276D02*
X3183Y15306D01*
X3199Y15376D02*
X3586Y15763D01*
X3199Y15364D02*
X3199Y15376D01*
X3183Y15348D02*
X3199Y15364D01*
X3183Y15306D02*
X3183Y15348D01*
X3183Y15306D02*
X3183Y15306D01*
X5287Y13303D02*
X5140Y13450D01*
X5295Y13303D02*
X5287Y13303D01*
X5295Y13028D02*
X5295Y13303D01*
X9102Y7207D02*
X9752Y7207D01*
X10217Y7671D02*
X9752Y7207D01*
X10217Y11253D02*
X10217Y7671D01*
X5465Y14039D02*
X5605Y13899D01*
X5465Y14218D02*
X5465Y14039D01*
X5140Y14218D02*
X5465Y14218D01*
X7952Y8432D02*
X7952Y8021D01*
X6320Y9850D02*
X6320Y10197D01*
X6732Y8763D02*
X7112Y8763D01*
X7112Y8352D02*
X7112Y8763D01*
X6944Y8184D02*
X7112Y8352D01*
X5481Y8184D02*
X6944Y8184D01*
X5158Y8507D02*
X5481Y8184D01*
X4452Y9138D02*
X4452Y9000D01*
X3937Y9653D02*
X4452Y9138D01*
X4452Y8833D02*
X4778Y8507D01*
X4452Y9000D02*
X4452Y8833D01*
X5158Y8507D02*
X4778Y8507D01*
X6453Y10197D02*
X6320Y10197D01*
X6592Y10336D02*
X6453Y10197D01*
G54D28*
X5445Y15448D02*
X5298Y15448D01*
X5298Y15448D02*
X4539Y14689D01*
G54D29*
X9102Y8407D02*
X9752Y8407D01*
X9752Y8407D02*
X9877Y8531D01*
X9877Y8531D02*
X9877Y12091D01*
X4539Y14689D02*
X4647Y14689D01*
X4815Y14521D02*
X4647Y14689D01*
X4815Y14474D02*
X4815Y14521D01*
X5140Y14474D02*
X4815Y14474D01*
X8324Y15173D02*
X8324Y15014D01*
X8324Y15014D02*
X8649Y14689D01*
X4192Y8161D02*
X4495Y7858D01*
X3937Y8161D02*
X4192Y8161D01*
X3937Y8436D02*
X3937Y8161D01*
X4895Y7858D02*
X4495Y7858D01*
X7487Y6318D02*
X6995Y6318D01*
X7577Y6408D02*
X7487Y6318D01*
X7952Y6408D02*
X7577Y6408D01*
X6995Y5808D02*
X6595Y5808D01*
X4239Y5322D02*
X4200Y5361D01*
X5348Y5322D02*
X4239Y5322D01*
X5835Y5808D02*
X5348Y5322D01*
X6595Y5808D02*
X5835Y5808D01*
X6602Y13303D02*
X6750Y13450D01*
X6594Y13303D02*
X6602Y13303D01*
X6594Y13028D02*
X6594Y13165D01*
X6594Y13165D02*
X6594Y13303D01*
X6457Y13165D02*
X6320Y13028D01*
X6594Y13165D02*
X6457Y13165D01*
X5945Y13028D02*
X6320Y13028D01*
X7431Y5686D02*
X7669Y5686D01*
X7304Y5558D02*
X7431Y5686D01*
X6995Y5558D02*
X7304Y5558D01*
X7669Y5961D02*
X7669Y5686D01*
X3215Y9383D02*
X3215Y10155D01*
X3562Y9036D02*
X3215Y9383D01*
X3937Y9036D02*
X3562Y9036D01*
X2614Y10155D02*
X3215Y10155D01*
X7952Y11476D02*
X7952Y11030D01*
X3240Y14689D02*
X2865Y14689D01*
X2948Y7724D02*
X2168Y7724D01*
X3432Y7240D02*
X2948Y7724D01*
X3432Y6945D02*
X3432Y7240D01*
X7952Y7283D02*
X7952Y7471D01*
X8327Y7846D02*
X7952Y7471D01*
X8327Y8821D02*
X8327Y7846D01*
X8496Y8990D02*
X8327Y8821D01*
X8496Y10487D02*
X8496Y8990D01*
X7952Y11030D02*
X8496Y10487D01*
X7952Y7008D02*
X7952Y7146D01*
X7952Y7146D02*
X7952Y7283D01*
X7395Y6588D02*
X7395Y6578D01*
X7952Y7146D02*
X7395Y6588D01*
X6995Y6578D02*
X7395Y6578D01*
X1796Y13621D02*
X2865Y14689D01*
X1796Y9816D02*
X1796Y13621D01*
X2009Y9604D02*
X1796Y9816D01*
X2009Y7884D02*
X2009Y9604D01*
X2168Y7724D02*
X2009Y7884D01*
X8649Y14089D02*
X8000Y14089D01*
X6995Y6068D02*
X6595Y6068D01*
X7759Y14089D02*
X7759Y12935D01*
X8000Y14089D02*
X7759Y14089D01*
X7759Y14089D02*
X7350Y14089D01*
X6234Y6429D02*
X6595Y6068D01*
X6234Y6988D02*
X6234Y6429D01*
X5874Y7348D02*
X4895Y7348D01*
X6234Y6988D02*
X5874Y7348D01*
M02*
